<svg width="431" height="235" viewBox="0 0 431 235" fill="none" xmlns="http://www.w3.org/2000/svg">
<path d="M63.7208 214.172L63.7208 205.322L72.5709 205.322L72.5709 214.172L63.7208 214.172Z" fill="#3279CD"/>
<path d="M163.727 205.322L163.727 214.172L172.577 214.172L172.577 205.322L163.727 205.322Z" fill="#132634"/>
<path d="M251.343 214.172L251.343 205.322L260.193 205.322L260.193 214.172L251.343 214.172Z" fill="#457F92"/>
<path d="M332.764 214.172L332.764 205.322L341.614 205.322L341.614 214.172L332.764 214.172Z" fill="#204E83"/>
<path d="M349.933 181.427V181.003L351.623 179.206C352.225 178.563 352.62 178.089 352.807 177.784C352.997 177.479 353.092 177.139 353.092 176.764C353.092 176.361 352.98 176.048 352.755 175.827C352.531 175.602 352.212 175.489 351.8 175.489C351.253 175.489 350.737 175.704 350.253 176.133V175.667C350.726 175.307 351.259 175.126 351.852 175.126C352.382 175.126 352.79 175.269 353.075 175.554C353.363 175.839 353.507 176.221 353.507 176.699C353.507 177.126 353.405 177.512 353.2 177.858C352.996 178.203 352.559 178.732 351.891 179.443L350.374 181.047V181.064H353.473V181.427H349.933Z" fill="black"/>
<path d="M356.372 181.535C355.802 181.535 355.355 181.273 355.033 180.749C354.71 180.224 354.549 179.462 354.549 178.463C354.549 177.359 354.717 176.528 355.054 175.969C355.394 175.407 355.878 175.126 356.506 175.126C357.699 175.126 358.295 176.185 358.295 178.303C358.295 179.357 358.127 180.159 357.79 180.71C357.453 181.26 356.98 181.535 356.372 181.535ZM356.472 175.489C355.996 175.489 355.626 175.733 355.361 176.22C355.096 176.707 354.963 177.437 354.963 178.411C354.963 179.298 355.09 179.981 355.344 180.459C355.597 180.934 355.957 181.172 356.424 181.172C356.882 181.172 357.238 180.93 357.491 180.446C357.748 179.959 357.876 179.265 357.876 178.363C357.876 176.447 357.408 175.489 356.472 175.489Z" fill="black"/>
<path d="M359.06 181.427V181.003L360.75 179.206C361.352 178.563 361.747 178.089 361.934 177.784C362.124 177.479 362.219 177.139 362.219 176.764C362.219 176.361 362.107 176.048 361.882 175.827C361.657 175.602 361.339 175.489 360.927 175.489C360.38 175.489 359.864 175.704 359.38 176.133V175.667C359.852 175.307 360.385 175.126 360.979 175.126C361.509 175.126 361.916 175.269 362.202 175.554C362.49 175.839 362.634 176.221 362.634 176.699C362.634 177.126 362.532 177.512 362.327 177.858C362.122 178.203 361.686 178.732 361.018 179.443L359.501 181.047V181.064H362.599V181.427H359.06Z" fill="black"/>
<path d="M366.648 179.673V181.427H366.251V179.673H363.394V179.34L366.251 175.23H366.648V179.314H367.474V179.673H366.648ZM366.251 176.375C366.251 176.142 366.257 175.956 366.268 175.818H366.251C366.173 175.962 366.1 176.086 366.03 176.19L363.861 179.314H366.251V176.375Z" fill="black"/>
<path d="M351.349 165.497L351.349 115.051L366.394 115.051L366.394 165.497L351.349 165.497Z" fill="#3279CD"/>
<path d="M351.349 75.2258L351.349 115.051L366.394 115.051L366.394 75.2258L351.349 75.2258Z" fill="#132634"/>
<path d="M351.349 75.2258L351.349 46.9055L366.394 46.9055L366.394 75.2258L351.349 75.2258Z" fill="#457F92"/>
<path d="M351.349 46.9055L351.349 39.8254L366.394 39.8254L366.394 46.9055L351.349 46.9055Z" fill="#204E83"/>
<path d="M313.648 181.427V181.004L315.338 179.206C315.94 178.564 316.334 178.09 316.522 177.784C316.712 177.479 316.807 177.139 316.807 176.764C316.807 176.361 316.695 176.049 316.47 175.827C316.245 175.602 315.927 175.49 315.515 175.49C314.967 175.49 314.452 175.704 313.968 176.134V175.667C314.44 175.307 314.973 175.127 315.567 175.127C316.097 175.127 316.504 175.269 316.79 175.555C317.078 175.84 317.222 176.221 317.222 176.7C317.222 177.126 317.119 177.512 316.915 177.858C316.71 178.204 316.274 178.732 315.606 179.444L314.089 181.047V181.064H317.187V181.427H313.648Z" fill="black"/>
<path d="M320.087 181.535C319.516 181.535 319.07 181.273 318.747 180.749C318.425 180.224 318.263 179.462 318.263 178.463C318.263 177.359 318.432 176.528 318.769 175.969C319.109 175.408 319.593 175.127 320.221 175.127C321.413 175.127 322.01 176.185 322.01 178.303C322.01 179.357 321.841 180.16 321.504 180.71C321.167 181.26 320.695 181.535 320.087 181.535ZM320.186 175.49C319.711 175.49 319.341 175.733 319.076 176.22C318.811 176.707 318.678 177.437 318.678 178.411C318.678 179.298 318.805 179.981 319.058 180.459C319.312 180.935 319.672 181.172 320.139 181.172C320.597 181.172 320.953 180.93 321.206 180.446C321.462 179.959 321.591 179.265 321.591 178.363C321.591 176.448 321.122 175.49 320.186 175.49Z" fill="black"/>
<path d="M322.775 181.427V181.004L324.464 179.206C325.066 178.564 325.461 178.09 325.648 177.784C325.839 177.479 325.934 177.139 325.934 176.764C325.934 176.361 325.821 176.049 325.597 175.827C325.372 175.602 325.053 175.49 324.641 175.49C324.094 175.49 323.578 175.704 323.094 176.134V175.667C323.567 175.307 324.1 175.127 324.693 175.127C325.223 175.127 325.631 175.269 325.916 175.555C326.204 175.84 326.348 176.221 326.348 176.7C326.348 177.126 326.246 177.512 326.042 177.858C325.837 178.204 325.401 178.732 324.732 179.444L323.215 181.047V181.064H326.314V181.427H322.775Z" fill="black"/>
<path d="M327.481 181.207V180.753C327.953 181.033 328.398 181.172 328.816 181.172C329.314 181.172 329.705 181.046 329.987 180.792C330.269 180.536 330.41 180.201 330.41 179.789C330.41 179.331 330.248 178.984 329.922 178.748C329.6 178.512 329.139 178.394 328.539 178.394H328.064V178.031H328.487C329.041 178.031 329.461 177.914 329.749 177.681C330.04 177.444 330.186 177.112 330.186 176.682C330.186 176.311 330.081 176.02 329.87 175.809C329.66 175.596 329.353 175.49 328.95 175.49C328.561 175.49 328.153 175.625 327.727 175.896V175.472C328.194 175.242 328.621 175.127 329.01 175.127C329.5 175.127 329.888 175.259 330.173 175.524C330.461 175.789 330.605 176.141 330.605 176.579C330.605 177.417 330.203 177.95 329.399 178.178V178.195C329.831 178.238 330.177 178.399 330.436 178.679C330.696 178.955 330.825 179.305 330.825 179.729C330.825 180.271 330.638 180.707 330.264 181.038C329.889 181.37 329.404 181.535 328.807 181.535C328.346 181.535 327.904 181.426 327.481 181.207Z" fill="black"/>
<path d="M315.064 165.497L315.064 118.591L330.109 118.591L330.109 165.497L315.064 165.497Z" fill="#3279CD"/>
<path d="M315.064 83.1909L315.064 118.591L330.109 118.591L330.109 83.1909L315.064 83.1909Z" fill="#132634"/>
<path d="M315.064 83.1909L315.064 56.6406L330.109 56.6406L330.109 83.1909L315.064 83.1909Z" fill="#457F92"/>
<path d="M315.064 56.6406L315.064 49.5605L330.109 49.5605L330.109 56.6406L315.064 56.6406Z" fill="#204E83"/>
<path d="M277.363 181.427V181.004L279.052 179.206C279.654 178.564 280.049 178.09 280.236 177.784C280.426 177.479 280.521 177.139 280.521 176.764C280.521 176.361 280.409 176.049 280.184 175.827C279.96 175.602 279.641 175.49 279.229 175.49C278.682 175.49 278.166 175.704 277.682 176.134V175.667C278.155 175.307 278.688 175.127 279.281 175.127C279.811 175.127 280.219 175.269 280.504 175.555C280.792 175.84 280.936 176.221 280.936 176.7C280.936 177.126 280.834 177.512 280.629 177.858C280.425 178.204 279.988 178.732 279.32 179.444L277.803 181.047V181.064H280.902V181.427H277.363Z" fill="black"/>
<path d="M283.801 181.535C283.231 181.535 282.784 181.273 282.462 180.749C282.139 180.224 281.978 179.462 281.978 178.463C281.978 177.359 282.146 176.528 282.483 175.969C282.823 175.408 283.307 175.127 283.935 175.127C285.128 175.127 285.724 176.185 285.724 178.303C285.724 179.357 285.556 180.16 285.219 180.71C284.882 181.26 284.409 181.535 283.801 181.535ZM283.901 175.49C283.425 175.49 283.055 175.733 282.79 176.22C282.525 176.707 282.393 177.437 282.393 178.411C282.393 179.298 282.519 179.981 282.773 180.459C283.026 180.935 283.386 181.172 283.853 181.172C284.311 181.172 284.667 180.93 284.921 180.446C285.177 179.959 285.305 179.265 285.305 178.363C285.305 176.448 284.837 175.49 283.901 175.49Z" fill="black"/>
<path d="M286.489 181.427V181.004L288.179 179.206C288.781 178.564 289.176 178.09 289.363 177.784C289.553 177.479 289.648 177.139 289.648 176.764C289.648 176.361 289.536 176.049 289.311 175.827C289.086 175.602 288.768 175.49 288.356 175.49C287.809 175.49 287.293 175.704 286.809 176.134V175.667C287.281 175.307 287.814 175.127 288.408 175.127C288.938 175.127 289.346 175.269 289.631 175.555C289.919 175.84 290.063 176.221 290.063 176.7C290.063 177.126 289.961 177.512 289.756 177.858C289.552 178.204 289.115 178.732 288.447 179.444L286.93 181.047V181.064H290.028V181.427H286.489Z" fill="black"/>
<path d="M291.053 181.427V181.004L292.742 179.206C293.344 178.564 293.739 178.09 293.926 177.784C294.116 177.479 294.211 177.139 294.211 176.764C294.211 176.361 294.099 176.049 293.874 175.827C293.65 175.602 293.331 175.49 292.919 175.49C292.372 175.49 291.856 175.704 291.372 176.134V175.667C291.845 175.307 292.378 175.127 292.971 175.127C293.501 175.127 293.909 175.269 294.194 175.555C294.482 175.84 294.626 176.221 294.626 176.7C294.626 177.126 294.524 177.512 294.319 177.858C294.115 178.204 293.678 178.732 293.01 179.444L291.493 181.047V181.064H294.592V181.427H291.053Z" fill="black"/>
<path d="M278.778 165.497L278.778 122.131L293.823 122.131L293.823 165.497L278.778 165.497Z" fill="#3279CD"/>
<path d="M278.778 89.386L278.778 122.131L293.823 122.131L293.823 89.386L278.778 89.386Z" fill="#132634"/>
<path d="M278.778 89.386L278.778 66.3757L293.823 66.3757L293.823 89.386L278.778 89.386Z" fill="#457F92"/>
<path d="M278.778 66.3757L278.778 59.2957L293.823 59.2957L293.823 66.3757L278.778 66.3757Z" fill="#204E83"/>
<path d="M168.887 79.6508V79.2878H170.304V73.7565L168.787 74.2967V73.8991L170.702 73.2336V79.2878H172.097V79.6508H168.887Z" fill="black"/>
<path d="M173.07 79.6508V79.2273L174.759 77.4297C175.361 76.7872 175.756 76.3133 175.943 76.0079C176.133 75.7026 176.229 75.3626 176.229 74.9881C176.229 74.5848 176.116 74.2722 175.891 74.0504C175.667 73.8257 175.348 73.7133 174.936 73.7133C174.389 73.7133 173.873 73.9279 173.389 74.3572V73.8905C173.862 73.5304 174.395 73.3503 174.988 73.3503C175.518 73.3503 175.926 73.4929 176.211 73.7781C176.499 74.0633 176.643 74.4451 176.643 74.9233C176.643 75.3497 176.541 75.7357 176.337 76.0814C176.132 76.4271 175.696 76.9558 175.027 77.6673L173.51 79.2706V79.2878H176.609V79.6508H173.07Z" fill="black"/>
<path d="M178.26 79.7286C178.162 79.7286 178.079 79.6955 178.013 79.6292C177.947 79.5601 177.914 79.4765 177.914 79.3786C177.914 79.2778 177.947 79.1957 178.013 79.1323C178.079 79.066 178.162 79.0329 178.26 79.0329C178.357 79.0329 178.441 79.066 178.51 79.1323C178.579 79.1957 178.614 79.2778 178.614 79.3786C178.614 79.4765 178.579 79.5601 178.51 79.6292C178.441 79.6955 178.357 79.7286 178.26 79.7286Z" fill="black"/>
<path d="M180.887 79.6508H180.455L182.862 73.817H179.638V73.454H183.372V73.5621L180.887 79.6508Z" fill="black"/>
<path d="M85.3672 214.172L84.6585 212.245H81.9706L81.2619 214.172H80.7909L83.1287 207.976H83.5349L85.8469 214.172H85.3672ZM83.4658 208.987C83.4341 208.9 83.4082 208.815 83.388 208.732C83.3679 208.66 83.3462 208.588 83.3232 208.516H83.3059C83.2569 208.706 83.2094 208.86 83.1633 208.978L82.1219 211.852H84.5116L83.4658 208.987Z" fill="black"/>
<path d="M92.3591 214.172V211.51C92.3591 210.954 92.2713 210.564 92.0955 210.339C91.9227 210.115 91.6475 210.002 91.2701 210.002C90.9216 210.002 90.6205 210.152 90.367 210.452C90.1135 210.751 89.9867 211.127 89.9867 211.58V214.172H89.5891V211.48C89.5891 210.495 89.2146 210.002 88.4656 210.002C88.1055 210.002 87.8059 210.154 87.5668 210.456C87.3276 210.756 87.2081 211.145 87.2081 211.623V214.172H86.8105V209.747H87.2081V210.482H87.2254C87.5336 209.92 87.9845 209.639 88.5779 209.639C88.9006 209.639 89.1757 209.733 89.4033 209.92C89.6338 210.105 89.7894 210.348 89.87 210.65C90.0083 210.331 90.2057 210.083 90.4621 209.907C90.7213 209.729 91.0022 209.639 91.3047 209.639C92.2727 209.639 92.7567 210.239 92.7567 211.437V214.172H92.3591Z" fill="black"/>
<path d="M94.1827 211.977C94.1827 212.585 94.3224 213.06 94.6019 213.403C94.8842 213.746 95.2703 213.917 95.76 213.917C96.2555 213.917 96.7395 213.734 97.212 213.369V213.792C96.7539 214.118 96.2426 214.28 95.6779 214.28C95.1075 214.28 94.6465 214.076 94.2951 213.667C93.9436 213.258 93.7679 212.68 93.7679 211.934C93.7679 211.289 93.9508 210.746 94.3167 210.305C94.6854 209.861 95.1637 209.639 95.7514 209.639C96.3016 209.639 96.7237 209.832 97.0175 210.218C97.3114 210.604 97.4583 211.132 97.4583 211.8V211.977H94.1827ZM97.0435 211.614C97.0262 211.104 96.9037 210.708 96.6761 210.426C96.4485 210.143 96.1345 210.002 95.7341 210.002C95.3192 210.002 94.975 210.142 94.7013 210.421C94.4305 210.698 94.2634 211.096 94.2 211.614H97.0435Z" fill="black"/>
<path d="M100.643 210.162C100.511 210.067 100.355 210.02 100.176 210.02C99.8278 210.02 99.5354 210.2 99.2992 210.56C99.063 210.92 98.9448 211.431 98.9448 212.094V214.172H98.5559V209.747H98.9448V210.728H98.9621C99.063 210.391 99.2228 210.129 99.4418 209.942C99.6607 209.755 99.9143 209.661 100.202 209.661C100.367 209.661 100.513 209.687 100.643 209.739V210.162Z" fill="black"/>
<path d="M101.672 208.632C101.585 208.632 101.509 208.601 101.443 208.537C101.376 208.474 101.343 208.393 101.343 208.295C101.343 208.2 101.376 208.124 101.443 208.066C101.512 208.006 101.588 207.976 101.672 207.976C101.761 207.976 101.839 208.004 101.905 208.062C101.974 208.12 102.009 208.197 102.009 208.295C102.009 208.388 101.976 208.467 101.909 208.533C101.843 208.599 101.764 208.632 101.672 208.632ZM101.477 214.172V209.747H101.875V214.172H101.477Z" fill="black"/>
<path d="M106.157 213.978C105.829 214.18 105.437 214.28 104.982 214.28C104.38 214.28 103.894 214.074 103.525 213.662C103.157 213.248 102.972 212.706 102.972 212.038C102.972 211.335 103.18 210.76 103.595 210.313C104.009 209.864 104.542 209.639 105.193 209.639C105.531 209.639 105.858 209.708 106.174 209.847V210.296C105.858 210.1 105.51 210.002 105.133 210.002C104.614 210.002 104.194 210.19 103.871 210.564C103.549 210.936 103.387 211.418 103.387 212.012C103.387 212.585 103.534 213.046 103.828 213.395C104.125 213.743 104.515 213.917 104.999 213.917C105.443 213.917 105.829 213.799 106.157 213.563V213.978Z" fill="black"/>
<path d="M109.869 214.172V213.287H109.852C109.711 213.589 109.505 213.831 109.234 214.012C108.966 214.191 108.668 214.28 108.339 214.28C107.919 214.28 107.586 214.162 107.341 213.926C107.096 213.69 106.974 213.392 106.974 213.032C106.974 212.259 107.485 211.793 108.508 211.631L109.869 211.428C109.869 210.478 109.512 210.002 108.797 210.002C108.311 210.002 107.837 210.198 107.376 210.59V210.11C107.54 209.981 107.762 209.87 108.041 209.778C108.324 209.685 108.589 209.639 108.836 209.639C109.292 209.639 109.643 209.78 109.891 210.063C110.141 210.345 110.267 210.756 110.267 211.294V214.172H109.869ZM108.651 211.969C108.187 212.035 107.861 212.143 107.674 212.293C107.487 212.44 107.393 212.68 107.393 213.014C107.393 213.276 107.479 213.492 107.652 213.662C107.828 213.832 108.072 213.917 108.383 213.917C108.809 213.917 109.163 213.76 109.446 213.446C109.728 213.13 109.869 212.722 109.869 212.223V211.791L108.651 211.969Z" fill="black"/>
<path d="M114.605 214.172V211.597C114.605 210.534 114.222 210.002 113.456 210.002C113.03 210.002 112.679 210.159 112.406 210.473C112.132 210.784 111.995 211.17 111.995 211.631V214.172H111.598V209.747H111.995V210.551H112.013C112.335 209.943 112.839 209.639 113.525 209.639C114.003 209.639 114.369 209.799 114.623 210.119C114.876 210.436 115.003 210.89 115.003 211.48V214.172H114.605Z" fill="black"/>
<path d="M116.105 213.978V213.498C116.255 213.628 116.436 213.73 116.649 213.805C116.863 213.88 117.047 213.917 117.202 213.917C117.897 213.917 118.244 213.634 118.244 213.066C118.244 212.87 118.168 212.703 118.015 212.565C117.862 212.427 117.614 212.284 117.272 212.137C116.848 211.953 116.55 211.763 116.377 211.567C116.207 211.368 116.122 211.127 116.122 210.845C116.122 210.485 116.259 210.194 116.533 209.972C116.809 209.75 117.149 209.639 117.553 209.639C117.933 209.639 118.258 209.717 118.529 209.873V210.322C118.201 210.109 117.861 210.002 117.509 210.002C117.218 210.002 116.984 210.079 116.805 210.231C116.626 210.381 116.537 210.577 116.537 210.819C116.537 211.029 116.593 211.201 116.706 211.333C116.818 211.463 117.066 211.613 117.449 211.783C117.91 211.99 118.227 212.183 118.4 212.362C118.572 212.537 118.659 212.772 118.659 213.066C118.659 213.418 118.526 213.709 118.261 213.939C117.999 214.167 117.636 214.28 117.172 214.28C116.746 214.28 116.39 214.18 116.105 213.978Z" fill="black"/>
<path d="M181.337 214.172V207.976H184.233V208.369H181.765V210.854H184.055V211.243H181.765V213.783H184.375V214.172H181.337Z" fill="black"/>
<path d="M188.597 214.172V213.369H188.58C188.272 213.976 187.796 214.28 187.154 214.28C186.108 214.28 185.585 213.622 185.585 212.306V209.747H185.987V212.206C185.987 212.805 186.085 213.24 186.281 213.511C186.48 213.782 186.791 213.917 187.214 213.917C187.626 213.917 187.959 213.766 188.212 213.464C188.469 213.161 188.597 212.758 188.597 212.254V209.747H188.995V214.172H188.597Z" fill="black"/>
<path d="M192.499 210.162C192.367 210.067 192.211 210.02 192.033 210.02C191.684 210.02 191.392 210.2 191.155 210.56C190.919 210.92 190.801 211.431 190.801 212.094V214.172H190.412V209.747H190.801V210.728H190.818C190.919 210.391 191.079 210.129 191.298 209.942C191.517 209.755 191.77 209.661 192.058 209.661C192.223 209.661 192.37 209.687 192.499 209.739V210.162Z" fill="black"/>
<path d="M194.928 214.28C194.283 214.28 193.771 214.069 193.394 213.645C193.019 213.219 192.832 212.666 192.832 211.986C192.832 211.251 193.028 210.676 193.42 210.262C193.814 209.847 194.333 209.639 194.975 209.639C195.606 209.639 196.105 209.845 196.471 210.257C196.836 210.669 197.019 211.24 197.019 211.969C197.019 212.657 196.832 213.214 196.458 213.641C196.086 214.067 195.576 214.28 194.928 214.28ZM194.958 210.002C194.437 210.002 194.02 210.178 193.709 210.529C193.401 210.881 193.247 211.369 193.247 211.994C193.247 212.573 193.398 213.039 193.701 213.39C194.003 213.742 194.416 213.917 194.941 213.917C195.474 213.917 195.884 213.745 196.172 213.399C196.46 213.053 196.605 212.573 196.605 211.96C196.605 211.329 196.46 210.845 196.172 210.508C195.887 210.171 195.482 210.002 194.958 210.002Z" fill="black"/>
<path d="M198.536 213.386H198.519V216.208H198.121V209.747H198.519V210.659H198.536C198.695 210.334 198.921 210.083 199.215 209.907C199.511 209.729 199.837 209.639 200.191 209.639C200.753 209.639 201.191 209.834 201.505 210.223C201.822 210.609 201.98 211.134 201.98 211.8C201.98 212.54 201.799 213.14 201.436 213.598C201.076 214.053 200.599 214.28 200.005 214.28C199.343 214.28 198.853 213.982 198.536 213.386ZM198.519 211.739V212.297C198.519 212.741 198.659 213.122 198.938 213.442C199.217 213.759 199.585 213.917 200.04 213.917C200.492 213.917 200.86 213.724 201.142 213.338C201.424 212.949 201.565 212.44 201.565 211.809C201.565 211.255 201.436 210.816 201.176 210.491C200.917 210.165 200.571 210.002 200.139 210.002C199.624 210.002 199.225 210.175 198.942 210.521C198.66 210.867 198.519 211.273 198.519 211.739Z" fill="black"/>
<path d="M203.177 211.977C203.177 212.585 203.317 213.06 203.596 213.403C203.879 213.746 204.265 213.917 204.755 213.917C205.25 213.917 205.734 213.734 206.207 213.369V213.792C205.748 214.118 205.237 214.28 204.672 214.28C204.102 214.28 203.641 214.076 203.29 213.667C202.938 213.258 202.762 212.68 202.762 211.934C202.762 211.289 202.945 210.746 203.311 210.305C203.68 209.861 204.158 209.639 204.746 209.639C205.296 209.639 205.718 209.832 206.012 210.218C206.306 210.604 206.453 211.132 206.453 211.8V211.977H203.177ZM206.038 211.614C206.021 211.104 205.898 210.708 205.671 210.426C205.443 210.143 205.129 210.002 204.729 210.002C204.314 210.002 203.97 210.142 203.696 210.421C203.425 210.698 203.258 211.096 203.195 211.614H206.038Z" fill="black"/>
<path d="M272.989 214.173L272.281 212.245H269.593L268.884 214.173H268.413L270.751 207.976H271.157L273.469 214.173H272.989ZM271.088 208.987C271.056 208.901 271.03 208.816 271.01 208.732C270.99 208.66 270.968 208.588 270.945 208.516H270.928C270.879 208.706 270.832 208.86 270.786 208.978L269.744 211.852H272.134L271.088 208.987Z" fill="black"/>
<path d="M274.947 211.688V214.173H274.519V207.976H276.014C276.651 207.976 277.138 208.124 277.475 208.421C277.812 208.715 277.981 209.145 277.981 209.713C277.981 210.289 277.792 210.763 277.414 211.135C277.04 211.503 276.514 211.688 275.837 211.688H274.947ZM274.947 208.369V211.295H275.829C276.387 211.295 276.812 211.162 277.103 210.897C277.394 210.629 277.54 210.252 277.54 209.765C277.54 208.834 277.005 208.369 275.937 208.369H274.947Z" fill="black"/>
<path d="M282.332 214.173L281.623 212.245H278.936L278.227 214.173H277.756L280.094 207.976H280.5L282.812 214.173H282.332ZM280.431 208.987C280.399 208.901 280.373 208.816 280.353 208.732C280.333 208.66 280.311 208.588 280.288 208.516H280.271C280.222 208.706 280.174 208.86 280.128 208.978L279.087 211.852H281.476L280.431 208.987Z" fill="black"/>
<path d="M287.799 213.969C287.297 214.177 286.774 214.281 286.23 214.281C285.383 214.281 284.692 213.997 284.156 213.429C283.623 212.859 283.356 212.116 283.356 211.2C283.356 210.194 283.646 209.389 284.225 208.784C284.804 208.176 285.54 207.872 286.433 207.872C286.908 207.872 287.364 207.948 287.799 208.101V208.555C287.364 208.359 286.906 208.261 286.424 208.261C285.647 208.261 285.014 208.525 284.527 209.052C284.04 209.579 283.797 210.28 283.797 211.156C283.797 212 284.029 212.667 284.493 213.157C284.959 213.644 285.55 213.887 286.265 213.887C286.835 213.887 287.346 213.776 287.799 213.555V213.969Z" fill="black"/>
<path d="M68.552 36.2855L67.8433 34.3582H65.1554L64.4467 36.2855H63.9757L66.3136 30.0887H66.7198L69.0317 36.2855H68.552ZM66.6506 31.0999C66.6189 31.0135 66.593 30.9285 66.5728 30.845C66.5527 30.7729 66.5311 30.7009 66.508 30.6289H66.4907C66.4418 30.819 66.3942 30.9732 66.3481 31.0913L65.3067 33.965H67.6964L66.6506 31.0999Z" fill="black"/>
<path d="M73.5345 35.9571C73.5345 36.7897 73.353 37.399 72.99 37.785C72.627 38.1711 72.0624 38.3641 71.2961 38.3641C70.8697 38.3641 70.4303 38.2517 69.978 38.027V37.6122C70.4448 37.8715 70.887 38.0011 71.3047 38.0011C72.5262 38.0011 73.1369 37.3558 73.1369 36.0651V35.4904H73.1197C72.7711 36.0925 72.2395 36.3936 71.5251 36.3936C70.9806 36.3936 70.5355 36.1962 70.1898 35.8015C69.847 35.4069 69.6756 34.8566 69.6756 34.1508C69.6756 33.445 69.8614 32.8688 70.233 32.4222C70.6046 31.9757 71.0944 31.7524 71.7023 31.7524C72.3533 31.7524 72.8258 32.0218 73.1197 32.5605H73.1369V31.8605H73.5345V35.9571ZM73.1369 33.5588C73.1369 33.167 73.0044 32.8285 72.7394 32.5432C72.4772 32.258 72.1344 32.1154 71.7109 32.1154C71.224 32.1154 70.8322 32.2984 70.5355 32.6642C70.2388 33.0301 70.0904 33.5141 70.0904 34.1162C70.0904 34.7212 70.2258 35.1922 70.4966 35.5293C70.7703 35.8635 71.1304 36.0306 71.5769 36.0306C72.0523 36.0306 72.4311 35.8764 72.7135 35.5682C72.9958 35.2599 73.1369 34.8825 73.1369 34.436V33.5588Z" fill="black"/>
<path d="M77.0434 32.2753C76.9109 32.1803 76.7553 32.1327 76.5767 32.1327C76.2281 32.1327 75.9357 32.3128 75.6995 32.6729C75.4633 33.033 75.3452 33.5444 75.3452 34.207V36.2855H74.9562V31.8605H75.3452V32.8414H75.3624C75.4633 32.5044 75.6232 32.2422 75.8421 32.0549C76.0611 31.8677 76.3146 31.774 76.6027 31.774C76.7669 31.774 76.9138 31.8 77.0434 31.8518V32.2753Z" fill="black"/>
<path d="M78.0719 30.7456C77.9855 30.7456 77.9091 30.7139 77.8429 30.6505C77.7766 30.5871 77.7435 30.5065 77.7435 30.4085C77.7435 30.3134 77.7766 30.2371 77.8429 30.1795C77.912 30.119 77.9884 30.0887 78.0719 30.0887C78.1612 30.0887 78.239 30.1175 78.3053 30.1752C78.3744 30.2328 78.409 30.3106 78.409 30.4085C78.409 30.5007 78.3759 30.5799 78.3096 30.6462C78.2433 30.7124 78.1641 30.7456 78.0719 30.7456ZM77.8775 36.2855V31.8605H78.275V36.2855H77.8775Z" fill="black"/>
<path d="M82.5575 36.0911C82.229 36.2927 81.8372 36.3936 81.3821 36.3936C80.78 36.3936 80.2945 36.1876 79.9258 35.7756C79.557 35.3608 79.3726 34.8192 79.3726 34.1508C79.3726 33.4478 79.5801 32.8731 79.9949 32.4266C80.4098 31.9771 80.9427 31.7524 81.5938 31.7524C81.9309 31.7524 82.2579 31.8216 82.5748 31.9599V32.4093C82.2579 32.2134 81.9107 32.1154 81.5333 32.1154C81.0147 32.1154 80.5941 32.3027 80.2715 32.6772C79.9488 33.0488 79.7875 33.5314 79.7875 34.1249C79.7875 34.6982 79.9344 35.1591 80.2283 35.5077C80.525 35.8563 80.9154 36.0306 81.3993 36.0306C81.843 36.0306 82.229 35.9124 82.5575 35.6762V36.0911Z" fill="black"/>
<path d="M86.5461 36.2855V35.4818H86.5288C86.2205 36.0896 85.7452 36.3936 85.1027 36.3936C84.057 36.3936 83.5341 35.7353 83.5341 34.4187V31.8605H83.936V34.3193C83.936 34.9185 84.0339 35.3536 84.2298 35.6244C84.4286 35.8952 84.7397 36.0306 85.1632 36.0306C85.5752 36.0306 85.9079 35.8793 86.1615 35.5768C86.4179 35.2743 86.5461 34.871 86.5461 34.3669V31.8605H86.9436V36.2855H86.5461Z" fill="black"/>
<path d="M88.361 36.2855V29.7344H88.7586V36.2855H88.361Z" fill="black"/>
<path d="M91.9261 36.225C91.7187 36.323 91.5242 36.372 91.3427 36.372C90.6888 36.372 90.3618 35.9802 90.3618 35.1965V32.2235H89.5667V31.8605H90.3618V30.711C90.4252 30.688 90.4914 30.6649 90.5606 30.6419C90.6297 30.6217 90.696 30.6001 90.7594 30.577V31.8605H91.9261V32.2235H90.7594V35.1447C90.7594 35.4501 90.8069 35.6719 90.902 35.8102C90.9999 35.9456 91.1641 36.0133 91.3946 36.0133C91.5588 36.0133 91.736 35.96 91.9261 35.8534V36.225Z" fill="black"/>
<path d="M95.7246 36.2855V35.4818H95.7073C95.399 36.0896 94.9237 36.3936 94.2813 36.3936C93.2355 36.3936 92.7126 35.7353 92.7126 34.4187V31.8605H93.1145V34.3193C93.1145 34.9185 93.2124 35.3536 93.4083 35.6244C93.6071 35.8952 93.9183 36.0306 94.3418 36.0306C94.7537 36.0306 95.0865 35.8793 95.34 35.5768C95.5964 35.2743 95.7246 34.871 95.7246 34.3669V31.8605H96.1222V36.2855H95.7246Z" fill="black"/>
<path d="M99.6268 32.2753C99.4942 32.1803 99.3387 32.1327 99.16 32.1327C98.8115 32.1327 98.5191 32.3128 98.2828 32.6729C98.0466 33.033 97.9285 33.5444 97.9285 34.207V36.2855H97.5395V31.8605H97.9285V32.8414H97.9458C98.0466 32.5044 98.2065 32.2422 98.4254 32.0549C98.6444 31.8677 98.8979 31.774 99.186 31.774C99.3502 31.774 99.4971 31.8 99.6268 31.8518V32.2753Z" fill="black"/>
<path d="M100.374 34.0903C100.374 34.6982 100.514 35.1735 100.794 35.5163C101.076 35.8592 101.462 36.0306 101.952 36.0306C102.447 36.0306 102.931 35.8476 103.404 35.4818V35.9052C102.946 36.2308 102.434 36.3936 101.87 36.3936C101.299 36.3936 100.838 36.189 100.487 35.7799C100.135 35.3708 99.9595 34.7932 99.9595 34.0471C99.9595 33.4018 100.142 32.8587 100.508 32.4179C100.877 31.9743 101.355 31.7524 101.943 31.7524C102.493 31.7524 102.915 31.9455 103.209 32.3315C103.503 32.7175 103.65 33.2447 103.65 33.9131V34.0903H100.374ZM103.235 33.7273C103.218 33.2174 103.095 32.8213 102.868 32.5389C102.64 32.2566 102.326 32.1154 101.926 32.1154C101.511 32.1154 101.167 32.2552 100.893 32.5346C100.622 32.8112 100.455 33.2087 100.392 33.7273H103.235Z" fill="black"/>
<path d="M108.287 30.0887V30.4776H107.682V35.8966H108.287V36.2855H106.649V35.8966H107.254V30.4776H106.649V30.0887H108.287Z" fill="black"/>
<path d="M110.957 36.3936C110.312 36.3936 109.801 36.1818 109.423 35.7583C109.049 35.3319 108.861 34.7788 108.861 34.0989C108.861 33.3643 109.057 32.7896 109.449 32.3747C109.844 31.9599 110.362 31.7524 111.005 31.7524C111.636 31.7524 112.134 31.9584 112.5 32.3704C112.866 32.7824 113.049 33.3528 113.049 34.0816C113.049 34.7702 112.862 35.3276 112.487 35.754C112.115 36.1804 111.606 36.3936 110.957 36.3936ZM110.988 32.1154C110.466 32.1154 110.05 32.2912 109.739 32.6426C109.43 32.9941 109.276 33.4824 109.276 34.1076C109.276 34.6866 109.428 35.1519 109.73 35.5034C110.033 35.8548 110.446 36.0306 110.97 36.0306C111.503 36.0306 111.914 35.8577 112.202 35.512C112.49 35.1663 112.634 34.6866 112.634 34.073C112.634 33.4421 112.49 32.9581 112.202 32.621C111.917 32.284 111.512 32.1154 110.988 32.1154Z" fill="black"/>
<path d="M115.918 30.482V36.2855H115.495V30.482H113.706V30.0887H117.707V30.482H115.918Z" fill="black"/>
<path d="M126.657 36.2855V33.6236C126.657 33.0676 126.569 32.6772 126.393 32.4525C126.22 32.2278 125.945 32.1154 125.568 32.1154C125.219 32.1154 124.918 32.2652 124.665 32.5649C124.411 32.8645 124.284 33.2404 124.284 33.6927V36.2855H123.887V33.5933C123.887 32.6081 123.512 32.1154 122.763 32.1154C122.403 32.1154 122.103 32.2667 121.864 32.5692C121.625 32.8688 121.506 33.2577 121.506 33.7359V36.2855H121.108V31.8605H121.506V32.5951H121.523C121.831 32.0333 122.282 31.7524 122.876 31.7524C123.198 31.7524 123.473 31.8461 123.701 32.0333C123.931 32.2177 124.087 32.4611 124.168 32.7636C124.306 32.4439 124.503 32.1961 124.76 32.0204C125.019 31.8417 125.3 31.7524 125.602 31.7524C126.57 31.7524 127.054 32.3517 127.054 33.5501V36.2855H126.657Z" fill="black"/>
<path d="M131.03 36.2855V35.3997H131.013C130.871 35.7021 130.665 35.9441 130.395 36.1256C130.127 36.3043 129.829 36.3936 129.5 36.3936C129.08 36.3936 128.747 36.2754 128.502 36.0392C128.257 35.803 128.135 35.5048 128.135 35.1447C128.135 34.3726 128.646 33.9059 129.669 33.7446L131.03 33.5415C131.03 32.5908 130.673 32.1154 129.958 32.1154C129.471 32.1154 128.997 32.3113 128.537 32.7031V32.2235C128.701 32.0938 128.923 31.9829 129.202 31.8907C129.484 31.7985 129.749 31.7524 129.997 31.7524C130.452 31.7524 130.804 31.8936 131.052 32.1759C131.302 32.4583 131.427 32.8688 131.427 33.4075V36.2855H131.03ZM129.811 34.0816C129.347 34.1479 129.022 34.2559 128.835 34.4057C128.647 34.5527 128.554 34.7932 128.554 35.1274C128.554 35.3896 128.64 35.6056 128.813 35.7756C128.989 35.9456 129.232 36.0306 129.543 36.0306C129.97 36.0306 130.324 35.8736 130.606 35.5595C130.889 35.2426 131.03 34.835 131.03 34.3366V33.9045L129.811 34.0816Z" fill="black"/>
<path d="M134.846 32.2753C134.713 32.1803 134.558 32.1327 134.379 32.1327C134.03 32.1327 133.738 32.3128 133.502 32.6729C133.266 33.033 133.147 33.5444 133.147 34.207V36.2855H132.758V31.8605H133.147V32.8414H133.165C133.266 32.5044 133.425 32.2422 133.644 32.0549C133.863 31.8677 134.117 31.774 134.405 31.774C134.569 31.774 134.716 31.8 134.846 31.8518V32.2753Z" fill="black"/>
<path d="M138.212 36.2855L136.095 34.0989H136.077V36.2855H135.68V29.7344H136.077V33.9563H136.095L138.104 31.8605H138.618L136.518 34.0039L138.787 36.2855H138.212Z" fill="black"/>
<path d="M139.707 34.0903C139.707 34.6982 139.847 35.1735 140.126 35.5163C140.409 35.8592 140.795 36.0306 141.284 36.0306C141.78 36.0306 142.264 35.8476 142.736 35.4818V35.9052C142.278 36.2308 141.767 36.3936 141.202 36.3936C140.632 36.3936 140.171 36.189 139.82 35.7799C139.468 35.3708 139.292 34.7932 139.292 34.0471C139.292 33.4018 139.475 32.8587 139.841 32.4179C140.21 31.9743 140.688 31.7524 141.276 31.7524C141.826 31.7524 142.248 31.9455 142.542 32.3315C142.836 32.7175 142.983 33.2447 142.983 33.9131V34.0903H139.707ZM142.568 33.7273C142.551 33.2174 142.428 32.8213 142.201 32.5389C141.973 32.2566 141.659 32.1154 141.259 32.1154C140.844 32.1154 140.499 32.2552 140.226 32.5346C139.955 32.8112 139.788 33.2087 139.724 33.7273H142.568Z" fill="black"/>
<path d="M145.831 36.225C145.623 36.323 145.429 36.372 145.247 36.372C144.593 36.372 144.266 35.9802 144.266 35.1965V32.2235H143.471V31.8605H144.266V30.711C144.33 30.688 144.396 30.6649 144.465 30.6419C144.534 30.6217 144.6 30.6001 144.664 30.577V31.8605H145.831V32.2235H144.664V35.1447C144.664 35.4501 144.711 35.6719 144.806 35.8102C144.904 35.9456 145.069 36.0133 145.299 36.0133C145.463 36.0133 145.64 35.96 145.831 35.8534V36.225Z" fill="black"/>
<path d="M146.539 37.3572H146.202L146.85 35.3046H147.291L146.539 37.3572Z" fill="black"/>
<path d="M151.522 35.499H151.504V36.2855H151.107V29.7344H151.504V32.7723H151.522C151.68 32.4467 151.906 32.1961 152.2 32.0204C152.497 31.8417 152.822 31.7524 153.177 31.7524C153.739 31.7524 154.176 31.9469 154.49 32.3358C154.807 32.7219 154.966 33.2476 154.966 33.9131C154.966 34.6535 154.783 35.2527 154.417 35.7108C154.051 36.166 153.576 36.3936 152.991 36.3936C152.328 36.3936 151.839 36.0954 151.522 35.499ZM151.504 33.8526V34.4101C151.504 34.8537 151.644 35.2354 151.924 35.5552C152.203 35.8721 152.57 36.0306 153.026 36.0306C153.478 36.0306 153.845 35.8375 154.127 35.4515C154.41 35.0626 154.551 34.5527 154.551 33.9218C154.551 33.3686 154.421 32.9293 154.162 32.6037C153.903 32.2782 153.557 32.1154 153.125 32.1154C152.609 32.1154 152.21 32.2883 151.928 32.634C151.646 32.9797 151.504 33.3859 151.504 33.8526Z" fill="black"/>
<path d="M157.148 37.1887C156.987 37.5862 156.808 37.8815 156.612 38.0746C156.416 38.2676 156.164 38.3641 155.856 38.3641C155.726 38.3641 155.611 38.3439 155.51 38.3036V37.906C155.614 37.9464 155.735 37.9665 155.873 37.9665C156.228 37.9665 156.507 37.7217 156.712 37.2319L157.122 36.251L155.445 31.8605H155.891L157.226 35.4645C157.255 35.5423 157.275 35.6013 157.286 35.6416C157.298 35.6964 157.311 35.7454 157.325 35.7886H157.343L157.446 35.4904L158.872 31.8605H159.304L157.148 37.1887Z" fill="black"/>
<path d="M164.594 32.2753C164.461 32.1803 164.306 32.1327 164.127 32.1327C163.778 32.1327 163.486 32.3128 163.25 32.6729C163.014 33.033 162.895 33.5444 162.895 34.207V36.2855H162.507V31.8605H162.895V32.8414H162.913C163.014 32.5044 163.173 32.2422 163.392 32.0549C163.611 31.8677 163.865 31.774 164.153 31.774C164.317 31.774 164.464 31.8 164.594 31.8518V32.2753Z" fill="black"/>
<path d="M165.341 34.0903C165.341 34.6982 165.481 35.1735 165.761 35.5163C166.043 35.8592 166.429 36.0306 166.919 36.0306C167.414 36.0306 167.898 35.8476 168.371 35.4818V35.9052C167.913 36.2308 167.401 36.3936 166.837 36.3936C166.266 36.3936 165.805 36.189 165.454 35.7799C165.102 35.3708 164.927 34.7932 164.927 34.0471C164.927 33.4018 165.109 32.8587 165.475 32.4179C165.844 31.9743 166.322 31.7524 166.91 31.7524C167.46 31.7524 167.882 31.9455 168.176 32.3315C168.47 32.7175 168.617 33.2447 168.617 33.9131V34.0903H165.341ZM168.202 33.7273C168.185 33.2174 168.062 32.8213 167.835 32.5389C167.607 32.2566 167.293 32.1154 166.893 32.1154C166.478 32.1154 166.134 32.2552 165.86 32.5346C165.589 32.8112 165.422 33.2087 165.359 33.7273H168.202Z" fill="black"/>
<path d="M173.254 35.9571C173.254 36.7897 173.072 37.399 172.709 37.785C172.346 38.1711 171.782 38.3641 171.015 38.3641C170.589 38.3641 170.15 38.2517 169.697 38.027V37.6122C170.164 37.8715 170.606 38.0011 171.024 38.0011C172.245 38.0011 172.856 37.3558 172.856 36.0651V35.4904H172.839C172.49 36.0925 171.959 36.3936 171.244 36.3936C170.7 36.3936 170.255 36.1962 169.909 35.8015C169.566 35.4069 169.395 34.8566 169.395 34.1508C169.395 33.445 169.581 32.8688 169.952 32.4222C170.324 31.9757 170.814 31.7524 171.421 31.7524C172.073 31.7524 172.545 32.0218 172.839 32.5605H172.856V31.8605H173.254V35.9571ZM172.856 33.5588C172.856 33.167 172.724 32.8285 172.459 32.5432C172.196 32.258 171.854 32.1154 171.43 32.1154C170.943 32.1154 170.551 32.2984 170.255 32.6642C169.958 33.0301 169.81 33.5141 169.81 34.1162C169.81 34.7212 169.945 35.1922 170.216 35.5293C170.49 35.8635 170.85 36.0306 171.296 36.0306C171.772 36.0306 172.15 35.8764 172.433 35.5682C172.715 35.2599 172.856 34.8825 172.856 34.436V33.5588Z" fill="black"/>
<path d="M174.87 30.7456C174.783 30.7456 174.707 30.7139 174.641 30.6505C174.575 30.5871 174.541 30.5065 174.541 30.4085C174.541 30.3134 174.575 30.2371 174.641 30.1795C174.71 30.119 174.786 30.0887 174.87 30.0887C174.959 30.0887 175.037 30.1175 175.103 30.1752C175.172 30.2328 175.207 30.3106 175.207 30.4085C175.207 30.5007 175.174 30.5799 175.108 30.6462C175.041 30.7124 174.962 30.7456 174.87 30.7456ZM174.675 36.2855V31.8605H175.073V36.2855H174.675Z" fill="black"/>
<path d="M178.266 36.3936C177.621 36.3936 177.11 36.1818 176.732 35.7583C176.358 35.3319 176.171 34.7788 176.171 34.0989C176.171 33.3643 176.367 32.7896 176.758 32.3747C177.153 31.9599 177.672 31.7524 178.314 31.7524C178.945 31.7524 179.443 31.9584 179.809 32.3704C180.175 32.7824 180.358 33.3528 180.358 34.0816C180.358 34.7702 180.171 35.3276 179.796 35.754C179.425 36.1804 178.915 36.3936 178.266 36.3936ZM178.297 32.1154C177.775 32.1154 177.359 32.2912 177.048 32.6426C176.74 32.9941 176.585 33.4824 176.585 34.1076C176.585 34.6866 176.737 35.1519 177.039 35.5034C177.342 35.8548 177.755 36.0306 178.279 36.0306C178.812 36.0306 179.223 35.8577 179.511 35.512C179.799 35.1663 179.943 34.6866 179.943 34.073C179.943 33.4421 179.799 32.9581 179.511 32.621C179.226 32.284 178.821 32.1154 178.297 32.1154Z" fill="black"/>
<path d="M184.468 36.2855V33.71C184.468 32.647 184.084 32.1154 183.318 32.1154C182.892 32.1154 182.542 32.2724 182.268 32.5865C181.994 32.8976 181.858 33.2836 181.858 33.7446V36.2855H181.46V31.8605H181.858V32.6642H181.875C182.197 32.0564 182.702 31.7524 183.387 31.7524C183.866 31.7524 184.231 31.9123 184.485 32.2321C184.738 32.549 184.865 33.0027 184.865 33.5933V36.2855H184.468Z" fill="black"/>
<path d="M189.874 37.6943C189.001 36.6744 188.564 35.4198 188.564 33.9304C188.564 32.3747 189.006 31.0942 189.891 30.0887H190.314C189.413 31.1258 188.962 32.4035 188.962 33.9218C188.962 35.3536 189.407 36.6111 190.297 37.6943H189.874Z" fill="black"/>
<path d="M195.431 33.8094C195.431 35.5322 194.696 36.3936 193.227 36.3936C191.83 36.3936 191.131 35.5639 191.131 33.9045V30.0887H191.555V33.844C191.555 35.2815 192.139 36.0003 193.309 36.0003C194.441 36.0003 195.007 35.3017 195.007 33.9045V30.0887H195.431V33.8094Z" fill="black"/>
<path d="M196.753 36.0651V35.5768C197.197 35.8592 197.646 36.0003 198.101 36.0003C198.585 36.0003 198.953 35.9009 199.203 35.7021C199.454 35.5005 199.579 35.2196 199.579 34.8595C199.579 34.5426 199.494 34.2905 199.324 34.1032C199.157 33.9131 198.793 33.6553 198.231 33.3297C197.603 32.9639 197.205 32.6585 197.038 32.4136C196.871 32.1658 196.788 31.8806 196.788 31.558C196.788 31.1201 196.958 30.7484 197.298 30.4431C197.638 30.1377 198.091 29.985 198.659 29.985C199.028 29.985 199.396 30.047 199.765 30.1708V30.6202C199.402 30.456 199.015 30.3739 198.603 30.3739C198.182 30.3739 197.848 30.4805 197.6 30.6937C197.355 30.9069 197.233 31.1777 197.233 31.5061C197.233 31.823 197.316 32.0751 197.483 32.2624C197.653 32.4496 198.018 32.7046 198.577 33.0272C199.156 33.3557 199.54 33.6481 199.731 33.9045C199.924 34.158 200.02 34.4504 200.02 34.7817C200.02 35.257 199.854 35.6445 199.523 35.9441C199.195 36.2438 198.729 36.3936 198.127 36.3936C197.914 36.3936 197.668 36.3604 197.388 36.2942C197.112 36.2279 196.9 36.1516 196.753 36.0651Z" fill="black"/>
<path d="M201.347 36.2855V30.0887H202.898C203.927 30.0887 204.709 30.3451 205.245 30.8579C205.78 31.3707 206.048 32.1183 206.048 33.1007C206.048 34.0456 205.76 34.8134 205.184 35.404C204.611 35.9917 203.819 36.2855 202.807 36.2855H201.347ZM201.775 30.482V35.8966H202.747C203.666 35.8966 204.372 35.6589 204.864 35.1836C205.357 34.7054 205.603 34.0168 205.603 33.118C205.603 31.3606 204.68 30.482 202.833 30.482H201.775Z" fill="black"/>
<path d="M210.067 35.499H210.05V36.2855H209.652V29.7344H210.05V32.7723H210.067C210.226 32.4467 210.452 32.1961 210.746 32.0204C211.042 31.8417 211.368 31.7524 211.722 31.7524C212.284 31.7524 212.722 31.9469 213.036 32.3358C213.353 32.7219 213.511 33.2476 213.511 33.9131C213.511 34.6535 213.328 35.2527 212.963 35.7108C212.597 36.166 212.121 36.3936 211.536 36.3936C210.874 36.3936 210.384 36.0954 210.067 35.499ZM210.05 33.8526V34.4101C210.05 34.8537 210.19 35.2354 210.469 35.5552C210.749 35.8721 211.116 36.0306 211.571 36.0306C212.023 36.0306 212.391 35.8375 212.673 35.4515C212.955 35.0626 213.096 34.5527 213.096 33.9218C213.096 33.3686 212.967 32.9293 212.708 32.6037C212.448 32.2782 212.103 32.1154 211.67 32.1154C211.155 32.1154 210.756 32.2883 210.473 32.634C210.191 32.9797 210.05 33.3859 210.05 33.8526Z" fill="black"/>
<path d="M214.808 30.7456C214.721 30.7456 214.645 30.7139 214.579 30.6505C214.512 30.5871 214.479 30.5065 214.479 30.4085C214.479 30.3134 214.512 30.2371 214.579 30.1795C214.648 30.119 214.724 30.0887 214.808 30.0887C214.897 30.0887 214.975 30.1175 215.041 30.1752C215.11 30.2328 215.145 30.3106 215.145 30.4085C215.145 30.5007 215.112 30.5799 215.045 30.6462C214.979 30.7124 214.9 30.7456 214.808 30.7456ZM214.613 36.2855V31.8605H215.011V36.2855H214.613Z" fill="black"/>
<path d="M216.428 36.2855V29.7344H216.826V36.2855H216.428Z" fill="black"/>
<path d="M218.243 36.2855V29.7344H218.641V36.2855H218.243Z" fill="black"/>
<path d="M220.253 30.7456C220.166 30.7456 220.09 30.7139 220.024 30.6505C219.957 30.5871 219.924 30.5065 219.924 30.4085C219.924 30.3134 219.957 30.2371 220.024 30.1795C220.093 30.119 220.169 30.0887 220.253 30.0887C220.342 30.0887 220.42 30.1175 220.486 30.1752C220.555 30.2328 220.59 30.3106 220.59 30.4085C220.59 30.5007 220.557 30.5799 220.49 30.6462C220.424 30.7124 220.345 30.7456 220.253 30.7456ZM220.058 36.2855V31.8605H220.456V36.2855H220.058Z" fill="black"/>
<path d="M223.649 36.3936C223.004 36.3936 222.493 36.1818 222.115 35.7583C221.741 35.3319 221.553 34.7788 221.553 34.0989C221.553 33.3643 221.749 32.7896 222.141 32.3747C222.536 31.9599 223.054 31.7524 223.697 31.7524C224.328 31.7524 224.826 31.9584 225.192 32.3704C225.558 32.7824 225.741 33.3528 225.741 34.0816C225.741 34.7702 225.553 35.3276 225.179 35.754C224.807 36.1804 224.297 36.3936 223.649 36.3936ZM223.679 32.1154C223.158 32.1154 222.742 32.2912 222.431 32.6426C222.122 32.9941 221.968 33.4824 221.968 34.1076C221.968 34.6866 222.119 35.1519 222.422 35.5034C222.724 35.8548 223.138 36.0306 223.662 36.0306C224.195 36.0306 224.606 35.8577 224.894 35.512C225.182 35.1663 225.326 34.6866 225.326 34.073C225.326 33.4421 225.182 32.9581 224.894 32.621C224.609 32.284 224.204 32.1154 223.679 32.1154Z" fill="black"/>
<path d="M229.85 36.2855V33.71C229.85 32.647 229.467 32.1154 228.701 32.1154C228.274 32.1154 227.924 32.2724 227.651 32.5865C227.377 32.8976 227.24 33.2836 227.24 33.7446V36.2855H226.843V31.8605H227.24V32.6642H227.258C227.58 32.0564 228.084 31.7524 228.77 31.7524C229.248 31.7524 229.614 31.9123 229.868 32.2321C230.121 32.549 230.248 33.0027 230.248 33.5933V36.2855H229.85Z" fill="black"/>
<path d="M231.41 37.6943H230.987C231.877 36.6111 232.322 35.3536 232.322 33.9218C232.322 32.4035 231.871 31.1258 230.97 30.0887H231.393C232.277 31.0999 232.72 32.3805 232.72 33.9304C232.72 35.4256 232.283 36.6802 231.41 37.6943Z" fill="black"/>
<path d="M353.546 214.172L352.721 212.357C352.551 211.983 352.381 211.732 352.211 211.606C352.041 211.476 351.828 211.411 351.571 211.411H350.802V214.172H350.374V207.976H352.094C352.641 207.976 353.071 208.124 353.382 208.421C353.696 208.715 353.853 209.103 353.853 209.587C353.853 210.034 353.725 210.407 353.468 210.707C353.212 211.006 352.853 211.199 352.392 211.286V211.303C352.637 211.401 352.876 211.699 353.11 212.198L354.03 214.172H353.546ZM350.802 208.369V211.022H351.869C352.342 211.022 352.716 210.898 352.993 210.65C353.272 210.403 353.412 210.063 353.412 209.631C353.412 209.236 353.287 208.928 353.036 208.706C352.785 208.481 352.427 208.369 351.96 208.369H350.802Z" fill="black"/>
<path d="M356.981 214.28C356.336 214.28 355.825 214.069 355.447 213.645C355.073 213.219 354.886 212.666 354.886 211.986C354.886 211.251 355.082 210.676 355.473 210.262C355.868 209.847 356.387 209.639 357.029 209.639C357.66 209.639 358.158 209.845 358.524 210.257C358.89 210.669 359.073 211.24 359.073 211.969C359.073 212.657 358.886 213.214 358.511 213.641C358.14 214.067 357.63 214.28 356.981 214.28ZM357.012 210.002C356.49 210.002 356.074 210.178 355.763 210.529C355.455 210.881 355.3 211.369 355.3 211.994C355.3 212.573 355.452 213.039 355.754 213.39C356.057 213.742 356.47 213.917 356.994 213.917C357.527 213.917 357.938 213.745 358.226 213.399C358.514 213.053 358.658 212.573 358.658 211.96C358.658 211.329 358.514 210.845 358.226 210.508C357.941 210.171 357.536 210.002 357.012 210.002Z" fill="black"/>
<path d="M365.352 214.172H364.998L363.619 209.51C363.55 209.271 363.511 209.076 363.502 208.926H363.485C363.476 209.053 363.432 209.245 363.351 209.501L361.882 214.172H361.528L359.687 207.976H360.166L361.579 212.941C361.643 213.166 361.687 213.348 361.713 213.49H361.731C361.748 213.383 361.798 213.2 361.882 212.941L363.412 207.976H363.628L365.032 212.941C365.098 213.171 365.143 213.354 365.166 213.49H365.183C365.198 213.409 365.221 213.317 365.253 213.213L366.704 207.976H367.167L365.352 214.172Z" fill="black"/>
<path d="M350.818 32.7453V32.3218L352.508 30.5242C353.11 29.8817 353.505 29.4078 353.692 29.1024C353.882 28.7971 353.977 28.4571 353.977 28.0826C353.977 27.6793 353.865 27.3667 353.64 27.1449C353.416 26.9202 353.097 26.8078 352.685 26.8078C352.138 26.8078 351.622 27.0224 351.138 27.4517V26.985C351.611 26.6249 352.144 26.4448 352.737 26.4448C353.267 26.4448 353.675 26.5874 353.96 26.8726C354.248 27.1578 354.392 27.5396 354.392 28.0178C354.392 28.4442 354.29 28.8302 354.085 29.1759C353.881 29.5216 353.444 30.0503 352.776 30.7618L351.259 32.3651V32.3823H354.358V32.7453H350.818Z" fill="black"/>
<path d="M357.257 32.8534C356.687 32.8534 356.24 32.5912 355.918 32.0669C355.595 31.5426 355.434 30.7806 355.434 29.7809C355.434 28.6775 355.602 27.8464 355.939 27.2875C356.279 26.7257 356.763 26.4448 357.391 26.4448C358.584 26.4448 359.18 27.5036 359.18 29.621C359.18 30.6754 359.012 31.4777 358.675 32.028C358.338 32.5782 357.865 32.8534 357.257 32.8534ZM357.357 26.8078C356.881 26.8078 356.511 27.0513 356.246 27.5381C355.981 28.025 355.848 28.7553 355.848 29.729C355.848 30.6164 355.975 31.2991 356.229 31.7774C356.482 32.2527 356.842 32.4904 357.309 32.4904C357.767 32.4904 358.123 32.2484 358.376 31.7644C358.633 31.2775 358.761 30.5832 358.761 29.6815C358.761 27.7657 358.293 26.8078 357.357 26.8078Z" fill="black"/>
<path d="M360.572 32.8231C360.474 32.8231 360.392 32.79 360.325 32.7237C360.259 32.6546 360.226 32.571 360.226 32.4731C360.226 32.3723 360.259 32.2902 360.325 32.2268C360.392 32.1605 360.474 32.1274 360.572 32.1274C360.67 32.1274 360.753 32.1605 360.822 32.2268C360.891 32.2902 360.926 32.3723 360.926 32.4731C360.926 32.571 360.891 32.6546 360.822 32.7237C360.753 32.79 360.67 32.8231 360.572 32.8231Z" fill="black"/>
<path d="M362.33 32.6935V32.257C362.662 32.4126 362.966 32.4904 363.242 32.4904C363.896 32.4904 364.395 32.2297 364.737 31.7082C365.08 31.1839 365.252 30.4118 365.252 29.392H365.234C364.949 30.0575 364.442 30.3902 363.713 30.3902C363.206 30.3902 362.794 30.213 362.477 29.8587C362.16 29.5015 362.002 29.0448 362.002 28.4888C362.002 27.8781 362.178 27.3854 362.529 27.0109C362.884 26.6335 363.332 26.4448 363.873 26.4448C364.426 26.4448 364.863 26.6796 365.183 27.1492C365.505 27.6159 365.667 28.316 365.667 29.2494C365.667 30.4075 365.458 31.2977 365.04 31.92C364.625 32.5422 364.023 32.8534 363.234 32.8534C362.928 32.8534 362.627 32.8001 362.33 32.6935ZM363.817 26.8078C363.411 26.8078 363.077 26.9591 362.814 27.2616C362.552 27.5641 362.421 27.9458 362.421 28.4067C362.421 28.908 362.549 29.3041 362.806 29.5951C363.062 29.8832 363.396 30.0272 363.808 30.0272C364.189 30.0272 364.516 29.8889 364.789 29.6124C365.063 29.3329 365.2 29.0002 365.2 28.6141C365.2 28.0812 365.07 27.6476 364.811 27.3134C364.555 26.9763 364.223 26.8078 363.817 26.8078Z" fill="black"/>
<path d="M241.077 181.427V181.004L242.767 179.206C243.369 178.564 243.764 178.09 243.951 177.784C244.141 177.479 244.236 177.139 244.236 176.764C244.236 176.361 244.124 176.049 243.899 175.827C243.674 175.602 243.356 175.49 242.944 175.49C242.397 175.49 241.881 175.704 241.397 176.134V175.667C241.869 175.307 242.402 175.127 242.996 175.127C243.526 175.127 243.934 175.269 244.219 175.554C244.507 175.84 244.651 176.221 244.651 176.7C244.651 177.126 244.549 177.512 244.344 177.858C244.14 178.203 243.703 178.732 243.035 179.444L241.518 181.047V181.064H244.616V181.427H241.077Z" fill="black"/>
<path d="M247.516 181.535C246.946 181.535 246.499 181.273 246.176 180.749C245.854 180.224 245.692 179.462 245.692 178.463C245.692 177.359 245.861 176.528 246.198 175.969C246.538 175.408 247.022 175.127 247.65 175.127C248.843 175.127 249.439 176.185 249.439 178.303C249.439 179.357 249.27 180.16 248.933 180.71C248.596 181.26 248.124 181.535 247.516 181.535ZM247.615 175.49C247.14 175.49 246.77 175.733 246.505 176.22C246.24 176.707 246.107 177.437 246.107 178.411C246.107 179.298 246.234 179.981 246.487 180.459C246.741 180.935 247.101 181.172 247.568 181.172C248.026 181.172 248.382 180.93 248.635 180.446C248.892 179.959 249.02 179.265 249.02 178.363C249.02 176.448 248.552 175.49 247.615 175.49Z" fill="black"/>
<path d="M250.204 181.427V181.004L251.893 179.206C252.496 178.564 252.89 178.09 253.078 177.784C253.268 177.479 253.363 177.139 253.363 176.764C253.363 176.361 253.25 176.049 253.026 175.827C252.801 175.602 252.483 175.49 252.071 175.49C251.523 175.49 251.008 175.704 250.524 176.134V175.667C250.996 175.307 251.529 175.127 252.122 175.127C252.653 175.127 253.06 175.269 253.345 175.554C253.634 175.84 253.778 176.221 253.778 176.7C253.778 177.126 253.675 177.512 253.471 177.858C253.266 178.203 252.83 178.732 252.161 179.444L250.645 181.047V181.064H253.743V181.427H250.204Z" fill="black"/>
<path d="M255.147 181.427V181.064H256.565V175.533L255.048 176.073V175.675L256.962 175.01V181.064H258.358V181.427H255.147Z" fill="black"/>
<path d="M242.493 165.497L242.493 125.671L257.538 125.671L257.538 165.497L242.493 165.497Z" fill="#3279CD"/>
<path d="M242.493 96.4661L242.493 125.671L257.538 125.671L257.538 96.4661L242.493 96.4661Z" fill="#132634"/>
<path d="M242.493 96.4661L242.493 75.2258L257.538 75.2258L257.538 96.4661L242.493 96.4661Z" fill="#457F92"/>
<path d="M242.493 75.2258L242.493 68.1457L257.538 68.1457L257.538 75.2258L242.493 75.2258Z" fill="#204E83"/>
<path d="M204.792 181.427V181.004L206.481 179.206C207.083 178.564 207.478 178.09 207.665 177.784C207.856 177.479 207.951 177.139 207.951 176.764C207.951 176.361 207.838 176.049 207.614 175.827C207.389 175.602 207.071 175.49 206.659 175.49C206.111 175.49 205.596 175.704 205.112 176.134V175.667C205.584 175.307 206.117 175.127 206.71 175.127C207.241 175.127 207.648 175.269 207.933 175.555C208.221 175.84 208.365 176.221 208.365 176.7C208.365 177.126 208.263 177.512 208.059 177.858C207.854 178.204 207.418 178.732 206.749 179.444L205.233 181.047V181.064H208.331V181.427H204.792Z" fill="black"/>
<path d="M211.231 181.535C210.66 181.535 210.214 181.273 209.891 180.749C209.568 180.224 209.407 179.462 209.407 178.463C209.407 177.359 209.575 176.528 209.913 175.969C210.252 175.408 210.736 175.127 211.365 175.127C212.557 175.127 213.154 176.185 213.154 178.303C213.154 179.357 212.985 180.16 212.648 180.71C212.311 181.26 211.838 181.535 211.231 181.535ZM211.33 175.49C210.855 175.49 210.484 175.733 210.219 176.22C209.954 176.707 209.822 177.437 209.822 178.411C209.822 179.298 209.949 179.981 210.202 180.459C210.456 180.935 210.816 181.172 211.282 181.172C211.74 181.172 212.096 180.93 212.35 180.446C212.606 179.959 212.734 179.265 212.734 178.363C212.734 176.448 212.266 175.49 211.33 175.49Z" fill="black"/>
<path d="M213.918 181.427V181.004L215.608 179.206C216.21 178.564 216.605 178.09 216.792 177.784C216.982 177.479 217.077 177.139 217.077 176.764C217.077 176.361 216.965 176.049 216.74 175.827C216.516 175.602 216.197 175.49 215.785 175.49C215.238 175.49 214.722 175.704 214.238 176.134V175.667C214.711 175.307 215.244 175.127 215.837 175.127C216.367 175.127 216.775 175.269 217.06 175.555C217.348 175.84 217.492 176.221 217.492 176.7C217.492 177.126 217.39 177.512 217.185 177.858C216.981 178.204 216.544 178.732 215.876 179.444L214.359 181.047V181.064H217.458V181.427H213.918Z" fill="black"/>
<path d="M220.357 181.535C219.787 181.535 219.34 181.273 219.018 180.749C218.695 180.224 218.534 179.462 218.534 178.463C218.534 177.359 218.702 176.528 219.039 175.969C219.379 175.408 219.863 175.127 220.491 175.127C221.684 175.127 222.28 176.185 222.28 178.303C222.28 179.357 222.112 180.16 221.775 180.71C221.438 181.26 220.965 181.535 220.357 181.535ZM220.457 175.49C219.981 175.49 219.611 175.733 219.346 176.22C219.081 176.707 218.948 177.437 218.948 178.411C218.948 179.298 219.075 179.981 219.329 180.459C219.582 180.935 219.942 181.172 220.409 181.172C220.867 181.172 221.223 180.93 221.476 180.446C221.733 179.959 221.861 179.265 221.861 178.363C221.861 176.448 221.393 175.49 220.457 175.49Z" fill="black"/>
<path d="M206.207 165.497L206.207 130.096L221.253 130.096L221.253 165.497L206.207 165.497Z" fill="#3279CD"/>
<path d="M206.207 102.661L206.207 130.096L221.253 130.096L221.253 102.661L206.207 102.661Z" fill="#132634"/>
<path d="M206.207 102.661L206.207 83.1909L221.253 83.1909L221.253 102.661L206.207 102.661Z" fill="#457F92"/>
<path d="M206.207 83.1909L206.207 77.8809L221.253 77.8809L221.253 83.1909L206.207 83.1909Z" fill="#204E83"/>
<path d="M168.506 181.427V181.004L170.196 179.206C170.798 178.564 171.193 178.09 171.38 177.784C171.57 177.479 171.665 177.139 171.665 176.764C171.665 176.361 171.553 176.049 171.328 175.827C171.103 175.602 170.785 175.49 170.373 175.49C169.826 175.49 169.31 175.704 168.826 176.134V175.667C169.299 175.307 169.831 175.127 170.425 175.127C170.955 175.127 171.363 175.269 171.648 175.554C171.936 175.84 172.08 176.221 172.08 176.7C172.08 177.126 171.978 177.512 171.773 177.858C171.569 178.203 171.132 178.732 170.464 179.444L168.947 181.047V181.064H172.045V181.427H168.506Z" fill="black"/>
<path d="M174.945 181.535C174.375 181.535 173.928 181.273 173.605 180.749C173.283 180.224 173.121 179.462 173.121 178.463C173.121 177.359 173.29 176.528 173.627 175.969C173.967 175.408 174.451 175.127 175.079 175.127C176.272 175.127 176.868 176.185 176.868 178.303C176.868 179.357 176.7 180.16 176.362 180.71C176.025 181.26 175.553 181.535 174.945 181.535ZM175.044 175.49C174.569 175.49 174.199 175.733 173.934 176.22C173.669 176.707 173.536 177.437 173.536 178.411C173.536 179.298 173.663 179.981 173.917 180.459C174.17 180.935 174.53 181.172 174.997 181.172C175.455 181.172 175.811 180.93 176.064 180.446C176.321 179.959 176.449 179.265 176.449 178.363C176.449 176.448 175.981 175.49 175.044 175.49Z" fill="black"/>
<path d="M178.013 181.427V181.064H179.431V175.533L177.914 176.073V175.675L179.828 175.01V181.064H181.224V181.427H178.013Z" fill="black"/>
<path d="M182.611 181.375V180.939C182.942 181.094 183.246 181.172 183.523 181.172C184.177 181.172 184.675 180.912 185.018 180.39C185.361 179.866 185.532 179.094 185.532 178.074H185.515C185.23 178.739 184.723 179.072 183.994 179.072C183.487 179.072 183.075 178.895 182.758 178.541C182.441 178.183 182.283 177.727 182.283 177.171C182.283 176.56 182.458 176.067 182.81 175.693C183.164 175.315 183.612 175.127 184.154 175.127C184.707 175.127 185.143 175.361 185.463 175.831C185.786 176.298 185.947 176.998 185.947 177.931C185.947 179.089 185.738 179.98 185.321 180.602C184.906 181.224 184.304 181.535 183.514 181.535C183.209 181.535 182.908 181.482 182.611 181.375ZM184.098 175.49C183.691 175.49 183.357 175.641 183.095 175.943C182.833 176.246 182.702 176.628 182.702 177.089C182.702 177.59 182.83 177.986 183.086 178.277C183.343 178.565 183.677 178.709 184.089 178.709C184.469 178.709 184.796 178.571 185.07 178.294C185.344 178.015 185.481 177.682 185.481 177.296C185.481 176.763 185.351 176.329 185.092 175.995C184.835 175.658 184.504 175.49 184.098 175.49Z" fill="black"/>
<path d="M169.922 165.497L169.922 133.636L184.967 133.636L184.967 165.497L169.922 165.497Z" fill="#3279CD"/>
<path d="M169.922 109.741L169.922 133.636L184.967 133.636L184.967 109.741L169.922 109.741Z" fill="#132634"/>
<path d="M169.922 109.741L169.922 93.811L184.967 93.811L184.967 109.741L169.922 109.741Z" fill="#457F92"/>
<path d="M169.922 93.811L169.922 88.501L184.967 88.501L184.967 93.811L169.922 93.811Z" fill="#204E83"/>
<path d="M132.221 181.427V181.004L133.911 179.206C134.513 178.564 134.907 178.09 135.095 177.784C135.285 177.479 135.38 177.139 135.38 176.764C135.38 176.361 135.267 176.049 135.043 175.827C134.818 175.602 134.5 175.49 134.088 175.49C133.54 175.49 133.025 175.704 132.541 176.134V175.667C133.013 175.307 133.546 175.127 134.14 175.127C134.67 175.127 135.077 175.269 135.362 175.554C135.651 175.84 135.795 176.221 135.795 176.7C135.795 177.126 135.692 177.512 135.488 177.858C135.283 178.203 134.847 178.732 134.178 179.444L132.662 181.047V181.064H135.76V181.427H132.221Z" fill="black"/>
<path d="M138.66 181.535C138.089 181.535 137.643 181.273 137.32 180.749C136.997 180.224 136.836 179.462 136.836 178.463C136.836 177.359 137.005 176.528 137.342 175.969C137.682 175.408 138.166 175.127 138.794 175.127C139.986 175.127 140.583 176.185 140.583 178.303C140.583 179.357 140.414 180.16 140.077 180.71C139.74 181.26 139.268 181.535 138.66 181.535ZM138.759 175.49C138.284 175.49 137.914 175.733 137.648 176.22C137.383 176.707 137.251 177.437 137.251 178.411C137.251 179.298 137.378 179.981 137.631 180.459C137.885 180.935 138.245 181.172 138.712 181.172C139.17 181.172 139.525 180.93 139.779 180.446C140.035 179.959 140.164 179.265 140.164 178.363C140.164 176.448 139.695 175.49 138.759 175.49Z" fill="black"/>
<path d="M141.728 181.427V181.064H143.145V175.533L141.628 176.073V175.675L143.543 175.01V181.064H144.939V181.427H141.728Z" fill="black"/>
<path d="M147.415 178.208V178.186C146.631 177.809 146.239 177.29 146.239 176.631C146.239 176.201 146.396 175.844 146.71 175.559C147.027 175.271 147.433 175.127 147.929 175.127C148.381 175.127 148.749 175.258 149.031 175.52C149.316 175.782 149.459 176.119 149.459 176.531C149.459 177.234 149.042 177.78 148.21 178.169V178.186C149.178 178.538 149.662 179.111 149.662 179.906C149.662 180.387 149.493 180.779 149.156 181.081C148.819 181.384 148.339 181.535 147.717 181.535C147.21 181.535 146.801 181.39 146.49 181.099C146.182 180.805 146.028 180.428 146.028 179.967C146.028 179.186 146.49 178.6 147.415 178.208ZM147.83 177.983C148.639 177.663 149.044 177.195 149.044 176.579C149.044 176.236 148.934 175.969 148.715 175.779C148.499 175.586 148.217 175.49 147.868 175.49C147.529 175.49 147.24 175.593 147.004 175.801C146.771 176.008 146.654 176.265 146.654 176.57C146.654 177.187 147.046 177.658 147.83 177.983ZM147.795 178.402C147.314 178.598 146.968 178.814 146.758 179.05C146.548 179.287 146.442 179.586 146.442 179.949C146.442 180.304 146.569 180.596 146.823 180.827C147.076 181.057 147.418 181.172 147.847 181.172C148.285 181.172 148.628 181.057 148.875 180.827C149.123 180.593 149.247 180.304 149.247 179.958C149.247 179.575 149.127 179.262 148.888 179.02C148.652 178.775 148.288 178.569 147.795 178.402Z" fill="black"/>
<path d="M133.637 165.497L133.637 136.291L148.682 136.291L148.682 165.497L133.637 165.497Z" fill="#3279CD"/>
<path d="M133.637 116.821L133.637 137.177L148.682 137.177L148.682 116.821L133.637 116.821Z" fill="#132634"/>
<path d="M133.637 116.821L133.637 102.661L148.682 102.661L148.682 116.821L133.637 116.821Z" fill="#457F92"/>
<path d="M133.637 102.661L133.637 97.3511L148.682 97.3511L148.682 102.661L133.637 102.661Z" fill="#204E83"/>
<path d="M95.9355 181.427V181.004L97.6251 179.206C98.2272 178.564 98.6219 178.09 98.8092 177.784C98.9993 177.479 99.0944 177.139 99.0944 176.764C99.0944 176.361 98.982 176.049 98.7573 175.827C98.5326 175.602 98.2143 175.49 97.8023 175.49C97.2549 175.49 96.7393 175.704 96.2553 176.134V175.667C96.7277 175.307 97.2607 175.127 97.8542 175.127C98.3842 175.127 98.7919 175.269 99.0771 175.554C99.3652 175.84 99.5092 176.221 99.5092 176.7C99.5092 177.126 99.407 177.512 99.2024 177.858C98.9979 178.203 98.5614 178.732 97.8931 179.444L96.3763 181.047V181.064H99.4747V181.427H95.9355Z" fill="black"/>
<path d="M102.374 181.535C101.804 181.535 101.357 181.273 101.035 180.749C100.712 180.224 100.551 179.462 100.551 178.463C100.551 177.359 100.719 176.528 101.056 175.969C101.396 175.408 101.88 175.127 102.508 175.127C103.701 175.127 104.297 176.185 104.297 178.303C104.297 179.357 104.129 180.16 103.792 180.71C103.455 181.26 102.982 181.535 102.374 181.535ZM102.474 175.49C101.998 175.49 101.628 175.733 101.363 176.22C101.098 176.707 100.966 177.437 100.966 178.411C100.966 179.298 101.092 179.981 101.346 180.459C101.599 180.935 101.959 181.172 102.426 181.172C102.884 181.172 103.24 180.93 103.494 180.446C103.75 179.959 103.878 179.265 103.878 178.363C103.878 176.448 103.41 175.49 102.474 175.49Z" fill="black"/>
<path d="M105.442 181.427V181.064H106.86V175.533L105.343 176.073V175.675L107.257 175.01V181.064H108.653V181.427H105.442Z" fill="black"/>
<path d="M110.909 181.427H110.477L112.884 175.593H109.66V175.23H113.394V175.338L110.909 181.427Z" fill="black"/>
<path d="M97.3511 165.497L97.3511 140.717L112.396 140.717L112.396 165.497L97.3511 165.497Z" fill="#3279CD"/>
<path d="M97.3511 122.131L97.3511 140.717L112.396 140.717L112.396 122.131L97.3511 122.131Z" fill="#132634"/>
<path d="M97.3511 122.131L97.3511 111.511L112.396 111.511L112.396 122.131L97.3511 122.131Z" fill="#457F92"/>
<path d="M97.3511 111.511L97.3511 106.201L112.396 106.201L112.396 111.511L97.3511 111.511Z" fill="#204E83"/>
<path d="M59.65 181.427V181.004L61.3397 179.206C61.9418 178.564 62.3365 178.09 62.5237 177.784C62.7139 177.479 62.8089 177.139 62.8089 176.764C62.8089 176.361 62.6966 176.049 62.4719 175.827C62.2471 175.602 61.9288 175.49 61.5168 175.49C60.9695 175.49 60.4538 175.704 59.9698 176.134V175.667C60.4423 175.307 60.9752 175.127 61.5687 175.127C62.0988 175.127 62.5064 175.269 62.7916 175.554C63.0797 175.84 63.2238 176.221 63.2238 176.7C63.2238 177.126 63.1215 177.512 62.917 177.858C62.7124 178.203 62.276 178.732 61.6076 179.444L60.0908 181.047V181.064H63.1892V181.427H59.65Z" fill="black"/>
<path d="M66.0888 181.535C65.5184 181.535 65.0719 181.273 64.7492 180.749C64.4265 180.224 64.2652 179.462 64.2652 178.463C64.2652 177.359 64.4337 176.528 64.7708 175.969C65.1108 175.408 65.5947 175.127 66.2228 175.127C67.4155 175.127 68.0118 176.185 68.0118 178.303C68.0118 179.357 67.8433 180.16 67.5062 180.71C67.1692 181.26 66.6967 181.535 66.0888 181.535ZM66.1882 175.49C65.7129 175.49 65.3427 175.733 65.0776 176.22C64.8126 176.707 64.6801 177.437 64.6801 178.411C64.6801 179.298 64.8068 179.981 65.0603 180.459C65.3139 180.935 65.674 181.172 66.1407 181.172C66.5987 181.172 66.9545 180.93 67.208 180.446C67.4644 179.959 67.5926 179.265 67.5926 178.363C67.5926 176.448 67.1245 175.49 66.1882 175.49Z" fill="black"/>
<path d="M69.157 181.427V181.064H70.5744V175.533L69.0576 176.073V175.675L70.9719 175.01V181.064H72.3677V181.427H69.157Z" fill="black"/>
<path d="M76.8273 175.278V175.701C76.5306 175.56 76.2267 175.49 75.9155 175.49C75.3048 175.49 74.8194 175.779 74.4593 176.358C74.102 176.934 73.9234 177.689 73.9234 178.623H73.9407C74.2432 177.908 74.7603 177.551 75.4921 177.551C75.9991 177.551 76.4067 177.734 76.715 178.1C77.0261 178.463 77.1817 178.917 77.1817 179.461C77.1817 180.069 77.0074 180.567 76.6588 180.956C76.3131 181.342 75.8709 181.535 75.3322 181.535C74.7646 181.535 74.3195 181.295 73.9969 180.814C73.6771 180.33 73.5172 179.628 73.5172 178.709C73.5172 177.617 73.7275 176.747 74.1481 176.099C74.5716 175.451 75.1636 175.127 75.9242 175.127C76.267 175.127 76.5681 175.177 76.8273 175.278ZM75.4013 177.914C74.9893 177.914 74.648 178.068 74.3771 178.376C74.1092 178.685 73.9753 179.026 73.9753 179.4C73.9753 179.884 74.1035 180.301 74.3599 180.649C74.6163 180.998 74.9519 181.172 75.3667 181.172C75.7643 181.172 76.0956 181.02 76.3606 180.714C76.6286 180.406 76.7625 180.016 76.7625 179.543C76.7625 179.056 76.6415 178.663 76.3995 178.363C76.1575 178.064 75.8248 177.914 75.4013 177.914Z" fill="black"/>
<path d="M61.0657 165.497L61.0657 142.487L76.1109 142.487L76.1109 165.497L61.0657 165.497Z" fill="#3279CD"/>
<path d="M61.0657 127.441L61.0657 142.487L76.1109 142.487L76.1109 127.441L61.0657 127.441Z" fill="#132634"/>
<path d="M61.0657 127.441L61.0657 116.821L76.1109 116.821L76.1109 127.441L61.0657 127.441Z" fill="#457F92"/>
<path d="M61.0657 119.476L61.0657 114.166L76.1109 114.166L76.1109 119.476L61.0657 119.476Z" fill="#204E83"/>
</svg>
