<svg width="391" height="55" fill="none" xmlns="http://www.w3.org/2000/svg"><path d="M183.592 27.356c0 14.738-11.975 26.688-26.75 26.688s-26.75-11.95-26.75-26.688c0-14.739 11.975-26.689 26.75-26.689s26.75 11.95 26.75 26.689z" fill="#fff" stroke="#7DE3FC"/><path d="M218.013 27.356c0 14.738-11.975 26.688-26.75 26.688s-26.75-11.95-26.75-26.688c0-14.739 11.975-26.689 26.75-26.689s26.75 11.95 26.75 26.689z" fill="#fff" stroke="#7DE3FC"/><path d="M252.434 27.356c0 14.738-11.975 26.688-26.75 26.688s-26.75-11.95-26.75-26.688c0-14.739 11.975-26.689 26.75-26.689s26.75 11.95 26.75 26.689z" fill="#fff" stroke="#7DE3FC"/><path d="M286.855 27.356c0 14.738-11.975 26.688-26.75 26.688-14.774 0-26.75-11.95-26.75-26.688 0-14.739 11.976-26.689 26.75-26.689 14.775 0 26.75 11.95 26.75 26.689z" fill="#fff" stroke="#7DE3FC"/><path d="M321.276 27.356c0 14.738-11.975 26.688-26.75 26.688-14.774 0-26.75-11.95-26.75-26.688 0-14.739 11.976-26.689 26.75-26.689 14.775 0 26.75 11.95 26.75 26.689zm-202.223 0c0 14.738-11.976 26.688-26.75 26.688-14.775 0-26.75-11.95-26.75-26.688 0-14.739 11.975-26.689 26.75-26.689 14.774 0 26.75 11.95 26.75 26.689zm-64.54 0c0 14.738-11.975 26.688-26.75 26.688s-26.75-11.95-26.75-26.688C1.013 12.617 12.99.667 27.763.667c14.775 0 26.75 11.95 26.75 26.689z" fill="#fff" stroke="#7DE3FC"/><path d="M355.697 27.356c0 14.738-11.975 26.688-26.75 26.688-14.774 0-26.75-11.95-26.75-26.688 0-14.739 11.976-26.689 26.75-26.689 14.775 0 26.75 11.95 26.75 26.689z" fill="#fff" stroke="#7DE3FC"/><path d="M390.118 27.356c0 14.738-11.975 26.688-26.75 26.688-14.774 0-26.75-11.95-26.75-26.688 0-14.739 11.976-26.689 26.75-26.689 14.775 0 26.75 11.95 26.75 26.689z" fill="#fff" stroke="#7DE3FC"/><path d="M87.947 34.615v-.957l3.819-4.063c1.36-1.451 2.252-2.522 2.675-3.212.43-.69.645-1.459.645-2.305 0-.912-.254-1.618-.762-2.12-.508-.507-1.227-.76-2.158-.76-1.237 0-2.402.484-3.496 1.454v-1.055a5.809 5.809 0 013.613-1.22c1.198 0 2.12.322 2.764.967.65.644.976 1.507.976 2.587 0 .964-.23 1.836-.693 2.618-.462.78-1.449 1.976-2.959 3.584l-3.428 3.623v.039h7.002v.82h-7.998z" fill="#000"/><path d="M363.368 28.071H143.934m0 0l10.757-10.732M143.934 28.07l10.757 10.732M14.855 28.071h25.816m0 0L29.915 38.803M40.67 28.071L29.915 17.34" stroke="#7DE3FC"/></svg>