<svg width="391" height="56" fill="none" xmlns="http://www.w3.org/2000/svg"><path d="M54.513 28.18c0 14.738-11.975 26.688-26.75 26.688S1.013 42.918 1.013 28.18c0-14.739 11.976-26.688 26.75-26.688 14.775 0 26.75 11.95 26.75 26.688z" fill="#fff" stroke="#7DE3FC"/><path d="M88.934 28.18c0 14.738-11.975 26.688-26.75 26.688-14.774 0-26.75-11.95-26.75-26.688 0-14.739 11.976-26.688 26.75-26.688 14.775 0 26.75 11.95 26.75 26.688z" fill="#fff" stroke="#7DE3FC"/><path d="M123.355 28.18c0 14.738-11.975 26.688-26.75 26.688-14.774 0-26.75-11.95-26.75-26.688 0-14.739 11.976-26.688 26.75-26.688 14.775 0 26.75 11.95 26.75 26.688z" fill="#fff" stroke="#7DE3FC"/><path d="M157.776 28.18c0 14.738-11.975 26.688-26.75 26.688-14.774 0-26.75-11.95-26.75-26.688 0-14.739 11.976-26.688 26.75-26.688 14.775 0 26.75 11.95 26.75 26.688z" fill="#fff" stroke="#7DE3FC"/><path d="M192.197 28.18c0 14.738-11.975 26.688-26.75 26.688-14.774 0-26.75-11.95-26.75-26.688 0-14.739 11.976-26.688 26.75-26.688 14.775 0 26.75 11.95 26.75 26.688z" fill="#fff" stroke="#7DE3FC"/><path d="M226.618 28.18c0 14.738-11.975 26.688-26.75 26.688-14.774 0-26.75-11.95-26.75-26.688 0-14.739 11.976-26.688 26.75-26.688 14.775 0 26.75 11.95 26.75 26.688zm98.961 0c0 14.738-11.975 26.688-26.75 26.688s-26.75-11.95-26.75-26.688c0-14.739 11.975-26.688 26.75-26.688s26.75 11.95 26.75 26.688z" fill="#fff" stroke="#7DE3FC"/><path d="M261.039 28.18c0 14.738-11.975 26.688-26.75 26.688-14.774 0-26.75-11.95-26.75-26.688 0-14.739 11.976-26.688 26.75-26.688 14.775 0 26.75 11.95 26.75 26.688zm129.079 0c0 14.738-11.975 26.688-26.75 26.688-14.774 0-26.75-11.95-26.75-26.688 0-14.739 11.976-26.688 26.75-26.688 14.775 0 26.75 11.95 26.75 26.688z" fill="#fff" stroke="#7DE3FC"/><path d="M297.872 28.164v-.049c-1.771-.853-2.656-2.025-2.656-3.515 0-.97.355-1.778 1.064-2.422.716-.651 1.634-.977 2.754-.977 1.022 0 1.852.296 2.49.889.645.592.967 1.354.967 2.285 0 1.588-.941 2.822-2.822 3.701v.04c2.187.793 3.281 2.089 3.281 3.886 0 1.087-.381 1.972-1.143 2.656-.761.684-1.845 1.026-3.251 1.026-1.146 0-2.071-.33-2.774-.987-.697-.664-1.045-1.517-1.045-2.559 0-1.764 1.045-3.089 3.135-3.974zm.937-.508c1.83-.723 2.745-1.78 2.745-3.174 0-.774-.248-1.377-.743-1.806-.488-.436-1.126-.655-1.914-.655-.768 0-1.419.235-1.953.703-.527.47-.791 1.049-.791 1.739 0 1.393.886 2.457 2.656 3.193zm-.078.947c-1.087.443-1.868.931-2.343 1.465-.476.534-.713 1.211-.713 2.031 0 .801.286 1.462.859 1.983.573.52 1.344.781 2.314.781.99 0 1.765-.26 2.325-.781.56-.527.84-1.182.84-1.963 0-.866-.271-1.572-.811-2.12-.534-.552-1.357-1.018-2.471-1.396z" fill="#000"/><path d="M376.276 28.895h-25.815m0 0l10.756-10.732m-10.756 10.732l10.756 10.733M27.763 28.895h219.434m0 0l-10.756 10.733m10.756-10.733l-10.756-10.732" stroke="#7DE3FC"/></svg>