<svg width="391" height="55" fill="none" xmlns="http://www.w3.org/2000/svg"><path d="M54.513 27.377c0 14.738-11.975 26.688-26.75 26.688s-26.75-11.95-26.75-26.688C1.013 12.638 12.99.688 27.763.688c14.775 0 26.75 11.95 26.75 26.689z" fill="#fff" stroke="#7DE3FC"/><path d="M88.934 27.377c0 14.738-11.975 26.688-26.75 26.688-14.774 0-26.75-11.95-26.75-26.688C35.434 12.638 47.41.688 62.184.688c14.775 0 26.75 11.95 26.75 26.689z" fill="#fff" stroke="#7DE3FC"/><path d="M123.355 27.377c0 14.738-11.975 26.688-26.75 26.688-14.774 0-26.75-11.95-26.75-26.688 0-14.739 11.976-26.689 26.75-26.689 14.775 0 26.75 11.95 26.75 26.689z" fill="#fff" stroke="#7DE3FC"/><path d="M157.776 27.377c0 14.738-11.975 26.688-26.75 26.688-14.774 0-26.75-11.95-26.75-26.688 0-14.739 11.976-26.689 26.75-26.689 14.775 0 26.75 11.95 26.75 26.689zm163.5 0c0 14.738-11.975 26.688-26.75 26.688-14.774 0-26.75-11.95-26.75-26.688 0-14.739 11.976-26.689 26.75-26.689 14.775 0 26.75 11.95 26.75 26.689z" fill="#fff" stroke="#7DE3FC"/><path d="M192.197 27.377c0 14.738-11.975 26.688-26.75 26.688-14.774 0-26.75-11.95-26.75-26.688 0-14.739 11.976-26.689 26.75-26.689 14.775 0 26.75 11.95 26.75 26.689zm64.54 0c0 14.738-11.975 26.688-26.75 26.688s-26.75-11.95-26.75-26.688c0-14.739 11.975-26.689 26.75-26.689s26.75 11.95 26.75 26.689zm98.96 0c0 14.738-11.975 26.688-26.75 26.688-14.774 0-26.75-11.95-26.75-26.688 0-14.739 11.976-26.689 26.75-26.689 14.775 0 26.75 11.95 26.75 26.689z" fill="#fff" stroke="#7DE3FC"/><path d="M390.118 27.377c0 14.738-11.975 26.688-26.75 26.688-14.774 0-26.75-11.95-26.75-26.688 0-14.739 11.976-26.689 26.75-26.689 14.775 0 26.75 11.95 26.75 26.689z" fill="#fff" stroke="#7DE3FC"/><path d="M233.512 20.74v.957a4.744 4.744 0 00-2.06-.479c-1.381 0-2.478.654-3.291 1.963-.808 1.302-1.211 3.008-1.211 5.117h.039c.683-1.614 1.852-2.422 3.506-2.422 1.145 0 2.067.414 2.763 1.24.703.82 1.055 1.846 1.055 3.077 0 1.373-.394 2.5-1.182 3.378-.781.873-1.78 1.31-2.998 1.31-1.282 0-2.288-.544-3.017-1.632-.723-1.093-1.084-2.679-1.084-4.756 0-2.467.475-4.433 1.426-5.898.957-1.465 2.294-2.197 4.013-2.197.775 0 1.455.114 2.041.341zm-3.222 5.957c-.931 0-1.703.348-2.315 1.044-.605.697-.908 1.469-.908 2.315 0 1.094.29 2.034.869 2.822.579.788 1.338 1.182 2.275 1.182.899 0 1.648-.345 2.247-1.035.605-.697.908-1.58.908-2.647 0-1.1-.274-1.989-.821-2.666-.546-.677-1.298-1.015-2.255-1.015z" fill="#000"/><path d="M363.368 26.661h-81.75m0 0l10.757-10.732M281.618 26.66l10.757 10.732M28.48 26.661h149.875m0 0l-10.756 10.732m10.756-10.732L167.599 15.93" stroke="#7DE3FC"/></svg>