<svg width="361" height="55" fill="none" xmlns="http://www.w3.org/2000/svg"><path d="M54.513 27.745c0 14.738-11.975 26.688-26.75 26.688s-26.75-11.95-26.75-26.688c0-14.739 11.976-26.688 26.75-26.688 14.775 0 26.75 11.95 26.75 26.688z" fill="#fff" stroke="#7DE3FC"/><path d="M88.934 27.745c0 14.738-11.975 26.688-26.75 26.688-14.774 0-26.75-11.95-26.75-26.688 0-14.739 11.976-26.688 26.75-26.688 14.775 0 26.75 11.95 26.75 26.688z" fill="#fff" stroke="#7DE3FC"/><path d="M123.355 27.745c0 14.738-11.975 26.688-26.75 26.688-14.774 0-26.75-11.95-26.75-26.688 0-14.739 11.976-26.688 26.75-26.688 14.775 0 26.75 11.95 26.75 26.688z" fill="#fff" stroke="#7DE3FC"/><path d="M157.776 27.745c0 14.738-11.975 26.688-26.75 26.688-14.774 0-26.75-11.95-26.75-26.688 0-14.739 11.976-26.688 26.75-26.688 14.775 0 26.75 11.95 26.75 26.688z" fill="#fff" stroke="#7DE3FC"/><path d="M192.197 27.745c0 14.738-11.975 26.688-26.75 26.688-14.774 0-26.75-11.95-26.75-26.688 0-14.739 11.976-26.688 26.75-26.688 14.775 0 26.75 11.95 26.75 26.688z" fill="#fff" stroke="#7DE3FC"/><path d="M226.618 27.745c0 14.738-11.975 26.688-26.75 26.688-14.774 0-26.75-11.95-26.75-26.688 0-14.739 11.976-26.688 26.75-26.688 14.775 0 26.75 11.95 26.75 26.688z" fill="#fff" stroke="#7DE3FC"/><path d="M261.039 27.745c0 14.738-11.975 26.688-26.75 26.688-14.774 0-26.75-11.95-26.75-26.688 0-14.739 11.976-26.688 26.75-26.688 14.775 0 26.75 11.95 26.75 26.688z" fill="#fff" stroke="#7DE3FC"/><path d="M295.461 27.745c0 14.738-11.976 26.688-26.75 26.688-14.775 0-26.75-11.95-26.75-26.688 0-14.739 11.975-26.688 26.75-26.688 14.774 0 26.75 11.95 26.75 26.688zm64.539 0c0 14.738-11.975 26.688-26.75 26.688s-26.75-11.95-26.75-26.688c0-14.739 11.975-26.688 26.75-26.688S360 13.007 360 27.745z" fill="#fff" stroke="#7DE3FC"/><path d="M329.832 34.887v-.986c.749.351 1.436.527 2.061.527 1.477 0 2.604-.59 3.378-1.767.775-1.185 1.163-2.93 1.163-5.235h-.039c-.645 1.504-1.791 2.256-3.438 2.256-1.146 0-2.077-.4-2.793-1.201-.716-.808-1.074-1.84-1.074-3.096 0-1.38.397-2.493 1.191-3.34.801-.853 1.813-1.28 3.037-1.28 1.25 0 2.237.532 2.959 1.593.73 1.054 1.094 2.636 1.094 4.746 0 2.617-.472 4.629-1.416 6.035-.937 1.406-2.298 2.11-4.082 2.11-.69 0-1.37-.121-2.041-.362zm3.359-13.3c-.918 0-1.673.341-2.265 1.025-.593.683-.889 1.546-.889 2.588 0 1.132.29 2.027.869 2.685.58.651 1.335.977 2.266.977.859 0 1.598-.313 2.217-.938a3.113 3.113 0 00.927-2.256c0-1.204-.293-2.184-.878-2.94-.58-.76-1.329-1.142-2.247-1.142z" fill="#000"/><path d="M27.763 27.03h253.855m0 0l-10.756 10.73m10.756-10.732l-10.756-10.732" stroke="#7DE3FC"/></svg>