<svg width="391" height="56" fill="none" xmlns="http://www.w3.org/2000/svg"><path d="M54.513 27.983c0 14.739-11.975 26.689-26.75 26.689s-26.75-11.95-26.75-26.689c0-14.738 11.976-26.688 26.75-26.688 14.775 0 26.75 11.95 26.75 26.688z" fill="#fff" stroke="#7DE3FC"/><path d="M88.934 27.983c0 14.739-11.975 26.689-26.75 26.689-14.774 0-26.75-11.95-26.75-26.689 0-14.738 11.976-26.688 26.75-26.688 14.775 0 26.75 11.95 26.75 26.688zm133.382 0c0 14.739-11.975 26.689-26.75 26.689s-26.75-11.95-26.75-26.689c0-14.738 11.975-26.688 26.75-26.688s26.75 11.95 26.75 26.688z" fill="#fff" stroke="#7DE3FC"/><path d="M123.355 27.983c0 14.739-11.975 26.689-26.75 26.689-14.774 0-26.75-11.95-26.75-26.689 0-14.738 11.976-26.688 26.75-26.688 14.775 0 26.75 11.95 26.75 26.688zm163.5 0c0 14.739-11.975 26.689-26.75 26.689-14.774 0-26.75-11.95-26.75-26.689 0-14.738 11.976-26.688 26.75-26.688 14.775 0 26.75 11.95 26.75 26.688z" fill="#fff" stroke="#7DE3FC"/><path d="M157.776 27.983c0 14.739-11.975 26.689-26.75 26.689-14.774 0-26.75-11.95-26.75-26.689 0-14.738 11.976-26.688 26.75-26.688 14.775 0 26.75 11.95 26.75 26.688zm163.5 0c0 14.739-11.975 26.689-26.75 26.689-14.774 0-26.75-11.95-26.75-26.689 0-14.738 11.976-26.688 26.75-26.688 14.775 0 26.75 11.95 26.75 26.688z" fill="#fff" stroke="#7DE3FC"/><path d="M355.697 27.983c0 14.739-11.975 26.689-26.75 26.689-14.774 0-26.75-11.95-26.75-26.689 0-14.738 11.976-26.688 26.75-26.688 14.775 0 26.75 11.95 26.75 26.688z" fill="#fff" stroke="#7DE3FC"/><path d="M390.118 27.983c0 14.739-11.975 26.689-26.75 26.689-14.774 0-26.75-11.95-26.75-26.689 0-14.738 11.976-26.688 26.75-26.688 14.775 0 26.75 11.95 26.75 26.688z" fill="#fff" stroke="#7DE3FC"/><path d="M191.933 34.96v-1.036c.898.495 1.79.742 2.676.742 1.152 0 2.051-.315 2.695-.947.645-.631.967-1.471.967-2.52 0-2.278-1.299-3.417-3.897-3.417-.586 0-1.272.039-2.06.117v-6.66h6.299v.82h-5.401v4.98a23.327 23.327 0 011.494-.078c1.478 0 2.598.365 3.36 1.094.762.723 1.142 1.732 1.142 3.027 0 1.31-.403 2.37-1.211 3.184-.807.814-1.962 1.22-3.466 1.22-1.009 0-1.875-.175-2.598-.527z" fill="#000"/><path d="M363.368 28.699H247.197m0 0l10.757-10.733M247.197 28.7l10.757 10.732M27.763 28.699h116.171m0 0L133.178 39.43m10.756-10.732l-10.756-10.733" stroke="#7DE3FC"/></svg>