<svg width="391" height="55" fill="none" xmlns="http://www.w3.org/2000/svg"><path d="M54.513 27.61c0 14.74-11.975 26.69-26.75 26.69S1.013 42.35 1.013 27.61C1.013 12.873 12.99.924 27.763.924c14.775 0 26.75 11.95 26.75 26.688zm163.5 0c0 14.74-11.975 26.69-26.75 26.69s-26.75-11.95-26.75-26.69c0-14.738 11.975-26.687 26.75-26.687s26.75 11.95 26.75 26.688z" fill="#fff" stroke="#7DE3FC"/><path d="M252.434 27.61c0 14.74-11.975 26.69-26.75 26.69s-26.75-11.95-26.75-26.69c0-14.738 11.975-26.687 26.75-26.687s26.75 11.95 26.75 26.688z" fill="#fff" stroke="#7DE3FC"/><path d="M286.855 27.61c0 14.74-11.975 26.69-26.75 26.69-14.774 0-26.75-11.95-26.75-26.69 0-14.738 11.976-26.687 26.75-26.687 14.775 0 26.75 11.95 26.75 26.688z" fill="#fff" stroke="#7DE3FC"/><path d="M321.276 27.61c0 14.74-11.975 26.69-26.75 26.69-14.774 0-26.75-11.95-26.75-26.69 0-14.738 11.976-26.687 26.75-26.687 14.775 0 26.75 11.95 26.75 26.688zm-232.342 0c0 14.74-11.975 26.69-26.75 26.69-14.774 0-26.75-11.95-26.75-26.69C35.434 12.873 47.41.924 62.184.924c14.775 0 26.75 11.95 26.75 26.688zm64.54 0c0 14.74-11.976 26.69-26.75 26.69-14.775 0-26.75-11.95-26.75-26.69 0-14.738 11.975-26.687 26.75-26.687 14.774 0 26.75 11.95 26.75 26.688z" fill="#fff" stroke="#7DE3FC"/><path d="M355.697 27.61c0 14.74-11.975 26.69-26.75 26.69-14.774 0-26.75-11.95-26.75-26.69 0-14.738 11.976-26.687 26.75-26.687 14.775 0 26.75 11.95 26.75 26.688z" fill="#fff" stroke="#7DE3FC"/><path d="M390.118 27.61c0 14.74-11.975 26.69-26.75 26.69-14.774 0-26.75-11.95-26.75-26.69 0-14.738 11.976-26.687 26.75-26.687 14.775 0 26.75 11.95 26.75 26.688z" fill="#fff" stroke="#7DE3FC"/><path d="M122.69 34.372v-1.025c1.068.631 2.074.947 3.018.947 1.126 0 2.008-.286 2.647-.86.638-.579.957-1.334.957-2.265 0-1.035-.368-1.82-1.104-2.353-.729-.534-1.771-.801-3.125-.801h-1.074v-.82h.957c1.25 0 2.2-.264 2.851-.791.658-.534.987-1.286.987-2.256 0-.84-.238-1.498-.713-1.973-.475-.482-1.169-.723-2.08-.723-.879 0-1.8.306-2.764.918v-.957c1.055-.52 2.022-.781 2.9-.781 1.107 0 1.983.3 2.627.898.651.6.977 1.394.977 2.383 0 1.895-.908 3.1-2.725 3.614v.039c.977.097 1.758.462 2.344 1.093.586.625.879 1.416.879 2.373 0 1.224-.423 2.21-1.269 2.96-.847.748-1.944 1.122-3.291 1.122a6.448 6.448 0 01-2.999-.742z" fill="#000"/><path d="M363.368 26.895H178.355m0 0l10.757-10.732m-10.757 10.732l10.757 10.733M27.763 26.895h47.33m0 0L64.334 37.628m10.757-10.733L64.335 16.163" stroke="#7DE3FC"/></svg>