<svg width="431" height="236" viewBox="0 0 431 236" fill="none" xmlns="http://www.w3.org/2000/svg">
<path d="M48.9172 171.871L138.819 168.566L166.583 161.956L208.89 156.667L241.942 148.735L271.028 136.175L298.13 94.5292L305.402 38.3405" stroke="#3279CD"/>
<path d="M60.856 85.7703V83.2914H53.6581V85.7703H53.0126V82.7104H53.7614C54.0799 82.0907 54.3833 81.4193 54.6716 80.6963C54.96 79.9733 55.2139 79.233 55.4334 78.4756C55.6529 77.7181 55.8293 76.9607 55.9627 76.2033C56.1005 75.4458 56.1758 74.7228 56.1887 74.0342H60.1782V82.7104H61.4757V85.7703H60.856ZM59.5455 74.6217H56.7826C56.7697 74.9832 56.7309 75.377 56.6664 75.803C56.6018 76.2248 56.5179 76.668 56.4146 77.1328C56.3113 77.5933 56.1908 78.0667 56.0531 78.5531C55.9154 79.0351 55.7626 79.5171 55.5948 79.9991C55.4269 80.4768 55.2462 80.9459 55.0525 81.4064C54.8631 81.8626 54.6652 82.2972 54.4586 82.7104H59.5455V74.6217Z" fill="black"/>
<path d="M67.2405 83.2914V77.7655C67.2061 77.8128 67.1716 77.8602 67.1372 77.9075C67.1071 77.9548 67.0813 77.9914 67.0597 78.0172L63.0896 83.2914H62.67V76.681H63.2639V82.1552C63.2897 82.1079 63.3155 82.0627 63.3414 82.0197C63.3672 81.9766 63.3952 81.9379 63.4253 81.9035L67.3631 76.681H67.8409V83.2914H67.2405Z" fill="black"/>
<path d="M74.4448 83.2914V80.1347H70.5457V83.2914H69.9518V76.681H70.5457V79.5924H74.4448V76.681H75.0387V83.2914H74.4448Z" fill="black"/>
<path d="M81.1069 83.2914V81.968H81.0811C80.8702 82.4199 80.5625 82.7814 80.1579 83.0525C79.7577 83.3194 79.3123 83.4528 78.8217 83.4528C78.1933 83.4528 77.6962 83.2763 77.3304 82.9234C76.9646 82.5705 76.7817 82.1251 76.7817 81.5871C76.7817 80.4338 77.5456 79.7366 79.0734 79.4956L81.1069 79.1921C81.1069 77.7719 80.5732 77.0618 79.5059 77.0618C78.7786 77.0618 78.0707 77.3545 77.3821 77.9398V77.2232C77.6274 77.0296 77.9588 76.8639 78.3762 76.7261C78.798 76.5884 79.1939 76.5196 79.564 76.5196C80.244 76.5196 80.7691 76.7305 81.1392 77.1522C81.5136 77.574 81.7008 78.1872 81.7008 78.992V83.2914H81.1069ZM79.2864 79.9991C78.5936 80.0981 78.1072 80.2595 77.8275 80.4832C77.5478 80.7027 77.4079 81.0621 77.4079 81.5613C77.4079 81.953 77.537 82.2757 77.7952 82.5296C78.0578 82.7836 78.4214 82.9105 78.8862 82.9105C79.5231 82.9105 80.0525 82.676 80.4743 82.2069C80.896 81.7335 81.1069 81.1245 81.1069 80.38V79.7344L79.2864 79.9991Z" fill="black"/>
<path d="M89.3893 83.2914V77.5783L89.215 78.0431C89.1677 78.1722 89.116 78.3056 89.0601 78.4433C89.0084 78.581 88.9632 78.6994 88.9245 78.7984L87.1363 83.2914H86.6522L84.722 78.7984C84.6789 78.708 84.6316 78.5939 84.58 78.4562C84.5283 78.3185 84.4788 78.1851 84.4315 78.056C84.3755 77.9054 84.3174 77.7461 84.2572 77.5783V83.2914H83.6891V76.681H84.3992L86.4133 81.2579C86.4607 81.3612 86.5101 81.4839 86.5618 81.6259C86.6177 81.7636 86.6694 81.897 86.7167 82.0261C86.7727 82.1767 86.8286 82.3295 86.8846 82.4845C86.9448 82.3338 87.0051 82.1853 87.0653 82.039C87.1127 81.9142 87.1643 81.783 87.2203 81.6452C87.2762 81.5075 87.3235 81.387 87.3623 81.2837L89.2408 76.681H89.9703V83.2914H89.3893Z" fill="black"/>
<path d="M96.6517 83.2914V77.7655C96.6173 77.8128 96.5829 77.8602 96.5484 77.9075C96.5183 77.9548 96.4925 77.9914 96.471 78.0172L92.5009 83.2914H92.0812V76.681H92.6751V82.1552C92.701 82.1079 92.7268 82.0627 92.7526 82.0197C92.7784 81.9766 92.8064 81.9379 92.8365 81.9035L96.7744 76.681H97.2521V83.2914H96.6517Z" fill="black"/>
<path d="M103.088 83.2914L99.9828 80.0507H99.957V83.2914H99.363V76.681H99.957V79.8377H99.9828L103.049 76.681H103.817L100.615 79.9087L103.921 83.2914H103.088Z" fill="black"/>
<path d="M109.072 83.2914V81.968H109.046C108.835 82.4199 108.528 82.7814 108.123 83.0525C107.723 83.3194 107.277 83.4528 106.787 83.4528C106.159 83.4528 105.661 83.2763 105.296 82.9234C104.93 82.5705 104.747 82.1251 104.747 81.5871C104.747 80.4338 105.511 79.7366 107.039 79.4956L109.072 79.1921C109.072 77.7719 108.538 77.0618 107.471 77.0618C106.744 77.0618 106.036 77.3545 105.347 77.9398V77.2232C105.593 77.0296 105.924 76.8639 106.341 76.7261C106.763 76.5884 107.159 76.5196 107.529 76.5196C108.209 76.5196 108.734 76.7305 109.104 77.1522C109.479 77.574 109.666 78.1872 109.666 78.992V83.2914H109.072ZM107.252 79.9991C106.559 80.0981 106.072 80.2595 105.793 80.4832C105.513 80.7027 105.373 81.0621 105.373 81.5613C105.373 81.953 105.502 82.2757 105.76 82.5296C106.023 82.7836 106.387 82.9105 106.851 82.9105C107.488 82.9105 108.018 82.676 108.439 82.2069C108.861 81.7335 109.072 81.1245 109.072 80.38V79.7344L107.252 79.9991Z" fill="black"/>
<path d="M119.485 83.2914V80.4122C119.067 80.636 118.669 80.8082 118.291 80.9287C117.912 81.0492 117.527 81.1094 117.135 81.1094C116.851 81.1094 116.588 81.0685 116.347 80.9868C116.106 80.9007 115.896 80.7673 115.715 80.5865C115.538 80.4058 115.398 80.1712 115.295 79.8829C115.196 79.5945 115.147 79.2459 115.147 78.8371V76.681H115.747V78.7855C115.747 79.0437 115.769 79.2825 115.812 79.502C115.859 79.7172 115.936 79.9044 116.044 80.0636C116.156 80.2186 116.304 80.3412 116.489 80.4316C116.679 80.522 116.916 80.5672 117.2 80.5672C117.617 80.5672 118.015 80.5048 118.394 80.38C118.773 80.2552 119.136 80.0938 119.485 79.8958V76.681H120.079V83.2914H119.485Z" fill="black"/>
<path d="M126.773 83.2914V77.7655C126.739 77.8128 126.704 77.8602 126.67 77.9075C126.64 77.9548 126.614 77.9914 126.592 78.0172L122.622 83.2914H122.203V76.681H122.797V82.1552C122.822 82.1079 122.848 82.0627 122.874 82.0197C122.9 81.9766 122.928 81.9379 122.958 81.9035L126.896 76.681H127.373V83.2914H126.773Z" fill="black"/>
<path d="M133.764 83.0009C133.274 83.3021 132.688 83.4528 132.008 83.4528C131.109 83.4528 130.384 83.1451 129.833 82.5296C129.282 81.9099 129.007 81.1008 129.007 80.1024C129.007 79.0523 129.317 78.1937 129.936 77.5266C130.556 76.8553 131.352 76.5196 132.325 76.5196C132.828 76.5196 133.317 76.6229 133.79 76.8294V77.5008C133.317 77.2082 132.798 77.0618 132.234 77.0618C131.46 77.0618 130.831 77.3416 130.349 77.9011C129.867 78.4562 129.626 79.1771 129.626 80.0636C129.626 80.9201 129.846 81.6087 130.285 82.1294C130.728 82.6501 131.311 82.9105 132.034 82.9105C132.697 82.9105 133.274 82.7341 133.764 82.3812V83.0009Z" fill="black"/>
<path d="M139.271 83.2914V77.2232H137.341C137.268 78.2045 137.171 79.0781 137.05 79.8442C136.934 80.6059 136.779 81.2493 136.585 81.7743C136.396 82.2994 136.162 82.6996 135.882 82.9751C135.602 83.2462 135.264 83.3818 134.868 83.3818C134.804 83.3818 134.737 83.3753 134.668 83.3624C134.604 83.3538 134.548 83.343 134.5 83.3301V82.8008C134.535 82.8137 134.591 82.8266 134.668 82.8395C134.746 82.8481 134.808 82.8524 134.855 82.8524C135.144 82.8524 135.395 82.719 135.611 82.4522C135.826 82.181 136.011 81.7851 136.166 81.2644C136.321 80.7393 136.45 80.0938 136.553 79.3277C136.661 78.5574 136.747 77.6751 136.811 76.681H139.865V83.2914H139.271Z" fill="black"/>
<path d="M145.933 83.2914V81.968H145.907C145.696 82.4199 145.389 82.7814 144.984 83.0525C144.584 83.3194 144.138 83.4528 143.648 83.4528C143.019 83.4528 142.522 83.2763 142.157 82.9234C141.791 82.5705 141.608 82.1251 141.608 81.5871C141.608 80.4338 142.372 79.7366 143.9 79.4956L145.933 79.1921C145.933 77.7719 145.399 77.0618 144.332 77.0618C143.605 77.0618 142.897 77.3545 142.208 77.9398V77.2232C142.453 77.0296 142.785 76.8639 143.202 76.7261C143.624 76.5884 144.02 76.5196 144.39 76.5196C145.07 76.5196 145.595 76.7305 145.965 77.1522C146.34 77.574 146.527 78.1872 146.527 78.992V83.2914H145.933ZM144.113 79.9991C143.42 80.0981 142.933 80.2595 142.654 80.4832C142.374 80.7027 142.234 81.0621 142.234 81.5613C142.234 81.953 142.363 82.2757 142.621 82.5296C142.884 82.7836 143.248 82.9105 143.712 82.9105C144.349 82.9105 144.879 82.676 145.3 82.2069C145.722 81.7335 145.933 81.1245 145.933 80.38V79.7344L144.113 79.9991Z" fill="black"/>
<path d="M156.636 83.2914V77.2232H152.737V83.2914H152.143V76.681H157.23V83.2914H156.636Z" fill="black"/>
<path d="M162.001 83.4528C161.037 83.4528 160.273 83.1365 159.709 82.5038C159.15 81.8669 158.87 81.0406 158.87 80.0249C158.87 78.9275 159.162 78.0689 159.748 77.4492C160.337 76.8294 161.112 76.5196 162.072 76.5196C163.014 76.5196 163.759 76.8273 164.305 77.4427C164.852 78.0581 165.125 78.9103 165.125 79.9991C165.125 81.0277 164.845 81.8604 164.286 82.4974C163.731 83.1343 162.969 83.4528 162.001 83.4528ZM162.046 77.0618C161.267 77.0618 160.645 77.3244 160.18 77.8494C159.72 78.3745 159.49 79.1039 159.49 80.0378C159.49 80.9029 159.715 81.5979 160.167 82.1229C160.619 82.648 161.237 82.9105 162.02 82.9105C162.816 82.9105 163.43 82.6523 163.86 82.1359C164.29 81.6194 164.505 80.9029 164.505 79.9862C164.505 79.0437 164.29 78.3207 163.86 77.8171C163.434 77.3136 162.829 77.0618 162.046 77.0618Z" fill="black"/>
<path d="M170.683 83.2914V77.2232H168.753C168.68 78.2045 168.583 79.0781 168.463 79.8442C168.346 80.6059 168.192 81.2493 167.998 81.7743C167.809 82.2994 167.574 82.6996 167.294 82.9751C167.015 83.2462 166.677 83.3818 166.281 83.3818C166.216 83.3818 166.149 83.3753 166.081 83.3624C166.016 83.3538 165.96 83.343 165.913 83.3301V82.8008C165.947 82.8137 166.003 82.8266 166.081 82.8395C166.158 82.8481 166.22 82.8524 166.268 82.8524C166.556 82.8524 166.808 82.719 167.023 82.4522C167.238 82.181 167.423 81.7851 167.578 81.2644C167.733 80.7393 167.862 80.0938 167.966 79.3277C168.073 78.5574 168.159 77.6751 168.224 76.681H171.277V83.2914H170.683Z" fill="black"/>
<path d="M177.926 81.3096C177.926 81.6452 177.868 81.9379 177.752 82.1875C177.636 82.4371 177.483 82.6437 177.294 82.8072C177.109 82.9708 176.896 83.0934 176.655 83.1752C176.418 83.2527 176.177 83.2914 175.932 83.2914H173.395V76.681H173.989V79.3923H175.88C176.194 79.3923 176.478 79.4353 176.732 79.5214C176.986 79.6075 177.201 79.7344 177.378 79.9023C177.554 80.0658 177.69 80.2659 177.784 80.5026C177.879 80.7393 177.926 81.0083 177.926 81.3096ZM177.307 81.3096C177.307 81.1159 177.274 80.9351 177.21 80.7673C177.15 80.5994 177.055 80.4553 176.926 80.3348C176.797 80.21 176.635 80.1131 176.442 80.0443C176.248 79.9711 176.02 79.9345 175.757 79.9345H173.989V82.7491H175.77C176.05 82.7491 176.287 82.7125 176.48 82.6394C176.674 82.5619 176.831 82.4586 176.952 82.3295C177.076 82.1961 177.167 82.0433 177.223 81.8712C177.279 81.6947 177.307 81.5075 177.307 81.3096Z" fill="black"/>
<path d="M183.904 81.4516C183.904 81.7055 183.855 81.953 183.756 82.194C183.661 82.435 183.504 82.6501 183.285 82.8395C183.065 83.0246 182.775 83.173 182.413 83.2849C182.056 83.3968 181.615 83.4528 181.09 83.4528C180.913 83.4528 180.728 83.442 180.534 83.4205C180.341 83.399 180.149 83.3689 179.96 83.3301C179.775 83.2914 179.598 83.2462 179.431 83.1946C179.267 83.1386 179.127 83.0784 179.011 83.0138V82.3941C179.162 82.4758 179.323 82.549 179.495 82.6136C179.672 82.6781 179.85 82.7319 180.031 82.775C180.216 82.818 180.399 82.8524 180.58 82.8782C180.76 82.8998 180.935 82.9105 181.103 82.9105C181.533 82.9105 181.888 82.8718 182.168 82.7943C182.452 82.7169 182.676 82.6157 182.839 82.4909C183.007 82.3618 183.123 82.2133 183.188 82.0455C183.252 81.8776 183.285 81.7033 183.285 81.5226C183.285 81.2601 183.233 81.0406 183.13 80.8641C183.031 80.6877 182.886 80.5457 182.697 80.4381C182.512 80.3305 182.284 80.2552 182.013 80.2121C181.746 80.1691 181.447 80.1476 181.115 80.1476H180.212V79.6053H181.032C181.677 79.6053 182.157 79.4999 182.471 79.289C182.79 79.0781 182.949 78.7467 182.949 78.2948C182.949 78.1141 182.914 77.9484 182.846 77.7978C182.777 77.6471 182.671 77.518 182.529 77.4104C182.387 77.2985 182.206 77.2125 181.987 77.1522C181.767 77.092 181.507 77.0618 181.206 77.0618C180.844 77.0618 180.483 77.1092 180.121 77.2039C179.764 77.2985 179.437 77.4147 179.14 77.5525V76.9715C179.265 76.9198 179.407 76.8682 179.566 76.8165C179.725 76.7606 179.895 76.7111 180.076 76.668C180.261 76.625 180.455 76.5906 180.657 76.5648C180.859 76.5346 181.068 76.5196 181.283 76.5196C181.701 76.5196 182.054 76.5691 182.342 76.668C182.635 76.7627 182.871 76.8897 183.052 77.0489C183.237 77.2082 183.371 77.3911 183.452 77.5976C183.534 77.7999 183.575 78.0065 183.575 78.2174C183.575 78.6434 183.454 78.9963 183.214 79.2761C182.977 79.5558 182.639 79.7344 182.2 79.8119V79.8377C182.471 79.8506 182.712 79.9023 182.923 79.9926C183.134 80.0787 183.312 80.1928 183.459 80.3348C183.605 80.4768 183.715 80.6446 183.788 80.8383C183.866 81.0277 183.904 81.2321 183.904 81.4516Z" fill="black"/>
<path d="M188.21 83.4528C187.246 83.4528 186.482 83.1365 185.918 82.5038C185.359 81.8669 185.079 81.0406 185.079 80.0249C185.079 78.9275 185.372 78.0689 185.957 77.4492C186.547 76.8294 187.321 76.5196 188.281 76.5196C189.224 76.5196 189.968 76.8273 190.515 77.4427C191.061 78.0581 191.335 78.9103 191.335 79.9991C191.335 81.0277 191.055 81.8604 190.495 82.4974C189.94 83.1343 189.178 83.4528 188.21 83.4528ZM188.255 77.0618C187.476 77.0618 186.854 77.3244 186.39 77.8494C185.929 78.3745 185.699 79.1039 185.699 80.0378C185.699 80.9029 185.925 81.5979 186.377 82.1229C186.829 82.648 187.446 82.9105 188.229 82.9105C189.026 82.9105 189.639 82.6523 190.069 82.1359C190.5 81.6194 190.715 80.9029 190.715 79.9862C190.715 79.0437 190.5 78.3207 190.069 77.8171C189.643 77.3136 189.039 77.0618 188.255 77.0618Z" fill="black"/>
<path d="M197.661 81.3999C197.661 81.6797 197.611 81.9357 197.512 82.1681C197.418 82.3962 197.282 82.5942 197.106 82.762C196.929 82.9299 196.718 83.0611 196.473 83.1558C196.232 83.2462 195.967 83.2914 195.679 83.2914H192.981V76.681H195.492C195.823 76.681 196.107 76.7218 196.344 76.8036C196.585 76.8854 196.783 76.9973 196.938 77.1393C197.093 77.2813 197.207 77.4492 197.28 77.6428C197.357 77.8365 197.396 78.0452 197.396 78.269C197.396 78.4713 197.366 78.6606 197.306 78.8371C197.25 79.0092 197.168 79.1663 197.061 79.3083C196.957 79.4461 196.828 79.5623 196.673 79.6569C196.523 79.7516 196.353 79.8183 196.163 79.8571C196.409 79.8829 196.624 79.941 196.809 80.0314C196.998 80.1174 197.155 80.2293 197.28 80.3671C197.405 80.5005 197.5 80.6554 197.564 80.8318C197.629 81.0083 197.661 81.1977 197.661 81.3999ZM196.777 78.3594C196.777 78.2088 196.753 78.0646 196.705 77.9269C196.662 77.7892 196.587 77.6687 196.48 77.5654C196.372 77.4621 196.232 77.3803 196.06 77.3201C195.888 77.2555 195.673 77.2232 195.414 77.2232H193.575V79.6182H195.253C195.546 79.6182 195.789 79.5838 195.982 79.5149C196.18 79.4418 196.338 79.3471 196.454 79.2309C196.57 79.1104 196.652 78.9748 196.699 78.8242C196.751 78.6736 196.777 78.5186 196.777 78.3594ZM197.041 81.4516C197.041 81.2751 197.011 81.1094 196.951 80.9545C196.895 80.7953 196.8 80.6575 196.667 80.5413C196.538 80.4251 196.363 80.3326 196.144 80.2638C195.929 80.1949 195.662 80.1605 195.343 80.1605H193.575V82.7491H195.556C195.802 82.7491 196.017 82.719 196.202 82.6588C196.387 82.5942 196.542 82.506 196.667 82.3941C196.792 82.2779 196.884 82.1402 196.944 81.9809C197.009 81.8217 197.041 81.6452 197.041 81.4516Z" fill="black"/>
<path d="M203.271 83.2914V81.968H203.245C203.034 82.4199 202.726 82.7814 202.322 83.0525C201.922 83.3194 201.476 83.4528 200.985 83.4528C200.357 83.4528 199.86 83.2763 199.494 82.9234C199.128 82.5705 198.946 82.1251 198.946 81.5871C198.946 80.4338 199.709 79.7366 201.237 79.4956L203.271 79.1921C203.271 77.7719 202.737 77.0618 201.67 77.0618C200.942 77.0618 200.234 77.3545 199.546 77.9398V77.2232C199.791 77.0296 200.123 76.8639 200.54 76.7261C200.962 76.5884 201.358 76.5196 201.728 76.5196C202.408 76.5196 202.933 76.7305 203.303 77.1522C203.677 77.574 203.865 78.1872 203.865 78.992V83.2914H203.271ZM201.45 79.9991C200.757 80.0981 200.271 80.2595 199.991 80.4832C199.712 80.7027 199.572 81.0621 199.572 81.5613C199.572 81.953 199.701 82.2757 199.959 82.5296C200.222 82.7836 200.585 82.9105 201.05 82.9105C201.687 82.9105 202.216 82.676 202.638 82.2069C203.06 81.7335 203.271 81.1245 203.271 80.38V79.7344L201.45 79.9991Z" fill="black"/>
<path d="M207.544 77.2232V83.2914H206.95V77.2232H204.969V76.681H209.526V77.2232H207.544Z" fill="black"/>
<path d="M210.514 80.012C210.514 80.9201 210.723 81.6302 211.14 82.1423C211.562 82.6544 212.138 82.9105 212.87 82.9105C213.61 82.9105 214.333 82.6372 215.039 82.0907V82.7233C214.355 83.2096 213.591 83.4528 212.747 83.4528C211.895 83.4528 211.207 83.1472 210.682 82.5361C210.157 81.925 209.894 81.0621 209.894 79.9474C209.894 78.9834 210.167 78.1722 210.714 77.5137C211.265 76.851 211.979 76.5196 212.857 76.5196C213.679 76.5196 214.31 76.8079 214.749 77.3846C215.188 77.9613 215.407 78.7489 215.407 79.7473V80.012H210.514ZM214.787 79.4697C214.762 78.708 214.579 78.1162 214.239 77.6945C213.899 77.2727 213.43 77.0618 212.831 77.0618C212.212 77.0618 211.697 77.2706 211.288 77.688C210.884 78.1012 210.634 78.6951 210.54 79.4697H214.787Z" fill="black"/>
<path d="M220.959 83.2914V77.2232H219.029C218.955 78.2045 218.859 79.0781 218.738 79.8442C218.622 80.6059 218.467 81.2493 218.273 81.7743C218.084 82.2994 217.849 82.6996 217.57 82.9751C217.29 83.2462 216.952 83.3818 216.556 83.3818C216.492 83.3818 216.425 83.3753 216.356 83.3624C216.291 83.3538 216.236 83.343 216.188 83.3301V82.8008C216.223 82.8137 216.279 82.8266 216.356 82.8395C216.433 82.8481 216.496 82.8524 216.543 82.8524C216.832 82.8524 217.083 82.719 217.299 82.4522C217.514 82.181 217.699 81.7851 217.854 81.2644C218.009 80.7393 218.138 80.0938 218.241 79.3277C218.349 78.5574 218.435 77.6751 218.499 76.681H221.553V83.2914H220.959Z" fill="black"/>
<path d="M223.812 80.012C223.812 80.9201 224.021 81.6302 224.438 82.1423C224.86 82.6544 225.437 82.9105 226.168 82.9105C226.909 82.9105 227.632 82.6372 228.337 82.0907V82.7233C227.653 83.2096 226.889 83.4528 226.046 83.4528C225.194 83.4528 224.505 83.1472 223.98 82.5361C223.455 81.925 223.192 81.0621 223.192 79.9474C223.192 78.9834 223.466 78.1722 224.012 77.5137C224.563 76.851 225.278 76.5196 226.155 76.5196C226.977 76.5196 227.608 76.8079 228.047 77.3846C228.486 77.9613 228.705 78.7489 228.705 79.7473V80.012H223.812ZM228.086 79.4697C228.06 78.708 227.877 78.1162 227.537 77.6945C227.197 77.2727 226.728 77.0618 226.13 77.0618C225.51 77.0618 224.996 77.2706 224.587 77.688C224.182 78.1012 223.933 78.6951 223.838 79.4697H228.086Z" fill="black"/>
<path d="M234.916 83.2914V77.7655C234.881 77.8128 234.847 77.8602 234.812 77.9075C234.782 77.9548 234.756 77.9914 234.735 78.0172L230.765 83.2914H230.345V76.681H230.939V82.1552C230.965 82.1079 230.991 82.0627 231.016 82.0197C231.042 81.9766 231.07 81.9379 231.1 81.9035L235.038 76.681H235.516V83.2914H234.916ZM232.889 75.1187C233.138 75.1187 233.362 75.0821 233.56 75.009C233.762 74.9358 233.934 74.8368 234.076 74.712C234.223 74.5872 234.337 74.4431 234.419 74.2795C234.505 74.116 234.558 73.946 234.58 73.7695H235.213C235.169 74.0019 235.088 74.23 234.967 74.4538C234.851 74.6733 234.696 74.8691 234.502 75.0413C234.309 75.2134 234.076 75.3511 233.805 75.4544C233.534 75.5577 233.226 75.6093 232.882 75.6093C232.538 75.6093 232.237 75.5577 231.978 75.4544C231.72 75.3511 231.503 75.2134 231.326 75.0413C231.15 74.8691 231.008 74.6733 230.9 74.4538C230.797 74.23 230.724 74.0019 230.681 73.7695H231.313C231.335 73.946 231.382 74.116 231.455 74.2795C231.529 74.4431 231.63 74.5872 231.759 74.712C231.888 74.8368 232.045 74.9358 232.23 75.009C232.415 75.0821 232.63 75.1187 232.876 75.1187H232.889Z" fill="black"/>
<path d="M237.375 84.8924H236.872L237.84 81.826H238.498L237.375 84.8924Z" fill="black"/>
<path d="M54.0842 93.2329C54.0842 94.1409 54.2929 94.851 54.7104 95.3632C55.1321 95.8753 55.7088 96.1314 56.4404 96.1314C57.1807 96.1314 57.9037 95.8581 58.6095 95.3115V95.9442C57.9252 96.4305 57.1613 96.6736 56.3178 96.6736C55.4657 96.6736 54.7771 96.3681 54.252 95.757C53.727 95.1458 53.4645 94.283 53.4645 93.1683C53.4645 92.2043 53.7377 91.393 54.2843 90.7346C54.8352 90.0718 55.5496 89.7404 56.4275 89.7404C57.2495 89.7404 57.88 90.0288 58.319 90.6055C58.758 91.1822 58.9775 91.9697 58.9775 92.9682V93.2329H54.0842ZM58.3577 92.6906C58.3319 91.9288 58.149 91.3371 57.809 90.9153C57.469 90.4936 56.9999 90.2827 56.4017 90.2827C55.782 90.2827 55.2677 90.4914 54.8588 90.9089C54.4543 91.322 54.2047 91.9159 54.11 92.6906H58.3577Z" fill="black"/>
<path d="M67.3825 96.5123L64.2774 93.2716H64.2516V96.5123H63.6577V93.2716H63.6319L60.5268 96.5123H59.6876L62.9928 93.1296L59.7973 89.9018H60.5655L63.6319 93.0586H63.6577V89.9018H64.2516V93.0586H64.2774L67.3438 89.9018H68.112L64.9101 93.1296L68.2153 96.5123H67.3825Z" fill="black"/>
<path d="M69.1513 93.2329C69.1513 94.1409 69.36 94.851 69.7775 95.3632C70.1993 95.8753 70.7759 96.1314 71.5076 96.1314C72.2478 96.1314 72.9708 95.8581 73.6766 95.3115V95.9442C72.9923 96.4305 72.2284 96.6736 71.3849 96.6736C70.5328 96.6736 69.8442 96.3681 69.3192 95.757C68.7941 95.1458 68.5316 94.283 68.5316 93.1683C68.5316 92.2043 68.8049 91.393 69.3514 90.7346C69.9023 90.0718 70.6167 89.7404 71.4947 89.7404C72.3167 89.7404 72.9471 90.0288 73.3861 90.6055C73.8251 91.1822 74.0446 91.9697 74.0446 92.9682V93.2329H69.1513ZM73.4249 92.6906C73.399 91.9288 73.2161 91.3371 72.8761 90.9153C72.5361 90.4936 72.067 90.2827 71.4688 90.2827C70.8491 90.2827 70.3348 90.4914 69.926 90.9089C69.5214 91.322 69.2718 91.9159 69.1771 92.6906H73.4249Z" fill="black"/>
<path d="M80.7325 98.2552V96.5123H75.4583V98.2552H74.9161V95.97H75.4971C75.7854 95.5525 76.0393 95.1028 76.2588 94.6208C76.4826 94.1388 76.6698 93.6374 76.8204 93.1167C76.9711 92.5959 77.0873 92.0644 77.169 91.5222C77.2508 90.9799 77.2982 90.4398 77.3111 89.9018H80.2548V95.97H81.2747V98.2552H80.7325ZM79.6609 90.4441H77.8533C77.8189 90.9046 77.7608 91.3737 77.679 91.8514C77.5973 92.3291 77.4854 92.8046 77.3433 93.278C77.2056 93.7514 77.0378 94.2162 76.8398 94.6724C76.6461 95.1243 76.4202 95.5568 76.162 95.97H79.6609V90.4441Z" fill="black"/>
<path d="M87.1234 96.5123V93.3555H83.2243V96.5123H82.6304V89.9018H83.2243V92.8132H87.1234V89.9018H87.7173V96.5123H87.1234Z" fill="black"/>
<path d="M89.9767 93.2329C89.9767 94.1409 90.1855 94.851 90.6029 95.3632C91.0247 95.8753 91.6014 96.1314 92.333 96.1314C93.0732 96.1314 93.7963 95.8581 94.5021 95.3115V95.9442C93.8178 96.4305 93.0539 96.6736 92.2104 96.6736C91.3582 96.6736 90.6696 96.3681 90.1446 95.757C89.6195 95.1458 89.357 94.283 89.357 93.1683C89.357 92.2043 89.6303 91.393 90.1769 90.7346C90.7277 90.0718 91.4422 89.7404 92.3201 89.7404C93.1421 89.7404 93.7726 90.0288 94.2116 90.6055C94.6505 91.1822 94.87 91.9697 94.87 92.9682V93.2329H89.9767ZM94.2503 92.6906C94.2245 91.9288 94.0416 91.3371 93.7016 90.9153C93.3616 90.4936 92.8925 90.2827 92.2943 90.2827C91.6745 90.2827 91.1603 90.4914 90.7514 90.9089C90.3469 91.322 90.0973 91.9159 90.0026 92.6906H94.2503Z" fill="black"/>
<path d="M101.19 94.6208C101.19 94.9005 101.14 95.1566 101.041 95.389C100.947 95.6171 100.811 95.8151 100.635 95.9829C100.458 96.1507 100.247 96.282 100.002 96.3767C99.7611 96.4671 99.4965 96.5123 99.2081 96.5123H96.5097V89.9018H99.0209C99.3523 89.9018 99.6363 89.9427 99.873 90.0245C100.114 90.1062 100.312 90.2181 100.467 90.3602C100.622 90.5022 100.736 90.67 100.809 90.8637C100.887 91.0574 100.925 91.2661 100.925 91.4899C100.925 91.6921 100.895 91.8815 100.835 92.058C100.779 92.2301 100.697 92.3872 100.59 92.5292C100.486 92.6669 100.357 92.7831 100.202 92.8778C100.052 92.9725 99.8816 93.0392 99.6923 93.0779C99.9376 93.1037 100.153 93.1618 100.338 93.2522C100.527 93.3383 100.684 93.4502 100.809 93.5879C100.934 93.7213 101.029 93.8763 101.093 94.0527C101.158 94.2292 101.19 94.4185 101.19 94.6208ZM100.306 91.5802C100.306 91.4296 100.282 91.2854 100.235 91.1477C100.192 91.01 100.116 90.8895 100.009 90.7862C99.901 90.6829 99.7611 90.6012 99.589 90.5409C99.4168 90.4764 99.2017 90.4441 98.9434 90.4441H97.1036V92.8391H98.7821C99.0747 92.8391 99.3179 92.8046 99.5115 92.7358C99.7095 92.6626 99.8666 92.5679 99.9828 92.4517C100.099 92.3312 100.181 92.1957 100.228 92.045C100.28 91.8944 100.306 91.7395 100.306 91.5802ZM100.57 94.6724C100.57 94.496 100.54 94.3303 100.48 94.1754C100.424 94.0161 100.329 93.8784 100.196 93.7622C100.067 93.646 99.8924 93.5535 99.6729 93.4846C99.4577 93.4158 99.1909 93.3813 98.8724 93.3813H97.1036V95.97H99.0855C99.3308 95.97 99.546 95.9399 99.731 95.8796C99.9161 95.8151 100.071 95.7268 100.196 95.6149C100.321 95.4987 100.413 95.361 100.473 95.2018C100.538 95.0425 100.57 94.8661 100.57 94.6724Z" fill="black"/>
<path d="M107.342 96.5123V93.3555H103.443V96.5123H102.849V89.9018H103.443V92.8132H107.342V89.9018H107.936V96.5123H107.342Z" fill="black"/>
<path d="M112.707 96.6736C111.743 96.6736 110.979 96.3573 110.415 95.7247C109.855 95.0877 109.576 94.2614 109.576 93.2458C109.576 92.1483 109.868 91.2898 110.454 90.67C111.043 90.0503 111.818 89.7404 112.778 89.7404C113.72 89.7404 114.465 90.0481 115.011 90.6636C115.558 91.279 115.831 92.1311 115.831 93.2199C115.831 94.2485 115.551 95.0813 114.992 95.7182C114.437 96.3552 113.675 96.6736 112.707 96.6736ZM112.752 90.2827C111.973 90.2827 111.351 90.5452 110.886 91.0703C110.426 91.5953 110.195 92.3248 110.195 93.2587C110.195 94.1237 110.421 94.8188 110.873 95.3438C111.325 95.8689 111.943 96.1314 112.726 96.1314C113.522 96.1314 114.135 95.8732 114.566 95.3567C114.996 94.8403 115.211 94.1237 115.211 93.207C115.211 92.2645 114.996 91.5415 114.566 91.038C114.14 90.5345 113.535 90.2827 112.752 90.2827Z" fill="black"/>
<path d="M125.676 96.5123V90.9863C125.641 91.0337 125.607 91.081 125.572 91.1284C125.542 91.1757 125.516 91.2123 125.495 91.2381L121.525 96.5123H121.105V89.9018H121.699V95.3761C121.725 95.3287 121.751 95.2836 121.777 95.2405C121.802 95.1975 121.83 95.1587 121.86 95.1243L125.798 89.9018H126.276V96.5123H125.676Z" fill="black"/>
<path d="M132.667 96.2218C132.176 96.523 131.591 96.6736 130.911 96.6736C130.012 96.6736 129.286 96.3659 128.736 95.7505C128.185 95.1308 127.909 94.3217 127.909 93.3232C127.909 92.2731 128.219 91.4146 128.839 90.7475C129.459 90.0761 130.255 89.7404 131.227 89.7404C131.731 89.7404 132.219 89.8437 132.693 90.0503V90.7217C132.219 90.429 131.701 90.2827 131.137 90.2827C130.362 90.2827 129.734 90.5624 129.252 91.1219C128.77 91.6771 128.529 92.3979 128.529 93.2845C128.529 94.1409 128.748 94.8295 129.187 95.3503C129.631 95.871 130.214 96.1314 130.937 96.1314C131.6 96.1314 132.176 95.9549 132.667 95.602V96.2218Z" fill="black"/>
<path d="M138.754 96.5123V90.4441H134.855V96.5123H134.261V89.9018H139.348V96.5123H138.754Z" fill="black"/>
<path d="M144.119 96.6736C143.155 96.6736 142.391 96.3573 141.827 95.7247C141.268 95.0877 140.988 94.2614 140.988 93.2458C140.988 92.1483 141.281 91.2898 141.866 90.67C142.456 90.0503 143.23 89.7404 144.19 89.7404C145.133 89.7404 145.877 90.0481 146.424 90.6636C146.97 91.279 147.243 92.1311 147.243 93.2199C147.243 94.2485 146.964 95.0813 146.404 95.7182C145.849 96.3552 145.087 96.6736 144.119 96.6736ZM144.164 90.2827C143.385 90.2827 142.763 90.5452 142.299 91.0703C141.838 91.5953 141.608 92.3248 141.608 93.2587C141.608 94.1237 141.834 94.8188 142.286 95.3438C142.738 95.8689 143.355 96.1314 144.138 96.1314C144.935 96.1314 145.548 95.8732 145.978 95.3567C146.409 94.8403 146.624 94.1237 146.624 93.207C146.624 92.2645 146.409 91.5415 145.978 91.038C145.552 90.5345 144.947 90.2827 144.164 90.2827Z" fill="black"/>
<path d="M152.802 96.5123V90.4441H150.871C150.798 91.4253 150.701 92.299 150.581 93.065C150.465 93.8268 150.31 94.4702 150.116 94.9952C149.927 95.5203 149.692 95.9205 149.413 96.1959C149.133 96.4671 148.795 96.6026 148.399 96.6026C148.334 96.6026 148.268 96.5962 148.199 96.5833C148.134 96.5747 148.078 96.5639 148.031 96.551V96.0216C148.065 96.0345 148.121 96.0475 148.199 96.0604C148.276 96.069 148.339 96.0733 148.386 96.0733C148.674 96.0733 148.926 95.9399 149.141 95.673C149.357 95.4019 149.542 95.006 149.697 94.4852C149.851 93.9602 149.981 93.3146 150.084 92.5486C150.191 91.7782 150.278 90.896 150.342 89.9018H153.396V96.5123H152.802Z" fill="black"/>
<path d="M160.045 94.5304C160.045 94.8661 159.987 95.1587 159.87 95.4084C159.754 95.658 159.601 95.8645 159.412 96.0281C159.227 96.1916 159.014 96.3143 158.773 96.3961C158.536 96.4735 158.295 96.5123 158.05 96.5123H155.513V89.9018H156.107V92.6131H157.998C158.312 92.6131 158.597 92.6562 158.85 92.7422C159.104 92.8283 159.32 92.9553 159.496 93.1231C159.672 93.2867 159.808 93.4868 159.903 93.7235C159.997 93.9602 160.045 94.2292 160.045 94.5304ZM159.425 94.5304C159.425 94.3367 159.393 94.156 159.328 93.9882C159.268 93.8203 159.173 93.6761 159.044 93.5556C158.915 93.4308 158.754 93.334 158.56 93.2651C158.366 93.192 158.138 93.1554 157.876 93.1554H156.107V95.97H157.889C158.168 95.97 158.405 95.9334 158.599 95.8602C158.792 95.7828 158.949 95.6795 159.07 95.5504C159.195 95.417 159.285 95.2642 159.341 95.092C159.397 94.9156 159.425 94.7284 159.425 94.5304Z" fill="black"/>
<path d="M166.023 94.6724C166.023 94.9263 165.973 95.1738 165.874 95.4148C165.779 95.6558 165.622 95.871 165.403 96.0604C165.183 96.2454 164.893 96.3939 164.531 96.5058C164.174 96.6177 163.733 96.6736 163.208 96.6736C163.031 96.6736 162.846 96.6629 162.653 96.6414C162.459 96.6198 162.268 96.5897 162.078 96.551C161.893 96.5123 161.717 96.4671 161.549 96.4154C161.385 96.3595 161.245 96.2992 161.129 96.2347V95.6149C161.28 95.6967 161.441 95.7699 161.613 95.8344C161.79 95.899 161.968 95.9528 162.149 95.9958C162.334 96.0388 162.517 96.0733 162.698 96.0991C162.879 96.1206 163.053 96.1314 163.221 96.1314C163.651 96.1314 164.006 96.0926 164.286 96.0152C164.57 95.9377 164.794 95.8366 164.957 95.7118C165.125 95.5827 165.241 95.4342 165.306 95.2663C165.371 95.0985 165.403 94.9242 165.403 94.7434C165.403 94.4809 165.351 94.2614 165.248 94.085C165.149 93.9085 165.005 93.7665 164.815 93.6589C164.63 93.5513 164.402 93.476 164.131 93.433C163.864 93.3899 163.565 93.3684 163.234 93.3684H162.33V92.8262H163.15C163.795 92.8262 164.275 92.7207 164.589 92.5098C164.908 92.299 165.067 91.9676 165.067 91.5157C165.067 91.3349 165.033 91.1693 164.964 91.0186C164.895 90.868 164.79 90.7389 164.647 90.6313C164.505 90.5194 164.325 90.4333 164.105 90.3731C163.886 90.3128 163.625 90.2827 163.324 90.2827C162.963 90.2827 162.601 90.33 162.24 90.4247C161.882 90.5194 161.555 90.6356 161.258 90.7733V90.1923C161.383 90.1407 161.525 90.089 161.684 90.0374C161.844 89.9814 162.014 89.9319 162.194 89.8889C162.379 89.8459 162.573 89.8114 162.775 89.7856C162.978 89.7555 163.186 89.7404 163.402 89.7404C163.819 89.7404 164.172 89.7899 164.46 89.8889C164.753 89.9836 164.99 90.1105 165.17 90.2698C165.355 90.429 165.489 90.6119 165.571 90.8185C165.652 91.0208 165.693 91.2274 165.693 91.4382C165.693 91.8643 165.573 92.2172 165.332 92.4969C165.095 92.7767 164.757 92.9553 164.318 93.0327V93.0586C164.589 93.0715 164.83 93.1231 165.041 93.2135C165.252 93.2996 165.431 93.4136 165.577 93.5556C165.723 93.6977 165.833 93.8655 165.906 94.0592C165.984 94.2485 166.023 94.4529 166.023 94.6724Z" fill="black"/>
<path d="M169.289 97.8615C169.048 98.4554 168.781 98.8965 168.489 99.1848C168.196 99.4732 167.819 99.6173 167.359 99.6173C167.165 99.6173 166.993 99.5872 166.842 99.527V98.9331C166.997 98.9933 167.178 99.0234 167.385 99.0234C167.914 99.0234 168.331 98.6576 168.637 97.926L169.25 96.4606L166.746 89.9018H167.41L169.405 95.2857C169.448 95.4019 169.478 95.4901 169.496 95.5504C169.513 95.6322 169.532 95.7053 169.554 95.7699H169.579L169.734 95.3244L171.865 89.9018H172.51L169.289 97.8615Z" fill="black"/>
<path d="M182.323 93.2199C182.323 93.6804 182.265 94.1194 182.148 94.5369C182.032 94.9543 181.854 95.3223 181.613 95.6408C181.376 95.9549 181.075 96.2067 180.709 96.3961C180.343 96.5811 179.913 96.6736 179.418 96.6736C178.94 96.6736 178.52 96.5854 178.159 96.409C177.797 96.2325 177.494 95.9937 177.249 95.6924C177.008 95.3868 176.823 95.0339 176.693 94.6337C176.569 94.2292 176.502 93.8031 176.493 93.3555H174.26V96.5123H173.666V89.9018H174.26V92.8132H176.506C176.545 92.271 176.655 91.8062 176.835 91.4189C177.016 91.0315 177.242 90.7131 177.513 90.4634C177.784 90.2138 178.09 90.0309 178.43 89.9147C178.77 89.7985 179.121 89.7404 179.482 89.7404C179.913 89.7404 180.302 89.8179 180.651 89.9728C181.004 90.1278 181.303 90.3537 181.548 90.6507C181.798 90.9433 181.989 91.307 182.123 91.7416C182.256 92.172 182.323 92.6648 182.323 93.2199ZM181.703 93.207C181.703 92.7164 181.649 92.2882 181.542 91.9224C181.438 91.5523 181.29 91.2467 181.096 91.0057C180.902 90.7647 180.666 90.584 180.386 90.4634C180.111 90.3429 179.801 90.2827 179.456 90.2827C179.104 90.2827 178.783 90.3494 178.495 90.4828C178.206 90.6162 177.959 90.8099 177.752 91.0638C177.55 91.3177 177.393 91.6297 177.281 91.9999C177.169 92.3657 177.113 92.7853 177.113 93.2587C177.113 93.6804 177.165 94.0678 177.268 94.4207C177.371 94.7736 177.522 95.077 177.72 95.3309C177.918 95.5848 178.159 95.7828 178.443 95.9248C178.731 96.0625 179.06 96.1314 179.431 96.1314C179.818 96.1314 180.154 96.0604 180.438 95.9183C180.726 95.772 180.963 95.5697 181.148 95.3115C181.337 95.049 181.477 94.7391 181.567 94.3819C181.658 94.0247 181.703 93.6331 181.703 93.207Z" fill="black"/>
<path d="M192.258 98.9202V96.5123H183.969V89.9018H184.563V95.97H187.577V89.9018H188.171V95.97H191.186V89.9018H191.78V95.97H192.8V98.9202H192.258Z" fill="black"/>
<path d="M198.726 96.5123V90.9863C198.692 91.0337 198.657 91.081 198.623 91.1284C198.593 91.1757 198.567 91.2123 198.545 91.2381L194.575 96.5123H194.156V89.9018H194.749V95.3761C194.775 95.3287 194.801 95.2836 194.827 95.2405C194.853 95.1975 194.881 95.1587 194.911 95.1243L198.849 89.9018H199.326V96.5123H198.726Z" fill="black"/>
<path d="M203.484 93.2716L205.64 96.5123H204.885L203.142 93.7235H203.116L202.883 94.0914C202.853 94.1431 202.817 94.2012 202.774 94.2657L201.315 96.5123H200.592L202.799 93.2845L200.63 89.9018H201.328L202.799 92.271C202.989 92.5765 203.103 92.7659 203.142 92.8391H203.167L203.497 92.2968L205.033 89.9018H205.73L203.484 93.2716Z" fill="black"/>
<path d="M218.783 96.5123V89.9406C218.783 89.7813 218.807 89.3273 218.854 88.5784H218.828C218.695 88.927 218.583 89.196 218.493 89.3854L215.2 96.5123H214.994L211.689 89.4241C211.581 89.196 211.48 88.9055 211.385 88.5526H211.353C211.383 88.9658 211.398 89.3768 211.398 89.7856V96.5123H210.759V87.2551H211.353L214.807 94.7112C214.828 94.7542 214.852 94.8123 214.878 94.8855C214.904 94.9586 214.932 95.0318 214.962 95.105C215.005 95.2168 215.05 95.3417 215.097 95.4794H215.136L215.207 95.2728C215.211 95.2556 215.284 95.0512 215.426 94.6595L218.828 87.2551H219.397V96.5123H218.783Z" fill="black"/>
<path d="M221.934 88.2363C221.804 88.2363 221.69 88.189 221.591 88.0943C221.492 87.9996 221.443 87.8791 221.443 87.7328C221.443 87.5908 221.492 87.4767 221.591 87.3906C221.695 87.3003 221.809 87.2551 221.934 87.2551C222.067 87.2551 222.183 87.2981 222.282 87.3842C222.385 87.4703 222.437 87.5864 222.437 87.7328C222.437 87.8705 222.388 87.9888 222.289 88.0878C222.19 88.1868 222.071 88.2363 221.934 88.2363ZM221.643 96.5123V89.9018H222.237V96.5123H221.643Z" fill="black"/>
<path d="M228.634 96.2218C228.144 96.523 227.558 96.6736 226.878 96.6736C225.979 96.6736 225.254 96.3659 224.703 95.7505C224.152 95.1308 223.877 94.3217 223.877 93.3232C223.877 92.2731 224.187 91.4146 224.806 90.7475C225.426 90.0761 226.222 89.7404 227.195 89.7404C227.698 89.7404 228.187 89.8437 228.66 90.0503V90.7217C228.187 90.429 227.668 90.2827 227.104 90.2827C226.33 90.2827 225.701 90.5624 225.219 91.1219C224.737 91.6771 224.496 92.3979 224.496 93.2845C224.496 94.1409 224.716 94.8295 225.155 95.3503C225.598 95.871 226.181 96.1314 226.904 96.1314C227.567 96.1314 228.144 95.9549 228.634 95.602V96.2218Z" fill="black"/>
<path d="M233.347 90.5215C233.149 90.3795 232.917 90.3085 232.65 90.3085C232.129 90.3085 231.692 90.5775 231.339 91.1155C230.986 91.6534 230.81 92.4173 230.81 93.4072V96.5123H230.229V89.9018H230.81V91.3672H230.836C230.986 90.8637 231.225 90.4721 231.552 90.1923C231.879 89.9126 232.258 89.7727 232.688 89.7727C232.934 89.7727 233.153 89.8114 233.347 89.8889V90.5215Z" fill="black"/>
<path d="M236.975 96.6736C236.011 96.6736 235.247 96.3573 234.683 95.7247C234.124 95.0877 233.844 94.2614 233.844 93.2458C233.844 92.1483 234.137 91.2898 234.722 90.67C235.312 90.0503 236.086 89.7404 237.046 89.7404C237.988 89.7404 238.733 90.0481 239.279 90.6636C239.826 91.279 240.099 92.1311 240.099 93.2199C240.099 94.2485 239.82 95.0813 239.26 95.7182C238.705 96.3552 237.943 96.6736 236.975 96.6736ZM237.02 90.2827C236.241 90.2827 235.619 90.5452 235.154 91.0703C234.694 91.5953 234.464 92.3248 234.464 93.2587C234.464 94.1237 234.69 94.8188 235.142 95.3438C235.593 95.8689 236.211 96.1314 236.994 96.1314C237.79 96.1314 238.404 95.8732 238.834 95.3567C239.264 94.8403 239.48 94.1237 239.48 93.207C239.48 92.2645 239.264 91.5415 238.834 91.038C238.408 90.5345 237.803 90.2827 237.02 90.2827Z" fill="black"/>
<path d="M241.403 96.2218V95.5052C241.627 95.6989 241.898 95.8516 242.217 95.9635C242.535 96.0754 242.811 96.1314 243.043 96.1314C244.08 96.1314 244.599 95.7075 244.599 94.8596C244.599 94.567 244.485 94.3174 244.257 94.1108C244.029 93.9042 243.658 93.6912 243.146 93.4717C242.514 93.1963 242.068 92.9122 241.81 92.6196C241.556 92.3226 241.429 91.9633 241.429 91.5415C241.429 91.0036 241.634 90.5689 242.042 90.2375C242.456 89.9061 242.963 89.7404 243.566 89.7404C244.134 89.7404 244.62 89.8566 245.025 90.089V90.7604C244.534 90.4419 244.026 90.2827 243.501 90.2827C243.067 90.2827 242.716 90.3967 242.449 90.6248C242.182 90.8486 242.049 91.1413 242.049 91.5028C242.049 91.817 242.133 92.073 242.301 92.271C242.469 92.4647 242.839 92.6884 243.411 92.9424C244.1 93.2522 244.573 93.5406 244.831 93.8074C245.089 94.0699 245.219 94.4207 245.219 94.8596C245.219 95.3847 245.021 95.8194 244.625 96.1637C244.233 96.5036 243.691 96.6736 242.998 96.6736C242.361 96.6736 241.829 96.523 241.403 96.2218Z" fill="black"/>
<path d="M249.537 96.6736C248.573 96.6736 247.809 96.3573 247.246 95.7247C246.686 95.0877 246.406 94.2614 246.406 93.2458C246.406 92.1483 246.699 91.2898 247.284 90.67C247.874 90.0503 248.649 89.7404 249.608 89.7404C250.551 89.7404 251.295 90.0481 251.842 90.6636C252.388 91.279 252.662 92.1311 252.662 93.2199C252.662 94.2485 252.382 95.0813 251.823 95.7182C251.267 96.3552 250.506 96.6736 249.537 96.6736ZM249.582 90.2827C248.803 90.2827 248.182 90.5452 247.717 91.0703C247.256 91.5953 247.026 92.3248 247.026 93.2587C247.026 94.1237 247.252 94.8188 247.704 95.3438C248.156 95.8689 248.773 96.1314 249.557 96.1314C250.353 96.1314 250.966 95.8732 251.396 95.3567C251.827 94.8403 252.042 94.1237 252.042 93.207C252.042 92.2645 251.827 91.5415 251.396 91.038C250.97 90.5345 250.366 90.2827 249.582 90.2827Z" fill="black"/>
<path d="M256.838 87.3519C256.679 87.2271 256.438 87.1647 256.115 87.1647C255.302 87.1647 254.895 87.7113 254.895 88.8044V89.9018H256.645V90.4441H254.895V96.5123H254.301V90.4441H253.114V89.9018H254.301V88.7527C254.301 88.0555 254.476 87.5262 254.824 87.1647C255.177 86.8032 255.616 86.6224 256.141 86.6224C256.421 86.6224 256.653 86.6633 256.838 86.7451V87.3519Z" fill="black"/>
<path d="M260.576 96.4219C260.266 96.5682 259.976 96.6414 259.705 96.6414C258.728 96.6414 258.239 96.0561 258.239 94.8855V90.4441H257.051V89.9018H258.239V88.1847C258.334 88.1502 258.433 88.1158 258.536 88.0814C258.64 88.0512 258.739 88.019 258.833 87.9845V89.9018H260.576V90.4441H258.833V94.808C258.833 95.2642 258.904 95.5956 259.046 95.8021C259.193 96.0044 259.438 96.1056 259.782 96.1056C260.027 96.1056 260.292 96.0259 260.576 95.8667V96.4219Z" fill="black"/>
<path d="M56.5825 101.063V109.733H55.9498V101.063H53.2772V100.476H59.255V101.063H56.5825Z" fill="black"/>
<path d="M58.7709 106.454C58.7709 107.362 58.9796 108.072 59.3971 108.584C59.8188 109.096 60.3955 109.352 61.1271 109.352C61.8674 109.352 62.5904 109.079 63.2962 108.532V109.165C62.6119 109.651 61.848 109.894 61.0045 109.894C60.1524 109.894 59.4638 109.589 58.9387 108.978C58.4137 108.367 58.1511 107.504 58.1511 106.389C58.1511 105.425 58.4244 104.614 58.971 103.955C59.5219 103.293 60.2363 102.961 61.1142 102.961C61.9362 102.961 62.5667 103.25 63.0057 103.826C63.4447 104.403 63.6641 105.191 63.6641 106.189V106.454H58.7709ZM63.0444 105.911C63.0186 105.15 62.8357 104.558 62.4957 104.136C62.1557 103.714 61.6866 103.504 61.0884 103.504C60.4687 103.504 59.9544 103.712 59.5455 104.13C59.141 104.543 58.8914 105.137 58.7967 105.911H63.0444Z" fill="black"/>
<path d="M69.2546 109.733V108.41H69.2288C69.0179 108.862 68.7102 109.223 68.3056 109.494C67.9054 109.761 67.46 109.894 66.9694 109.894C66.341 109.894 65.844 109.718 65.4781 109.365C65.1123 109.012 64.9294 108.567 64.9294 108.029C64.9294 106.875 65.6933 106.178 67.2211 105.937L69.2546 105.634C69.2546 104.214 68.721 103.504 67.6536 103.504C66.9263 103.504 66.2184 103.796 65.5298 104.382V103.665C65.7751 103.471 66.1065 103.306 66.5239 103.168C66.9457 103.03 67.3416 102.961 67.7117 102.961C68.3917 102.961 68.9168 103.172 69.2869 103.594C69.6613 104.016 69.8485 104.629 69.8485 105.434V109.733H69.2546ZM67.4342 106.441C66.7413 106.54 66.255 106.701 65.9752 106.925C65.6955 107.144 65.5556 107.504 65.5556 108.003C65.5556 108.395 65.6847 108.717 65.9429 108.971C66.2055 109.225 66.5691 109.352 67.0339 109.352C67.6709 109.352 68.2002 109.118 68.622 108.649C69.0437 108.175 69.2546 107.566 69.2546 106.822V106.176L67.4342 106.441Z" fill="black"/>
<path d="M80.1257 109.733V105.757C80.1257 104.926 79.9944 104.343 79.7319 104.007C79.4737 103.671 79.0627 103.504 78.4989 103.504C77.9781 103.504 77.5284 103.727 77.1497 104.175C76.771 104.623 76.5816 105.184 76.5816 105.86V109.733H75.9877V105.711C75.9877 104.239 75.4282 103.504 74.3093 103.504C73.7713 103.504 73.3237 103.729 72.9665 104.181C72.6093 104.629 72.4307 105.21 72.4307 105.924V109.733H71.8368V103.123H72.4307V104.22H72.4565C72.917 103.381 73.5905 102.961 74.4771 102.961C74.9591 102.961 75.3701 103.101 75.7101 103.381C76.0544 103.656 76.2868 104.02 76.4073 104.472C76.6139 103.994 76.9087 103.624 77.2917 103.362C77.679 103.095 78.0986 102.961 78.5505 102.961C79.9966 102.961 80.7196 103.856 80.7196 105.647V109.733H80.1257Z" fill="black"/>
<path d="M82.3657 109.443V108.726C82.5895 108.92 82.8606 109.072 83.1791 109.184C83.4976 109.296 83.773 109.352 84.0054 109.352C85.0426 109.352 85.5612 108.928 85.5612 108.081C85.5612 107.788 85.4471 107.538 85.2191 107.332C84.991 107.125 84.6208 106.912 84.1087 106.693C83.4761 106.417 83.0306 106.133 82.7724 105.84C82.5185 105.543 82.3915 105.184 82.3915 104.762C82.3915 104.224 82.596 103.79 83.0048 103.458C83.418 103.127 83.9258 102.961 84.5283 102.961C85.0964 102.961 85.5827 103.077 85.9873 103.31V103.981C85.4966 103.663 84.9888 103.504 84.4638 103.504C84.0291 103.504 83.6783 103.618 83.4115 103.846C83.1447 104.069 83.0113 104.362 83.0113 104.724C83.0113 105.038 83.0952 105.294 83.263 105.492C83.4309 105.686 83.801 105.909 84.3734 106.163C85.062 106.473 85.5354 106.761 85.7936 107.028C86.0518 107.291 86.1809 107.642 86.1809 108.081C86.1809 108.606 85.9829 109.04 85.587 109.385C85.1954 109.725 84.6531 109.894 83.9602 109.894C83.3233 109.894 82.7918 109.744 82.3657 109.443Z" fill="black"/>
<path d="M63.9895 183.77V183.137L66.5136 180.452C67.4131 179.492 68.0027 178.784 68.2824 178.328C68.5664 177.872 68.7085 177.364 68.7085 176.804C68.7085 176.202 68.5406 175.735 68.2049 175.404C67.8693 175.068 67.3937 174.9 66.7783 174.9C65.9606 174.9 65.1902 175.221 64.4672 175.862V175.165C65.173 174.627 65.9692 174.358 66.8557 174.358C67.6476 174.358 68.2566 174.571 68.6826 174.997C69.113 175.423 69.3282 175.993 69.3282 176.708C69.3282 177.345 69.1754 177.921 68.8699 178.438C68.5643 178.954 67.9123 179.744 66.9138 180.807L64.648 183.202V183.228H69.2766V183.77H63.9895Z" fill="black"/>
<path d="M73.6082 183.931C72.7561 183.931 72.089 183.54 71.607 182.756C71.125 181.973 70.884 180.835 70.884 179.341C70.884 177.693 71.1357 176.452 71.6393 175.617C72.1471 174.777 72.8701 174.358 73.8083 174.358C75.59 174.358 76.4809 175.939 76.4809 179.103C76.4809 180.678 76.2291 181.876 75.7256 182.698C75.2221 183.52 74.5163 183.931 73.6082 183.931ZM73.7567 174.9C73.0466 174.9 72.4935 175.264 72.0976 175.991C71.7017 176.718 71.5037 177.809 71.5037 179.264C71.5037 180.59 71.6931 181.61 72.0718 182.324C72.4505 183.034 72.9885 183.389 73.6857 183.389C74.3699 183.389 74.9014 183.028 75.2802 182.305C75.6632 181.577 75.8547 180.54 75.8547 179.193C75.8547 176.331 75.1554 174.9 73.7567 174.9Z" fill="black"/>
<path d="M78.1916 183.77V183.228H80.309V174.965L78.0431 175.772V175.178L80.9029 174.184V183.228H82.988V183.77H78.1916Z" fill="black"/>
<path d="M86.3578 183.77H85.7122L89.308 175.055H84.4922V174.513H90.0697V174.674L86.3578 183.77Z" fill="black"/>
<path d="M143.315 183.77V183.137L145.839 180.452C146.738 179.492 147.328 178.784 147.608 178.328C147.892 177.872 148.034 177.364 148.034 176.804C148.034 176.202 147.866 175.735 147.53 175.404C147.194 175.068 146.719 174.9 146.103 174.9C145.286 174.9 144.515 175.221 143.792 175.862V175.165C144.498 174.627 145.294 174.358 146.181 174.358C146.973 174.358 147.582 174.571 148.008 174.997C148.438 175.423 148.653 175.993 148.653 176.708C148.653 177.345 148.501 177.921 148.195 178.438C147.889 178.954 147.237 179.744 146.239 180.807L143.973 183.202V183.228H148.602V183.77H143.315Z" fill="black"/>
<path d="M152.933 183.931C152.081 183.931 151.414 183.54 150.932 182.756C150.45 181.973 150.209 180.835 150.209 179.341C150.209 177.693 150.461 176.452 150.964 175.617C151.472 174.777 152.195 174.358 153.133 174.358C154.915 174.358 155.806 175.939 155.806 179.103C155.806 180.678 155.554 181.876 155.051 182.698C154.547 183.52 153.841 183.931 152.933 183.931ZM153.082 174.9C152.372 174.9 151.819 175.264 151.423 175.991C151.027 176.718 150.829 177.809 150.829 179.264C150.829 180.59 151.018 181.61 151.397 182.324C151.776 183.034 152.314 183.389 153.011 183.389C153.695 183.389 154.227 183.028 154.605 182.305C154.988 181.577 155.18 180.54 155.18 179.193C155.18 176.331 154.48 174.9 153.082 174.9Z" fill="black"/>
<path d="M157.517 183.77V183.228H159.634V174.965L157.368 175.772V175.178L160.228 174.184V183.228H162.313V183.77H157.517Z" fill="black"/>
<path d="M166.012 178.961V178.928C164.842 178.365 164.256 177.59 164.256 176.604C164.256 175.963 164.491 175.429 164.96 175.003C165.433 174.573 166.04 174.358 166.78 174.358C167.456 174.358 168.005 174.554 168.427 174.945C168.853 175.337 169.066 175.84 169.066 176.456C169.066 177.506 168.444 178.322 167.2 178.903V178.928C168.646 179.453 169.369 180.31 169.369 181.498C169.369 182.216 169.117 182.802 168.614 183.254C168.11 183.705 167.394 183.931 166.464 183.931C165.707 183.931 165.095 183.714 164.631 183.279C164.17 182.84 163.94 182.277 163.94 181.588C163.94 180.422 164.631 179.546 166.012 178.961ZM166.632 178.625C167.841 178.147 168.446 177.448 168.446 176.527C168.446 176.015 168.282 175.617 167.955 175.333C167.632 175.044 167.211 174.9 166.69 174.9C166.182 174.9 165.752 175.055 165.399 175.365C165.05 175.675 164.876 176.058 164.876 176.514C164.876 177.435 165.461 178.139 166.632 178.625ZM166.58 179.251C165.862 179.544 165.345 179.867 165.031 180.219C164.717 180.572 164.56 181.02 164.56 181.562C164.56 182.092 164.749 182.528 165.128 182.873C165.506 183.217 166.016 183.389 166.658 183.389C167.312 183.389 167.824 183.217 168.194 182.873C168.564 182.524 168.749 182.092 168.749 181.575C168.749 181.003 168.571 180.536 168.213 180.174C167.861 179.808 167.316 179.501 166.58 179.251Z" fill="black"/>
<path d="M230.572 183.77V183.137L233.096 180.452C233.996 179.492 234.585 178.784 234.865 178.328C235.149 177.872 235.291 177.364 235.291 176.804C235.291 176.202 235.123 175.735 234.788 175.404C234.452 175.068 233.976 174.9 233.361 174.9C232.543 174.9 231.773 175.221 231.05 175.862V175.165C231.756 174.627 232.552 174.358 233.439 174.358C234.23 174.358 234.839 174.571 235.265 174.997C235.696 175.423 235.911 175.993 235.911 176.708C235.911 177.345 235.758 177.921 235.453 178.438C235.147 178.954 234.495 179.744 233.497 180.807L231.231 183.202V183.228H235.859V183.77H230.572Z" fill="black"/>
<path d="M240.191 183.931C239.339 183.931 238.672 183.54 238.19 182.756C237.708 181.973 237.467 180.835 237.467 179.341C237.467 177.693 237.719 176.452 238.222 175.617C238.73 174.777 239.453 174.358 240.391 174.358C242.173 174.358 243.064 175.939 243.064 179.103C243.064 180.678 242.812 181.876 242.308 182.698C241.805 183.52 241.099 183.931 240.191 183.931ZM240.339 174.9C239.629 174.9 239.076 175.264 238.68 175.991C238.284 176.718 238.086 177.809 238.086 179.264C238.086 180.59 238.276 181.61 238.655 182.324C239.033 183.034 239.571 183.389 240.268 183.389C240.953 183.389 241.484 183.028 241.863 182.305C242.246 181.577 242.437 180.54 242.437 179.193C242.437 176.331 241.738 174.9 240.339 174.9Z" fill="black"/>
<path d="M244.774 183.77V183.228H246.892V174.965L244.626 175.772V175.178L247.486 174.184V183.228H249.571V183.77H244.774Z" fill="black"/>
<path d="M251.643 183.692V183.04C252.138 183.273 252.592 183.389 253.005 183.389C253.982 183.389 254.727 183 255.239 182.221C255.751 181.437 256.007 180.284 256.007 178.76H255.981C255.555 179.755 254.798 180.252 253.709 180.252C252.951 180.252 252.336 179.987 251.862 179.458C251.389 178.924 251.152 178.242 251.152 177.411C251.152 176.499 251.415 175.763 251.94 175.204C252.469 174.64 253.139 174.358 253.948 174.358C254.774 174.358 255.426 174.709 255.904 175.41C256.386 176.107 256.627 177.153 256.627 178.547C256.627 180.278 256.315 181.607 255.691 182.537C255.071 183.467 254.171 183.931 252.992 183.931C252.536 183.931 252.086 183.852 251.643 183.692ZM253.864 174.9C253.257 174.9 252.758 175.126 252.366 175.578C251.974 176.03 251.779 176.6 251.779 177.289C251.779 178.037 251.97 178.629 252.353 179.064C252.736 179.494 253.235 179.709 253.851 179.709C254.419 179.709 254.907 179.503 255.316 179.09C255.725 178.672 255.929 178.175 255.929 177.598C255.929 176.802 255.736 176.155 255.348 175.655C254.965 175.152 254.471 174.9 253.864 174.9Z" fill="black"/>
<path d="M280.812 183.77V183.137L283.336 180.452C284.235 179.492 284.825 178.784 285.104 178.328C285.388 177.872 285.53 177.364 285.53 176.804C285.53 176.202 285.363 175.735 285.027 175.404C284.691 175.068 284.216 174.9 283.6 174.9C282.783 174.9 282.012 175.221 281.289 175.862V175.165C281.995 174.627 282.791 174.358 283.678 174.358C284.47 174.358 285.079 174.571 285.505 174.997C285.935 175.423 286.15 175.993 286.15 176.708C286.15 177.345 285.997 177.921 285.692 178.438C285.386 178.954 284.734 179.744 283.736 180.807L281.47 183.202V183.228H286.099V183.77H280.812Z" fill="black"/>
<path d="M290.43 183.931C289.578 183.931 288.911 183.54 288.429 182.756C287.947 181.973 287.706 180.835 287.706 179.341C287.706 177.693 287.958 176.452 288.461 175.617C288.969 174.777 289.692 174.358 290.63 174.358C292.412 174.358 293.303 175.939 293.303 179.103C293.303 180.678 293.051 181.876 292.548 182.698C292.044 183.52 291.338 183.931 290.43 183.931ZM290.579 174.9C289.869 174.9 289.316 175.264 288.92 175.991C288.524 176.718 288.326 177.809 288.326 179.264C288.326 180.59 288.515 181.609 288.894 182.324C289.273 183.034 289.81 183.389 290.508 183.389C291.192 183.389 291.723 183.028 292.102 182.305C292.485 181.577 292.677 180.54 292.677 179.193C292.677 176.331 291.977 174.9 290.579 174.9Z" fill="black"/>
<path d="M294.446 183.77V183.137L296.97 180.452C297.869 179.492 298.459 178.784 298.738 178.328C299.022 177.872 299.165 177.364 299.165 176.804C299.165 176.202 298.997 175.735 298.661 175.404C298.325 175.068 297.85 174.9 297.234 174.9C296.417 174.9 295.646 175.221 294.923 175.862V175.165C295.629 174.627 296.425 174.358 297.312 174.358C298.104 174.358 298.713 174.571 299.139 174.997C299.569 175.423 299.784 175.993 299.784 176.708C299.784 177.345 299.631 177.921 299.326 178.438C299.02 178.954 298.368 179.744 297.37 180.807L295.104 183.202V183.228H299.733V183.77H294.446Z" fill="black"/>
<path d="M304.064 183.931C303.212 183.931 302.545 183.54 302.063 182.756C301.581 181.973 301.34 180.835 301.34 179.341C301.34 177.693 301.592 176.452 302.095 175.617C302.603 174.777 303.326 174.358 304.264 174.358C306.046 174.358 306.937 175.939 306.937 179.103C306.937 180.678 306.685 181.876 306.182 182.698C305.678 183.52 304.972 183.931 304.064 183.931ZM304.213 174.9C303.503 174.9 302.95 175.264 302.554 175.991C302.158 176.718 301.96 177.809 301.96 179.264C301.96 180.59 302.149 181.609 302.528 182.324C302.907 183.034 303.444 183.389 304.142 183.389C304.826 183.389 305.357 183.028 305.736 182.305C306.119 181.577 306.311 180.54 306.311 179.193C306.311 176.331 305.611 174.9 304.213 174.9Z" fill="black"/>
<path d="M320.552 48.9172L319.493 46.038H315.478L314.419 48.9172H313.715L317.208 39.66H317.814L321.268 48.9172H320.552ZM317.711 41.1706C317.664 41.0415 317.625 40.9145 317.595 40.7897C317.565 40.6821 317.533 40.5745 317.498 40.4669H317.472C317.399 40.751 317.328 40.9812 317.259 41.1577L315.704 45.4506H319.273L317.711 41.1706Z" fill="black"/>
<path d="M327.201 48.9172V42.849H323.302V48.9172H322.708V42.3068H327.795V48.9172H327.201Z" fill="black"/>
<path d="M330.532 47.7423H330.506V51.9577H329.912V42.3068H330.506V43.6689H330.532C330.768 43.1825 331.106 42.8081 331.545 42.5456C331.989 42.2788 332.475 42.1454 333.004 42.1454C333.843 42.1454 334.498 42.4359 334.967 43.0169C335.44 43.5935 335.677 44.379 335.677 45.3731C335.677 46.4792 335.406 47.3743 334.863 48.0586C334.325 48.7386 333.613 49.0786 332.727 49.0786C331.737 49.0786 331.005 48.6331 330.532 47.7423ZM330.506 45.2827V46.1155C330.506 46.7783 330.715 47.3485 331.132 47.8262C331.55 48.2996 332.098 48.5363 332.778 48.5363C333.454 48.5363 334.003 48.248 334.424 47.6713C334.846 47.0903 335.057 46.3285 335.057 45.386C335.057 44.5597 334.863 43.9034 334.476 43.4171C334.089 42.9308 333.572 42.6876 332.927 42.6876C332.156 42.6876 331.56 42.9458 331.139 43.4623C330.717 43.9787 330.506 44.5855 330.506 45.2827Z" fill="black"/>
<path d="M337.465 45.6378C337.465 46.5459 337.674 47.256 338.091 47.7681C338.513 48.2802 339.09 48.5363 339.821 48.5363C340.561 48.5363 341.284 48.263 341.99 47.7165V48.3491C341.306 48.8354 340.542 49.0786 339.699 49.0786C338.846 49.0786 338.158 48.773 337.633 48.1619C337.108 47.5508 336.845 46.6879 336.845 45.5732C336.845 44.6092 337.119 43.798 337.665 43.1395C338.216 42.4767 338.93 42.1454 339.808 42.1454C340.63 42.1454 341.261 42.4337 341.7 43.0104C342.139 43.5871 342.358 44.3747 342.358 45.3731V45.6378H337.465ZM341.739 45.0955C341.713 44.3338 341.53 43.742 341.19 43.3203C340.85 42.8985 340.381 42.6876 339.783 42.6876C339.163 42.6876 338.648 42.8964 338.24 43.3138C337.835 43.727 337.585 44.3209 337.491 45.0955H341.739Z" fill="black"/>
<path d="M347.91 48.9172V42.849H345.98C345.907 43.8302 345.81 44.7039 345.689 45.4699C345.573 46.2317 345.418 46.8751 345.224 47.4001C345.035 47.9252 344.801 48.3254 344.521 48.6009C344.241 48.872 343.903 49.0076 343.507 49.0076C343.443 49.0076 343.376 49.0011 343.307 48.9882C343.243 48.9796 343.187 48.9688 343.139 48.9559V48.4266C343.174 48.4395 343.23 48.4524 343.307 48.4653C343.385 48.4739 343.447 48.4782 343.494 48.4782C343.783 48.4782 344.035 48.3448 344.25 48.078C344.465 47.8068 344.65 47.4109 344.805 46.8902C344.96 46.3651 345.089 45.7196 345.192 44.9535C345.3 44.1831 345.386 43.3009 345.45 42.3068H348.504V48.9172H347.91Z" fill="black"/>
<path d="M355.153 46.9353C355.153 47.271 355.095 47.5637 354.979 47.8133C354.863 48.0629 354.71 48.2695 354.52 48.433C354.335 48.5966 354.122 48.7192 353.881 48.801C353.645 48.8784 353.404 48.9172 353.158 48.9172H350.621V42.3068H351.215V45.0181H353.107C353.421 45.0181 353.705 45.0611 353.959 45.1472C354.213 45.2332 354.428 45.3602 354.604 45.528C354.781 45.6916 354.916 45.8917 355.011 46.1284C355.106 46.3651 355.153 46.6341 355.153 46.9353ZM354.533 46.9353C354.533 46.7417 354.501 46.5609 354.436 46.3931C354.376 46.2252 354.282 46.0811 354.152 45.9606C354.023 45.8358 353.862 45.7389 353.668 45.6701C353.475 45.5969 353.247 45.5603 352.984 45.5603H351.215V48.3749H352.997C353.277 48.3749 353.513 48.3383 353.707 48.2652C353.901 48.1877 354.058 48.0844 354.178 47.9553C354.303 47.8219 354.393 47.6691 354.449 47.497C354.505 47.3205 354.533 47.1333 354.533 46.9353Z" fill="black"/>
<path d="M359.84 48.9172V48.2845L362.364 45.5991C363.263 44.6393 363.853 43.9314 364.133 43.4752C364.417 43.019 364.559 42.5112 364.559 41.9517C364.559 41.3492 364.391 40.8822 364.055 40.5509C363.719 40.2152 363.244 40.0473 362.629 40.0473C361.811 40.0473 361.04 40.368 360.317 41.0092V40.312C361.023 39.774 361.819 39.5051 362.706 39.5051C363.498 39.5051 364.107 39.7181 364.533 40.1442C364.963 40.5702 365.178 41.1405 365.178 41.8549C365.178 42.4918 365.026 43.0685 364.72 43.5849C364.415 44.1014 363.763 44.8911 362.764 45.9541L360.498 48.3491V48.3749H365.127V48.9172H359.84Z" fill="black"/>
<path d="M369.458 49.0786C368.606 49.0786 367.939 48.6869 367.457 47.9037C366.975 47.1204 366.734 45.9821 366.734 44.4887C366.734 42.8404 366.986 41.5988 367.49 40.7639C367.997 39.9247 368.72 39.5051 369.659 39.5051C371.44 39.5051 372.331 41.0867 372.331 44.2499C372.331 45.825 372.079 47.0236 371.576 47.8456C371.072 48.6676 370.367 49.0786 369.458 49.0786ZM369.607 40.0473C368.897 40.0473 368.344 40.411 367.948 41.1383C367.552 41.8656 367.354 42.9566 367.354 44.4112C367.354 45.7368 367.543 46.7567 367.922 47.4711C368.301 48.1813 368.839 48.5363 369.536 48.5363C370.22 48.5363 370.752 48.1748 371.13 47.4518C371.513 46.7245 371.705 45.6873 371.705 44.3402C371.705 41.4783 371.006 40.0473 369.607 40.0473Z" fill="black"/>
<path d="M373.474 48.9172V48.2845L375.998 45.5991C376.897 44.6393 377.487 43.9314 377.767 43.4752C378.051 43.019 378.193 42.5112 378.193 41.9517C378.193 41.3492 378.025 40.8822 377.689 40.5509C377.354 40.2152 376.878 40.0473 376.263 40.0473C375.445 40.0473 374.674 40.368 373.951 41.0092V40.312C374.657 39.774 375.453 39.5051 376.34 39.5051C377.132 39.5051 377.741 39.7181 378.167 40.1442C378.597 40.5702 378.812 41.1405 378.812 41.8549C378.812 42.4918 378.66 43.0685 378.354 43.5849C378.049 44.1014 377.397 44.8911 376.398 45.9541L374.132 48.3491V48.3749H378.761V48.9172H373.474Z" fill="black"/>
<path d="M383.092 49.0786C382.24 49.0786 381.573 48.6869 381.091 47.9037C380.609 47.1204 380.368 45.9821 380.368 44.4887C380.368 42.8404 380.62 41.5988 381.124 40.7639C381.631 39.9247 382.354 39.5051 383.293 39.5051C385.074 39.5051 385.965 41.0867 385.965 44.2499C385.965 45.825 385.713 47.0236 385.21 47.8456C384.706 48.6676 384.001 49.0786 383.092 49.0786ZM383.241 40.0473C382.531 40.0473 381.978 40.411 381.582 41.1383C381.186 41.8656 380.988 42.9566 380.988 44.4112C380.988 45.7368 381.177 46.7567 381.556 47.4711C381.935 48.1813 382.473 48.5363 383.17 48.5363C383.854 48.5363 384.386 48.1748 384.764 47.4518C385.147 46.7245 385.339 45.6873 385.339 44.3402C385.339 41.4783 384.64 40.0473 383.241 40.0473Z" fill="black"/>
<path d="M315.781 62.138H315.135L318.731 53.4231H313.915V52.8809H319.493V53.0422L315.781 62.138Z" fill="black"/>
<path d="M321.158 61.9508V61.2665C321.752 61.5936 322.342 61.7572 322.927 61.7572C323.689 61.7572 324.283 61.5484 324.709 61.131C325.135 60.7135 325.348 60.1584 325.348 59.4655C325.348 57.9592 324.489 57.206 322.772 57.206C322.385 57.206 321.931 57.2319 321.41 57.2835V52.8809H325.574V53.4231H322.004V56.7154C322.469 56.681 322.798 56.6638 322.992 56.6638C323.969 56.6638 324.709 56.9048 325.212 57.3868C325.716 57.8645 325.968 58.5316 325.968 59.388C325.968 60.253 325.701 60.9545 325.167 61.4925C324.634 62.0304 323.87 62.2994 322.876 62.2994C322.208 62.2994 321.636 62.1832 321.158 61.9508Z" fill="black"/>
<path d="M337.355 62.138V56.4249L337.181 56.8897C337.134 57.0188 337.082 57.1522 337.026 57.29C336.974 57.4277 336.929 57.546 336.89 57.645L335.102 62.138H334.618L332.688 57.645C332.645 57.5546 332.598 57.4406 332.546 57.3029C332.494 57.1652 332.445 57.0317 332.397 56.9026C332.341 56.752 332.283 56.5928 332.223 56.4249V62.138H331.655V55.5276H332.365L334.379 60.1046C334.427 60.2078 334.476 60.3305 334.528 60.4725C334.584 60.6102 334.635 60.7437 334.683 60.8728C334.739 61.0234 334.795 61.1762 334.851 61.3311C334.911 61.1805 334.971 61.032 335.031 60.8857C335.079 60.7609 335.13 60.6296 335.186 60.4919C335.242 60.3542 335.289 60.2337 335.328 60.1304L337.207 55.5276H337.936V62.138H337.355Z" fill="black"/>
<path d="M343.959 62.138V56.0699H342.029C341.956 57.0511 341.859 57.9248 341.739 58.6908C341.622 59.4526 341.467 60.096 341.274 60.621C341.084 61.146 340.85 61.5463 340.57 61.8217C340.29 62.0929 339.953 62.2284 339.557 62.2284C339.492 62.2284 339.425 62.222 339.356 62.209C339.292 62.2004 339.236 62.1897 339.189 62.1768V61.6474C339.223 61.6603 339.279 61.6732 339.356 61.6862C339.434 61.6948 339.496 61.6991 339.544 61.6991C339.832 61.6991 340.084 61.5657 340.299 61.2988C340.514 61.0277 340.699 60.6318 340.854 60.111C341.009 59.586 341.138 58.9404 341.241 58.1744C341.349 57.404 341.435 56.5218 341.5 55.5276H344.553V62.138H343.959Z" fill="black"/>
<path d="M351.164 62.138V58.9813H347.264V62.138H346.671V55.5276H347.264V58.439H351.164V55.5276H351.757V62.138H351.164Z" fill="black"/>
<path d="M322.546 105.106V98.5341C322.546 98.3749 322.57 97.9209 322.617 97.172H322.592C322.458 97.5206 322.346 97.7896 322.256 97.979L318.964 105.106H318.757L315.452 98.0177C315.344 97.7896 315.243 97.4991 315.148 97.1462H315.116C315.146 97.5594 315.161 97.9704 315.161 98.3792V105.106H314.522V95.8487H315.116L318.57 103.305C318.591 103.348 318.615 103.406 318.641 103.479C318.667 103.552 318.695 103.625 318.725 103.699C318.768 103.81 318.813 103.935 318.86 104.073H318.899L318.97 103.866C318.974 103.849 319.048 103.645 319.19 103.253L322.592 95.8487H323.16V105.106H322.546Z" fill="black"/>
<path d="M329.357 105.106V103.782H329.331C329.12 104.234 328.813 104.596 328.408 104.867C328.008 105.134 327.562 105.267 327.072 105.267C326.443 105.267 325.946 105.091 325.58 104.738C325.215 104.385 325.032 103.94 325.032 103.402C325.032 102.248 325.796 101.551 327.323 101.31L329.357 101.007C329.357 99.5864 328.823 98.8763 327.756 98.8763C327.029 98.8763 326.321 99.1689 325.632 99.7542V99.0377C325.877 98.844 326.209 98.6783 326.626 98.5406C327.048 98.4029 327.444 98.334 327.814 98.334C328.494 98.334 329.019 98.5449 329.389 98.9667C329.764 99.3884 329.951 100.002 329.951 100.806V105.106H329.357ZM327.536 101.814C326.844 101.913 326.357 102.074 326.078 102.298C325.798 102.517 325.658 102.877 325.658 103.376C325.658 103.767 325.787 104.09 326.045 104.344C326.308 104.598 326.671 104.725 327.136 104.725C327.773 104.725 328.303 104.49 328.724 104.021C329.146 103.548 329.357 102.939 329.357 102.194V101.549L327.536 101.814Z" fill="black"/>
<path d="M332.559 103.931H332.533V108.146H331.939V98.4954H332.533V99.8575H332.559C332.796 99.3712 333.133 98.9968 333.572 98.7343C334.016 98.4674 334.502 98.334 335.031 98.334C335.871 98.334 336.525 98.6245 336.994 99.2055C337.467 99.7822 337.704 100.568 337.704 101.562C337.704 102.668 337.433 103.563 336.891 104.247C336.353 104.927 335.64 105.267 334.754 105.267C333.764 105.267 333.032 104.822 332.559 103.931ZM332.533 101.471V102.304C332.533 102.967 332.742 103.537 333.159 104.015C333.577 104.488 334.125 104.725 334.805 104.725C335.481 104.725 336.03 104.437 336.452 103.86C336.873 103.279 337.084 102.517 337.084 101.575C337.084 100.748 336.891 100.092 336.503 99.6058C336.116 99.1194 335.599 98.8763 334.954 98.8763C334.184 98.8763 333.587 99.1345 333.166 99.6509C332.744 100.167 332.533 100.774 332.533 101.471Z" fill="black"/>
<path d="M340.68 99.0377V105.106H340.086V99.0377H338.104V98.4954H342.662V99.0377H340.68Z" fill="black"/>
<path d="M346.968 105.106V104.473L349.492 101.788C350.391 100.828 350.981 100.12 351.26 99.6639C351.544 99.2077 351.687 98.6998 351.687 98.1404C351.687 97.5378 351.519 97.0709 351.183 96.7395C350.847 96.4038 350.372 96.236 349.756 96.236C348.939 96.236 348.168 96.5566 347.445 97.1979V96.5007C348.151 95.9627 348.947 95.6937 349.834 95.6937C350.626 95.6937 351.235 95.9068 351.661 96.3328C352.091 96.7589 352.306 97.3291 352.306 98.0435C352.306 98.6805 352.153 99.2572 351.848 99.7736C351.542 100.29 350.89 101.08 349.892 102.143L347.626 104.538V104.564H352.255V105.106H346.968Z" fill="black"/>
<path d="M356.586 105.267C355.734 105.267 355.067 104.876 354.585 104.092C354.103 103.309 353.862 102.171 353.862 100.677C353.862 99.0291 354.114 97.7875 354.617 96.9525C355.125 96.1133 355.848 95.6937 356.786 95.6937C358.568 95.6937 359.459 97.2753 359.459 100.439C359.459 102.014 359.207 103.212 358.704 104.034C358.2 104.856 357.494 105.267 356.586 105.267ZM356.735 96.236C356.025 96.236 355.472 96.5996 355.076 97.327C354.68 98.0543 354.482 99.1453 354.482 100.6C354.482 101.925 354.671 102.945 355.05 103.66C355.429 104.37 355.967 104.725 356.664 104.725C357.348 104.725 357.879 104.363 358.258 103.64C358.641 102.913 358.833 101.876 358.833 100.529C358.833 97.667 358.133 96.236 356.735 96.236Z" fill="black"/>
<path d="M360.602 105.106V104.473L363.126 101.788C364.025 100.828 364.615 100.12 364.894 99.6639C365.178 99.2077 365.321 98.6998 365.321 98.1404C365.321 97.5378 365.153 97.0709 364.817 96.7395C364.481 96.4038 364.006 96.236 363.39 96.236C362.573 96.236 361.802 96.5566 361.079 97.1979V96.5007C361.785 95.9627 362.581 95.6937 363.468 95.6937C364.26 95.6937 364.869 95.9068 365.295 96.3328C365.725 96.7589 365.94 97.3291 365.94 98.0435C365.94 98.6805 365.787 99.2572 365.482 99.7736C365.176 100.29 364.524 101.08 363.526 102.143L361.26 104.538V104.564H365.889V105.106H360.602Z" fill="black"/>
<path d="M370.22 105.267C369.368 105.267 368.701 104.876 368.219 104.092C367.737 103.309 367.496 102.171 367.496 100.677C367.496 99.0291 367.748 97.7875 368.251 96.9525C368.759 96.1133 369.482 95.6937 370.42 95.6937C372.202 95.6937 373.093 97.2753 373.093 100.439C373.093 102.014 372.841 103.212 372.338 104.034C371.834 104.856 371.128 105.267 370.22 105.267ZM370.369 96.236C369.659 96.236 369.106 96.5996 368.71 97.327C368.314 98.0543 368.116 99.1453 368.116 100.6C368.116 101.925 368.305 102.945 368.684 103.66C369.063 104.37 369.601 104.725 370.298 104.725C370.982 104.725 371.513 104.363 371.892 103.64C372.275 102.913 372.467 101.876 372.467 100.529C372.467 97.667 371.767 96.236 370.369 96.236Z" fill="black"/>
<path d="M318.383 115.706V118.327H317.789V115.706H313.522V115.209L317.789 109.07H318.383V115.17H319.616V115.706H318.383ZM317.789 110.78C317.789 110.432 317.797 110.154 317.815 109.947H317.789C317.672 110.163 317.563 110.348 317.459 110.503L314.219 115.17H317.789V110.78Z" fill="black"/>
<path d="M325.2 115.706V118.327H324.606V115.706H320.339V115.209L324.606 109.07H325.2V115.17H326.433V115.706H325.2ZM324.606 110.78C324.606 110.432 324.614 110.154 324.632 109.947H324.606C324.489 110.163 324.38 110.348 324.276 110.503L321.036 115.17H324.606V110.78Z" fill="black"/>
<path d="M337.355 118.327V112.614L337.181 113.078C337.134 113.207 337.082 113.341 337.026 113.479C336.974 113.616 336.929 113.735 336.891 113.834L335.102 118.327H334.618L332.688 113.834C332.645 113.743 332.598 113.629 332.546 113.492C332.494 113.354 332.445 113.22 332.397 113.091C332.342 112.941 332.283 112.781 332.223 112.614V118.327H331.655V111.716H332.365L334.379 116.293C334.427 116.397 334.476 116.519 334.528 116.661C334.584 116.799 334.635 116.932 334.683 117.061C334.739 117.212 334.795 117.365 334.851 117.52C334.911 117.369 334.971 117.221 335.031 117.074C335.079 116.95 335.13 116.818 335.186 116.681C335.242 116.543 335.29 116.422 335.328 116.319L337.207 111.716H337.936V118.327H337.355Z" fill="black"/>
<path d="M343.959 118.327V112.259H342.029C341.956 113.24 341.859 114.113 341.739 114.879C341.622 115.641 341.467 116.285 341.274 116.81C341.084 117.335 340.85 117.735 340.57 118.01C340.29 118.282 339.953 118.417 339.557 118.417C339.492 118.417 339.425 118.411 339.357 118.398C339.292 118.389 339.236 118.378 339.189 118.365V117.836C339.223 117.849 339.279 117.862 339.357 117.875C339.434 117.883 339.496 117.888 339.544 117.888C339.832 117.888 340.084 117.754 340.299 117.487C340.514 117.216 340.699 116.82 340.854 116.3C341.009 115.775 341.138 115.129 341.242 114.363C341.349 113.593 341.435 112.71 341.5 111.716H344.553V118.327H343.959Z" fill="black"/>
<path d="M351.164 118.327V115.17H347.264V118.327H346.671V111.716H347.264V114.628H351.164V111.716H351.758V118.327H351.164Z" fill="black"/>
<circle cx="305.402" cy="38.3405" r="2.64417" fill="#3279CD"/>
<circle cx="297.469" cy="95.1902" r="2.64417" fill="#3279CD"/>
</svg>
