<?xml version="1.0" standalone="no"?>
<!DOCTYPE svg PUBLIC "-//W3C//DTD SVG 20010904//EN"
 "http://www.w3.org/TR/2001/REC-SVG-20010904/DTD/svg10.dtd">
<svg version="1.0" xmlns="http://www.w3.org/2000/svg"
 width="398.000000pt" height="398.000000pt" viewBox="0 0 398.000000 398.000000"
 preserveAspectRatio="xMidYMid meet">
<metadata>
Created by potrace 1.14, written by Peter Selinger 2001-2017
</metadata>
<g transform="translate(0.000000,398.000000) scale(0.100000,-0.100000)"
fill="#000000" stroke="none">
<path d="M1 2106 c0 -1416 2 -1866 11 -1851 6 11 56 75 110 143 54 68 106 136
116 150 42 66 179 226 282 332 105 107 90 77 -25 -50 -95 -105 -152 -175 -254
-315 -56 -77 -133 -180 -171 -230 l-70 -90 0 -79 0 -80 20 22 c38 41 35 22 -6
-36 l-16 -22 70 0 c47 0 72 4 75 13 4 9 6 9 6 0 3 -51 130 49 231 182 124 162
160 207 219 276 36 42 86 100 111 129 94 112 124 145 144 160 12 8 -6 -18 -39
-57 -166 -197 -281 -340 -365 -453 -51 -69 -122 -154 -159 -189 -50 -48 -60
-62 -41 -57 14 4 30 8 37 8 7 1 11 5 10 11 -1 5 13 17 31 27 18 10 33 22 33
27 1 13 21 33 29 28 4 -2 26 17 48 43 22 26 52 61 67 77 l26 30 -22 -38 c-12
-20 -31 -44 -42 -52 -12 -8 -18 -15 -14 -15 8 0 -5 -17 -76 -92 -72 -77 -41
-78 36 -1 68 68 76 63 11 -7 -45 -48 -46 -50 -21 -50 36 0 139 103 297 300 77
95 175 209 249 290 43 47 95 105 117 129 21 24 40 38 42 32 2 -6 9 -8 15 -4
10 6 -16 -27 -114 -147 -59 -73 -114 -143 -128 -164 -19 -28 97 92 179 185
107 122 163 179 168 175 2 -3 -5 -18 -17 -34 -12 -17 -21 -36 -21 -44 0 -10
-3 -9 -10 2 -8 13 -10 12 -10 -3 0 -10 -6 -24 -12 -31 -7 -7 -22 -25 -33 -40
-11 -15 -41 -55 -66 -89 -26 -34 -45 -64 -42 -67 2 -3 11 4 19 15 14 19 42 52
164 188 93 105 280 272 280 252 0 -4 -48 -58 -108 -119 -59 -61 -114 -121
-122 -131 -90 -117 -237 -305 -285 -366 -33 -41 -73 -93 -90 -114 -56 -72 -95
-117 -145 -166 -28 -27 -45 -49 -39 -49 7 0 22 10 34 22 12 13 48 46 81 74 33
29 92 94 132 145 39 52 92 119 117 149 25 30 73 90 105 133 33 43 60 76 60 73
0 -8 -28 -54 -55 -87 -11 -15 -29 -39 -40 -55 -11 -16 -34 -44 -50 -64 -17
-19 -37 -45 -45 -56 -8 -12 -42 -57 -75 -100 -76 -99 -90 -123 -33 -60 44 50
103 125 280 356 57 74 146 178 198 231 52 52 92 91 88 85 -12 -16 -9 -28 5
-20 13 8 7 0 -74 -96 -65 -77 -139 -176 -139 -186 0 -4 -7 -14 -16 -23 -8 -9
-31 -41 -50 -71 -18 -30 -43 -66 -54 -80 -10 -14 -47 -63 -82 -110 -34 -47
-101 -124 -148 -173 -98 -100 -97 -116 2 -27 72 65 189 211 378 470 77 106
123 163 225 278 64 73 118 132 121 132 7 0 -13 -28 -62 -86 -90 -106 -124
-149 -124 -158 0 -4 7 -2 17 5 15 13 15 12 2 -8 -8 -13 -17 -23 -22 -23 -4 0
-5 5 -2 10 3 6 2 10 -4 10 -6 0 -29 -28 -52 -62 -23 -35 -53 -76 -66 -91 -13
-16 -23 -33 -23 -39 0 -10 93 110 111 145 5 9 14 17 19 17 5 0 -15 -35 -45
-78 -214 -305 -318 -446 -369 -501 -23 -24 -34 -40 -26 -35 22 12 99 98 161
179 106 139 155 205 209 282 30 43 84 114 121 158 80 96 188 211 162 173 -10
-15 -21 -28 -25 -28 -5 0 -8 -5 -8 -12 0 -6 -31 -53 -69 -102 -37 -50 -94
-129 -126 -176 -32 -47 -68 -98 -80 -115 -13 -16 -28 -41 -34 -55 l-12 -25 18
24 c165 226 338 444 314 396 -5 -11 -26 -38 -45 -60 -20 -22 -36 -45 -36 -51
0 -6 -6 -17 -14 -23 -8 -7 -58 -78 -112 -159 -106 -159 -221 -316 -292 -399
l-44 -53 45 0 c43 0 48 3 107 68 34 37 106 127 161 200 55 72 102 132 105 132
2 0 -12 -21 -31 -48 -19 -26 -58 -80 -85 -120 -50 -71 -164 -210 -185 -224 -5
-4 0 -8 12 -8 28 0 127 106 215 231 19 27 204 278 216 294 4 6 22 31 40 58 57
81 263 320 271 312 2 -2 -16 -28 -40 -56 -43 -51 -71 -89 -137 -185 l-34 -49
39 45 c21 25 52 59 68 75 17 17 22 22 13 10 -10 -12 -18 -26 -18 -32 0 -6 -7
-17 -17 -24 -9 -8 -55 -72 -103 -144 -47 -72 -112 -166 -143 -210 -30 -44 -71
-102 -89 -128 -18 -26 -59 -80 -90 -118 -32 -38 -58 -72 -58 -74 0 -3 8 -5 18
-5 10 0 46 34 82 76 36 43 70 82 75 88 6 6 35 47 64 91 30 44 93 131 140 194
48 62 95 126 106 142 11 16 26 29 33 29 6 0 12 8 12 17 0 13 3 14 11 6 9 -9 5
-18 -15 -38 -14 -14 -26 -31 -26 -37 0 -6 -10 -25 -23 -42 -26 -35 -40 -66
-29 -66 4 0 30 30 57 67 56 74 95 119 95 109 0 -4 -18 -31 -40 -61 -22 -30
-37 -55 -32 -55 5 0 23 20 41 45 34 47 55 66 45 41 -3 -9 -10 -16 -14 -16 -5
0 -12 -9 -15 -20 -3 -11 -12 -26 -18 -32 -17 -18 -119 -155 -150 -203 -15 -22
-34 -51 -44 -65 -9 -14 -37 -56 -62 -95 -25 -38 -60 -88 -77 -110 -17 -22 -34
-45 -38 -52 -5 -9 56 -12 252 -13 l258 -1 36 53 c20 29 77 123 127 208 50 85
94 160 99 166 4 6 14 22 23 35 9 13 37 60 63 104 25 44 46 72 46 63 0 -9 -4
-19 -9 -22 -4 -3 -25 -38 -46 -78 -37 -73 -75 -139 -145 -253 -41 -66 -153
-256 -158 -267 -2 -5 36 -8 85 -8 l88 0 19 33 c23 40 136 264 138 274 1 5 6
13 10 18 12 14 52 89 88 162 17 34 35 65 40 68 11 7 -57 -142 -75 -165 -7 -8
-38 -71 -70 -140 -32 -69 -73 -154 -92 -189 -20 -36 -29 -61 -21 -59 7 2 29
35 48 74 19 38 37 71 40 74 4 3 18 32 32 65 14 33 31 59 38 57 6 -1 9 2 5 8
-3 5 -1 10 6 10 7 0 9 3 6 7 -4 3 1 12 11 20 9 8 11 11 4 8 -10 -5 -9 3 3 32
9 21 19 44 22 50 3 7 9 10 15 7 5 -3 8 0 7 7 -1 8 4 27 11 42 10 20 16 24 22
15 6 -9 7 -6 3 8 -3 14 0 24 8 27 8 3 31 40 52 83 49 100 119 217 110 184 -4
-14 -7 -35 -7 -47 0 -13 -5 -23 -11 -23 -6 0 -7 -3 -4 -6 4 -4 0 -19 -8 -33
-17 -30 -95 -200 -95 -207 0 -8 -202 -439 -212 -452 -8 -9 -5 -12 9 -12 11 0
25 10 32 23 l11 22 -6 -22 c-5 -22 -3 -23 57 -23 47 0 65 4 75 18 13 16 14 16
8 -1 -6 -17 0 -18 87 -15 l94 3 29 72 c16 40 31 71 34 69 2 -2 -10 -36 -26
-75 l-30 -70 89 0 89 0 30 66 c17 36 39 95 50 131 11 36 25 71 30 77 6 7 21
43 35 80 13 38 30 73 36 79 9 8 10 6 5 -9 -5 -11 -21 -56 -38 -100 -16 -44
-36 -94 -43 -112 -8 -18 -10 -35 -5 -38 9 -6 37 50 60 121 7 21 19 48 26 59 7
11 20 39 28 61 19 54 55 134 61 134 5 0 -8 -35 -77 -205 -22 -55 -57 -147 -78
-205 -20 -58 -41 -113 -45 -122 -5 -13 -3 -18 9 -18 9 0 21 12 26 28 6 15 15
36 20 47 5 11 21 54 35 95 31 92 159 410 163 406 4 -5 -32 -110 -83 -241 -39
-103 -115 -318 -115 -329 0 -2 10 -3 21 -2 16 1 26 12 35 36 6 19 39 112 72
205 33 94 82 224 108 290 86 221 97 250 130 345 18 52 33 87 33 78 1 -17 -79
-256 -140 -418 -17 -47 -66 -187 -108 -312 l-77 -228 403 0 403 0 0 1305 c0
718 -2 1305 -6 1305 -3 0 -16 -26 -30 -57 -14 -32 -32 -71 -40 -88 -22 -48
-83 -215 -104 -284 -11 -35 -22 -66 -25 -69 -15 -15 37 162 85 291 12 32 20
60 17 63 -2 2 -17 -29 -32 -71 -15 -41 -31 -78 -36 -81 -13 -8 -11 7 5 37 7
15 22 51 31 80 10 30 29 79 42 109 74 164 92 212 78 200 -8 -7 -15 -17 -15
-22 0 -5 -15 -40 -33 -76 -19 -37 -42 -88 -52 -114 -10 -27 -22 -48 -26 -48
-5 0 -8 -3 -7 -7 1 -5 -2 -19 -6 -32 -6 -18 -10 -21 -17 -10 -12 20 -11 31 3
23 7 -4 8 -3 4 5 -9 14 14 76 100 267 l64 141 -1 187 c-1 102 -3 186 -5 186
-2 0 -14 -19 -28 -42 -14 -24 -26 -38 -26 -32 0 6 14 30 30 52 29 41 30 44 30
159 -1 106 -2 116 -15 99 -8 -11 -15 -16 -15 -10 -1 5 -8 -4 -16 -19 -9 -16
-13 -31 -10 -34 2 -3 1 -10 -5 -17 -14 -17 -104 -157 -126 -197 -73 -129 -187
-367 -198 -412 -4 -15 -11 -27 -16 -27 -5 0 -9 -8 -9 -17 0 -10 -12 -49 -26
-88 -14 -38 -34 -97 -44 -130 -28 -90 -24 -33 5 70 28 101 29 109 15 100 -5
-3 -17 -31 -26 -61 -28 -99 -25 -50 5 63 21 81 25 110 16 110 -7 0 -16 -12
-18 -26 -4 -18 -13 -27 -26 -28 -17 -1 -20 3 -18 26 2 15 7 32 11 39 4 7 3 12
-3 12 -6 0 -6 11 1 33 5 17 10 39 10 47 1 8 5 21 11 28 8 10 7 16 -4 23 -8 5
-9 9 -3 9 7 0 11 8 10 18 0 9 4 16 11 15 7 -2 10 3 7 11 -6 16 74 249 88 254
4 2 8 9 8 15 1 23 57 126 65 119 5 -4 5 1 2 11 -4 9 -2 17 3 17 6 0 10 7 10
16 0 9 5 14 12 12 7 -3 22 17 35 45 27 57 27 61 11 51 -8 -4 -10 -3 -5 2 5 5
14 9 20 9 7 0 32 39 56 87 25 48 48 85 52 82 4 -2 5 6 1 18 -4 16 -2 19 8 13
9 -6 11 -4 5 4 -9 15 34 113 46 105 5 -3 6 1 3 9 -3 8 2 31 10 52 9 21 16 39
16 40 0 2 -56 4 -125 4 l-125 2 -24 -53 c-13 -29 -29 -70 -36 -90 -6 -21 -14
-38 -16 -38 -8 0 9 55 37 118 l28 62 -24 0 c-13 0 -26 -6 -28 -12 -4 -10 -6
-10 -6 0 -1 7 -15 12 -34 12 -32 0 -33 -1 -59 -87 -15 -49 -34 -117 -43 -153
-15 -58 -78 -222 -118 -305 -53 -110 -120 -270 -164 -388 -14 -37 -28 -66 -30
-64 -2 3 8 35 22 73 15 38 30 84 35 103 5 18 13 38 19 44 6 6 11 17 11 25 0 8
15 46 34 86 42 87 149 355 164 411 7 22 17 60 24 85 6 25 13 50 14 55 2 6 10
33 17 60 l14 50 -245 3 c-135 1 -246 1 -247 0 -1 -2 -10 -100 -19 -218 -16
-200 -62 -569 -72 -579 -7 -7 -5 22 15 175 11 82 22 192 25 244 8 117 25 316
31 353 4 27 4 27 -49 27 l-53 0 -7 -46 c-3 -26 -6 -83 -6 -128 0 -209 -37
-654 -68 -818 -12 -64 -20 -88 -31 -88 -11 0 -12 3 -4 11 6 6 9 18 6 25 -3 8
1 22 8 31 10 12 10 15 2 9 -7 -4 -13 -2 -13 3 0 6 4 11 9 11 4 0 6 11 3 25 -3
17 0 25 9 25 11 0 11 2 -1 10 -8 5 -10 10 -5 10 6 0 10 29 10 68 0 37 4 137 8
222 4 85 10 203 12 263 9 204 16 329 20 348 3 17 -2 19 -62 19 l-65 0 6 -82
c3 -46 8 -156 12 -245 5 -123 10 -160 19 -157 9 4 13 -8 13 -38 0 -24 1 -121
1 -217 1 -124 -2 -177 -10 -185 -9 -8 -10 -7 -6 6 3 10 2 20 -3 23 -6 4 -10
-5 -10 -19 0 -13 4 -26 8 -28 5 -1 5 -14 2 -28 -7 -23 -7 -23 -13 10 -5 31
-29 843 -27 928 l1 32 -62 0 -61 0 5 -77 c3 -43 10 -109 17 -148 7 -46 9 -119
5 -214 -5 -96 -3 -173 5 -235 14 -96 6 -279 -24 -551 l-13 -120 -4 75 -5 75
-2 -82 c-1 -46 -6 -83 -11 -83 -12 0 -24 314 -19 460 4 76 0 140 -9 190 -9 49
-14 136 -14 250 1 119 -4 206 -15 272 -9 53 -14 118 -12 143 2 25 0 45 -3 45
-9 0 -20 -60 -13 -71 3 -5 9 -134 14 -286 6 -182 14 -295 23 -328 11 -39 14
-114 12 -331 -1 -155 -5 -286 -9 -292 -3 -6 -4 -16 -1 -24 3 -7 1 -33 -4 -58
-8 -40 -9 -34 -11 55 l-3 100 -8 -94 c-9 -103 -18 -129 -21 -60 0 24 -2 55 -3
69 -12 127 -18 176 -24 180 -10 8 -10 60 1 60 6 0 6 5 -1 14 -6 8 -11 18 -10
22 4 22 -2 87 -7 81 -3 -3 -6 -77 -6 -164 0 -170 -3 -179 -13 -40 -4 49 -9 86
-12 84 -2 -3 -4 -47 -4 -98 0 -51 -2 -89 -5 -86 -4 4 -8 14 -8 24 -1 10 -6 55
-10 101 -5 45 -13 85 -17 88 -5 3 -10 49 -11 102 l-2 97 -6 -95 c-7 -102 -10
-107 -15 -20 -5 93 -8 98 -15 20 -5 -64 -7 -54 -8 68 -1 78 -5 142 -9 142 -5
0 -7 -58 -6 -130 1 -71 -2 -130 -7 -130 -4 0 -8 -6 -7 -12 1 -49 -5 -88 -14
-88 -6 0 -9 7 -5 15 3 8 1 15 -4 15 -11 0 -19 -43 -23 -125 -2 -33 -4 17 -5
110 -3 230 -16 365 -34 365 -6 0 -7 -7 -3 -17 12 -30 19 -333 7 -333 -5 0 -10
29 -11 68 -3 160 -11 218 -47 368 -13 56 -26 121 -28 145 -4 45 9 328 20 432
6 53 5 57 -15 57 -19 0 -21 -6 -22 -52 0 -29 -3 -62 -5 -73 -3 -11 -6 -99 -7
-195 -1 -165 0 -180 26 -265 15 -49 30 -119 32 -155 l5 -65 -14 71 c-7 38 -26
106 -42 150 -26 75 -28 88 -27 247 0 92 4 206 8 252 l7 85 -115 0 c-84 0 -116
-3 -120 -13 -3 -7 -4 -114 -2 -237 1 -162 0 -197 -5 -125 -4 55 -8 162 -9 238
-1 130 -2 137 -21 137 -27 0 -27 5 -17 -190 11 -215 17 -274 38 -394 10 -60
19 -132 19 -160 0 -28 7 -94 15 -146 17 -113 18 -132 6 -110 -5 8 -17 74 -26
145 -9 72 -28 193 -41 270 -14 83 -28 231 -35 363 l-12 222 -249 0 c-272 0
-257 4 -233 -65 8 -21 12 -41 10 -43 -6 -6 -22 32 -29 71 -6 33 -10 37 -36 37
l-30 0 5 -62 c3 -44 2 -55 -4 -38 -5 14 -9 42 -10 63 -1 36 -2 37 -36 37 -33
0 -35 -2 -35 -36 0 -19 -3 -33 -8 -30 -4 2 -6 -13 -4 -35 2 -21 7 -37 11 -34
4 2 5 -10 3 -27 -4 -23 -2 -29 8 -23 9 5 11 4 6 -4 -4 -6 -4 -25 -1 -42 5 -22
11 -29 22 -24 12 4 13 2 5 -8 -8 -10 -8 -20 2 -38 14 -27 37 -111 31 -117 -1
-2 -10 18 -18 45 -9 26 -29 86 -46 132 -18 50 -33 117 -37 163 l-7 78 -44 0
c-27 0 -42 -4 -38 -10 3 -5 0 -10 -7 -10 -10 0 -10 -2 0 -9 8 -4 13 -11 12
-15 -6 -19 13 -145 21 -140 6 3 7 -5 3 -20 -4 -17 -2 -26 6 -26 7 0 9 -8 5
-21 -5 -16 -4 -19 5 -14 9 5 11 4 6 -3 -4 -7 -4 -18 1 -24 4 -7 8 -17 8 -23 1
-5 6 -21 12 -35 15 -36 75 -242 71 -246 -2 -2 -16 32 -31 74 -15 42 -32 91
-38 107 -6 17 -20 62 -32 100 -12 39 -24 72 -29 75 -8 7 -38 169 -38 211 0 24
-4 29 -23 29 -23 0 -23 -1 -16 -64 9 -76 32 -170 60 -246 48 -130 99 -323 113
-430 9 -63 18 -125 20 -138 2 -13 0 -20 -4 -15 -4 4 -15 62 -24 128 -17 119
-59 284 -94 367 -32 74 -92 317 -92 368 0 23 -4 30 -20 30 -18 0 -20 -5 -14
-42 3 -24 12 -72 20 -107 8 -35 12 -66 10 -68 -6 -7 -23 58 -37 145 -10 59
-15 72 -30 72 -11 0 -19 -7 -19 -16 0 -8 -5 -12 -11 -8 -8 4 -9 -3 -6 -22 3
-16 9 -49 12 -74 7 -43 35 -158 77 -305 29 -105 31 -115 21 -115 -10 0 -17 19
-63 167 -17 57 -28 107 -25 113 3 5 2 10 -3 10 -4 0 -16 44 -26 98 -9 53 -20
109 -22 125 -5 23 -10 27 -40 27 -30 0 -34 -3 -30 -22 3 -13 7 -54 11 -93 3
-38 15 -115 26 -170 18 -94 26 -122 64 -242 8 -27 15 -59 14 -73 -1 -20 -2
-21 -6 -5 -11 46 -44 149 -51 159 -11 14 -29 83 -31 116 -1 25 -8 65 -11 65
-3 0 -9 38 -16 90 -4 28 -8 57 -10 65 -1 8 -6 36 -10 63 -6 41 -10 47 -31 47
l-24 0 6 -87 c16 -236 20 -268 60 -398 11 -37 11 -46 2 -33 -8 9 -22 52 -32
95 -11 43 -22 80 -26 83 -7 5 -18 95 -19 148 0 17 -4 32 -9 32 -9 0 -7 -126 2
-165 3 -11 8 -40 12 -65 4 -25 11 -52 15 -60 20 -37 63 -368 46 -349 -2 2 -7
31 -10 64 -10 91 -11 93 -34 115 -26 24 -28 48 -6 57 13 5 12 9 -7 29 -12 13
-19 27 -16 31 4 3 0 17 -8 29 -8 13 -12 29 -9 37 3 8 -3 20 -12 28 -16 13 -16
12 -5 -8 7 -15 8 -23 1 -23 -5 0 -10 2 -10 4 0 2 -7 39 -14 82 -14 72 -24 205
-26 312 0 36 -3 42 -22 42 l-21 0 7 -202 c3 -112 11 -241 16 -288 5 -47 9
-107 9 -135 -1 -27 -7 9 -14 80 -7 72 -16 150 -18 175 -3 25 -6 118 -6 208
l-1 162 -25 0 c-19 0 -25 -5 -25 -22 -1 -13 -1 -63 -2 -111 -1 -48 -5 -90 -10
-93 -4 -3 -8 47 -8 110 0 91 -3 116 -13 116 -11 0 -14 -33 -16 -157 -8 -538
-17 -673 -42 -698 -8 -7 -9 -3 -3 15 4 14 8 50 8 80 1 30 6 58 11 62 6 5 5 8
-2 8 -7 0 -13 9 -13 20 0 11 6 20 13 20 8 0 7 4 -3 10 -8 5 -10 10 -5 10 6 0
9 33 8 82 -1 46 -3 188 -5 315 l-3 233 -30 0 -30 0 0 -134 c0 -74 -2 -133 -5
-131 -3 2 -6 -29 -8 -68 -7 -165 -36 -397 -48 -384 -2 2 0 28 5 58 15 82 24
459 11 459 -6 0 -10 -27 -10 -62 0 -90 -27 -371 -41 -421 -6 -23 -20 -68 -31
-99 -11 -32 -17 -62 -13 -68 3 -5 1 -10 -6 -10 -7 0 -10 -3 -6 -6 3 -3 -2 -25
-12 -47 -16 -38 -39 -118 -56 -191 -3 -15 -8 -26 -11 -23 -3 3 -1 22 5 43 5
22 12 50 15 64 2 14 16 68 30 120 14 52 28 109 31 125 30 167 36 217 31 270
-7 78 -8 79 -16 20 l-7 -50 -1 53 c-2 47 1 55 18 59 17 5 20 13 19 49 -3 56
-19 58 -19 2 0 -23 -2 -39 -5 -36 -3 3 -2 55 1 116 6 90 10 112 23 115 13 4
13 5 1 6 -12 1 -14 16 -12 86 l3 86 -90 -2 -90 -1 0 -1872z m26 1782 c-2 -13
-4 -5 -4 17 -1 22 1 32 4 23 2 -10 2 -28 0 -40z m3848 -57 c-3 -12 -10 -21
-15 -21 -4 0 -3 11 3 24 14 29 22 27 12 -3z m-2531 -44 c14 -20 22 -37 18 -37
-5 0 -19 19 -32 43 -27 49 -22 47 14 -6z m-1327 -34 c-2 -16 -4 -5 -4 22 0 28
2 40 4 28 2 -13 2 -35 0 -50z m1264 -39 c12 -25 18 -48 15 -51 -5 -6 -66 118
-66 134 0 13 31 -36 51 -83z m2570 63 c-10 -9 -11 -8 -5 6 3 10 9 15 12 12 3
-3 0 -11 -7 -18z m-2911 -67 c0 -13 -1 -13 -10 0 -5 8 -10 22 -10 30 0 13 1
13 10 0 5 -8 10 -22 10 -30z m2640 -25 c-16 -47 -23 -40 -9 9 6 21 13 36 16
33 3 -3 0 -22 -7 -42z m-3138 -87 c3 -120 2 -136 -6 -127 -8 7 -12 249 -4 249
4 0 8 -55 10 -122z m968 87 c0 -5 -5 -3 -10 5 -5 8 -10 20 -10 25 0 6 5 3 10
-5 5 -8 10 -19 10 -25z m-422 -135 c0 -8 -8 8 -18 35 -10 28 -18 57 -18 65 0
8 8 -7 18 -35 10 -27 18 -57 18 -65z m1740 45 c-3 -70 -18 -60 -18 11 0 35 4
53 10 49 6 -4 9 -30 8 -60z m-1398 11 c0 -12 -5 -7 -19 24 -11 24 -11 24 3 6
9 -11 16 -24 16 -30z m2449 6 c-6 -18 -15 -32 -20 -32 -5 0 -1 16 8 35 20 42
27 40 12 -3z m-2329 -53 c0 -6 -4 -7 -10 -4 -5 3 -10 11 -10 16 0 6 5 7 10 4
6 -3 10 -11 10 -16z m-86 -56 c10 -32 29 -93 42 -135 26 -84 28 -98 15 -98 -5
0 -11 17 -15 38 -3 21 -18 74 -32 118 -14 43 -30 94 -34 111 -13 54 6 28 24
-34z m-110 -36 c25 -58 48 -147 24 -97 -28 60 -78 173 -78 177 0 16 33 -34 54
-80z m2467 46 c-12 -20 -14 -14 -5 12 4 9 9 14 11 11 3 -2 0 -13 -6 -23z
m-2164 -25 c-3 -8 -6 -5 -6 6 -1 11 2 17 5 13 3 -3 4 -12 1 -19z m1928 -25
c-9 -15 -13 -19 -10 -8 4 11 10 29 13 40 3 11 7 14 9 8 3 -7 -3 -24 -12 -40z
m-3038 -140 c-2 -27 -3 -5 -3 47 0 52 1 74 3 48 2 -27 2 -69 0 -95z m1036 107
c3 -11 1 -18 -4 -14 -5 3 -9 12 -9 20 0 20 7 17 13 -6z m2458 -3 c-10 -9 -11
-8 -5 6 3 10 9 15 12 12 3 -3 0 -11 -7 -18z m-3794 -24 c-3 -10 -5 -4 -5 12 0
17 2 24 5 18 2 -7 2 -21 0 -30z m880 5 c-3 -7 -5 -2 -5 12 0 14 2 19 5 13 2
-7 2 -19 0 -25z m317 16 c3 -8 2 -12 -4 -9 -6 3 -10 10 -10 16 0 14 7 11 14
-7z m233 -6 c-3 -8 -6 -5 -6 6 -1 11 2 17 5 13 3 -3 4 -12 1 -19z m-627 -56
c0 -7 -4 -10 -10 -7 -5 3 -10 16 -10 28 0 18 2 19 10 7 5 -8 10 -21 10 -28z
m-813 -19 c-3 -10 -5 -4 -5 12 0 17 2 24 5 18 2 -7 2 -21 0 -30z m900 5 c-3
-7 -5 -2 -5 12 0 14 2 19 5 13 2 -7 2 -19 0 -25z m460 0 c-3 -8 -6 -5 -6 6 -1
11 2 17 5 13 3 -3 4 -12 1 -19z m-298 -78 c0 -8 -7 1 -14 20 -18 46 -17 64 0
25 8 -16 14 -37 14 -45z m-152 -12 c-2 -13 -4 -3 -4 22 0 25 2 35 4 23 2 -13
2 -33 0 -45z m286 -29 c10 -40 15 -74 12 -77 -3 -3 -5 -1 -5 4 0 5 -9 39 -19
77 -11 37 -16 67 -12 67 4 0 15 -32 24 -71z m107 11 c0 -5 -2 -10 -4 -10 -3 0
-8 5 -11 10 -3 6 -1 10 4 10 6 0 11 -4 11 -10z m-923 -32 c-3 -7 -5 -2 -5 12
0 14 2 19 5 13 2 -7 2 -19 0 -25z m-290 0 c-3 -8 -6 -5 -6 6 -1 11 2 17 5 13
3 -3 4 -12 1 -19z m290 -80 c-2 -13 -4 -3 -4 22 0 25 2 35 4 23 2 -13 2 -33 0
-45z m1650 -40 c-2 -18 -4 -6 -4 27 0 33 2 48 4 33 2 -15 2 -42 0 -60z m780
60 c-3 -8 -6 -5 -6 6 -1 11 2 17 5 13 3 -3 4 -12 1 -19z m-2730 -10 c-3 -8 -6
-5 -6 6 -1 11 2 17 5 13 3 -3 4 -12 1 -19z m3703 8 c0 -3 -4 -8 -10 -11 -5 -3
-10 -1 -10 4 0 6 5 11 10 11 6 0 10 -2 10 -4z m-3578 -68 c-8 -8 -9 -4 -5 13
4 13 8 18 11 10 2 -7 -1 -18 -6 -23z m3603 -19 c-13 -24 -25 -40 -25 -36 0 13
41 89 46 84 2 -2 -7 -24 -21 -48z m-2 -64 c-15 -30 -28 -53 -30 -51 -5 5 42
106 49 106 4 0 -4 -25 -19 -55z m-1026 3 c-3 -8 -6 -5 -6 6 -1 11 2 17 5 13 3
-3 4 -12 1 -19z m-160 -35 c-3 -10 -5 -4 -5 12 0 17 2 24 5 18 2 -7 2 -21 0
-30z m150 -5 c-3 -8 -6 -5 -6 6 -1 11 2 17 5 13 3 -3 4 -12 1 -19z m-90 -100
c-3 -7 -5 -2 -5 12 0 14 2 19 5 13 2 -7 2 -19 0 -25z m657 -126 c2 -4 -4 -9
-15 -9 -10 -1 -19 2 -19 8 0 11 27 12 34 1z m-887 -154 c-3 -7 -5 -2 -5 12 0
14 2 19 5 13 2 -7 2 -19 0 -25z m1217 -205 c-7 -25 -8 -25 -15 -8 -11 29 -10
37 2 29 8 -4 9 1 5 17 -6 20 -5 21 4 7 6 -10 7 -30 4 -45z m-3224 -94 l0 -90
41 48 c23 26 58 67 78 90 26 31 44 43 64 43 19 0 27 -5 27 -18 0 -10 -12 -29
-27 -43 -34 -31 -129 -140 -126 -146 1 -5 13 -19 111 -130 35 -40 61 -77 57
-83 -3 -5 -19 -10 -34 -10 -28 0 -42 13 -154 148 l-36 43 -3 -93 c-3 -92 -3
-93 -28 -93 l-25 0 -3 213 -2 212 30 0 30 0 0 -91z m1581 59 c60 -47 80 -91
80 -177 0 -97 -24 -147 -95 -195 -31 -21 -50 -26 -99 -26 -74 0 -130 32 -171
97 -26 40 -28 50 -24 126 4 92 22 130 86 180 31 24 44 27 108 27 66 0 76 -3
115 -32z m1327 -155 l2 -183 25 0 c25 0 25 -2 25 -80 l0 -80 -30 0 c-29 0 -30
1 -30 50 l0 50 -135 0 -135 0 0 -51 0 -50 -32 3 -31 3 0 68 c2 90 1 87 17 87
28 0 92 167 102 268 11 112 0 103 117 100 l102 -3 3 -182z m301 145 c1 -4 -5
-5 -13 -2 -8 3 -12 13 -8 27 5 20 6 20 13 1 4 -10 8 -22 8 -26z m8 -60 c-3 -8
-6 -5 -6 6 -1 11 2 17 5 13 3 -3 4 -12 1 -19z m-2069 -86 c6 -1 12 -13 12 -27
l0 -25 -435 0 -435 0 0 23 c0 13 2 26 4 28 4 4 826 5 854 1z m1378 1 c8 -3 14
-16 14 -29 0 -23 -3 -24 -67 -24 -38 0 -205 -2 -373 -3 -168 -2 -313 -1 -322
1 -21 5 -25 48 -5 55 17 7 735 7 753 0z m333 -482 c19 -9 48 -33 65 -54 27
-34 31 -48 34 -113 3 -41 1 -89 -2 -108 -8 -41 -74 -113 -113 -121 -15 -4 -40
-11 -54 -16 -17 -7 -34 -7 -50 0 -13 5 -36 12 -50 15 -66 14 -119 103 -119
201 0 111 50 185 144 209 56 15 94 12 145 -13z m-2694 -16 l0 -30 -82 -3 -83
-3 0 -53 0 -54 73 -3 c60 -4 76 -8 96 -28 46 -46 44 -132 -4 -180 -23 -24 -33
-26 -125 -29 l-100 -4 0 204 c0 113 3 208 7 212 4 3 54 5 112 4 l106 -3 0 -30z
m139 29 c9 -3 16 -10 16 -15 0 -13 71 -158 79 -164 4 -2 28 35 52 83 24 48 49
90 54 94 15 12 55 9 55 -3 0 -6 -27 -63 -60 -127 -50 -97 -60 -126 -60 -167 0
-43 3 -52 23 -60 12 -6 23 -20 25 -32 3 -22 1 -23 -83 -23 l-86 0 3 28 c2 19
9 28 26 30 21 3 22 8 19 55 -3 40 -18 80 -66 170 -34 65 -59 123 -56 128 7 10
36 12 59 3z m594 -176 l2 -177 28 -3 c27 -3 27 -4 30 -86 l3 -83 -33 3 c-32 3
-33 4 -36 56 l-3 52 -135 0 -134 0 0 -55 c0 -54 0 -55 -30 -55 l-30 0 0 79 c0
70 2 80 19 86 11 3 26 16 33 28 23 36 68 190 75 259 3 35 11 66 17 71 6 4 52
6 101 5 l90 -3 3 -177z m167 174 c6 -4 23 -34 40 -67 16 -33 37 -73 46 -89
l18 -29 18 36 c68 136 75 147 98 153 48 12 45 -6 -20 -131 -54 -104 -65 -133
-65 -174 0 -44 3 -50 23 -53 16 -2 23 -11 25 -30 l3 -28 -80 0 -81 0 0 30 c0
23 4 30 20 30 17 0 20 7 20 46 0 36 -13 71 -60 166 -33 66 -60 126 -60 134 0
15 38 19 55 6z m393 -174 l2 -178 65 0 65 0 0 174 c0 112 4 177 11 181 5 4 21
4 35 1 l24 -6 0 -175 0 -175 63 0 62 0 0 171 c0 177 4 194 42 187 16 -3 19
-21 24 -203 3 -110 4 -203 2 -207 -2 -5 -107 -8 -234 -8 l-229 0 0 204 c0 214
1 217 45 213 19 -2 20 -10 23 -179z m747 147 l0 -30 -77 -3 -78 -3 0 -54 0
-55 75 0 75 0 0 -30 0 -30 -75 0 -75 0 0 -60 0 -59 83 -3 c81 -3 82 -3 85 -30
l3 -28 -115 0 c-86 0 -116 3 -116 13 -3 82 2 392 6 399 3 5 51 7 107 6 l102
-3 0 -30z m319 29 c19 -7 21 -35 4 -52 -7 -7 -42 -12 -85 -12 l-73 0 0 -175 0
-175 -30 0 -30 0 0 203 c0 112 3 207 7 210 8 9 186 9 207 1z m-614 -464 l0
-30 -80 0 c-77 0 -80 1 -80 23 0 13 3 27 7 30 3 4 39 7 80 7 l73 0 0 -30z
m-1580 -434 c0 -2 -8 -10 -17 -17 -16 -13 -17 -12 -4 4 13 16 21 21 21 13z
m2440 -131 c0 -8 -4 -15 -10 -15 -5 0 -7 7 -4 15 4 8 8 15 10 15 2 0 4 -7 4
-15z m-1415 -5 c3 -5 1 -10 -4 -10 -6 0 -11 5 -11 10 0 6 2 10 4 10 3 0 8 -4
11 -10z m75 7 c0 -2 -10 -12 -22 -23 l-23 -19 19 23 c18 21 26 27 26 19z m585
-94 c-9 -15 -13 -19 -10 -8 4 11 10 29 13 40 3 11 7 14 9 8 3 -7 -3 -24 -12
-40z m671 1 c-8 -21 -15 -34 -15 -28 -1 15 20 76 25 71 2 -2 -2 -21 -10 -43z
m-70 -80 c-4 -9 -9 -15 -11 -12 -3 3 -3 13 1 22 4 9 9 15 11 12 3 -3 3 -13 -1
-22z m-738 -1 c-22 -47 -33 -63 -41 -63 -6 0 -3 8 5 18 8 9 18 25 21 35 4 9 9
17 12 17 4 0 5 -3 3 -7z m714 -55 c-8 -8 -9 -4 -5 13 4 13 8 18 11 10 2 -7 -1
-18 -6 -23z m-1612 -8 c-12 -16 -24 -30 -26 -30 -3 0 4 14 16 30 12 17 24 30
26 30 3 0 -4 -13 -16 -30z m-1177 -5 c-3 -9 -8 -14 -10 -11 -3 3 -2 9 2 15 9
16 15 13 8 -4z m310 -5 c-10 -11 -19 -20 -21 -20 -1 0 2 9 8 20 6 11 15 20 20
20 6 0 2 -9 -7 -20z m1694 -60 c-133 -248 -161 -299 -165 -295 -5 5 19 53 91
184 26 47 47 90 47 98 0 7 3 13 8 13 4 0 15 14 24 30 31 55 27 31 -5 -30z
m284 -7 c-12 -20 -14 -14 -5 12 4 9 9 14 11 11 3 -2 0 -13 -6 -23z m-2364 -32
c-27 -42 -57 -71 -57 -56 0 2 6 10 13 17 6 7 25 30 40 51 39 52 41 46 4 -12z
m-78 -98 c-40 -47 -42 -49 -33 -33 23 40 40 60 48 60 5 0 -1 -12 -15 -27z
m2372 -24 c-5 -13 -10 -19 -10 -12 -1 15 10 45 15 40 3 -2 0 -15 -5 -28z
m-2443 1 c-7 -10 -14 -17 -17 -15 -4 4 18 35 25 35 2 0 -1 -9 -8 -20z m162
-35 c-7 -8 -17 -15 -22 -15 -6 0 -5 7 2 15 7 8 17 15 22 15 6 0 5 -7 -2 -15z
m-229 -48 l-24 -22 19 27 c10 14 21 24 23 22 3 -3 -6 -15 -18 -27z m2580 -44
c-12 -20 -14 -14 -5 12 4 9 9 14 11 11 3 -2 0 -13 -6 -23z m230 -30 c-12 -20
-14 -14 -5 12 4 9 9 14 11 11 3 -2 0 -13 -6 -23z m-385 -30 c-8 -15 -15 -25
-16 -21 0 12 23 58 27 54 3 -2 -2 -17 -11 -33z"/>
<path d="M1990 2303 c-32 -13 -68 -68 -75 -111 -10 -65 2 -113 38 -152 29 -33
35 -35 95 -35 61 0 66 2 93 34 44 53 52 179 14 217 -8 8 -19 22 -24 31 -9 17
-111 29 -141 16z"/>
<path d="M3327 2253 c-5 -59 -51 -210 -68 -228 -20 -20 -6 -25 77 -25 l85 0
-3 155 -3 155 -41 0 -41 0 -6 -57z"/>
<path d="M3287 1649 c-33 -13 -77 -95 -77 -144 0 -17 10 -53 23 -80 20 -40 31
-51 68 -65 38 -14 49 -15 85 -3 24 8 51 27 65 46 21 27 24 43 24 110 -1 73 -2
79 -32 108 -25 25 -41 32 -80 35 -26 2 -61 -1 -76 -7z"/>
<path d="M580 1420 l0 -60 50 0 c57 0 90 24 90 64 0 40 -25 56 -86 56 l-54 0
0 -60z"/>
<path d="M1326 1608 c-9 -56 -56 -210 -67 -223 -20 -20 -6 -25 76 -25 l85 0 0
145 0 145 -44 0 c-43 0 -43 0 -50 -42z"/>
<path d="M1102 3955 c0 -16 2 -22 5 -12 2 9 2 23 0 30 -3 6 -5 -1 -5 -18z"/>
<path d="M2223 3930 c0 -30 2 -43 4 -27 2 15 2 39 0 55 -2 15 -4 2 -4 -28z"/>
<path d="M2256 3948 c-23 -143 -31 -465 -14 -552 13 -68 13 -64 12 120 -1 104
2 216 6 249 16 125 21 215 11 215 -6 0 -12 -15 -15 -32z"/>
<path d="M2297 3928 c-3 -24 -11 -131 -18 -238 -10 -159 -9 -212 1 -285 8 -49
15 -82 18 -72 2 9 -1 48 -7 85 -6 37 -8 87 -6 112 2 25 6 90 9 145 4 55 9 144
12 198 7 99 1 131 -9 55z"/>
<path d="M603 3915 c0 -22 2 -30 4 -17 2 12 2 30 0 40 -3 9 -5 -1 -4 -23z"/>
<path d="M2171 3914 c0 -11 3 -14 6 -6 3 7 2 16 -1 19 -3 4 -6 -2 -5 -13z"/>
<path d="M2211 3808 c1 -68 6 -61 11 15 2 26 0 47 -4 47 -5 0 -7 -28 -7 -62z"/>
<path d="M193 3755 c0 -22 2 -30 4 -17 2 12 2 30 0 40 -3 9 -5 -1 -4 -23z"/>
<path d="M2162 3750 c0 -19 2 -27 5 -17 2 9 2 25 0 35 -3 9 -5 1 -5 -18z"/>
<path d="M2162 3690 c0 -14 2 -19 5 -12 2 6 2 18 0 25 -3 6 -5 1 -5 -13z"/>
<path d="M2204 3580 c0 -58 1 -81 3 -52 2 28 2 76 0 105 -2 28 -3 5 -3 -53z"/>
<path d="M2153 3570 c0 -41 2 -58 4 -37 2 20 2 54 0 75 -2 20 -4 3 -4 -38z"/>
<path d="M580 3600 c0 -5 5 -10 11 -10 5 0 7 5 4 10 -3 6 -8 10 -11 10 -2 0
-4 -4 -4 -10z"/>
<path d="M2161 3444 c0 -11 3 -14 6 -6 3 7 2 16 -1 19 -3 4 -6 -2 -5 -13z"/>
<path d="M2768 3445 c-6 -34 4 -145 14 -145 7 0 8 27 4 77 -7 78 -12 98 -18
68z"/>
<path d="M2212 3425 c0 -16 2 -22 5 -12 2 9 2 23 0 30 -3 6 -5 -1 -5 -18z"/>
<path d="M650 3380 c0 -5 5 -10 11 -10 5 0 7 5 4 10 -3 6 -8 10 -11 10 -2 0
-4 -4 -4 -10z"/>
<path d="M2222 3365 c0 -16 2 -22 5 -12 2 9 2 23 0 30 -3 6 -5 -1 -5 -18z"/>
<path d="M2232 3310 c0 -14 2 -19 5 -12 2 6 2 18 0 25 -3 6 -5 1 -5 -13z"/>
<path d="M2291 3293 c0 -5 4 -17 9 -28 8 -18 9 -17 9 8 1 15 -3 27 -9 27 -5 0
-10 -3 -9 -7z"/>
<path d="M2241 3264 c0 -11 3 -14 6 -6 3 7 2 16 -1 19 -3 4 -6 -2 -5 -13z"/>
<path d="M2601 2924 c0 -11 3 -14 6 -6 3 7 2 16 -1 19 -3 4 -6 -2 -5 -13z"/>
<path d="M2603 2865 c0 -22 2 -30 4 -17 2 12 2 30 0 40 -3 9 -5 -1 -4 -23z"/>
<path d="M3532 2730 c0 -14 2 -19 5 -12 2 6 2 18 0 25 -3 6 -5 1 -5 -13z"/>
<path d="M1424 774 c-49 -57 -59 -82 -13 -33 64 68 72 79 63 79 -6 0 -28 -21
-50 -46z"/>
<path d="M1090 729 c0 -5 5 -7 10 -4 6 3 10 8 10 11 0 2 -4 4 -10 4 -5 0 -10
-5 -10 -11z"/>
<path d="M1340 675 c-13 -14 -22 -27 -19 -29 2 -2 14 10 27 25 29 36 24 38 -8
4z"/>
<path d="M1860 490 c-6 -11 -8 -20 -6 -20 3 0 10 9 16 20 6 11 8 20 6 20 -3 0
-10 -9 -16 -20z"/>
<path d="M980 460 c-9 -6 -10 -10 -3 -10 6 0 15 5 18 10 8 12 4 12 -15 0z"/>
<path d="M1287 463 c-4 -3 -7 -11 -7 -17 0 -6 5 -5 12 2 6 6 9 14 7 17 -3 3
-9 2 -12 -2z"/>
<path d="M1776 435 c-3 -8 -1 -15 3 -15 5 0 11 7 15 15 3 8 1 15 -3 15 -5 0
-11 -7 -15 -15z"/>
<path d="M946 413 c-6 -14 -5 -15 5 -6 7 7 10 15 7 18 -3 3 -9 -2 -12 -12z"/>
<path d="M2521 374 c-17 -37 -8 -39 13 -4 9 17 13 30 8 30 -5 0 -14 -12 -21
-26z"/>
<path d="M1266 284 c-5 -14 -4 -15 9 -4 17 14 19 20 6 20 -5 0 -12 -7 -15 -16z"/>
<path d="M1115 229 c-4 -6 -5 -12 -2 -15 2 -3 7 2 10 11 7 17 1 20 -8 4z"/>
<path d="M1186 168 l-18 -33 21 25 c18 22 26 40 18 40 -1 0 -11 -15 -21 -32z"/>
<path d="M1625 154 c-9 -15 -12 -23 -6 -20 11 7 35 46 28 46 -3 0 -12 -12 -22
-26z"/>
<path d="M3053 156 c3 -8 3 -16 -1 -18 -4 -2 -16 -28 -26 -58 -11 -30 -21 -61
-24 -67 -2 -7 0 -13 6 -13 6 0 14 12 20 28 5 15 19 50 30 79 19 45 19 52 5 57
-10 4 -14 2 -10 -8z"/>
<path d="M669 83 c-13 -16 -12 -17 4 -4 9 7 17 15 17 17 0 8 -8 3 -21 -13z"/>
<path d="M1114 78 l-19 -23 23 19 c12 11 22 21 22 23 0 8 -8 2 -26 -19z"/>
<path d="M819 73 c-13 -16 -12 -17 4 -4 9 7 17 15 17 17 0 8 -8 3 -21 -13z"/>
<path d="M966 15 c-11 -8 -15 -15 -9 -15 6 0 16 7 23 15 16 19 11 19 -14 0z"/>
</g>
</svg>
