<svg width="431" height="235" viewBox="0 0 431 235" fill="none" xmlns="http://www.w3.org/2000/svg">
<path d="M282.913 85.1587C281.626 85.1587 280.6 84.7313 279.834 83.8765C279.072 83.0216 278.691 81.9108 278.691 80.5439C278.691 79.0924 279.083 77.9308 279.866 77.0591C280.653 76.1831 281.726 75.7451 283.084 75.7451C284.311 75.7451 285.304 76.1662 286.061 77.0083C286.823 77.8462 287.204 78.9465 287.204 80.3091C287.204 81.8156 286.814 83.0005 286.036 83.8638C285.257 84.7271 284.216 85.1587 282.913 85.1587ZM282.976 76.3164C281.918 76.3164 281.046 76.6994 280.361 77.4653C279.68 78.2313 279.339 79.2342 279.339 80.4741C279.339 81.7267 279.663 82.7254 280.31 83.4702C280.958 84.2108 281.821 84.5811 282.9 84.5811C284.026 84.5811 284.916 84.215 285.572 83.4829C286.228 82.7466 286.556 81.7225 286.556 80.4106C286.556 79.1242 286.235 78.1213 285.591 77.4019C284.952 76.6782 284.081 76.3164 282.976 76.3164Z" fill="black"/>
<path d="M294.998 81.896C294.998 82.1457 294.975 82.3996 294.928 82.6577C294.886 82.9159 294.816 83.1676 294.719 83.4131C294.621 83.6543 294.497 83.8807 294.344 84.0923C294.196 84.3039 294.016 84.4901 293.805 84.6509C293.597 84.8075 293.356 84.9302 293.081 85.019C292.81 85.1121 292.506 85.1587 292.167 85.1587C291.693 85.1587 291.274 85.0677 290.91 84.8857C290.55 84.6995 290.248 84.4351 290.002 84.0923C289.761 83.7453 289.577 83.3221 289.45 82.8228C289.327 82.3234 289.266 81.7585 289.266 81.1279C289.266 80.3916 289.311 79.7505 289.399 79.2046C289.488 78.6545 289.613 78.1868 289.774 77.8018C289.939 77.4124 290.134 77.0951 290.358 76.8496C290.582 76.6042 290.83 76.4137 291.101 76.2783C291.27 76.1937 291.454 76.1217 291.653 76.0625C291.856 75.999 292.061 75.944 292.269 75.8975C292.48 75.8467 292.687 75.8044 292.891 75.7705C293.098 75.7324 293.291 75.6986 293.468 75.6689C293.616 75.6393 293.775 75.5991 293.944 75.5483C294.114 75.4976 294.257 75.432 294.376 75.3516V75.9673C294.283 76.0265 294.158 76.0837 294.001 76.1387C293.849 76.1895 293.676 76.2318 293.481 76.2656C293.295 76.2952 293.098 76.3291 292.891 76.3672C292.687 76.401 292.486 76.4412 292.288 76.4878C292.093 76.5301 291.905 76.5809 291.723 76.6401C291.545 76.6951 291.388 76.7607 291.253 76.8369C290.881 77.057 290.58 77.4294 290.352 77.9541C290.123 78.4746 289.983 79.1686 289.933 80.0361H289.958C290.051 79.8542 290.174 79.6807 290.326 79.5156C290.483 79.3464 290.66 79.1982 290.859 79.0713C291.062 78.9443 291.285 78.8449 291.526 78.7729C291.771 78.6968 292.032 78.6587 292.307 78.6587C292.776 78.6587 293.18 78.7454 293.519 78.9189C293.858 79.0882 294.135 79.321 294.351 79.6172C294.571 79.9134 294.734 80.2583 294.839 80.6519C294.945 81.0412 294.998 81.4559 294.998 81.896ZM294.351 81.9722C294.351 81.549 294.306 81.1681 294.217 80.8296C294.128 80.491 293.993 80.2033 293.811 79.9663C293.633 79.7251 293.409 79.541 293.138 79.4141C292.867 79.2829 292.552 79.2173 292.192 79.2173C291.938 79.2173 291.697 79.2596 291.469 79.3442C291.244 79.4246 291.035 79.5347 290.84 79.6743C290.646 79.814 290.472 79.9769 290.32 80.1631C290.167 80.3493 290.038 80.5482 289.933 80.7598C289.933 80.8317 289.93 80.9312 289.926 81.0581C289.922 81.1808 289.92 81.3035 289.92 81.4263C289.92 81.8494 289.962 82.2536 290.047 82.6387C290.136 83.0238 290.271 83.3644 290.453 83.6606C290.639 83.9526 290.876 84.1875 291.164 84.3652C291.452 84.5387 291.799 84.6255 292.205 84.6255C292.561 84.6255 292.872 84.5557 293.138 84.416C293.409 84.2721 293.633 84.0796 293.811 83.8384C293.993 83.5929 294.128 83.3094 294.217 82.9878C294.306 82.6662 294.351 82.3276 294.351 81.9722Z" fill="black"/>
<path d="M302.405 83.0513C302.405 83.3813 302.348 83.6691 302.234 83.9146C302.12 84.16 301.969 84.3631 301.783 84.5239C301.597 84.6847 301.385 84.8053 301.148 84.8857C300.916 84.9619 300.679 85 300.437 85H297.943V79.0332H295.905V78.5H298.527V81.166H300.387C300.7 81.166 300.981 81.2083 301.231 81.293C301.481 81.3776 301.692 81.5024 301.866 81.6675C302.039 81.8283 302.172 82.0251 302.266 82.2578C302.359 82.4906 302.405 82.755 302.405 83.0513ZM301.79 83.0513C301.79 82.8608 301.758 82.6831 301.694 82.5181C301.635 82.353 301.542 82.2113 301.415 82.0928C301.292 81.9701 301.136 81.8748 300.945 81.8071C300.755 81.7352 300.531 81.6992 300.272 81.6992H298.527V84.4668H300.285C300.556 84.4668 300.787 84.4308 300.977 84.3589C301.172 84.2827 301.328 84.1812 301.447 84.0542C301.565 83.923 301.652 83.7728 301.707 83.6035C301.762 83.43 301.79 83.2459 301.79 83.0513Z" fill="black"/>
<path d="M304.633 81.7754C304.633 82.6683 304.838 83.3665 305.248 83.8701C305.663 84.3737 306.23 84.6255 306.95 84.6255C307.678 84.6255 308.388 84.3568 309.082 83.8193V84.4414C308.41 84.9196 307.658 85.1587 306.829 85.1587C305.991 85.1587 305.314 84.8582 304.798 84.2573C304.282 83.6564 304.023 82.8079 304.023 81.7119C304.023 80.764 304.292 79.9663 304.83 79.3188C305.371 78.6672 306.074 78.3413 306.937 78.3413C307.745 78.3413 308.365 78.6248 308.797 79.1919C309.228 79.759 309.444 80.5334 309.444 81.5151V81.7754H304.633ZM308.835 81.2422C308.81 80.4932 308.63 79.9113 308.295 79.4966C307.961 79.0819 307.5 78.8745 306.912 78.8745C306.302 78.8745 305.796 79.0798 305.394 79.4902C304.997 79.8965 304.751 80.4805 304.658 81.2422H308.835ZM307.908 77.459C307.794 77.459 307.69 77.4188 307.597 77.3384C307.504 77.2537 307.457 77.1416 307.457 77.002C307.457 76.8708 307.502 76.765 307.591 76.6846C307.684 76.6042 307.785 76.564 307.895 76.564C308.018 76.564 308.128 76.6063 308.226 76.6909C308.327 76.7713 308.378 76.875 308.378 77.002C308.378 77.1331 308.331 77.2432 308.238 77.332C308.149 77.4167 308.039 77.459 307.908 77.459ZM305.794 77.459C305.676 77.459 305.57 77.4188 305.477 77.3384C305.384 77.2537 305.337 77.1416 305.337 77.002C305.337 76.8708 305.384 76.765 305.477 76.6846C305.57 76.6042 305.672 76.564 305.782 76.564C305.904 76.564 306.014 76.6063 306.112 76.6909C306.209 76.7713 306.258 76.875 306.258 77.002C306.258 77.1331 306.213 77.2432 306.124 77.332C306.036 77.4167 305.926 77.459 305.794 77.459Z" fill="black"/>
<path d="M317.182 85V79.3823L317.01 79.8394C316.964 79.9663 316.913 80.0975 316.858 80.2329C316.807 80.3683 316.763 80.4847 316.725 80.582L314.966 85H314.49L312.592 80.582C312.55 80.4932 312.503 80.381 312.453 80.2456C312.402 80.1102 312.353 79.979 312.307 79.8521C312.252 79.7039 312.194 79.5474 312.135 79.3823V85H311.577V78.5H312.275L314.255 83.0005C314.302 83.1021 314.351 83.2227 314.401 83.3623C314.456 83.4977 314.507 83.6289 314.554 83.7559C314.609 83.904 314.664 84.0542 314.719 84.2065C314.778 84.0584 314.837 83.9124 314.896 83.7686C314.943 83.6458 314.994 83.5168 315.049 83.3813C315.104 83.2459 315.15 83.1274 315.188 83.0259L317.036 78.5H317.753V85H317.182Z" fill="black"/>
<path d="M330.041 85V79.3823L329.87 79.8394C329.823 79.9663 329.772 80.0975 329.717 80.2329C329.666 80.3683 329.622 80.4847 329.584 80.582L327.826 85H327.349L325.452 80.582C325.409 80.4932 325.363 80.381 325.312 80.2456C325.261 80.1102 325.212 79.979 325.166 79.8521C325.111 79.7039 325.054 79.5474 324.995 79.3823V85H324.436V78.5H325.134L327.115 83.0005C327.161 83.1021 327.21 83.2227 327.261 83.3623C327.316 83.4977 327.366 83.6289 327.413 83.7559C327.468 83.904 327.523 84.0542 327.578 84.2065C327.637 84.0584 327.696 83.9124 327.756 83.7686C327.802 83.6458 327.853 83.5168 327.908 83.3813C327.963 83.2459 328.01 83.1274 328.048 83.0259L329.895 78.5H330.612V85H330.041Z" fill="black"/>
<path d="M337.702 85V79.5664C337.668 79.613 337.634 79.6595 337.6 79.7061C337.571 79.7526 337.545 79.7886 337.524 79.814L333.62 85H333.208V78.5H333.792V83.8828C333.817 83.8363 333.843 83.7918 333.868 83.7495C333.893 83.7072 333.921 83.6691 333.951 83.6353L337.823 78.5H338.292V85H337.702Z" fill="black"/>
<path d="M341.497 83.8447H341.472V87.9897H340.888V78.5H341.472V79.8394H341.497C341.73 79.3612 342.062 78.993 342.494 78.7349C342.93 78.4725 343.408 78.3413 343.929 78.3413C344.754 78.3413 345.397 78.627 345.858 79.1982C346.324 79.7653 346.556 80.5376 346.556 81.5151C346.556 82.6027 346.29 83.4829 345.757 84.1558C345.228 84.8244 344.527 85.1587 343.656 85.1587C342.682 85.1587 341.963 84.7207 341.497 83.8447ZM341.472 81.4263V82.2451C341.472 82.8968 341.677 83.4575 342.088 83.9272C342.498 84.3927 343.038 84.6255 343.706 84.6255C344.371 84.6255 344.91 84.342 345.325 83.7749C345.74 83.2036 345.947 82.4546 345.947 81.5278C345.947 80.7153 345.757 80.07 345.376 79.5918C344.995 79.1136 344.487 78.8745 343.852 78.8745C343.095 78.8745 342.509 79.1284 342.094 79.6362C341.679 80.144 341.472 80.7407 341.472 81.4263Z" fill="black"/>
<path d="M351.304 85.1587C350.356 85.1587 349.605 84.8477 349.051 84.2256C348.5 83.5993 348.225 82.7868 348.225 81.7881C348.225 80.709 348.513 79.8647 349.089 79.2554C349.668 78.646 350.43 78.3413 351.374 78.3413C352.301 78.3413 353.033 78.6439 353.57 79.249C354.108 79.8542 354.376 80.6921 354.376 81.7627C354.376 82.7741 354.101 83.5929 353.551 84.2192C353.005 84.8455 352.256 85.1587 351.304 85.1587ZM351.348 78.8745C350.583 78.8745 349.971 79.1326 349.514 79.6489C349.061 80.1652 348.835 80.8825 348.835 81.8008C348.835 82.6514 349.057 83.3348 349.501 83.8511C349.946 84.3674 350.553 84.6255 351.323 84.6255C352.106 84.6255 352.709 84.3716 353.132 83.8638C353.555 83.356 353.767 82.6514 353.767 81.75C353.767 80.8232 353.555 80.1123 353.132 79.6172C352.713 79.1221 352.119 78.8745 351.348 78.8745Z" fill="black"/>
<path d="M361.117 83.1401C361.117 83.4152 361.068 83.667 360.971 83.8955C360.878 84.1198 360.745 84.3145 360.571 84.4795C360.398 84.6445 360.19 84.7736 359.949 84.8667C359.712 84.9556 359.452 85 359.168 85H356.515V78.5H358.984C359.31 78.5 359.589 78.5402 359.822 78.6206C360.059 78.701 360.254 78.811 360.406 78.9507C360.558 79.0903 360.671 79.2554 360.742 79.4458C360.819 79.6362 360.857 79.8415 360.857 80.0615C360.857 80.2604 360.827 80.4466 360.768 80.6201C360.713 80.7894 360.632 80.9438 360.527 81.0835C360.425 81.2189 360.298 81.3332 360.146 81.4263C359.998 81.5194 359.831 81.585 359.644 81.623C359.886 81.6484 360.097 81.7056 360.279 81.7944C360.465 81.8791 360.62 81.9891 360.742 82.1245C360.865 82.2557 360.958 82.408 361.022 82.5815C361.085 82.755 361.117 82.9412 361.117 83.1401ZM360.247 80.1504C360.247 80.0023 360.224 79.8605 360.178 79.7251C360.135 79.5897 360.061 79.4712 359.955 79.3696C359.85 79.2681 359.712 79.1877 359.543 79.1284C359.373 79.0649 359.162 79.0332 358.908 79.0332H357.099V81.3882H358.749C359.037 81.3882 359.276 81.3543 359.467 81.2866C359.661 81.2147 359.816 81.1216 359.93 81.0073C360.044 80.8888 360.125 80.7555 360.171 80.6074C360.222 80.4593 360.247 80.307 360.247 80.1504ZM360.508 83.1909C360.508 83.0174 360.478 82.8545 360.419 82.7021C360.364 82.5456 360.271 82.4102 360.139 82.2959C360.012 82.1816 359.841 82.0907 359.625 82.0229C359.414 81.9552 359.151 81.9214 358.838 81.9214H357.099V84.4668H359.048C359.289 84.4668 359.5 84.4372 359.682 84.3779C359.864 84.3145 360.017 84.2277 360.139 84.1177C360.262 84.0034 360.353 83.868 360.412 83.7114C360.476 83.5549 360.508 83.3813 360.508 83.1909Z" fill="black"/>
<path d="M365.877 85.1587C364.929 85.1587 364.178 84.8477 363.624 84.2256C363.074 83.5993 362.799 82.7868 362.799 81.7881C362.799 80.709 363.086 79.8647 363.662 79.2554C364.242 78.646 365.003 78.3413 365.947 78.3413C366.874 78.3413 367.606 78.6439 368.143 79.249C368.681 79.8542 368.949 80.6921 368.949 81.7627C368.949 82.7741 368.674 83.5929 368.124 84.2192C367.578 84.8455 366.829 85.1587 365.877 85.1587ZM365.922 78.8745C365.156 78.8745 364.544 79.1326 364.087 79.6489C363.634 80.1652 363.408 80.8825 363.408 81.8008C363.408 82.6514 363.63 83.3348 364.074 83.8511C364.519 84.3674 365.126 84.6255 365.896 84.6255C366.679 84.6255 367.282 84.3716 367.705 83.8638C368.129 83.356 368.34 82.6514 368.34 81.75C368.34 80.8232 368.129 80.1123 367.705 79.6172C367.286 79.1221 366.692 78.8745 365.922 78.8745Z" fill="black"/>
<path d="M371.672 79.0332V85H371.088V78.5H374.262V79.0332H371.672Z" fill="black"/>
<path d="M378.267 85.1587C377.319 85.1587 376.568 84.8477 376.013 84.2256C375.463 83.5993 375.188 82.7868 375.188 81.7881C375.188 80.709 375.476 79.8647 376.052 79.2554C376.631 78.646 377.393 78.3413 378.337 78.3413C379.263 78.3413 379.996 78.6439 380.533 79.249C381.07 79.8542 381.339 80.6921 381.339 81.7627C381.339 82.7741 381.064 83.5929 380.514 84.2192C379.968 84.8455 379.219 85.1587 378.267 85.1587ZM378.311 78.8745C377.545 78.8745 376.934 79.1326 376.477 79.6489C376.024 80.1652 375.798 80.8825 375.798 81.8008C375.798 82.6514 376.02 83.3348 376.464 83.8511C376.908 84.3674 377.516 84.6255 378.286 84.6255C379.069 84.6255 379.672 84.3716 380.095 83.8638C380.518 83.356 380.73 82.6514 380.73 81.75C380.73 80.8232 380.518 80.1123 380.095 79.6172C379.676 79.1221 379.081 78.8745 378.311 78.8745Z" fill="black"/>
<path d="M279.65 98.8447H279.625V102.99H279.041V93.5H279.625V94.8394H279.65C279.883 94.3612 280.215 93.993 280.646 93.7349C281.082 93.4725 281.561 93.3413 282.081 93.3413C282.906 93.3413 283.549 93.627 284.011 94.1982C284.476 94.7653 284.709 95.5376 284.709 96.5151C284.709 97.6027 284.442 98.4829 283.909 99.1558C283.38 99.8244 282.68 100.159 281.808 100.159C280.835 100.159 280.115 99.7207 279.65 98.8447ZM279.625 96.4263V97.2451C279.625 97.8968 279.83 98.4575 280.24 98.9272C280.651 99.3927 281.19 99.6255 281.859 99.6255C282.523 99.6255 283.063 99.342 283.478 98.7749C283.892 98.2036 284.1 97.4546 284.1 96.5278C284.1 95.7153 283.909 95.07 283.528 94.5918C283.147 94.1136 282.64 93.8745 282.005 93.8745C281.247 93.8745 280.661 94.1284 280.247 94.6362C279.832 95.144 279.625 95.7407 279.625 96.4263Z" fill="black"/>
<path d="M292.726 100V93.5H293.31V100H292.726ZM291.304 98.0513C291.304 98.3813 291.247 98.6691 291.132 98.9146C291.018 99.16 290.868 99.3631 290.682 99.5239C290.5 99.6847 290.29 99.8053 290.053 99.8857C289.82 99.9619 289.583 100 289.342 100H286.848V93.5H287.432V96.166H289.291C289.6 96.166 289.88 96.2083 290.129 96.293C290.379 96.3776 290.591 96.5024 290.764 96.6675C290.938 96.8283 291.071 97.0251 291.164 97.2578C291.257 97.4906 291.304 97.755 291.304 98.0513ZM290.694 98.0513C290.694 97.8608 290.663 97.6831 290.599 97.5181C290.54 97.353 290.447 97.2113 290.32 97.0928C290.193 96.9701 290.034 96.8748 289.844 96.8071C289.653 96.7352 289.429 96.6992 289.171 96.6992H287.432V99.4668H289.184C289.459 99.4668 289.691 99.4308 289.882 99.3589C290.072 99.2827 290.227 99.1812 290.345 99.0542C290.468 98.923 290.557 98.7728 290.612 98.6035C290.667 98.43 290.694 98.2459 290.694 98.0513Z" fill="black"/>
<path d="M300.33 100V96.896H296.496V100H295.912V93.5H296.496V96.3628H300.33V93.5H300.914V100H300.33Z" fill="black"/>
<path d="M307.178 100L304.125 96.8135H304.1V100H303.516V93.5H304.1V96.604H304.125L307.14 93.5H307.895L304.747 96.6738L307.997 100H307.178Z" fill="black"/>
<path d="M313.582 100V98.6987H313.557C313.35 99.1431 313.047 99.4985 312.649 99.7651C312.256 100.028 311.818 100.159 311.335 100.159C310.718 100.159 310.229 99.9852 309.869 99.6382C309.509 99.2912 309.33 98.8532 309.33 98.3242C309.33 97.1901 310.081 96.5046 311.583 96.2676L313.582 95.9692C313.582 94.5728 313.058 93.8745 312.008 93.8745C311.293 93.8745 310.597 94.1623 309.92 94.7378V94.0332C310.161 93.8428 310.487 93.6798 310.897 93.5444C311.312 93.409 311.701 93.3413 312.065 93.3413C312.734 93.3413 313.25 93.5487 313.614 93.9634C313.982 94.3781 314.166 94.9811 314.166 95.7725V100H313.582ZM311.792 96.7627C311.111 96.86 310.633 97.0187 310.358 97.2388C310.083 97.4546 309.945 97.8079 309.945 98.2988C309.945 98.6839 310.072 99.0013 310.326 99.251C310.584 99.5007 310.942 99.6255 311.399 99.6255C312.025 99.6255 312.546 99.3949 312.96 98.9336C313.375 98.4681 313.582 97.8693 313.582 97.1372V96.5024L311.792 96.7627Z" fill="black"/>
<path d="M324.614 100V98.6987H324.588C324.381 99.1431 324.078 99.4985 323.681 99.7651C323.287 100.028 322.849 100.159 322.367 100.159C321.749 100.159 321.26 99.9852 320.9 99.6382C320.541 99.2912 320.361 98.8532 320.361 98.3242C320.361 97.1901 321.112 96.5046 322.614 96.2676L324.614 95.9692C324.614 94.5728 324.089 93.8745 323.039 93.8745C322.324 93.8745 321.628 94.1623 320.951 94.7378V94.0332C321.192 93.8428 321.518 93.6798 321.929 93.5444C322.343 93.409 322.733 93.3413 323.097 93.3413C323.765 93.3413 324.281 93.5487 324.645 93.9634C325.014 94.3781 325.198 94.9811 325.198 95.7725V100H324.614ZM322.824 96.7627C322.142 96.86 321.664 97.0187 321.389 97.2388C321.114 97.4546 320.976 97.8079 320.976 98.2988C320.976 98.6839 321.103 99.0013 321.357 99.251C321.615 99.5007 321.973 99.6255 322.43 99.6255C323.056 99.6255 323.577 99.3949 323.992 98.9336C324.406 98.4681 324.614 97.8693 324.614 97.1372V96.5024L322.824 96.7627Z" fill="black"/>
<path d="M332.637 101.714V100H327.451V101.714H326.917V99.4668H327.489C327.772 99.0563 328.022 98.6141 328.238 98.1401C328.458 97.6662 328.642 97.1732 328.79 96.6611C328.938 96.1491 329.052 95.6265 329.133 95.0933C329.213 94.5601 329.26 94.029 329.272 93.5H332.167V99.4668H333.17V101.714H332.637ZM331.583 94.0332H329.806C329.772 94.486 329.715 94.9473 329.634 95.417C329.554 95.8867 329.444 96.3543 329.304 96.8198C329.169 97.2853 329.004 97.7423 328.809 98.1909C328.619 98.6353 328.396 99.0605 328.142 99.4668H331.583V94.0332Z" fill="black"/>
<path d="M339.987 101.714V100H334.801V101.714H334.267V99.4668H334.839C335.122 99.0563 335.372 98.6141 335.588 98.1401C335.808 97.6662 335.992 97.1732 336.14 96.6611C336.288 96.1491 336.402 95.6265 336.483 95.0933C336.563 94.5601 336.61 94.029 336.622 93.5H339.517V99.4668H340.52V101.714H339.987ZM338.933 94.0332H337.156C337.122 94.486 337.065 94.9473 336.984 95.417C336.904 95.8867 336.794 96.3543 336.654 96.8198C336.519 97.2853 336.354 97.7423 336.159 98.1909C335.969 98.6353 335.746 99.0605 335.493 99.4668H338.933V94.0332Z" fill="black"/>
<path d="M346.867 100V94.5664C346.833 94.613 346.799 94.6595 346.765 94.7061C346.736 94.7526 346.71 94.7886 346.689 94.814L342.785 100H342.373V93.5H342.957V98.8828C342.982 98.8363 343.008 98.7918 343.033 98.7495C343.058 98.7072 343.086 98.6691 343.116 98.6353L346.988 93.5H347.457V100H346.867Z" fill="black"/>
<path d="M351.716 94.0332V100H351.132V94.0332H349.183V93.5H353.665V94.0332H351.716Z" fill="black"/>
<path d="M359.866 100V94.5664C359.832 94.613 359.798 94.6595 359.764 94.7061C359.735 94.7526 359.709 94.7886 359.688 94.814L355.784 100H355.372V93.5H355.956V98.8828C355.981 98.8363 356.007 98.7918 356.032 98.7495C356.057 98.7072 356.085 98.6691 356.115 98.6353L359.987 93.5H360.456V100H359.866Z" fill="black"/>
<path d="M367.654 98.1401C367.654 98.4152 367.605 98.667 367.508 98.8955C367.415 99.1198 367.282 99.3145 367.108 99.4795C366.935 99.6445 366.727 99.7736 366.486 99.8667C366.249 99.9556 365.989 100 365.705 100H363.052V93.5H365.521C365.847 93.5 366.126 93.5402 366.359 93.6206C366.596 93.701 366.791 93.811 366.943 93.9507C367.095 94.0903 367.208 94.2554 367.28 94.4458C367.356 94.6362 367.394 94.8415 367.394 95.0615C367.394 95.2604 367.364 95.4466 367.305 95.6201C367.25 95.7894 367.17 95.9438 367.064 96.0835C366.962 96.2189 366.835 96.3332 366.683 96.4263C366.535 96.5194 366.368 96.585 366.181 96.623C366.423 96.6484 366.634 96.7056 366.816 96.7944C367.002 96.8791 367.157 96.9891 367.28 97.1245C367.402 97.2557 367.495 97.408 367.559 97.5815C367.622 97.755 367.654 97.9412 367.654 98.1401ZM366.784 95.1504C366.784 95.0023 366.761 94.8605 366.715 94.7251C366.672 94.5897 366.598 94.4712 366.492 94.3696C366.387 94.2681 366.249 94.1877 366.08 94.1284C365.911 94.0649 365.699 94.0332 365.445 94.0332H363.636V96.3882H365.286C365.574 96.3882 365.813 96.3543 366.004 96.2866C366.198 96.2147 366.353 96.1216 366.467 96.0073C366.581 95.8888 366.662 95.7555 366.708 95.6074C366.759 95.4593 366.784 95.307 366.784 95.1504ZM367.045 98.1909C367.045 98.0174 367.015 97.8545 366.956 97.7021C366.901 97.5456 366.808 97.4102 366.677 97.2959C366.55 97.1816 366.378 97.0907 366.162 97.0229C365.951 96.9552 365.688 96.9214 365.375 96.9214H363.636V99.4668H365.585C365.826 99.4668 366.038 99.4372 366.219 99.3779C366.401 99.3145 366.554 99.2277 366.677 99.1177C366.799 99.0034 366.89 98.868 366.949 98.7114C367.013 98.5548 367.045 98.3813 367.045 98.1909Z" fill="black"/>
<path d="M374.223 100V96.896H370.389V100H369.805V93.5H370.389V96.3628H374.223V93.5H374.807V100H374.223Z" fill="black"/>
<path d="M380.018 100.159C379.07 100.159 378.319 99.8477 377.765 99.2256C377.215 98.5993 376.94 97.7868 376.94 96.7881C376.94 95.709 377.227 94.8647 377.803 94.2554C378.383 93.646 379.144 93.3413 380.088 93.3413C381.015 93.3413 381.747 93.6439 382.284 94.249C382.822 94.8542 383.091 95.6921 383.091 96.7627C383.091 97.7741 382.815 98.5929 382.265 99.2192C381.719 99.8455 380.97 100.159 380.018 100.159ZM380.063 93.8745C379.297 93.8745 378.685 94.1327 378.228 94.6489C377.775 95.1652 377.549 95.8825 377.549 96.8008C377.549 97.6514 377.771 98.3348 378.216 98.8511C378.66 99.3673 379.267 99.6255 380.037 99.6255C380.82 99.6255 381.423 99.3716 381.846 98.8638C382.27 98.356 382.481 97.6514 382.481 96.75C382.481 95.8232 382.27 95.1123 381.846 94.6172C381.427 94.1221 380.833 93.8745 380.063 93.8745Z" fill="black"/>
<path d="M385.813 94.0332V100H385.229V93.5H388.403V94.0332H385.813Z" fill="black"/>
<path d="M392.408 100.159C391.46 100.159 390.709 99.8477 390.154 99.2256C389.604 98.5993 389.329 97.7868 389.329 96.7881C389.329 95.709 389.617 94.8647 390.193 94.2554C390.772 93.646 391.534 93.3413 392.478 93.3413C393.404 93.3413 394.137 93.6439 394.674 94.249C395.211 94.8542 395.48 95.6921 395.48 96.7627C395.48 97.7741 395.205 98.5929 394.655 99.2192C394.109 99.8455 393.36 100.159 392.408 100.159ZM392.452 93.8745C391.686 93.8745 391.075 94.1327 390.618 94.6489C390.165 95.1652 389.939 95.8825 389.939 96.8008C389.939 97.6514 390.161 98.3348 390.605 98.8511C391.049 99.3673 391.657 99.6255 392.427 99.6255C393.21 99.6255 393.813 99.3716 394.236 98.8638C394.659 98.356 394.871 97.6514 394.871 96.75C394.871 95.8232 394.659 95.1123 394.236 94.6172C393.817 94.1221 393.223 93.8745 392.452 93.8745Z" fill="black"/>
<path d="M283.458 115V109.033H279.625V115H279.041V108.5H284.042V115H283.458Z" fill="black"/>
<path d="M287.254 113.845H287.228V117.99H286.645V108.5H287.228V109.839H287.254C287.487 109.361 287.819 108.993 288.25 108.735C288.686 108.472 289.165 108.341 289.685 108.341C290.51 108.341 291.153 108.627 291.615 109.198C292.08 109.765 292.313 110.538 292.313 111.515C292.313 112.603 292.046 113.483 291.513 114.156C290.984 114.824 290.284 115.159 289.412 115.159C288.439 115.159 287.719 114.721 287.254 113.845ZM287.228 111.426V112.245C287.228 112.897 287.434 113.458 287.844 113.927C288.255 114.393 288.794 114.625 289.463 114.625C290.127 114.625 290.667 114.342 291.082 113.775C291.496 113.204 291.704 112.455 291.704 111.528C291.704 110.715 291.513 110.07 291.132 109.592C290.751 109.114 290.244 108.875 289.609 108.875C288.851 108.875 288.265 109.128 287.851 109.636C287.436 110.144 287.228 110.741 287.228 111.426Z" fill="black"/>
<path d="M297.061 115.159C296.113 115.159 295.361 114.848 294.807 114.226C294.257 113.599 293.982 112.787 293.982 111.788C293.982 110.709 294.27 109.865 294.845 109.255C295.425 108.646 296.187 108.341 297.13 108.341C298.057 108.341 298.789 108.644 299.327 109.249C299.864 109.854 300.133 110.692 300.133 111.763C300.133 112.774 299.858 113.593 299.308 114.219C298.762 114.846 298.013 115.159 297.061 115.159ZM297.105 108.875C296.339 108.875 295.728 109.133 295.27 109.649C294.818 110.165 294.591 110.882 294.591 111.801C294.591 112.651 294.813 113.335 295.258 113.851C295.702 114.367 296.309 114.625 297.08 114.625C297.862 114.625 298.465 114.372 298.889 113.864C299.312 113.356 299.523 112.651 299.523 111.75C299.523 110.823 299.312 110.112 298.889 109.617C298.47 109.122 297.875 108.875 297.105 108.875Z" fill="black"/>
<path d="M306.766 115V109.566C306.732 109.613 306.698 109.66 306.664 109.706C306.634 109.753 306.609 109.789 306.588 109.814L302.684 115H302.271V108.5H302.855V113.883C302.881 113.836 302.906 113.792 302.932 113.75C302.957 113.707 302.984 113.669 303.014 113.635L306.886 108.5H307.356V115H306.766Z" fill="black"/>
<path d="M314.268 113.191C314.268 113.441 314.219 113.684 314.122 113.921C314.029 114.158 313.874 114.369 313.659 114.556C313.443 114.738 313.157 114.884 312.802 114.994C312.45 115.104 312.017 115.159 311.5 115.159C311.327 115.159 311.145 115.148 310.955 115.127C310.764 115.106 310.576 115.076 310.39 115.038C310.208 115 310.034 114.956 309.869 114.905C309.708 114.85 309.571 114.791 309.456 114.727V114.118C309.605 114.198 309.763 114.27 309.933 114.333C310.106 114.397 310.282 114.45 310.459 114.492C310.641 114.535 310.821 114.568 310.999 114.594C311.177 114.615 311.348 114.625 311.513 114.625C311.936 114.625 312.285 114.587 312.56 114.511C312.84 114.435 313.06 114.336 313.221 114.213C313.386 114.086 313.5 113.94 313.563 113.775C313.627 113.61 313.659 113.438 313.659 113.261C313.659 113.003 313.608 112.787 313.506 112.613C313.409 112.44 313.267 112.3 313.081 112.194C312.899 112.089 312.675 112.014 312.408 111.972C312.146 111.93 311.852 111.909 311.526 111.909H310.637V111.375H311.443C312.078 111.375 312.55 111.272 312.859 111.064C313.172 110.857 313.329 110.531 313.329 110.087C313.329 109.909 313.295 109.746 313.227 109.598C313.159 109.45 313.056 109.323 312.916 109.217C312.776 109.107 312.599 109.023 312.383 108.963C312.167 108.904 311.911 108.875 311.615 108.875C311.259 108.875 310.904 108.921 310.548 109.014C310.197 109.107 309.875 109.222 309.583 109.357V108.786C309.706 108.735 309.846 108.684 310.002 108.633C310.159 108.578 310.326 108.53 310.504 108.487C310.686 108.445 310.876 108.411 311.075 108.386C311.274 108.356 311.479 108.341 311.691 108.341C312.101 108.341 312.448 108.39 312.732 108.487C313.02 108.58 313.252 108.705 313.43 108.862C313.612 109.018 313.743 109.198 313.824 109.401C313.904 109.6 313.944 109.803 313.944 110.011C313.944 110.43 313.826 110.777 313.589 111.052C313.356 111.327 313.024 111.502 312.592 111.579V111.604C312.859 111.617 313.096 111.667 313.303 111.756C313.511 111.841 313.686 111.953 313.83 112.093C313.974 112.232 314.082 112.397 314.154 112.588C314.23 112.774 314.268 112.975 314.268 113.191Z" fill="black"/>
<path d="M321.015 113.14C321.015 113.415 320.966 113.667 320.869 113.896C320.776 114.12 320.643 114.314 320.469 114.479C320.296 114.645 320.088 114.774 319.847 114.867C319.61 114.956 319.35 115 319.066 115H316.413V108.5H318.882C319.208 108.5 319.487 108.54 319.72 108.621C319.957 108.701 320.152 108.811 320.304 108.951C320.456 109.09 320.569 109.255 320.641 109.446C320.717 109.636 320.755 109.841 320.755 110.062C320.755 110.26 320.725 110.447 320.666 110.62C320.611 110.789 320.53 110.944 320.425 111.083C320.323 111.219 320.196 111.333 320.044 111.426C319.896 111.519 319.729 111.585 319.542 111.623C319.784 111.648 319.995 111.706 320.177 111.794C320.363 111.879 320.518 111.989 320.641 112.125C320.763 112.256 320.856 112.408 320.92 112.582C320.983 112.755 321.015 112.941 321.015 113.14ZM320.145 110.15C320.145 110.002 320.122 109.861 320.076 109.725C320.033 109.59 319.959 109.471 319.853 109.37C319.748 109.268 319.61 109.188 319.441 109.128C319.272 109.065 319.06 109.033 318.806 109.033H316.997V111.388H318.647C318.935 111.388 319.174 111.354 319.365 111.287C319.559 111.215 319.714 111.122 319.828 111.007C319.942 110.889 320.023 110.756 320.069 110.607C320.12 110.459 320.145 110.307 320.145 110.15ZM320.406 113.191C320.406 113.017 320.376 112.854 320.317 112.702C320.262 112.546 320.169 112.41 320.037 112.296C319.911 112.182 319.739 112.091 319.523 112.023C319.312 111.955 319.049 111.921 318.736 111.921H316.997V114.467H318.946C319.187 114.467 319.399 114.437 319.58 114.378C319.762 114.314 319.915 114.228 320.037 114.118C320.16 114.003 320.251 113.868 320.31 113.711C320.374 113.555 320.406 113.381 320.406 113.191Z" fill="black"/>
<path d="M325.775 115.159C324.827 115.159 324.076 114.848 323.522 114.226C322.972 113.599 322.697 112.787 322.697 111.788C322.697 110.709 322.984 109.865 323.56 109.255C324.14 108.646 324.901 108.341 325.845 108.341C326.772 108.341 327.504 108.644 328.041 109.249C328.579 109.854 328.848 110.692 328.848 111.763C328.848 112.774 328.572 113.593 328.022 114.219C327.476 114.846 326.727 115.159 325.775 115.159ZM325.82 108.875C325.054 108.875 324.442 109.133 323.985 109.649C323.532 110.165 323.306 110.882 323.306 111.801C323.306 112.651 323.528 113.335 323.973 113.851C324.417 114.367 325.024 114.625 325.794 114.625C326.577 114.625 327.18 114.372 327.603 113.864C328.027 113.356 328.238 112.651 328.238 111.75C328.238 110.823 328.027 110.112 327.603 109.617C327.184 109.122 326.59 108.875 325.82 108.875Z" fill="black"/>
<path d="M335.696 116.714V115H330.51V116.714H329.977V114.467H330.548C330.832 114.056 331.081 113.614 331.297 113.14C331.517 112.666 331.701 112.173 331.849 111.661C331.998 111.149 332.112 110.626 332.192 110.093C332.273 109.56 332.319 109.029 332.332 108.5H335.226V114.467H336.229V116.714H335.696ZM334.642 109.033H332.865C332.831 109.486 332.774 109.947 332.694 110.417C332.613 110.887 332.503 111.354 332.364 111.82C332.228 112.285 332.063 112.742 331.869 113.191C331.678 113.635 331.456 114.061 331.202 114.467H334.642V109.033Z" fill="black"/>
<path d="M342.291 114.714C341.808 115.011 341.233 115.159 340.564 115.159C339.68 115.159 338.967 114.856 338.425 114.251C337.883 113.642 337.613 112.846 337.613 111.864C337.613 110.832 337.917 109.987 338.527 109.332C339.136 108.671 339.919 108.341 340.875 108.341C341.37 108.341 341.851 108.443 342.316 108.646V109.306C341.851 109.018 341.341 108.875 340.786 108.875C340.025 108.875 339.407 109.15 338.933 109.7C338.459 110.246 338.222 110.954 338.222 111.826C338.222 112.668 338.438 113.345 338.869 113.857C339.305 114.369 339.879 114.625 340.59 114.625C341.241 114.625 341.808 114.452 342.291 114.105V114.714Z" fill="black"/>
<path d="M346.042 109.033V115H345.458V109.033H343.509V108.5H347.991V109.033H346.042Z" fill="black"/>
<path d="M354.3 113.14C354.3 113.415 354.251 113.667 354.154 113.896C354.061 114.12 353.927 114.314 353.754 114.479C353.58 114.645 353.373 114.774 353.132 114.867C352.895 114.956 352.634 115 352.351 115H349.698V108.5H352.167C352.493 108.5 352.772 108.54 353.005 108.621C353.242 108.701 353.436 108.811 353.589 108.951C353.741 109.09 353.853 109.255 353.925 109.446C354.001 109.636 354.039 109.841 354.039 110.062C354.039 110.26 354.01 110.447 353.95 110.62C353.895 110.789 353.815 110.944 353.709 111.083C353.608 111.219 353.481 111.333 353.328 111.426C353.18 111.519 353.013 111.585 352.827 111.623C353.068 111.648 353.28 111.706 353.462 111.794C353.648 111.879 353.802 111.989 353.925 112.125C354.048 112.256 354.141 112.408 354.204 112.582C354.268 112.755 354.3 112.941 354.3 113.14ZM353.43 110.15C353.43 110.002 353.407 109.861 353.36 109.725C353.318 109.59 353.244 109.471 353.138 109.37C353.032 109.268 352.895 109.188 352.725 109.128C352.556 109.065 352.345 109.033 352.091 109.033H350.282V111.388H351.932C352.22 111.388 352.459 111.354 352.649 111.287C352.844 111.215 352.998 111.122 353.113 111.007C353.227 110.889 353.307 110.756 353.354 110.607C353.405 110.459 353.43 110.307 353.43 110.15ZM353.69 113.191C353.69 113.017 353.661 112.854 353.601 112.702C353.546 112.546 353.453 112.41 353.322 112.296C353.195 112.182 353.024 112.091 352.808 112.023C352.596 111.955 352.334 111.921 352.021 111.921H350.282V114.467H352.23C352.471 114.467 352.683 114.437 352.865 114.378C353.047 114.314 353.199 114.228 353.322 114.118C353.445 114.003 353.536 113.868 353.595 113.711C353.658 113.555 353.69 113.381 353.69 113.191Z" fill="black"/>
<path d="M360.336 115V113.699H360.31C360.103 114.143 359.8 114.499 359.403 114.765C359.009 115.028 358.571 115.159 358.089 115.159C357.471 115.159 356.982 114.985 356.622 114.638C356.263 114.291 356.083 113.853 356.083 113.324C356.083 112.19 356.834 111.505 358.336 111.268L360.336 110.969C360.336 109.573 359.811 108.875 358.762 108.875C358.046 108.875 357.35 109.162 356.673 109.738V109.033C356.914 108.843 357.24 108.68 357.651 108.544C358.065 108.409 358.455 108.341 358.819 108.341C359.487 108.341 360.004 108.549 360.367 108.963C360.736 109.378 360.92 109.981 360.92 110.772V115H360.336ZM358.546 111.763C357.864 111.86 357.386 112.019 357.111 112.239C356.836 112.455 356.699 112.808 356.699 113.299C356.699 113.684 356.825 114.001 357.079 114.251C357.338 114.501 357.695 114.625 358.152 114.625C358.778 114.625 359.299 114.395 359.714 113.934C360.128 113.468 360.336 112.869 360.336 112.137V111.502L358.546 111.763Z" fill="black"/>
<path d="M283.643 128.14C283.643 128.415 283.594 128.667 283.497 128.896C283.403 129.12 283.27 129.314 283.097 129.479C282.923 129.645 282.716 129.774 282.475 129.867C282.238 129.956 281.977 130 281.694 130H279.041V123.5H281.51C281.836 123.5 282.115 123.54 282.348 123.621C282.585 123.701 282.779 123.811 282.932 123.951C283.084 124.09 283.196 124.255 283.268 124.446C283.344 124.636 283.382 124.841 283.382 125.062C283.382 125.26 283.353 125.447 283.293 125.62C283.238 125.789 283.158 125.944 283.052 126.083C282.951 126.219 282.824 126.333 282.671 126.426C282.523 126.519 282.356 126.585 282.17 126.623C282.411 126.648 282.623 126.706 282.805 126.794C282.991 126.879 283.145 126.989 283.268 127.125C283.391 127.256 283.484 127.408 283.547 127.582C283.611 127.755 283.643 127.941 283.643 128.14ZM282.773 125.15C282.773 125.002 282.75 124.861 282.703 124.725C282.661 124.59 282.587 124.471 282.481 124.37C282.375 124.268 282.238 124.188 282.068 124.128C281.899 124.065 281.688 124.033 281.434 124.033H279.625V126.388H281.275C281.563 126.388 281.802 126.354 281.992 126.287C282.187 126.215 282.341 126.122 282.456 126.007C282.57 125.889 282.65 125.756 282.697 125.607C282.748 125.459 282.773 125.307 282.773 125.15ZM283.033 128.191C283.033 128.017 283.004 127.854 282.944 127.702C282.889 127.546 282.796 127.41 282.665 127.296C282.538 127.182 282.367 127.091 282.151 127.023C281.939 126.955 281.677 126.921 281.364 126.921H279.625V129.467H281.573C281.814 129.467 282.026 129.437 282.208 129.378C282.39 129.314 282.542 129.228 282.665 129.118C282.788 129.003 282.879 128.868 282.938 128.711C283.001 128.555 283.033 128.381 283.033 128.191Z" fill="black"/>
<path d="M289.361 130V129.378L291.843 126.737C292.727 125.794 293.307 125.097 293.582 124.649C293.861 124.2 294.001 123.701 294.001 123.151C294.001 122.558 293.836 122.099 293.506 121.773C293.176 121.443 292.708 121.278 292.103 121.278C291.299 121.278 290.541 121.594 289.831 122.224V121.539C290.525 121.01 291.307 120.745 292.179 120.745C292.958 120.745 293.557 120.955 293.976 121.374C294.399 121.792 294.61 122.353 294.61 123.056C294.61 123.682 294.46 124.249 294.16 124.757C293.859 125.265 293.218 126.041 292.236 127.086L290.008 129.441V129.467H294.56V130H289.361Z" fill="black"/>
<path d="M299.339 130.159C298.501 130.159 297.845 129.774 297.371 129.003C296.897 128.233 296.66 127.114 296.66 125.646C296.66 124.025 296.908 122.804 297.403 121.983C297.902 121.158 298.613 120.745 299.536 120.745C301.288 120.745 302.164 122.3 302.164 125.411C302.164 126.959 301.916 128.138 301.421 128.946C300.926 129.755 300.232 130.159 299.339 130.159ZM299.485 121.278C298.787 121.278 298.243 121.636 297.853 122.351C297.464 123.066 297.269 124.139 297.269 125.569C297.269 126.873 297.456 127.876 297.828 128.578C298.2 129.276 298.729 129.625 299.415 129.625C300.088 129.625 300.61 129.27 300.983 128.559C301.359 127.844 301.548 126.824 301.548 125.5C301.548 122.685 300.86 121.278 299.485 121.278Z" fill="black"/>
<path d="M304.366 130V129.467H306.448V121.342L304.22 122.135V121.551L307.032 120.574V129.467H309.082V130H304.366Z" fill="black"/>
<path d="M316.153 120.967V121.589C315.717 121.382 315.27 121.278 314.813 121.278C313.916 121.278 313.203 121.704 312.674 122.554C312.149 123.401 311.887 124.509 311.887 125.88H311.912C312.357 124.831 313.116 124.306 314.191 124.306C314.936 124.306 315.535 124.575 315.988 125.112C316.445 125.646 316.673 126.312 316.673 127.112C316.673 128.005 316.417 128.737 315.905 129.308C315.397 129.875 314.748 130.159 313.956 130.159C313.123 130.159 312.469 129.805 311.995 129.099C311.525 128.388 311.29 127.357 311.29 126.007C311.29 124.403 311.599 123.125 312.217 122.173C312.839 121.221 313.709 120.745 314.826 120.745C315.33 120.745 315.772 120.819 316.153 120.967ZM314.058 124.839C313.453 124.839 312.951 125.066 312.554 125.519C312.16 125.971 311.963 126.473 311.963 127.023C311.963 127.734 312.152 128.345 312.528 128.857C312.905 129.369 313.398 129.625 314.007 129.625C314.591 129.625 315.078 129.401 315.467 128.953C315.861 128.5 316.058 127.926 316.058 127.232C316.058 126.517 315.88 125.94 315.524 125.5C315.169 125.059 314.68 124.839 314.058 124.839Z" fill="black"/>
<path d="M318.653 126.477V125.906H322.125V126.477H318.653Z" fill="black"/>
<path d="M323.953 130V129.378L326.435 126.737C327.319 125.794 327.899 125.097 328.174 124.649C328.453 124.2 328.593 123.701 328.593 123.151C328.593 122.558 328.428 122.099 328.098 121.773C327.768 121.443 327.3 121.278 326.695 121.278C325.891 121.278 325.134 121.594 324.423 122.224V121.539C325.117 121.01 325.9 120.745 326.771 120.745C327.55 120.745 328.149 120.955 328.568 121.374C328.991 121.792 329.202 122.353 329.202 123.056C329.202 123.682 329.052 124.249 328.752 124.757C328.451 125.265 327.81 126.041 326.828 127.086L324.6 129.441V129.467H329.152V130H323.953Z" fill="black"/>
<path d="M333.931 130.159C333.093 130.159 332.437 129.774 331.963 129.003C331.489 128.233 331.252 127.114 331.252 125.646C331.252 124.025 331.5 122.804 331.995 121.983C332.494 121.158 333.205 120.745 334.128 120.745C335.88 120.745 336.756 122.3 336.756 125.411C336.756 126.959 336.508 128.138 336.013 128.946C335.518 129.755 334.824 130.159 333.931 130.159ZM334.077 121.278C333.379 121.278 332.835 121.636 332.446 122.351C332.056 123.066 331.862 124.139 331.862 125.569C331.862 126.873 332.048 127.876 332.42 128.578C332.793 129.276 333.322 129.625 334.007 129.625C334.68 129.625 335.203 129.27 335.575 128.559C335.952 127.844 336.14 126.824 336.14 125.5C336.14 122.685 335.452 121.278 334.077 121.278Z" fill="black"/>
<path d="M338.399 130V129.378L340.881 126.737C341.766 125.794 342.345 125.097 342.62 124.649C342.9 124.2 343.039 123.701 343.039 123.151C343.039 122.558 342.874 122.099 342.544 121.773C342.214 121.443 341.747 121.278 341.141 121.278C340.337 121.278 339.58 121.594 338.869 122.224V121.539C339.563 121.01 340.346 120.745 341.218 120.745C341.996 120.745 342.595 120.955 343.014 121.374C343.437 121.792 343.649 122.353 343.649 123.056C343.649 123.682 343.499 124.249 343.198 124.757C342.898 125.265 342.256 126.041 341.275 127.086L339.047 129.441V129.467H343.598V130H338.399Z" fill="black"/>
<path d="M348.377 130.159C347.539 130.159 346.883 129.774 346.409 129.003C345.936 128.233 345.699 127.114 345.699 125.646C345.699 124.025 345.946 122.804 346.441 121.983C346.941 121.158 347.651 120.745 348.574 120.745C350.326 120.745 351.202 122.3 351.202 125.411C351.202 126.959 350.954 128.138 350.459 128.946C349.964 129.755 349.27 130.159 348.377 130.159ZM348.523 121.278C347.825 121.278 347.281 121.636 346.892 122.351C346.503 123.066 346.308 124.139 346.308 125.569C346.308 126.873 346.494 127.876 346.867 128.578C347.239 129.276 347.768 129.625 348.453 129.625C349.126 129.625 349.649 129.27 350.021 128.559C350.398 127.844 350.586 126.824 350.586 125.5C350.586 122.685 349.899 121.278 348.523 121.278Z" fill="black"/>
<path d="M358.037 124.033V130H357.453V123.5H360.627V124.033H358.037Z" fill="black"/>
<path d="M364.632 130.159C363.684 130.159 362.933 129.848 362.379 129.226C361.829 128.599 361.553 127.787 361.553 126.788C361.553 125.709 361.841 124.865 362.417 124.255C362.996 123.646 363.758 123.341 364.702 123.341C365.629 123.341 366.361 123.644 366.898 124.249C367.436 124.854 367.704 125.692 367.704 126.763C367.704 127.774 367.429 128.593 366.879 129.219C366.333 129.846 365.584 130.159 364.632 130.159ZM364.677 123.875C363.911 123.875 363.299 124.133 362.842 124.649C362.389 125.165 362.163 125.882 362.163 126.801C362.163 127.651 362.385 128.335 362.829 128.851C363.274 129.367 363.881 129.625 364.651 129.625C365.434 129.625 366.037 129.372 366.46 128.864C366.883 128.356 367.095 127.651 367.095 126.75C367.095 125.823 366.883 125.112 366.46 124.617C366.041 124.122 365.447 123.875 364.677 123.875Z" fill="black"/>
<path d="M374.553 131.714V130H369.367V131.714H368.834V129.467H369.405C369.689 129.056 369.938 128.614 370.154 128.14C370.374 127.666 370.558 127.173 370.706 126.661C370.854 126.149 370.969 125.626 371.049 125.093C371.129 124.56 371.176 124.029 371.189 123.5H374.083V129.467H375.086V131.714H374.553ZM373.499 124.033H371.722C371.688 124.486 371.631 124.947 371.551 125.417C371.47 125.887 371.36 126.354 371.22 126.82C371.085 127.285 370.92 127.742 370.725 128.191C370.535 128.635 370.313 129.061 370.059 129.467H373.499V124.033Z" fill="black"/>
<path d="M380.824 130V128.699H380.799C380.591 129.143 380.289 129.499 379.891 129.765C379.497 130.028 379.059 130.159 378.577 130.159C377.959 130.159 377.47 129.985 377.111 129.638C376.751 129.291 376.571 128.853 376.571 128.324C376.571 127.19 377.322 126.505 378.824 126.268L380.824 125.969C380.824 124.573 380.299 123.875 379.25 123.875C378.535 123.875 377.838 124.162 377.161 124.738V124.033C377.403 123.843 377.728 123.68 378.139 123.544C378.554 123.409 378.943 123.341 379.307 123.341C379.975 123.341 380.492 123.549 380.856 123.963C381.224 124.378 381.408 124.981 381.408 125.772V130H380.824ZM379.034 126.763C378.353 126.86 377.874 127.019 377.599 127.239C377.324 127.455 377.187 127.808 377.187 128.299C377.187 128.684 377.314 129.001 377.568 129.251C377.826 129.501 378.183 129.625 378.64 129.625C379.267 129.625 379.787 129.395 380.202 128.934C380.617 128.468 380.824 127.869 380.824 127.137V126.502L379.034 126.763Z" fill="black"/>
<path d="M385.895 126.813L388.015 130H387.273L385.559 127.258H385.533L385.305 127.62C385.275 127.67 385.239 127.728 385.197 127.791L383.762 130H383.051L385.222 126.826L383.09 123.5H383.775L385.222 125.83C385.409 126.13 385.521 126.316 385.559 126.388H385.584L385.908 125.855L387.419 123.5H388.104L385.895 126.813Z" fill="black"/>
<path d="M389.627 131.574H389.132L390.084 128.559H390.732L389.627 131.574Z" fill="black"/>
<path d="M281.599 144.975V146.327H281.104V145C280.308 145 279.616 144.831 279.028 144.492V143.845C279.671 144.259 280.363 144.467 281.104 144.467V140.671C280.27 140.193 279.715 139.782 279.44 139.439C279.165 139.092 279.028 138.68 279.028 138.202C279.028 137.626 279.214 137.125 279.586 136.697C279.959 136.27 280.465 136.007 281.104 135.91V134.755H281.599V135.897C282.242 135.897 282.792 135.988 283.249 136.17V136.824C282.813 136.57 282.263 136.443 281.599 136.443V140.296C282.377 140.724 282.917 141.117 283.217 141.477C283.518 141.833 283.668 142.254 283.668 142.74C283.668 143.333 283.486 143.83 283.122 144.232C282.762 144.634 282.255 144.882 281.599 144.975ZM281.104 136.456C280.651 136.528 280.293 136.714 280.031 137.015C279.768 137.315 279.637 137.685 279.637 138.125C279.637 138.498 279.735 138.822 279.929 139.097C280.124 139.368 280.515 139.672 281.104 140.011V136.456ZM281.599 140.969V144.454C282.081 144.369 282.445 144.185 282.69 143.902C282.936 143.614 283.059 143.265 283.059 142.854C283.059 142.465 282.955 142.135 282.748 141.864C282.544 141.593 282.161 141.295 281.599 140.969Z" fill="black"/>
<path d="M295.956 145V139.382L295.785 139.839C295.738 139.966 295.687 140.097 295.632 140.233C295.582 140.368 295.537 140.485 295.499 140.582L293.741 145H293.265L291.367 140.582C291.324 140.493 291.278 140.381 291.227 140.246C291.176 140.11 291.128 139.979 291.081 139.852C291.026 139.704 290.969 139.547 290.91 139.382V145H290.351V138.5H291.049L293.03 143C293.076 143.102 293.125 143.223 293.176 143.362C293.231 143.498 293.282 143.629 293.328 143.756C293.383 143.904 293.438 144.054 293.493 144.207C293.552 144.058 293.612 143.912 293.671 143.769C293.717 143.646 293.768 143.517 293.823 143.381C293.878 143.246 293.925 143.127 293.963 143.026L295.81 138.5H296.527V145H295.956Z" fill="black"/>
<path d="M302.97 145V139.033H301.072C301 139.998 300.905 140.857 300.786 141.61C300.672 142.359 300.519 142.992 300.329 143.508C300.143 144.025 299.912 144.418 299.637 144.689C299.362 144.956 299.03 145.089 298.641 145.089C298.577 145.089 298.511 145.083 298.444 145.07C298.38 145.061 298.325 145.051 298.279 145.038V144.518C298.313 144.53 298.368 144.543 298.444 144.556C298.52 144.564 298.581 144.568 298.628 144.568C298.911 144.568 299.159 144.437 299.371 144.175C299.582 143.908 299.764 143.519 299.916 143.007C300.069 142.491 300.196 141.856 300.297 141.103C300.403 140.345 300.488 139.478 300.551 138.5H303.554V145H302.97Z" fill="black"/>
<path d="M310.574 145V141.896H306.74V145H306.156V138.5H306.74V141.363H310.574V138.5H311.158V145H310.574Z" fill="black"/>
<path d="M314.16 145.114C314.016 145.114 313.895 145.066 313.798 144.968C313.7 144.867 313.652 144.744 313.652 144.6C313.652 144.452 313.7 144.331 313.798 144.238C313.895 144.141 314.016 144.092 314.16 144.092C314.303 144.092 314.426 144.141 314.528 144.238C314.629 144.331 314.68 144.452 314.68 144.6C314.68 144.744 314.629 144.867 314.528 144.968C314.426 145.066 314.303 145.114 314.16 145.114Z" fill="black"/>
<path d="M46.834 202V201.378L49.3159 198.737C50.2004 197.794 50.7801 197.097 51.0552 196.649C51.3345 196.2 51.4741 195.701 51.4741 195.151C51.4741 194.558 51.3091 194.099 50.979 193.773C50.6489 193.443 50.1813 193.278 49.5762 193.278C48.7721 193.278 48.0146 193.594 47.3037 194.224V193.539C47.9977 193.01 48.7806 192.745 49.6523 192.745C50.431 192.745 51.0298 192.955 51.4487 193.374C51.8719 193.792 52.0835 194.353 52.0835 195.056C52.0835 195.682 51.9333 196.249 51.6328 196.757C51.3324 197.265 50.6912 198.041 49.7095 199.086L47.4814 201.441V201.467H52.0327V202H46.834Z" fill="black"/>
<path d="M56.812 202.159C55.9741 202.159 55.3182 201.774 54.8442 201.003C54.3703 200.233 54.1333 199.114 54.1333 197.646C54.1333 196.025 54.3808 194.804 54.876 193.983C55.3753 193.158 56.0862 192.745 57.0088 192.745C58.7607 192.745 59.6367 194.3 59.6367 197.411C59.6367 198.959 59.3891 200.138 58.894 200.946C58.3989 201.755 57.7049 202.159 56.812 202.159ZM56.958 193.278C56.2597 193.278 55.716 193.636 55.3266 194.351C54.9373 195.066 54.7427 196.139 54.7427 197.569C54.7427 198.873 54.9289 199.876 55.3012 200.578C55.6736 201.276 56.2026 201.625 56.8882 201.625C57.561 201.625 58.0836 201.27 58.456 200.559C58.8327 199.844 59.021 198.824 59.021 197.5C59.021 194.685 58.3333 193.278 56.958 193.278Z" fill="black"/>
<path d="M61.8388 202V201.467H63.9209V193.342L61.6928 194.135V193.551L64.5048 192.574V201.467H66.5551V202H61.8388Z" fill="black"/>
<path d="M73.6259 192.967V193.589C73.19 193.382 72.7436 193.278 72.2866 193.278C71.3894 193.278 70.6764 193.704 70.1474 194.554C69.6227 195.401 69.3603 196.509 69.3603 197.88H69.3857C69.83 196.831 70.5896 196.306 71.6645 196.306C72.4093 196.306 73.0081 196.575 73.4609 197.112C73.9179 197.646 74.1464 198.312 74.1464 199.112C74.1464 200.005 73.8904 200.737 73.3784 201.308C72.8705 201.875 72.221 202.159 71.4296 202.159C70.596 202.159 69.9422 201.805 69.4682 201.099C68.9985 200.388 68.7636 199.357 68.7636 198.007C68.7636 196.403 69.0725 195.125 69.6904 194.173C70.3124 193.221 71.1821 192.745 72.2993 192.745C72.8028 192.745 73.2451 192.819 73.6259 192.967ZM71.5312 196.839C70.926 196.839 70.4246 197.066 70.0268 197.519C69.6332 197.971 69.4365 198.473 69.4365 199.023C69.4365 199.734 69.6248 200.345 70.0014 200.857C70.378 201.369 70.871 201.625 71.4804 201.625C72.0644 201.625 72.551 201.401 72.9404 200.953C73.3339 200.5 73.5307 199.926 73.5307 199.232C73.5307 198.517 73.353 197.94 72.9975 197.5C72.642 197.059 72.1533 196.839 71.5312 196.839Z" fill="black"/>
<path d="M54.2349 118H53.6001L57.1357 109.431H52.4004V108.897H57.8848V109.056L54.2349 118Z" fill="black"/>
<path d="M59.8457 119.574H59.3506L60.3027 116.559H60.9502L59.8457 119.574Z" fill="black"/>
<path d="M62.9873 118V117.378L65.4692 114.737C66.3536 113.794 66.9334 113.097 67.2085 112.649C67.4878 112.2 67.6274 111.701 67.6274 111.151C67.6274 110.558 67.4624 110.099 67.1323 109.773C66.8022 109.443 66.3346 109.278 65.7295 109.278C64.9254 109.278 64.1679 109.594 63.457 110.224V109.539C64.151 109.01 64.9339 108.745 65.8056 108.745C66.5843 108.745 67.1831 108.955 67.602 109.374C68.0252 109.792 68.2368 110.353 68.2368 111.056C68.2368 111.682 68.0866 112.249 67.7861 112.757C67.4856 113.265 66.8445 114.041 65.8628 115.086L63.6347 117.441V117.467H68.186V118H62.9873Z" fill="black"/>
<path d="M120.834 202V201.378L123.316 198.737C124.2 197.794 124.78 197.097 125.055 196.649C125.334 196.2 125.474 195.701 125.474 195.151C125.474 194.558 125.309 194.099 124.979 193.773C124.649 193.443 124.181 193.278 123.576 193.278C122.772 193.278 122.015 193.594 121.304 194.224V193.539C121.998 193.01 122.781 192.745 123.652 192.745C124.431 192.745 125.03 192.955 125.449 193.374C125.872 193.792 126.083 194.353 126.083 195.056C126.083 195.682 125.933 196.249 125.633 196.757C125.332 197.265 124.691 198.041 123.709 199.086L121.481 201.441V201.467H126.033V202H120.834Z" fill="black"/>
<path d="M130.812 202.159C129.974 202.159 129.318 201.774 128.844 201.003C128.37 200.233 128.133 199.114 128.133 197.646C128.133 196.025 128.381 194.804 128.876 193.983C129.375 193.158 130.086 192.745 131.009 192.745C132.761 192.745 133.637 194.3 133.637 197.411C133.637 198.959 133.389 200.138 132.894 200.946C132.399 201.755 131.705 202.159 130.812 202.159ZM130.958 193.278C130.26 193.278 129.716 193.636 129.327 194.351C128.937 195.066 128.743 196.139 128.743 197.569C128.743 198.873 128.929 199.876 129.301 200.578C129.674 201.276 130.203 201.625 130.888 201.625C131.561 201.625 132.084 201.27 132.456 200.559C132.833 199.844 133.021 198.824 133.021 197.5C133.021 194.685 132.333 193.278 130.958 193.278Z" fill="black"/>
<path d="M135.839 202V201.467H137.921V193.342L135.693 194.135V193.551L138.505 192.574V201.467H140.555V202H135.839Z" fill="black"/>
<path d="M144.712 197.271V197.239C143.561 196.685 142.986 195.923 142.986 194.954C142.986 194.324 143.216 193.799 143.678 193.38C144.143 192.957 144.74 192.745 145.468 192.745C146.132 192.745 146.672 192.938 147.086 193.323C147.505 193.708 147.715 194.203 147.715 194.808C147.715 195.841 147.103 196.643 145.88 197.214V197.239C147.302 197.756 148.013 198.598 148.013 199.766C148.013 200.472 147.766 201.048 147.27 201.492C146.775 201.937 146.071 202.159 145.157 202.159C144.412 202.159 143.811 201.945 143.354 201.518C142.901 201.086 142.675 200.532 142.675 199.854C142.675 198.708 143.354 197.847 144.712 197.271ZM145.322 196.941C146.511 196.471 147.105 195.784 147.105 194.878C147.105 194.374 146.945 193.983 146.623 193.704C146.306 193.42 145.891 193.278 145.379 193.278C144.879 193.278 144.456 193.431 144.109 193.735C143.767 194.04 143.595 194.417 143.595 194.865C143.595 195.771 144.171 196.463 145.322 196.941ZM145.271 197.557C144.564 197.844 144.056 198.162 143.747 198.509C143.439 198.856 143.284 199.296 143.284 199.829C143.284 200.35 143.47 200.779 143.843 201.118C144.215 201.456 144.717 201.625 145.347 201.625C145.99 201.625 146.494 201.456 146.858 201.118C147.222 200.775 147.404 200.35 147.404 199.842C147.404 199.279 147.228 198.82 146.877 198.464C146.53 198.105 145.995 197.802 145.271 197.557Z" fill="black"/>
<path d="M128.616 79V78.4668H130.698V70.3418L128.47 71.1353V70.5513L131.282 69.5737V78.4668H133.332V79H128.616Z" fill="black"/>
<path d="M135.49 78.6763V78.0098C136.184 78.4202 136.838 78.6255 137.451 78.6255C138.183 78.6255 138.757 78.4393 139.171 78.0669C139.586 77.6903 139.793 77.1994 139.793 76.5942C139.793 75.9214 139.554 75.4115 139.076 75.0645C138.602 74.7174 137.925 74.5439 137.045 74.5439H136.347V74.0107H136.969C137.781 74.0107 138.399 73.8394 138.822 73.4966C139.25 73.1496 139.463 72.6608 139.463 72.0303C139.463 71.4844 139.309 71.057 139 70.748C138.691 70.4349 138.24 70.2783 137.648 70.2783C137.077 70.2783 136.478 70.4772 135.852 70.875V70.2529C136.537 69.9144 137.166 69.7451 137.737 69.7451C138.456 69.7451 139.025 69.9398 139.444 70.3291C139.867 70.7184 140.079 71.2347 140.079 71.8779C140.079 73.1094 139.489 73.8923 138.308 74.2266V74.252C138.943 74.3154 139.451 74.5524 139.832 74.9629C140.212 75.3691 140.403 75.8833 140.403 76.5054C140.403 77.3009 140.128 77.9421 139.578 78.4287C139.027 78.9154 138.314 79.1587 137.438 79.1587C136.761 79.1587 136.112 78.9979 135.49 78.6763Z" fill="black"/>
<path d="M195.834 202V201.378L198.316 198.737C199.2 197.794 199.78 197.097 200.055 196.649C200.334 196.2 200.474 195.701 200.474 195.151C200.474 194.558 200.309 194.099 199.979 193.773C199.649 193.443 199.181 193.278 198.576 193.278C197.772 193.278 197.015 193.594 196.304 194.224V193.539C196.998 193.01 197.781 192.745 198.652 192.745C199.431 192.745 200.03 192.955 200.449 193.374C200.872 193.792 201.083 194.353 201.083 195.056C201.083 195.682 200.933 196.249 200.633 196.757C200.332 197.265 199.691 198.041 198.709 199.086L196.481 201.441V201.467H201.033V202H195.834Z" fill="black"/>
<path d="M205.812 202.159C204.974 202.159 204.318 201.774 203.844 201.003C203.37 200.233 203.133 199.114 203.133 197.646C203.133 196.025 203.381 194.804 203.876 193.983C204.375 193.158 205.086 192.745 206.009 192.745C207.761 192.745 208.637 194.3 208.637 197.411C208.637 198.959 208.389 200.138 207.894 200.946C207.399 201.755 206.705 202.159 205.812 202.159ZM205.958 193.278C205.26 193.278 204.716 193.636 204.327 194.351C203.937 195.066 203.743 196.139 203.743 197.569C203.743 198.873 203.929 199.876 204.301 200.578C204.674 201.276 205.203 201.625 205.888 201.625C206.561 201.625 207.084 201.27 207.456 200.559C207.833 199.844 208.021 198.824 208.021 197.5C208.021 194.685 207.333 193.278 205.958 193.278Z" fill="black"/>
<path d="M210.28 202V201.378L212.762 198.737C213.647 197.794 214.226 197.097 214.501 196.649C214.781 196.2 214.92 195.701 214.92 195.151C214.92 194.558 214.755 194.099 214.425 193.773C214.095 193.443 213.628 193.278 213.022 193.278C212.218 193.278 211.461 193.594 210.75 194.224V193.539C211.444 193.01 212.227 192.745 213.099 192.745C213.877 192.745 214.476 192.955 214.895 193.374C215.318 193.792 215.53 194.353 215.53 195.056C215.53 195.682 215.38 196.249 215.079 196.757C214.779 197.265 214.137 198.041 213.156 199.086L210.928 201.441V201.467H215.479V202H210.28Z" fill="black"/>
<path d="M220.258 202.159C219.42 202.159 218.764 201.774 218.29 201.003C217.817 200.233 217.58 199.114 217.58 197.646C217.58 196.025 217.827 194.804 218.322 193.983C218.822 193.158 219.532 192.745 220.455 192.745C222.207 192.745 223.083 194.3 223.083 197.411C223.083 198.959 222.835 200.138 222.34 200.946C221.845 201.755 221.151 202.159 220.258 202.159ZM220.404 193.278C219.706 193.278 219.162 193.636 218.773 194.351C218.384 195.066 218.189 196.139 218.189 197.569C218.189 198.873 218.375 199.876 218.747 200.578C219.12 201.276 219.649 201.625 220.334 201.625C221.007 201.625 221.53 201.27 221.902 200.559C222.279 199.844 222.467 198.824 222.467 197.5C222.467 194.685 221.78 193.278 220.404 193.278Z" fill="black"/>
<path fill-rule="evenodd" clip-rule="evenodd" d="M233.463 40H232.049L180 92.0487V93.4629L233.463 40ZM180 99.861V98.4468L238.447 40H239V40.8609L180 99.861ZM180 106.259V104.845L239 45.8448V47.259L180 106.259ZM180 112.657V111.243L239 52.243V53.6572L180 112.657ZM180 119.055V117.641L239 58.6411V60.0553L180 119.055ZM180 125.453V124.039L239 65.0392V66.4534L180 125.453ZM180 131.851V130.437L239 71.4372V72.8514L180 131.851ZM180 138.25V136.835L239 77.8354V79.2496L180 138.25ZM180 144.648V143.233L239 84.2335V85.6477L180 144.648ZM180 151.046V149.632L239 90.6315V92.0457L180 151.046ZM180 157.444V156.03L239 97.0296V98.4438L180 157.444ZM180 163.842V162.428L239 103.428V104.842L180 163.842ZM180 170.24V168.826L239 109.826V111.24L180 170.24ZM180 176.638V175.224L239 116.224V117.638L180 176.638ZM182.036 181H180.622L239 122.622V124.036L182.036 181ZM188.434 181H187.02L239 129.02V130.434L188.434 181ZM194.832 181H193.418L239 135.418V136.832L194.832 181ZM201.23 181H199.816L239 141.816V143.231L201.23 181ZM207.628 181H206.214L239 148.214V149.629L207.628 181ZM214.027 181H212.612L239 154.612V156.027L214.027 181ZM220.425 181H219.011L239 161.011V162.425L220.425 181ZM226.823 181H225.409L239 167.409V168.823L226.823 181ZM233.221 181H231.807L239 173.807V175.221L233.221 181ZM239 180.205V181H238.205L239 180.205ZM180 87.0647L227.065 40H225.651L180 85.6505V87.0647ZM180 80.6667L220.667 40H219.253L180 79.2525V80.6667ZM180 74.2685L214.269 40H212.854L180 72.8543V74.2685ZM180 67.8705L207.87 40H206.456L180 66.4563V67.8705ZM180 61.4725L201.472 40H200.058L180 60.0583V61.4725ZM180 55.0743L195.074 40H193.66L180 53.6601V55.0743ZM180 48.6761L188.676 40H187.262L180 47.2619V48.6761ZM180 42.2781L182.278 40H180.864L180 40.8639V42.2781Z" fill="#3279CD"/>
<path d="M106.463 91H105.049L104 92.0487L104 93.4629L106.463 91Z" fill="#3279CD"/>
<path d="M104 99.861L104 98.4468L111.447 91H112.861L104 99.861Z" fill="#3279CD"/>
<path d="M104 106.259L104 104.845L117.845 91H119.259L104 106.259Z" fill="#3279CD"/>
<path d="M104 112.657V111.243L124.243 91H125.657L104 112.657Z" fill="#3279CD"/>
<path d="M104 119.055L104 117.641L130.641 91H132.055L104 119.055Z" fill="#3279CD"/>
<path d="M104 125.453L104 124.039L137.039 91H138.453L104 125.453Z" fill="#3279CD"/>
<path d="M104 131.851V130.437L143.437 91H144.851L104 131.851Z" fill="#3279CD"/>
<path d="M104 138.25L104 136.835L149.835 91H151.25L104 138.25Z" fill="#3279CD"/>
<path d="M104 144.648V143.233L156.233 91H157.648L104 144.648Z" fill="#3279CD"/>
<path d="M104 151.046V149.632L162.632 91H163V92.0457L104 151.046Z" fill="#3279CD"/>
<path d="M104 157.444L104 156.03L163 97.0296V98.4438L104 157.444Z" fill="#3279CD"/>
<path d="M104 163.842V162.428L163 103.428V104.842L104 163.842Z" fill="#3279CD"/>
<path d="M104 170.24V168.826L163 109.826V111.24L104 170.24Z" fill="#3279CD"/>
<path d="M104 176.638L104 175.224L163 116.224V117.638L104 176.638Z" fill="#3279CD"/>
<path d="M106.036 181H104.622L163 122.622V124.036L106.036 181Z" fill="#3279CD"/>
<path d="M112.434 181H111.02L163 129.02V130.434L112.434 181Z" fill="#3279CD"/>
<path d="M118.832 181H117.418L163 135.418V136.832L118.832 181Z" fill="#3279CD"/>
<path d="M125.231 181H123.816L163 141.816V143.231L125.231 181Z" fill="#3279CD"/>
<path d="M131.629 181H130.214L163 148.214V149.629L131.629 181Z" fill="#3279CD"/>
<path d="M138.027 181H136.612L163 154.612V156.027L138.027 181Z" fill="#3279CD"/>
<path d="M144.425 181H143.011L163 161.011V162.425L144.425 181Z" fill="#3279CD"/>
<path d="M150.823 181H149.409L163 167.409V168.823L150.823 181Z" fill="#3279CD"/>
<path d="M157.221 181H155.807L163 173.807V175.221L157.221 181Z" fill="#3279CD"/>
<path d="M163 180.205V181H162.205L163 180.205Z" fill="#3279CD"/>
<path d="M83.0362 130H81.622L30.622 181H32.0362L83.0362 130Z" fill="#3279CD"/>
<path d="M38.4344 181H37.0202L88.0202 130H89V130.434L38.4344 181Z" fill="#3279CD"/>
<path d="M44.8323 181H43.4181L89 135.418V136.832L44.8323 181Z" fill="#3279CD"/>
<path d="M51.2305 181H49.8163L89 141.816V143.231L51.2305 181Z" fill="#3279CD"/>
<path d="M57.6285 181H56.2143L89 148.214V149.629L57.6285 181Z" fill="#3279CD"/>
<path d="M64.0266 181H62.6125L89 154.612V156.027L64.0266 181Z" fill="#3279CD"/>
<path d="M70.4248 181H69.0106L89 161.011V162.425L70.4248 181Z" fill="#3279CD"/>
<path d="M76.8229 181H75.4087L89 167.409V168.823L76.8229 181Z" fill="#3279CD"/>
<path d="M83.221 181H81.8068L89 173.807V175.221L83.221 181Z" fill="#3279CD"/>
<path d="M89 180.205V181H88.2048L89 180.205Z" fill="#3279CD"/>
<path d="M30 176.638L76.6381 130H75.2239L30 175.224L30 176.638Z" fill="#3279CD"/>
<path d="M30 170.24L70.24 130H68.8258L30 168.826V170.24Z" fill="#3279CD"/>
<path d="M30 163.842L63.8419 130H62.4277L30 162.428V163.842Z" fill="#3279CD"/>
<path d="M30 157.444L57.4438 130H56.0296L30 156.03L30 157.444Z" fill="#3279CD"/>
<path d="M30 151.046L51.0457 130H49.6315L30 149.632V151.046Z" fill="#3279CD"/>
<path d="M30 144.648L44.6477 130H43.2335L30 143.233V144.648Z" fill="#3279CD"/>
<path d="M30 138.25L38.2496 130H36.8354L30 136.835L30 138.25Z" fill="#3279CD"/>
<path d="M30 131.851L31.8514 130H30.4372L30 130.437V131.851Z" fill="#3279CD"/>
<path d="M197.738 28V27.3779L200.22 24.7373C201.105 23.7936 201.684 23.0975 201.959 22.6489C202.239 22.2004 202.378 21.701 202.378 21.1509C202.378 20.5584 202.213 20.0993 201.883 19.7734C201.553 19.4434 201.086 19.2783 200.48 19.2783C199.676 19.2783 198.919 19.5936 198.208 20.2241V19.5386C198.902 19.0096 199.685 18.7451 200.557 18.7451C201.335 18.7451 201.934 18.9546 202.353 19.3735C202.776 19.7925 202.988 20.3532 202.988 21.0557C202.988 21.682 202.838 22.249 202.537 22.7568C202.237 23.2646 201.596 24.0412 200.614 25.0864L198.386 27.4414V27.4668H202.937V28H197.738Z" fill="black"/>
<path d="M207.716 28.1587C206.878 28.1587 206.222 27.7736 205.749 27.0034C205.275 26.2332 205.038 25.1139 205.038 23.6455C205.038 22.0247 205.285 20.8039 205.78 19.9829C206.28 19.1577 206.991 18.7451 207.913 18.7451C209.665 18.7451 210.541 20.3003 210.541 23.4106C210.541 24.9595 210.293 26.138 209.798 26.9463C209.303 27.7546 208.609 28.1587 207.716 28.1587ZM207.862 19.2783C207.164 19.2783 206.62 19.6359 206.231 20.3511C205.842 21.0662 205.647 22.139 205.647 23.5693C205.647 24.8727 205.833 25.8757 206.206 26.5781C206.578 27.2764 207.107 27.6255 207.792 27.6255C208.465 27.6255 208.988 27.27 209.36 26.5591C209.737 25.8439 209.925 24.8241 209.925 23.4995C209.925 20.6854 209.238 19.2783 207.862 19.2783Z" fill="black"/>
<path d="M212.457 29.5742H211.962L212.915 26.5591H213.562L212.457 29.5742Z" fill="black"/>
<path d="M216.069 27.8159V27.1431C216.653 27.4647 217.233 27.6255 217.808 27.6255C218.557 27.6255 219.141 27.4202 219.56 27.0098C219.979 26.5993 220.188 26.0534 220.188 25.3721C220.188 23.891 219.344 23.1504 217.656 23.1504C217.275 23.1504 216.828 23.1758 216.316 23.2266V18.8975H220.411V19.4307H216.9V22.668C217.357 22.6341 217.681 22.6172 217.872 22.6172C218.832 22.6172 219.56 22.8542 220.055 23.3281C220.55 23.7979 220.798 24.4538 220.798 25.2959C220.798 26.1465 220.535 26.8363 220.011 27.3652C219.486 27.8942 218.735 28.1587 217.757 28.1587C217.101 28.1587 216.539 28.0444 216.069 27.8159Z" fill="black"/>
</svg>
