<svg version="1.1" id="Слой_1" xmlns="http://www.w3.org/2000/svg" x="0" y="0" viewBox="0 0 596.35 121.3" xml:space="preserve"><style>.st0{fill:transparent}</style><path class="st0" d="M-87.87 230v-346h800v346h-800zM103.21 61.85c.2-25.57-20.4-46.4-46.16-46.66-25.38-.25-46.62 20.79-46.68 46.25-.06 25.3 20.54 46.03 46.02 46.33 25.66.31 46.61-20.25 46.82-45.92zm141.07-28.76v30.4c0 2.5-.07 4.98-.9 7.4-2.12 6.16-7.46 10.01-13.61 9.72-6.22-.29-11.23-4.51-12.55-10.94-.53-2.58-.62-5.29-.64-7.94-.07-9.46-.03-18.91-.03-28.62-4.26-.33-8.14-.55-12.2.14 0 11.95-.59 23.62.15 35.2.96 15.13 13.62 25.04 28.55 23.48 7.62-.8 13.1-4.99 17.4-11.32 6.7 10.34 15.89 13.11 26.83 10.62 10.06-2.29 16.63-8.87 18.5-18.82 2.43-12.95.64-26.14 1.05-39.18h-12.59v5.3c0 9.16.11 18.33-.04 27.49-.14 8.24-6.03 14.51-13.42 14.65-7.49.14-13.15-5.28-13.93-13.48-.27-2.81-.28-5.65-.29-8.48-.03-8.45-.01-16.9-.01-25.59-4.18-.03-7.94-.03-12.27-.03zM474.46 90.1c.14-1.15.38-2.11.37-3.07-.09-9.98.38-20.01-.47-29.92-1.16-13.63-10.57-23.1-24.07-25.62-16.29-3.04-31.63 5.75-35.9 20.56-4.7 16.31 2.89 32.64 17.99 38.04 9.18 3.28 18.31 2.71 27.08-1.79.72-.37 1.46-.71 2.11-1.03 1.16.8.33 2.53 1.53 2.82 3.92.01 7.55.01 11.36.01zm-107.36-.02c-.26-11.82.74-23.42-.65-34.99-.22-1.8-.73-3.6-1.37-5.29-5.78-15.2-23.15-22.63-39.83-17.1-15.17 5.03-23.3 21.77-18.54 38.17 5.32 18.34 26.34 26.65 44.73 17.67.86-.42 1.71-.87 2.43-1.24 1.4.68.34 2.59 1.58 2.78h11.65zm-171.66.09c0-10.26.06-20.05-.04-29.83-.03-2.47-.32-5.01-.94-7.4-4.46-17.33-23.12-26.47-40.93-20.14-16.76 5.95-24.6 25.32-17 41.99 7.21 15.81 26.89 21.99 43.46 13.65.86-.43 1.73-.86 2.48-1.24 1.13.91.28 2.61 1.75 2.97h11.22zm374.97-47.33h17.79V31.28h-48.26c.43 4.11-.47 7.9.66 11.92h17.62v47.03c4.39-.1 8.17.62 12.19-.54V42.84zM414.19 31.17c-4.8 0-9.14-.4-13.39.08-11.51 1.3-20.53 9.55-22.48 20.87-2.15 12.49-.54 25.11-1 37.86 4.4.38 8.25.75 12.39-.2V64.65c0-16.82 3.47-20.71 20-22.45.15-.02.29-.14.86-.43 1.11-3.25 2.32-6.81 3.62-10.6zM528.9 90.03v-58.8h-11.55v58.8h11.55z"/><path d="M103.21 61.85c-.2 25.67-21.16 46.23-46.81 45.93-25.48-.3-46.07-21.03-46.02-46.33.06-25.46 21.29-46.51 46.68-46.25 25.75.25 46.35 21.08 46.15 46.65zm-29.26-30.7c-22.61 9.65-37.8 25.31-47.86 47.8 19-4.49 36.63-1.41 54.55 6.03-8-17.61-10.15-34.97-6.69-53.83z" fill="#dc2222"/><path d="M244.28 33.09h12.27c0 8.69-.02 17.14.01 25.59.01 2.83.02 5.67.29 8.48.78 8.2 6.44 13.62 13.93 13.48 7.39-.13 13.28-6.41 13.42-14.65.15-9.16.04-18.32.04-27.49v-5.3h12.59c-.41 13.04 1.38 26.23-1.05 39.18-1.87 9.94-8.44 16.53-18.5 18.82-10.94 2.49-20.13-.28-26.83-10.62-4.3 6.33-9.78 10.53-17.4 11.32-14.93 1.57-27.59-8.35-28.55-23.48-.74-11.59-.15-23.26-.15-35.2 4.06-.69 7.93-.47 12.2-.14 0 9.71-.04 19.16.03 28.62.02 2.65.1 5.36.64 7.94 1.33 6.43 6.33 10.65 12.55 10.94 6.16.29 11.5-3.56 13.61-9.72.83-2.42.9-4.89.9-7.4V33.09zM474.46 90.1h-11.35c-1.2-.29-.38-2.02-1.53-2.82-.65.31-1.38.65-2.11 1.03-8.77 4.51-17.9 5.08-27.08 1.79-15.1-5.4-22.69-21.73-17.99-38.04 4.27-14.81 19.61-23.6 35.9-20.56 13.49 2.52 22.91 11.99 24.07 25.62.84 9.92.38 19.94.47 29.92 0 .95-.23 1.91-.38 3.06zm-12.11-28.05c.17-11.31-7.28-19.37-18.12-19.61-10.5-.24-18.49 7.65-18.78 18.53-.28 10.83 7.68 19.41 18.29 19.71 10.38.29 18.45-7.79 18.61-18.63zM367.1 90.08h-11.67c-1.24-.19-.18-2.1-1.58-2.78-.71.37-1.56.82-2.43 1.24-18.4 8.98-39.42.67-44.73-17.67-4.75-16.4 3.38-33.14 18.54-38.17 16.69-5.54 34.05 1.89 39.83 17.1.65 1.7 1.16 3.5 1.37 5.29 1.42 11.58.41 23.18.67 34.99zm-30.95-47.64c-10.61-.01-18.22 7.87-18.24 18.88-.01 11.16 7.76 19.29 18.47 19.32 10.45.03 18.26-8.05 18.32-18.96.06-11.09-7.78-19.22-18.55-19.24zM195.44 90.17h-11.22c-1.47-.36-.62-2.05-1.75-2.97-.75.38-1.62.8-2.48 1.24-16.57 8.34-36.24 2.17-43.46-13.65-7.6-16.67.23-36.04 17-41.99 17.81-6.33 36.47 2.81 40.93 20.14.62 2.39.91 4.92.94 7.4.1 9.78.04 19.56.04 29.83zm-12.26-28.63c-.01-11.01-8.1-19.24-18.77-19.11-10.53.13-18.3 8.24-18.24 19.06.05 10.79 7.9 19.01 18.28 19.15 10.71.15 18.75-8.04 18.73-19.1zm387.23-18.7v46.85c-4.02 1.16-7.8.44-12.19.54V43.2H540.6c-1.13-4.02-.22-7.81-.66-11.92h48.26v11.56h-17.79zM414.19 31.17c-1.29 3.79-2.51 7.35-3.61 10.59-.57.29-.71.41-.86.43-16.53 1.75-20 5.64-20 22.45v25.13c-4.14.94-8 .58-12.39.2.46-12.74-1.15-25.37 1-37.86 1.95-11.31 10.97-19.57 22.48-20.87 4.23-.47 8.58-.07 13.38-.07zM528.9 90.03h-11.55v-58.8h11.55v58.8z" fill="#fff"/><path class="st0" d="M73.95 31.15c-3.46 18.86-1.31 36.22 6.69 53.83-17.92-7.44-35.56-10.52-54.55-6.03 10.06-22.5 25.24-38.15 47.86-47.8zm388.4 30.9c-.16 10.84-8.23 18.92-18.61 18.62-10.61-.3-18.57-8.88-18.29-19.71.28-10.88 8.28-18.77 18.78-18.53 10.84.25 18.29 8.32 18.12 19.62zm-126.2-19.61c10.78.01 18.62 8.14 18.56 19.24-.06 10.91-7.87 18.98-18.32 18.96-10.71-.03-18.48-8.16-18.47-19.32 0-11 7.62-18.89 18.23-18.88zm-152.97 19.1c.01 11.06-8.02 19.25-18.72 19.1-10.38-.14-18.23-8.36-18.28-19.15-.05-10.82 7.71-18.94 18.24-19.06 10.66-.13 18.75 8.11 18.76 19.11z"/></svg>