<svg width="431" height="275" viewBox="0 0 431 275" fill="none" xmlns="http://www.w3.org/2000/svg">
<path d="M98.5224 38.1853C97.5045 38.1853 96.6925 37.8471 96.0864 37.1707C95.4837 36.4943 95.1823 35.6153 95.1823 34.5338C95.1823 33.3853 95.492 32.4661 96.1115 31.7763C96.7343 31.0832 97.5831 30.7367 98.658 30.7367C99.629 30.7367 100.414 31.0698 101.014 31.7362C101.616 32.3992 101.918 33.2698 101.918 34.3479C101.918 35.54 101.61 36.4776 100.994 37.1606C100.377 37.8437 99.5537 38.1853 98.5224 38.1853ZM98.5726 31.1887C97.7355 31.1887 97.0457 31.4917 96.5033 32.0978C95.9642 32.7039 95.6946 33.4974 95.6946 34.4785C95.6946 35.4697 95.9508 36.2599 96.4631 36.8492C96.9754 37.4352 97.6585 37.7282 98.5123 37.7282C99.403 37.7282 100.108 37.4386 100.627 36.8593C101.146 36.2766 101.405 35.4663 101.405 34.4283C101.405 33.4104 101.151 32.6168 100.642 32.0476C100.136 31.475 99.4465 31.1887 98.5726 31.1887Z" fill="black"/>
<path d="M107.674 35.6036C107.674 35.8012 107.655 36.0021 107.618 36.2063C107.585 36.4106 107.53 36.6098 107.453 36.804C107.376 36.9949 107.277 37.174 107.156 37.3415C107.039 37.5089 106.897 37.6562 106.729 37.7834C106.565 37.9073 106.374 38.0044 106.157 38.0748C105.943 38.1484 105.701 38.1853 105.434 38.1853C105.059 38.1853 104.727 38.1133 104.439 37.9693C104.154 37.822 103.915 37.6127 103.721 37.3415C103.53 37.0669 103.384 36.732 103.284 36.3369C103.187 35.9418 103.138 35.4948 103.138 34.9959C103.138 34.4132 103.173 33.906 103.244 33.474C103.314 33.0387 103.413 32.6687 103.54 32.364C103.671 32.0559 103.825 31.8048 104.002 31.6106C104.18 31.4164 104.375 31.2657 104.59 31.1586C104.724 31.0916 104.869 31.0347 105.027 30.9878C105.187 30.9376 105.35 30.894 105.514 30.8572C105.681 30.817 105.845 30.7835 106.006 30.7567C106.17 30.7266 106.323 30.6998 106.463 30.6764C106.58 30.6529 106.706 30.6211 106.84 30.581C106.974 30.5408 107.088 30.4889 107.181 30.4253V30.9125C107.108 30.9593 107.009 31.0045 106.885 31.0481C106.765 31.0882 106.627 31.1217 106.473 31.1485C106.326 31.172 106.17 31.1987 106.006 31.2289C105.845 31.2557 105.686 31.2875 105.529 31.3243C105.375 31.3578 105.226 31.398 105.082 31.4449C104.941 31.4884 104.817 31.5403 104.71 31.6006C104.416 31.7747 104.178 32.0693 103.997 32.4845C103.816 32.8964 103.706 33.4455 103.666 34.132H103.686C103.759 33.988 103.856 33.8507 103.977 33.7201C104.101 33.5862 104.242 33.469 104.399 33.3685C104.56 33.2681 104.735 33.1894 104.926 33.1325C105.12 33.0722 105.326 33.0421 105.544 33.0421C105.916 33.0421 106.235 33.1107 106.503 33.248C106.771 33.3819 106.991 33.5661 107.161 33.8005C107.335 34.0349 107.464 34.3078 107.548 34.6192C107.632 34.9272 107.674 35.2554 107.674 35.6036ZM107.161 35.6639C107.161 35.329 107.126 35.0277 107.056 34.7598C106.986 34.4919 106.878 34.2642 106.734 34.0767C106.594 33.8859 106.416 33.7402 106.202 33.6398C105.988 33.536 105.738 33.4841 105.454 33.4841C105.253 33.4841 105.062 33.5175 104.881 33.5845C104.704 33.6481 104.538 33.7352 104.384 33.8457C104.23 33.9562 104.093 34.0851 103.972 34.2324C103.851 34.3798 103.749 34.5371 103.666 34.7046C103.666 34.7615 103.664 34.8402 103.661 34.9406C103.657 35.0377 103.656 35.1348 103.656 35.2319C103.656 35.5668 103.689 35.8866 103.756 36.1913C103.826 36.496 103.933 36.7655 104.077 36.9999C104.225 37.231 104.412 37.4168 104.64 37.5574C104.868 37.6947 105.142 37.7634 105.464 37.7634C105.745 37.7634 105.991 37.7081 106.202 37.5976C106.416 37.4838 106.594 37.3314 106.734 37.1405C106.878 36.9463 106.986 36.722 107.056 36.4675C107.126 36.213 107.161 35.9452 107.161 35.6639Z" fill="black"/>
<path d="M113.123 36.5177C113.123 36.7789 113.078 37.0066 112.988 37.2008C112.897 37.395 112.778 37.5557 112.631 37.683C112.484 37.8102 112.316 37.9057 112.129 37.9693C111.945 38.0296 111.757 38.0597 111.566 38.0597H109.592V33.3384H107.98V32.9165H110.054V35.026H111.526C111.774 35.026 111.996 35.0595 112.194 35.1265C112.392 35.1934 112.559 35.2922 112.696 35.4228C112.834 35.55 112.939 35.7057 113.013 35.8899C113.086 36.0741 113.123 36.2833 113.123 36.5177ZM112.636 36.5177C112.636 36.3671 112.611 36.2264 112.561 36.0958C112.514 35.9652 112.44 35.8531 112.34 35.7593C112.243 35.6622 112.119 35.5869 111.968 35.5333C111.817 35.4764 111.64 35.4479 111.436 35.4479H110.054V37.6378H111.446C111.66 37.6378 111.842 37.6093 111.993 37.5524C112.147 37.4921 112.271 37.4118 112.365 37.3113C112.459 37.2075 112.527 37.0886 112.571 36.9547C112.614 36.8174 112.636 36.6718 112.636 36.5177Z" fill="black"/>
<path d="M114.474 35.5082C114.474 36.2147 114.637 36.7672 114.962 37.1657C115.29 37.5641 115.738 37.7634 116.308 37.7634C116.884 37.7634 117.446 37.5507 117.995 37.1255V37.6177C117.463 37.9961 116.868 38.1853 116.212 38.1853C115.549 38.1853 115.013 37.9475 114.605 37.472C114.196 36.9966 113.992 36.3252 113.992 35.458C113.992 34.7079 114.205 34.0767 114.63 33.5644C115.059 33.0488 115.614 32.7909 116.298 32.7909C116.937 32.7909 117.428 33.0153 117.769 33.464C118.111 33.9127 118.281 34.5254 118.281 35.3023V35.5082H114.474ZM117.799 35.0863C117.779 34.4936 117.637 34.0332 117.372 33.705C117.108 33.3769 116.743 33.2128 116.277 33.2128C115.795 33.2128 115.395 33.3752 115.077 33.7C114.762 34.0215 114.568 34.4836 114.494 35.0863H117.799ZM117.066 32.0928C116.976 32.0928 116.894 32.061 116.82 31.9973C116.746 31.9304 116.709 31.8416 116.709 31.7311C116.709 31.6273 116.745 31.5436 116.815 31.48C116.889 31.4164 116.969 31.3846 117.056 31.3846C117.153 31.3846 117.24 31.4181 117.317 31.485C117.398 31.5487 117.438 31.6307 117.438 31.7311C117.438 31.8349 117.401 31.922 117.327 31.9923C117.257 32.0593 117.17 32.0928 117.066 32.0928ZM115.393 32.0928C115.3 32.0928 115.216 32.061 115.142 31.9973C115.069 31.9304 115.032 31.8416 115.032 31.7311C115.032 31.6273 115.069 31.5436 115.142 31.48C115.216 31.4164 115.296 31.3846 115.383 31.3846C115.481 31.3846 115.568 31.4181 115.645 31.485C115.722 31.5487 115.76 31.6307 115.76 31.7311C115.76 31.8349 115.725 31.922 115.655 31.9923C115.584 32.0593 115.497 32.0928 115.393 32.0928Z" fill="black"/>
<path d="M123.992 38.0597V33.6146L123.857 33.9763C123.82 34.0767 123.78 34.1805 123.736 34.2877C123.696 34.3948 123.661 34.4869 123.631 34.5639L122.239 38.0597H121.863L120.361 34.5639C120.327 34.4936 120.291 34.4049 120.25 34.2977C120.21 34.1906 120.172 34.0868 120.135 33.9863C120.091 33.8691 120.046 33.7452 119.999 33.6146V38.0597H119.557V32.9165H120.11L121.677 36.4776C121.714 36.5579 121.752 36.6533 121.792 36.7638C121.836 36.871 121.876 36.9748 121.913 37.0752C121.956 37.1924 122 37.3113 122.043 37.4319C122.09 37.3147 122.137 37.1991 122.184 37.0853C122.221 36.9882 122.261 36.8861 122.305 36.7789C122.348 36.6718 122.385 36.578 122.415 36.4976L123.877 32.9165H124.444V38.0597H123.992Z" fill="black"/>
<path d="M133.344 38.0597V33.6146L133.209 33.9763C133.172 34.0767 133.132 34.1805 133.088 34.2877C133.048 34.3948 133.013 34.4869 132.983 34.5639L131.592 38.0597H131.215L129.713 34.5639C129.68 34.4936 129.643 34.4049 129.603 34.2977C129.562 34.1906 129.524 34.0868 129.487 33.9863C129.444 33.8691 129.398 33.7452 129.351 33.6146V38.0597H128.909V32.9165H129.462L131.029 36.4776C131.066 36.5579 131.104 36.6533 131.145 36.7638C131.188 36.871 131.228 36.9748 131.265 37.0752C131.309 37.1924 131.352 37.3113 131.396 37.4319C131.443 37.3147 131.489 37.1991 131.536 37.0853C131.573 36.9882 131.613 36.8861 131.657 36.7789C131.7 36.6718 131.737 36.578 131.767 36.4976L133.229 32.9165H133.796V38.0597H133.344Z" fill="black"/>
<path d="M138.995 38.0597V33.7603C138.968 33.7971 138.941 33.834 138.915 33.8708C138.891 33.9076 138.871 33.9361 138.854 33.9562L135.765 38.0597H135.439V32.9165H135.901V37.1757C135.921 37.1389 135.941 37.1037 135.961 37.0702C135.981 37.0367 136.003 37.0066 136.027 36.9798L139.09 32.9165H139.462V38.0597H138.995Z" fill="black"/>
<path d="M141.587 37.1456H141.567V40.4254H141.104V32.9165H141.567V33.9763H141.587C141.771 33.5979 142.034 33.3066 142.375 33.1023C142.72 32.8947 143.098 32.7909 143.51 32.7909C144.163 32.7909 144.672 33.0169 145.037 33.469C145.406 33.9177 145.59 34.5288 145.59 35.3023C145.59 36.1628 145.379 36.8593 144.957 37.3917C144.538 37.9207 143.984 38.1853 143.294 38.1853C142.524 38.1853 141.955 37.8387 141.587 37.1456ZM141.567 35.2319V35.8799C141.567 36.3955 141.729 36.8392 142.054 37.2109C142.379 37.5792 142.805 37.7634 143.334 37.7634C143.86 37.7634 144.287 37.539 144.615 37.0903C144.943 36.6383 145.107 36.0456 145.107 35.3123C145.107 34.6694 144.957 34.1588 144.655 33.7804C144.354 33.402 143.952 33.2128 143.45 33.2128C142.851 33.2128 142.387 33.4137 142.059 33.8155C141.731 34.2174 141.567 34.6895 141.567 35.2319Z" fill="black"/>
<path d="M148.935 38.1853C148.185 38.1853 147.59 37.9391 147.152 37.4469C146.716 36.9514 146.499 36.3085 146.499 35.5182C146.499 34.6644 146.726 33.9964 147.182 33.5142C147.641 33.032 148.243 32.7909 148.99 32.7909C149.723 32.7909 150.303 33.0303 150.728 33.5092C151.153 33.988 151.366 34.651 151.366 35.4981C151.366 36.2984 151.148 36.9463 150.713 37.4419C150.281 37.9375 149.688 38.1853 148.935 38.1853ZM148.97 33.2128C148.364 33.2128 147.88 33.4171 147.518 33.8256C147.16 34.2341 146.981 34.8017 146.981 35.5283C146.981 36.2013 147.157 36.7421 147.508 37.1506C147.86 37.5591 148.34 37.7634 148.95 37.7634C149.569 37.7634 150.046 37.5624 150.381 37.1606C150.716 36.7588 150.884 36.2013 150.884 35.4881C150.884 34.7548 150.716 34.1922 150.381 33.8005C150.05 33.4087 149.579 33.2128 148.97 33.2128Z" fill="black"/>
<path d="M156.288 36.5881C156.288 36.8057 156.249 37.0049 156.172 37.1857C156.099 37.3632 155.993 37.5172 155.856 37.6478C155.719 37.7784 155.555 37.8805 155.364 37.9542C155.176 38.0245 154.97 38.0597 154.746 38.0597H152.646V32.9165H154.6C154.858 32.9165 155.079 32.9483 155.263 33.0119C155.451 33.0755 155.605 33.1626 155.725 33.2731C155.846 33.3836 155.935 33.5142 155.992 33.6649C156.052 33.8155 156.082 33.9779 156.082 34.1521C156.082 34.3094 156.059 34.4568 156.012 34.5941C155.968 34.728 155.905 34.8502 155.821 34.9607C155.74 35.0679 155.64 35.1583 155.519 35.2319C155.402 35.3056 155.27 35.3575 155.123 35.3876C155.314 35.4077 155.481 35.4529 155.625 35.5232C155.772 35.5902 155.894 35.6773 155.992 35.7844C156.089 35.8882 156.162 36.0088 156.213 36.1461C156.263 36.2833 156.288 36.4307 156.288 36.5881ZM155.6 34.2224C155.6 34.1052 155.581 33.993 155.545 33.8859C155.511 33.7787 155.452 33.685 155.369 33.6046C155.285 33.5242 155.176 33.4606 155.042 33.4137C154.908 33.3635 154.741 33.3384 154.54 33.3384H153.109V35.2018H154.414C154.642 35.2018 154.831 35.175 154.982 35.1214C155.136 35.0645 155.258 34.9908 155.349 34.9004C155.439 34.8067 155.503 34.7012 155.54 34.584C155.58 34.4668 155.6 34.3463 155.6 34.2224ZM155.806 36.6282C155.806 36.4909 155.782 36.362 155.735 36.2415C155.692 36.1176 155.618 36.0104 155.514 35.92C155.414 35.8296 155.278 35.7576 155.108 35.7041C154.94 35.6505 154.733 35.6237 154.485 35.6237H153.109V37.6378H154.651C154.841 37.6378 155.009 37.6143 155.153 37.5675C155.297 37.5172 155.417 37.4486 155.514 37.3615C155.612 37.2711 155.684 37.164 155.73 37.0401C155.781 36.9162 155.806 36.7789 155.806 36.6282Z" fill="black"/>
<path d="M159.643 38.1853C158.893 38.1853 158.299 37.9391 157.86 37.4469C157.425 36.9514 157.207 36.3085 157.207 35.5182C157.207 34.6644 157.435 33.9964 157.89 33.5142C158.349 33.032 158.952 32.7909 159.698 32.7909C160.432 32.7909 161.011 33.0303 161.436 33.5092C161.861 33.988 162.074 34.651 162.074 35.4981C162.074 36.2984 161.856 36.9463 161.421 37.4419C160.989 37.9375 160.396 38.1853 159.643 38.1853ZM159.678 33.2128C159.072 33.2128 158.588 33.4171 158.227 33.8256C157.868 34.2341 157.689 34.8017 157.689 35.5283C157.689 36.2013 157.865 36.7421 158.217 37.1506C158.568 37.5591 159.049 37.7634 159.658 37.7634C160.278 37.7634 160.755 37.5624 161.09 37.1606C161.424 36.7588 161.592 36.2013 161.592 35.4881C161.592 34.7548 161.424 34.1922 161.09 33.8005C160.758 33.4087 160.288 33.2128 159.678 33.2128Z" fill="black"/>
<path d="M163.817 33.3384V38.0597H163.355V32.9165H165.866V33.3384H163.817Z" fill="black"/>
<path d="M168.624 38.1853C167.874 38.1853 167.279 37.9391 166.841 37.4469C166.405 36.9514 166.188 36.3085 166.188 35.5182C166.188 34.6644 166.415 33.9964 166.871 33.5142C167.329 33.032 167.932 32.7909 168.679 32.7909C169.412 32.7909 169.991 33.0303 170.417 33.5092C170.842 33.988 171.055 34.651 171.055 35.4981C171.055 36.2984 170.837 36.9463 170.402 37.4419C169.97 37.9375 169.377 38.1853 168.624 38.1853ZM168.659 33.2128C168.053 33.2128 167.569 33.4171 167.207 33.8256C166.849 34.2341 166.67 34.8017 166.67 35.5283C166.67 36.2013 166.846 36.7421 167.197 37.1506C167.549 37.5591 168.029 37.7634 168.639 37.7634C169.258 37.7634 169.735 37.5624 170.07 37.1606C170.405 36.7588 170.572 36.2013 170.572 35.4881C170.572 34.7548 170.405 34.1922 170.07 33.8005C169.739 33.4087 169.268 33.2128 168.659 33.2128Z" fill="black"/>
<path d="M175.64 37.1456H175.62V40.4254H175.158V32.9165H175.62V33.9763H175.64C175.824 33.5979 176.087 33.3066 176.429 33.1023C176.774 32.8947 177.152 32.7909 177.564 32.7909C178.217 32.7909 178.726 33.0169 179.091 33.469C179.459 33.9177 179.643 34.5288 179.643 35.3023C179.643 36.1628 179.432 36.8593 179.01 37.3917C178.592 37.9207 178.038 38.1853 177.348 38.1853C176.578 38.1853 176.009 37.8387 175.64 37.1456ZM175.62 35.2319V35.8799C175.62 36.3955 175.783 36.8392 176.107 37.2109C176.432 37.5792 176.859 37.7634 177.388 37.7634C177.914 37.7634 178.341 37.539 178.669 37.0903C178.997 36.6383 179.161 36.0456 179.161 35.3123C179.161 34.6694 179.01 34.1588 178.709 33.7804C178.408 33.402 178.006 33.2128 177.504 33.2128C176.904 33.2128 176.44 33.4137 176.112 33.8155C175.784 34.2174 175.62 34.6895 175.62 35.2319Z" fill="black"/>
<path d="M185.575 38.0597V32.9165H186.037V38.0597H185.575ZM184.45 36.5177C184.45 36.7789 184.405 37.0066 184.314 37.2008C184.224 37.395 184.105 37.5557 183.958 37.683C183.814 37.8102 183.648 37.9057 183.46 37.9693C183.276 38.0296 183.089 38.0597 182.898 38.0597H180.924V32.9165H181.386V35.026H182.858C183.102 35.026 183.323 35.0595 183.521 35.1265C183.718 35.1934 183.886 35.2922 184.023 35.4228C184.16 35.55 184.266 35.7057 184.339 35.8899C184.413 36.0741 184.45 36.2833 184.45 36.5177ZM183.968 36.5177C183.968 36.3671 183.943 36.2264 183.892 36.0958C183.846 35.9652 183.772 35.8531 183.671 35.7593C183.571 35.6622 183.445 35.5869 183.295 35.5333C183.144 35.4764 182.967 35.4479 182.762 35.4479H181.386V37.6378H182.772C182.99 37.6378 183.174 37.6093 183.325 37.5524C183.476 37.4921 183.598 37.4118 183.692 37.3113C183.789 37.2075 183.859 37.0886 183.902 36.9547C183.946 36.8174 183.968 36.6718 183.968 36.5177Z" fill="black"/>
<path d="M191.18 38.0597V35.6036H188.147V38.0597H187.685V32.9165H188.147V35.1817H191.18V32.9165H191.642V38.0597H191.18Z" fill="black"/>
<path d="M196.188 38.0597L193.772 35.5383H193.752V38.0597H193.29V32.9165H193.752V35.3726H193.772L196.158 32.9165H196.755L194.264 35.4278L196.836 38.0597H196.188Z" fill="black"/>
<path d="M200.844 38.0597V37.03H200.824C200.66 37.3816 200.42 37.6629 200.106 37.8739C199.794 38.0815 199.448 38.1853 199.066 38.1853C198.577 38.1853 198.19 38.048 197.906 37.7734C197.621 37.4988 197.479 37.1523 197.479 36.7337C197.479 35.8363 198.073 35.2939 199.262 35.1064L200.844 34.8703C200.844 33.7653 200.429 33.2128 199.598 33.2128C199.032 33.2128 198.482 33.4405 197.946 33.8959V33.3384C198.137 33.1877 198.395 33.0588 198.719 32.9516C199.047 32.8445 199.356 32.7909 199.643 32.7909C200.173 32.7909 200.581 32.955 200.869 33.2831C201.16 33.6113 201.306 34.0884 201.306 34.7146V38.0597H200.844ZM199.427 35.4981C198.888 35.5752 198.51 35.7007 198.292 35.8748C198.075 36.0456 197.966 36.3252 197.966 36.7136C197.966 37.0183 198.066 37.2695 198.267 37.467C198.472 37.6646 198.754 37.7634 199.116 37.7634C199.612 37.7634 200.024 37.5809 200.352 37.2159C200.68 36.8476 200.844 36.3738 200.844 35.7945V35.2922L199.427 35.4981Z" fill="black"/>
<path d="M207.74 38.1853C206.99 38.1853 206.396 37.9391 205.957 37.4469C205.522 36.9514 205.304 36.3085 205.304 35.5182C205.304 34.6644 205.532 33.9964 205.987 33.5142C206.446 33.032 207.049 32.7909 207.795 32.7909C208.529 32.7909 209.108 33.0303 209.533 33.5092C209.958 33.988 210.171 34.651 210.171 35.4981C210.171 36.2984 209.953 36.9463 209.518 37.4419C209.086 37.9375 208.493 38.1853 207.74 38.1853ZM207.775 33.2128C207.169 33.2128 206.685 33.4171 206.324 33.8256C205.965 34.2341 205.786 34.8017 205.786 35.5283C205.786 36.2013 205.962 36.7421 206.314 37.1506C206.665 37.5591 207.146 37.7634 207.755 37.7634C208.375 37.7634 208.852 37.5624 209.187 37.1606C209.521 36.7588 209.689 36.2013 209.689 35.4881C209.689 34.7548 209.521 34.1922 209.187 33.8005C208.855 33.4087 208.385 33.2128 207.775 33.2128Z" fill="black"/>
<path d="M214.948 38.0597V35.6036H211.914V38.0597H211.452V32.9165H211.914V35.1817H214.948V32.9165H215.41V38.0597H214.948Z" fill="black"/>
<path d="M220.101 38.0597V33.3384H218.599C218.542 34.1018 218.467 34.7816 218.373 35.3776C218.283 35.9703 218.162 36.4709 218.011 36.8794C217.864 37.2879 217.681 37.5993 217.464 37.8136C217.246 38.0245 216.983 38.13 216.675 38.13C216.625 38.13 216.573 38.125 216.52 38.1149C216.469 38.1082 216.426 38.0999 216.389 38.0898V37.678C216.416 37.688 216.459 37.6981 216.52 37.7081C216.58 37.7148 216.628 37.7181 216.665 37.7181C216.89 37.7181 217.085 37.6143 217.253 37.4067C217.42 37.1958 217.564 36.8877 217.685 36.4826C217.805 36.0741 217.906 35.5718 217.986 34.9758C218.07 34.3764 218.137 33.69 218.187 32.9165H220.563V38.0597H220.101Z" fill="black"/>
<path d="M225.284 38.0597V37.03H225.264C225.1 37.3816 224.861 37.6629 224.546 37.8739C224.234 38.0815 223.888 38.1853 223.506 38.1853C223.017 38.1853 222.63 38.048 222.346 37.7734C222.061 37.4988 221.919 37.1523 221.919 36.7337C221.919 35.8363 222.513 35.2939 223.702 35.1064L225.284 34.8703C225.284 33.7653 224.869 33.2128 224.038 33.2128C223.473 33.2128 222.922 33.4405 222.386 33.8959V33.3384C222.577 33.1877 222.835 33.0588 223.16 32.9516C223.488 32.8445 223.796 32.7909 224.084 32.7909C224.613 32.7909 225.021 32.955 225.309 33.2831C225.601 33.6113 225.746 34.0884 225.746 34.7146V38.0597H225.284ZM223.868 35.4981C223.329 35.5752 222.95 35.7007 222.733 35.8748C222.515 36.0456 222.406 36.3252 222.406 36.7136C222.406 37.0183 222.507 37.2695 222.707 37.467C222.912 37.6646 223.195 37.7634 223.556 37.7634C224.052 37.7634 224.464 37.5809 224.792 37.2159C225.12 36.8476 225.284 36.3738 225.284 35.7945V35.2922L223.868 35.4981Z" fill="black"/>
<path d="M230.849 38.0597V33.7603C230.822 33.7971 230.796 33.834 230.769 33.8708C230.745 33.9076 230.725 33.9361 230.709 33.9562L227.62 38.0597H227.293V32.9165H227.755V37.1757C227.775 37.1389 227.795 37.1037 227.816 37.0702C227.836 37.0367 227.857 37.0066 227.881 36.9798L230.945 32.9165H231.316V38.0597H230.849ZM229.272 31.701C229.466 31.701 229.64 31.6725 229.794 31.6156C229.952 31.5587 230.086 31.4817 230.196 31.3846C230.31 31.2875 230.399 31.1753 230.462 31.0481C230.529 30.9208 230.571 30.7886 230.588 30.6513H231.08C231.047 30.8321 230.983 31.0096 230.889 31.1837C230.799 31.3544 230.678 31.5068 230.528 31.6407C230.377 31.7747 230.196 31.8818 229.985 31.9622C229.774 32.0425 229.535 32.0827 229.267 32.0827C228.999 32.0827 228.765 32.0425 228.564 31.9622C228.363 31.8818 228.194 31.7747 228.057 31.6407C227.919 31.5068 227.809 31.3544 227.725 31.1837C227.645 31.0096 227.588 30.8321 227.554 30.6513H228.047C228.063 30.7886 228.1 30.9208 228.157 31.0481C228.214 31.1753 228.293 31.2875 228.393 31.3846C228.494 31.4817 228.616 31.5587 228.76 31.6156C228.904 31.6725 229.071 31.701 229.262 31.701H229.272Z" fill="black"/>
<path d="M236.454 38.0597V35.6036H233.421V38.0597H232.959V32.9165H233.421V35.1817H236.454V32.9165H236.917V38.0597H236.454Z" fill="black"/>
<path d="M238.469 35.2721V34.8201H241.216V35.2721H238.469Z" fill="black"/>
<path d="M244.727 38.1853C243.977 38.1853 243.382 37.9391 242.944 37.4469C242.508 36.9514 242.291 36.3085 242.291 35.5182C242.291 34.6644 242.519 33.9964 242.974 33.5142C243.433 33.032 244.035 32.7909 244.782 32.7909C245.515 32.7909 246.095 33.0303 246.52 33.5092C246.945 33.988 247.158 34.651 247.158 35.4981C247.158 36.2984 246.94 36.9463 246.505 37.4419C246.073 37.9375 245.48 38.1853 244.727 38.1853ZM244.762 33.2128C244.156 33.2128 243.672 33.4171 243.31 33.8256C242.952 34.2341 242.773 34.8017 242.773 35.5283C242.773 36.2013 242.949 36.7421 243.3 37.1506C243.652 37.5591 244.132 37.7634 244.742 37.7634C245.361 37.7634 245.839 37.5624 246.173 37.1606C246.508 36.7588 246.676 36.2013 246.676 35.4881C246.676 34.7548 246.508 34.1922 246.173 33.8005C245.842 33.4087 245.371 33.2128 244.762 33.2128Z" fill="black"/>
<path d="M252.818 35.6036C252.818 35.8012 252.8 36.0021 252.763 36.2063C252.73 36.4106 252.674 36.6098 252.597 36.804C252.52 36.9949 252.422 37.174 252.301 37.3415C252.184 37.5089 252.041 37.6562 251.874 37.7834C251.71 37.9073 251.519 38.0044 251.301 38.0748C251.087 38.1484 250.846 38.1853 250.578 38.1853C250.203 38.1853 249.872 38.1133 249.584 37.9693C249.299 37.822 249.06 37.6127 248.865 37.3415C248.675 37.0669 248.529 36.732 248.429 36.3369C248.331 35.9418 248.283 35.4948 248.283 34.9959C248.283 34.4132 248.318 33.906 248.388 33.474C248.459 33.0387 248.557 32.6687 248.685 32.364C248.815 32.0559 248.969 31.8048 249.147 31.6106C249.324 31.4164 249.52 31.2657 249.734 31.1586C249.868 31.0916 250.014 31.0347 250.171 30.9878C250.332 30.9376 250.494 30.894 250.659 30.8572C250.826 30.817 250.99 30.7835 251.151 30.7567C251.315 30.7266 251.467 30.6998 251.608 30.6764C251.725 30.6529 251.851 30.6211 251.985 30.581C252.118 30.5408 252.232 30.4889 252.326 30.4253V30.9125C252.252 30.9593 252.154 31.0045 252.03 31.0481C251.909 31.0882 251.772 31.1217 251.618 31.1485C251.471 31.172 251.315 31.1987 251.151 31.2289C250.99 31.2557 250.831 31.2875 250.674 31.3243C250.52 31.3578 250.371 31.398 250.227 31.4449C250.086 31.4884 249.962 31.5403 249.855 31.6006C249.56 31.7747 249.323 32.0693 249.142 32.4845C248.961 32.8964 248.85 33.4455 248.81 34.132H248.83C248.904 33.988 249.001 33.8507 249.122 33.7201C249.246 33.5862 249.386 33.469 249.544 33.3685C249.704 33.2681 249.88 33.1894 250.071 33.1325C250.265 33.0722 250.471 33.0421 250.689 33.0421C251.06 33.0421 251.38 33.1107 251.648 33.248C251.916 33.3819 252.135 33.5661 252.306 33.8005C252.48 34.0349 252.609 34.3078 252.693 34.6192C252.776 34.9272 252.818 35.2554 252.818 35.6036ZM252.306 35.6639C252.306 35.329 252.271 35.0277 252.201 34.7598C252.13 34.4919 252.023 34.2642 251.879 34.0767C251.738 33.8859 251.561 33.7402 251.347 33.6398C251.132 33.536 250.883 33.4841 250.598 33.4841C250.397 33.4841 250.207 33.5175 250.026 33.5845C249.848 33.6481 249.682 33.7352 249.528 33.8457C249.374 33.9562 249.237 34.0851 249.117 34.2324C248.996 34.3798 248.894 34.5371 248.81 34.7046C248.81 34.7615 248.809 34.8402 248.805 34.9406C248.802 35.0377 248.8 35.1348 248.8 35.2319C248.8 35.5668 248.834 35.8866 248.901 36.1913C248.971 36.496 249.078 36.7655 249.222 36.9999C249.369 37.231 249.557 37.4168 249.785 37.5574C250.012 37.6947 250.287 37.7634 250.608 37.7634C250.89 37.7634 251.136 37.7081 251.347 37.5976C251.561 37.4838 251.738 37.3314 251.879 37.1405C252.023 36.9463 252.13 36.722 252.201 36.4675C252.271 36.213 252.306 35.9452 252.306 35.6639Z" fill="black"/>
<path d="M254.576 37.1456H254.556V40.4254H254.094V32.9165H254.556V33.9763H254.576C254.76 33.5979 255.023 33.3066 255.365 33.1023C255.71 32.8947 256.088 32.7909 256.5 32.7909C257.153 32.7909 257.662 33.0169 258.027 33.469C258.395 33.9177 258.579 34.5288 258.579 35.3023C258.579 36.1628 258.368 36.8593 257.946 37.3917C257.528 37.9207 256.974 38.1853 256.284 38.1853C255.514 38.1853 254.945 37.8387 254.576 37.1456ZM254.556 35.2319V35.8799C254.556 36.3955 254.719 36.8392 255.043 37.2109C255.368 37.5792 255.795 37.7634 256.324 37.7634C256.85 37.7634 257.277 37.539 257.605 37.0903C257.933 36.6383 258.097 36.0456 258.097 35.3123C258.097 34.6694 257.946 34.1588 257.645 33.7804C257.344 33.402 256.942 33.2128 256.44 33.2128C255.84 33.2128 255.377 33.4137 255.048 33.8155C254.72 34.2174 254.556 34.6895 254.556 35.2319Z" fill="black"/>
<path d="M262.723 38.0597V37.03H262.703C262.539 37.3816 262.299 37.6629 261.985 37.8739C261.673 38.0815 261.327 38.1853 260.945 38.1853C260.456 38.1853 260.069 38.048 259.785 37.7734C259.5 37.4988 259.358 37.1523 259.358 36.7337C259.358 35.8363 259.952 35.2939 261.141 35.1064L262.723 34.8703C262.723 33.7653 262.308 33.2128 261.477 33.2128C260.911 33.2128 260.361 33.4405 259.825 33.8959V33.3384C260.016 33.1877 260.274 33.0588 260.598 32.9516C260.927 32.8445 261.235 32.7909 261.523 32.7909C262.052 32.7909 262.46 32.955 262.748 33.2831C263.039 33.6113 263.185 34.0884 263.185 34.7146V38.0597H262.723ZM261.307 35.4981C260.768 35.5752 260.389 35.7007 260.171 35.8748C259.954 36.0456 259.845 36.3252 259.845 36.7136C259.845 37.0183 259.945 37.2695 260.146 37.467C260.351 37.6646 260.634 37.7634 260.995 37.7634C261.491 37.7634 261.903 37.5809 262.231 37.2159C262.559 36.8476 262.723 36.3738 262.723 35.7945V35.2922L261.307 35.4981Z" fill="black"/>
<path d="M268.147 36.6282C268.147 36.8258 268.109 37.0183 268.032 37.2058C267.958 37.3934 267.836 37.5608 267.665 37.7081C267.495 37.8521 267.268 37.9676 266.987 38.0547C266.709 38.1417 266.366 38.1853 265.958 38.1853C265.82 38.1853 265.676 38.1769 265.526 38.1601C265.375 38.1434 265.226 38.12 265.079 38.0898C264.935 38.0597 264.797 38.0245 264.667 37.9844C264.54 37.9408 264.431 37.8939 264.34 37.8437V37.3615C264.457 37.4252 264.583 37.4821 264.717 37.5323C264.854 37.5825 264.993 37.6244 265.134 37.6579C265.278 37.6914 265.42 37.7181 265.561 37.7382C265.701 37.755 265.837 37.7634 265.968 37.7634C266.302 37.7634 266.579 37.7332 266.796 37.6729C267.017 37.6127 267.191 37.534 267.319 37.4369C267.449 37.3364 267.54 37.2209 267.59 37.0903C267.64 36.9597 267.665 36.8241 267.665 36.6835C267.665 36.4792 267.625 36.3085 267.545 36.1712C267.468 36.0339 267.356 35.9234 267.208 35.8397C267.064 35.756 266.887 35.6974 266.676 35.6639C266.468 35.6304 266.235 35.6137 265.978 35.6137H265.274V35.1918H265.912C266.415 35.1918 266.788 35.1097 267.032 34.9456C267.28 34.7816 267.404 34.5237 267.404 34.1722C267.404 34.0315 267.377 33.9026 267.324 33.7854C267.27 33.6682 267.188 33.5678 267.078 33.4841C266.967 33.397 266.826 33.33 266.656 33.2831C266.485 33.2363 266.282 33.2128 266.048 33.2128C265.767 33.2128 265.485 33.2497 265.204 33.3233C264.926 33.397 264.672 33.4874 264.441 33.5945V33.1425C264.538 33.1023 264.648 33.0621 264.772 33.022C264.896 32.9784 265.028 32.9399 265.169 32.9064C265.313 32.873 265.464 32.8462 265.621 32.8261C265.778 32.8026 265.941 32.7909 266.108 32.7909C266.433 32.7909 266.708 32.8294 266.932 32.9064C267.16 32.9801 267.344 33.0789 267.484 33.2028C267.628 33.3267 267.732 33.469 267.796 33.6297C267.859 33.7871 267.891 33.9478 267.891 34.1119C267.891 34.4434 267.798 34.7179 267.61 34.9356C267.426 35.1532 267.163 35.2922 266.821 35.3525V35.3726C267.032 35.3826 267.22 35.4228 267.384 35.4931C267.548 35.5601 267.687 35.6488 267.801 35.7593C267.915 35.8698 268 36.0004 268.057 36.1511C268.117 36.2984 268.147 36.4575 268.147 36.6282Z" fill="black"/>
<path d="M271.498 38.1853C270.748 38.1853 270.153 37.9391 269.715 37.4469C269.279 36.9514 269.062 36.3085 269.062 35.5182C269.062 34.6644 269.289 33.9964 269.745 33.5142C270.203 33.032 270.806 32.7909 271.553 32.7909C272.286 32.7909 272.865 33.0303 273.291 33.5092C273.716 33.988 273.929 34.651 273.929 35.4981C273.929 36.2984 273.711 36.9463 273.276 37.4419C272.844 37.9375 272.251 38.1853 271.498 38.1853ZM271.533 33.2128C270.927 33.2128 270.443 33.4171 270.081 33.8256C269.723 34.2341 269.544 34.8017 269.544 35.5283C269.544 36.2013 269.72 36.7421 270.071 37.1506C270.423 37.5591 270.903 37.7634 271.513 37.7634C272.132 37.7634 272.609 37.5624 272.944 37.1606C273.279 36.7588 273.446 36.2013 273.446 35.4881C273.446 34.7548 273.279 34.1922 272.944 33.8005C272.613 33.4087 272.142 33.2128 271.533 33.2128Z" fill="black"/>
<path d="M278.851 36.5881C278.851 36.8057 278.812 37.0049 278.735 37.1857C278.662 37.3632 278.556 37.5172 278.419 37.6478C278.281 37.7784 278.117 37.8805 277.927 37.9542C277.739 38.0245 277.533 38.0597 277.309 38.0597H275.209V32.9165H277.163C277.421 32.9165 277.642 32.9483 277.826 33.0119C278.014 33.0755 278.168 33.1626 278.288 33.2731C278.409 33.3836 278.497 33.5142 278.554 33.6649C278.615 33.8155 278.645 33.9779 278.645 34.1521C278.645 34.3094 278.621 34.4568 278.574 34.5941C278.531 34.728 278.467 34.8502 278.384 34.9607C278.303 35.0679 278.203 35.1583 278.082 35.2319C277.965 35.3056 277.833 35.3575 277.685 35.3876C277.876 35.4077 278.044 35.4529 278.188 35.5232C278.335 35.5902 278.457 35.6773 278.554 35.7844C278.651 35.8882 278.725 36.0088 278.775 36.1461C278.826 36.2833 278.851 36.4307 278.851 36.5881ZM278.163 34.2224C278.163 34.1052 278.144 33.993 278.107 33.8859C278.074 33.7787 278.015 33.685 277.932 33.6046C277.848 33.5242 277.739 33.4606 277.605 33.4137C277.471 33.3635 277.304 33.3384 277.103 33.3384H275.671V35.2018H276.977C277.205 35.2018 277.394 35.175 277.545 35.1214C277.699 35.0645 277.821 34.9908 277.911 34.9004C278.002 34.8067 278.066 34.7012 278.102 34.584C278.143 34.4668 278.163 34.3463 278.163 34.2224ZM278.369 36.6282C278.369 36.4909 278.345 36.362 278.298 36.2415C278.255 36.1176 278.181 36.0104 278.077 35.92C277.977 35.8296 277.841 35.7576 277.67 35.7041C277.503 35.6505 277.295 35.6237 277.048 35.6237H275.671V37.6378H277.213C277.404 37.6378 277.572 37.6143 277.716 37.5675C277.86 37.5172 277.98 37.4486 278.077 37.3615C278.174 37.2711 278.246 37.164 278.293 37.0401C278.343 36.9162 278.369 36.7789 278.369 36.6282Z" fill="black"/>
<path d="M283.215 38.0597V37.03H283.195C283.031 37.3816 282.792 37.6629 282.477 37.8739C282.166 38.0815 281.819 38.1853 281.437 38.1853C280.949 38.1853 280.562 38.048 280.277 37.7734C279.993 37.4988 279.85 37.1523 279.85 36.7337C279.85 35.8363 280.445 35.2939 281.633 35.1064L283.215 34.8703C283.215 33.7653 282.8 33.2128 281.97 33.2128C281.404 33.2128 280.853 33.4405 280.317 33.8959V33.3384C280.508 33.1877 280.766 33.0588 281.091 32.9516C281.419 32.8445 281.727 32.7909 282.015 32.7909C282.544 32.7909 282.953 32.955 283.241 33.2831C283.532 33.6113 283.677 34.0884 283.677 34.7146V38.0597H283.215ZM281.799 35.4981C281.26 35.5752 280.882 35.7007 280.664 35.8748C280.446 36.0456 280.337 36.3252 280.337 36.7136C280.337 37.0183 280.438 37.2695 280.639 37.467C280.843 37.6646 281.126 37.7634 281.488 37.7634C281.983 37.7634 282.395 37.5809 282.723 37.2159C283.051 36.8476 283.215 36.3738 283.215 35.7945V35.2922L281.799 35.4981Z" fill="black"/>
<path d="M288.72 38.0597V35.6036H285.687V38.0597H285.224V32.9165H285.687V35.1817H288.72V32.9165H289.182V38.0597H288.72Z" fill="black"/>
<path d="M294.386 38.0597V33.7603C294.359 33.7971 294.332 33.834 294.305 33.8708C294.282 33.9076 294.262 33.9361 294.245 33.9562L291.156 38.0597H290.83V32.9165H291.292V37.1757C291.312 37.1389 291.332 37.1037 291.352 37.0702C291.372 37.0367 291.394 37.0066 291.417 36.9798L294.481 32.9165H294.853V38.0597H294.386Z" fill="black"/>
<path d="M299.323 38.0597V35.8196H298.469C298.379 35.8196 298.283 35.833 298.183 35.8598C298.082 35.8832 297.982 35.9301 297.882 36.0004C297.781 36.0674 297.684 36.1611 297.59 36.2817C297.496 36.3989 297.409 36.5495 297.329 36.7337L296.751 38.0597H296.184L296.832 36.6282C296.929 36.4072 297.051 36.218 297.198 36.0607C297.349 35.8999 297.52 35.7811 297.711 35.7041C297.292 35.6538 296.981 35.5099 296.777 35.2721C296.576 35.031 296.475 34.723 296.475 34.3479C296.475 34.1738 296.504 34.0014 296.561 33.8306C296.621 33.6598 296.718 33.5075 296.852 33.3736C296.986 33.2363 297.162 33.1258 297.379 33.0421C297.597 32.9583 297.865 32.9165 298.183 32.9165H299.805V38.0597H299.323ZM299.323 33.3183H298.213C297.805 33.3183 297.498 33.4104 297.294 33.5945C297.09 33.7754 296.988 34.0265 296.988 34.3479C296.988 34.5388 297.016 34.7012 297.073 34.8351C297.13 34.9657 297.21 35.0729 297.314 35.1566C297.421 35.2403 297.548 35.3023 297.696 35.3424C297.843 35.3793 298.005 35.3977 298.183 35.3977H299.323V33.3183Z" fill="black"/>
<path d="M301.262 39.3053H300.87L301.623 36.9195H302.136L301.262 39.3053Z" fill="black"/>
<path d="M311.006 38.0597V33.6146L310.87 33.9763C310.833 34.0767 310.793 34.1805 310.75 34.2877C310.709 34.3948 310.674 34.4869 310.644 34.5639L309.253 38.0597H308.876L307.374 34.5639C307.341 34.4936 307.304 34.4049 307.264 34.2977C307.224 34.1906 307.185 34.0868 307.148 33.9863C307.105 33.8691 307.06 33.7452 307.013 33.6146V38.0597H306.571V32.9165H307.123L308.69 36.4776C308.727 36.5579 308.766 36.6533 308.806 36.7638C308.849 36.871 308.89 36.9748 308.926 37.0752C308.97 37.1924 309.013 37.3113 309.057 37.4319C309.104 37.3147 309.151 37.1991 309.198 37.0853C309.234 36.9882 309.275 36.8861 309.318 36.7789C309.362 36.6718 309.399 36.578 309.429 36.4976L310.89 32.9165H311.458V38.0597H311.006Z" fill="black"/>
<path d="M316.144 38.0597V33.3384H314.642C314.585 34.1018 314.51 34.7816 314.416 35.3776C314.326 35.9703 314.205 36.4709 314.055 36.8794C313.907 37.2879 313.725 37.5993 313.507 37.8136C313.289 38.0245 313.027 38.13 312.718 38.13C312.668 38.13 312.616 38.125 312.563 38.1149C312.513 38.1082 312.469 38.0999 312.432 38.0898V37.678C312.459 37.688 312.503 37.6981 312.563 37.7081C312.623 37.7148 312.672 37.7181 312.708 37.7181C312.933 37.7181 313.129 37.6143 313.296 37.4067C313.464 37.1958 313.607 36.8877 313.728 36.4826C313.849 36.0741 313.949 35.5718 314.029 34.9758C314.113 34.3764 314.18 33.69 314.23 32.9165H316.606V38.0597H316.144Z" fill="black"/>
<path d="M318.736 37.1456H318.716V40.4254H318.253V32.9165H318.716V33.9763H318.736C318.92 33.5979 319.183 33.3066 319.524 33.1023C319.869 32.8947 320.247 32.7909 320.659 32.7909C321.312 32.7909 321.821 33.0169 322.186 33.469C322.555 33.9177 322.739 34.5288 322.739 35.3023C322.739 36.1628 322.528 36.8593 322.106 37.3917C321.687 37.9207 321.133 38.1853 320.443 38.1853C319.673 38.1853 319.104 37.8387 318.736 37.1456ZM318.716 35.2319V35.8799C318.716 36.3955 318.878 36.8392 319.203 37.2109C319.528 37.5792 319.954 37.7634 320.484 37.7634C321.009 37.7634 321.436 37.539 321.764 37.0903C322.092 36.6383 322.257 36.0456 322.257 35.3123C322.257 34.6694 322.106 34.1588 321.804 33.7804C321.503 33.402 321.101 33.2128 320.599 33.2128C320 33.2128 319.536 33.4137 319.208 33.8155C318.88 34.2174 318.716 34.6895 318.716 35.2319Z" fill="black"/>
<path d="M327.746 39.4158V38.0597H323.643V39.4158H323.221V37.6378H323.673C323.897 37.313 324.095 36.9631 324.266 36.5881C324.44 36.213 324.585 35.8229 324.703 35.4178C324.82 35.0126 324.91 34.5991 324.974 34.1772C325.037 33.7553 325.074 33.335 325.084 32.9165H327.375V37.6378H328.168V39.4158H327.746ZM326.913 33.3384H325.506C325.479 33.6967 325.434 34.0617 325.371 34.4333C325.307 34.805 325.22 35.175 325.109 35.5433C325.002 35.9117 324.872 36.2733 324.718 36.6282C324.567 36.9798 324.391 37.3163 324.19 37.6378H326.913V33.3384Z" fill="black"/>
<path d="M334.07 38.0396V39.1094H333.678V38.0597C333.049 38.0597 332.501 37.9258 332.036 37.6579V37.1456C332.545 37.4737 333.092 37.6378 333.678 37.6378V34.6342C333.018 34.2559 332.58 33.9311 332.362 33.6598C332.144 33.3853 332.036 33.0588 332.036 32.6804C332.036 32.225 332.183 31.8282 332.478 31.4901C332.772 31.1519 333.172 30.9443 333.678 30.8672V29.9531H334.07V30.8572C334.579 30.8572 335.014 30.9292 335.376 31.0732V31.5905C335.031 31.3896 334.595 31.2892 334.07 31.2892V34.3379C334.686 34.6761 335.113 34.9875 335.351 35.2721C335.588 35.5534 335.707 35.8866 335.707 36.2716C335.707 36.7404 335.563 37.1338 335.275 37.4519C334.991 37.7701 334.589 37.9659 334.07 38.0396ZM333.678 31.2992C333.32 31.3561 333.037 31.5035 332.829 31.7412C332.622 31.9789 332.518 32.2719 332.518 32.6202C332.518 32.9148 332.595 33.171 332.749 33.3886C332.903 33.6029 333.213 33.844 333.678 34.1119V31.2992ZM334.07 34.8703V37.6277C334.452 37.5608 334.739 37.4151 334.934 37.1908C335.128 36.9631 335.225 36.6868 335.225 36.362C335.225 36.054 335.143 35.7928 334.979 35.5785C334.818 35.3642 334.515 35.1281 334.07 34.8703Z" fill="black"/>
<circle cx="49.9961" cy="193.899" r="2.5716" fill="black"/>
<circle cx="103" cy="164.068" r="2.5716" fill="black"/>
<circle cx="157.919" cy="149.667" r="2.5716" fill="black"/>
<circle cx="210.284" cy="132.18" r="2.5716" fill="black"/>
<circle cx="263.288" cy="115.722" r="2.5716" fill="black"/>
<circle cx="315.653" cy="97.2066" r="2.5716" fill="black"/>
<circle cx="369.934" cy="74.5765" r="2.5716" fill="black"/>
<path d="M364.581 68.919V68.4268L366.545 66.3373C367.245 65.5906 367.703 65.0398 367.921 64.6849C368.142 64.3299 368.252 63.9348 368.252 63.4995C368.252 63.0308 368.122 62.6674 367.861 62.4096C367.6 62.1484 367.23 62.0179 366.751 62.0179C366.115 62.0179 365.515 62.2673 364.953 62.7662V62.2238C365.502 61.8052 366.121 61.5959 366.811 61.5959C367.427 61.5959 367.901 61.7617 368.232 62.0932C368.567 62.4247 368.735 62.8684 368.735 63.4242C368.735 63.9198 368.616 64.3685 368.378 64.7703C368.14 65.1721 367.633 65.7865 366.856 66.6136L365.093 68.477V68.4971H368.694V68.919H364.581Z" fill="black"/>
<path d="M371.633 65.1771V65.152C370.722 64.7133 370.267 64.1106 370.267 63.3438C370.267 62.8449 370.449 62.4297 370.814 62.0982C371.182 61.7634 371.655 61.5959 372.23 61.5959C372.756 61.5959 373.183 61.7483 373.511 62.053C373.843 62.3577 374.008 62.7495 374.008 63.2283C374.008 64.0453 373.525 64.6799 372.557 65.1319V65.152C373.682 65.5605 374.245 66.2268 374.245 67.151C374.245 67.7102 374.049 68.1656 373.657 68.5172C373.265 68.8688 372.708 69.0445 371.984 69.0445C371.395 69.0445 370.92 68.8754 370.558 68.5373C370.2 68.1957 370.02 67.7571 370.02 67.2213C370.02 66.3139 370.558 65.6325 371.633 65.1771ZM372.115 64.9159C373.056 64.5442 373.526 64.0001 373.526 63.2836C373.526 62.8851 373.399 62.5754 373.145 62.3544C372.893 62.13 372.565 62.0179 372.16 62.0179C371.765 62.0179 371.43 62.1384 371.156 62.3795C370.884 62.6206 370.749 62.9186 370.749 63.2735C370.749 63.9901 371.204 64.5375 372.115 64.9159ZM372.075 65.4031C371.516 65.6308 371.114 65.8819 370.869 66.1565C370.625 66.4311 370.503 66.7793 370.503 67.2012C370.503 67.6131 370.65 67.953 370.945 68.2208C371.239 68.4887 371.636 68.6226 372.135 68.6226C372.644 68.6226 373.042 68.4887 373.33 68.2208C373.618 67.9496 373.762 67.6131 373.762 67.2113C373.762 66.7659 373.623 66.4026 373.345 66.1214C373.071 65.8367 372.647 65.5973 372.075 65.4031Z" fill="black"/>
<path d="M375.189 68.919V68.4268L377.153 66.3373C377.852 65.5906 378.311 65.0398 378.529 64.6849C378.75 64.3299 378.86 63.9348 378.86 63.4995C378.86 63.0308 378.73 62.6674 378.469 62.4096C378.207 62.1484 377.837 62.0179 377.359 62.0179C376.722 62.0179 376.123 62.2673 375.56 62.7662V62.2238C376.11 61.8052 376.729 61.5959 377.419 61.5959C378.035 61.5959 378.509 61.7617 378.84 62.0932C379.175 62.4247 379.343 62.8684 379.343 63.4242C379.343 63.9198 379.224 64.3685 378.986 64.7703C378.748 65.1721 378.241 65.7865 377.464 66.6136L375.701 68.477V68.4971H379.302V68.919H375.189Z" fill="black"/>
<path d="M308.384 89.4917V88.9995L310.348 86.9101C311.048 86.1634 311.507 85.6126 311.724 85.2576C311.945 84.9027 312.056 84.5076 312.056 84.0723C312.056 83.6035 311.925 83.2402 311.664 82.9824C311.403 82.7212 311.033 82.5906 310.554 82.5906C309.918 82.5906 309.318 82.8401 308.756 83.339V82.7965C309.305 82.378 309.924 82.1687 310.614 82.1687C311.23 82.1687 311.704 82.3344 312.036 82.6659C312.371 82.9974 312.538 83.4411 312.538 83.9969C312.538 84.4925 312.419 84.9412 312.181 85.343C311.944 85.7448 311.436 86.3593 310.659 87.1863L308.897 89.0497V89.0698H312.498V89.4917H308.384Z" fill="black"/>
<path d="M317.741 82.3445V82.8367C317.397 82.6726 317.043 82.5906 316.682 82.5906C315.972 82.5906 315.408 82.9271 314.989 83.6002C314.574 84.2698 314.366 85.1471 314.366 86.232H314.386C314.738 85.4016 315.339 84.9864 316.189 84.9864C316.779 84.9864 317.253 85.199 317.611 85.6243C317.972 86.0462 318.153 86.5736 318.153 87.2064C318.153 87.9129 317.951 88.4922 317.546 88.9443C317.144 89.393 316.63 89.6173 316.004 89.6173C315.344 89.6173 314.827 89.3377 314.452 88.7785C314.08 88.216 313.894 87.4006 313.894 86.3325C313.894 85.0634 314.139 84.0522 314.627 83.2988C315.12 82.5454 315.808 82.1687 316.692 82.1687C317.09 82.1687 317.44 82.2273 317.741 82.3445ZM316.084 85.4083C315.605 85.4083 315.208 85.5875 314.894 85.9457C314.582 86.304 314.426 86.7008 314.426 87.1361C314.426 87.6986 314.575 88.1825 314.873 88.5877C315.171 88.9928 315.562 89.1954 316.044 89.1954C316.506 89.1954 316.891 89.0179 317.199 88.663C317.51 88.3047 317.666 87.851 317.666 87.3019C317.666 86.736 317.525 86.2789 317.244 85.9307C316.963 85.5824 316.576 85.4083 316.084 85.4083Z" fill="black"/>
<path d="M321.172 89.6173C320.509 89.6173 319.99 89.3126 319.615 88.7032C319.24 88.0938 319.052 87.2081 319.052 86.0462C319.052 84.7637 319.248 83.7977 319.64 83.1481C320.035 82.4952 320.598 82.1687 321.328 82.1687C322.714 82.1687 323.407 83.3993 323.407 85.8604C323.407 87.0859 323.211 88.0184 322.819 88.658C322.428 89.2975 321.878 89.6173 321.172 89.6173ZM321.287 82.5906C320.735 82.5906 320.305 82.8735 319.997 83.4394C319.689 84.0053 319.535 84.8541 319.535 85.9859C319.535 87.0172 319.682 87.8108 319.977 88.3667C320.271 88.9191 320.69 89.1954 321.232 89.1954C321.765 89.1954 322.178 88.9141 322.473 88.3516C322.771 87.7857 322.92 86.9787 322.92 85.9307C322.92 83.704 322.376 82.5906 321.287 82.5906Z" fill="black"/>
<path d="M257.935 106.979V106.486L259.899 104.397C260.599 103.65 261.057 103.099 261.275 102.745C261.496 102.39 261.607 101.995 261.607 101.559C261.607 101.09 261.476 100.727 261.215 100.469C260.954 100.208 260.584 100.078 260.105 100.078C259.469 100.078 258.869 100.327 258.307 100.826V100.283C258.856 99.8649 259.475 99.6556 260.165 99.6556C260.781 99.6556 261.255 99.8214 261.586 100.153C261.921 100.484 262.089 100.928 262.089 101.484C262.089 101.979 261.97 102.428 261.732 102.83C261.494 103.232 260.987 103.846 260.21 104.673L258.447 106.537V106.557H262.049V106.979H257.935Z" fill="black"/>
<path d="M266.755 104.939V106.979H266.293V104.939H262.973V104.553L266.293 99.7762H266.755V104.523H267.714V104.939H266.755ZM266.293 101.107C266.293 100.836 266.299 100.62 266.313 100.459H266.293C266.202 100.627 266.117 100.771 266.037 100.891L263.515 104.523H266.293V101.107Z" fill="black"/>
<path d="M268.985 106.979V106.557H270.632V100.128L268.869 100.756V100.294L271.094 99.52V106.557H272.717V106.979H268.985Z" fill="black"/>
<path d="M204.931 125.494V125.002L206.895 122.913C207.595 122.166 208.054 121.615 208.272 121.26C208.493 120.905 208.603 120.51 208.603 120.075C208.603 119.606 208.472 119.243 208.211 118.985C207.95 118.724 207.58 118.593 207.101 118.593C206.465 118.593 205.866 118.843 205.303 119.341V118.799C205.852 118.38 206.472 118.171 207.162 118.171C207.778 118.171 208.251 118.337 208.583 118.668C208.918 119 209.085 119.444 209.085 119.999C209.085 120.495 208.966 120.944 208.729 121.345C208.491 121.747 207.984 122.362 207.207 123.189L205.444 125.052V125.072H209.045V125.494H204.931Z" fill="black"/>
<path d="M210.235 125.494V125.002L212.199 122.913C212.899 122.166 213.358 121.615 213.575 121.26C213.796 120.905 213.907 120.51 213.907 120.075C213.907 119.606 213.776 119.243 213.515 118.985C213.254 118.724 212.884 118.593 212.405 118.593C211.769 118.593 211.17 118.843 210.607 119.341V118.799C211.156 118.38 211.776 118.171 212.465 118.171C213.082 118.171 213.555 118.337 213.887 118.668C214.222 119 214.389 119.444 214.389 119.999C214.389 120.495 214.27 120.944 214.033 121.345C213.795 121.747 213.287 122.362 212.511 123.189L210.748 125.052V125.072H214.349V125.494H210.235Z" fill="black"/>
<path d="M215.539 125.494V125.002L217.503 122.913C218.203 122.166 218.662 121.615 218.879 121.26C219.1 120.905 219.211 120.51 219.211 120.075C219.211 119.606 219.08 119.243 218.819 118.985C218.558 118.724 218.188 118.593 217.709 118.593C217.073 118.593 216.474 118.843 215.911 119.341V118.799C216.46 118.38 217.08 118.171 217.769 118.171C218.385 118.171 218.859 118.337 219.191 118.668C219.526 119 219.693 119.444 219.693 119.999C219.693 120.495 219.574 120.944 219.336 121.345C219.099 121.747 218.591 122.362 217.815 123.189L216.052 125.052V125.072H219.653V125.494H215.539Z" fill="black"/>
<path d="M152.566 141.952V141.46L154.53 139.371C155.23 138.624 155.689 138.073 155.906 137.718C156.127 137.363 156.238 136.968 156.238 136.533C156.238 136.064 156.107 135.701 155.846 135.443C155.585 135.182 155.215 135.051 154.736 135.051C154.1 135.051 153.501 135.301 152.938 135.8V135.257C153.487 134.839 154.107 134.629 154.796 134.629C155.413 134.629 155.886 134.795 156.218 135.127C156.553 135.458 156.72 135.902 156.72 136.458C156.72 136.953 156.601 137.402 156.364 137.804C156.126 138.206 155.618 138.82 154.842 139.647L153.079 141.51V141.531H156.68V141.952H152.566Z" fill="black"/>
<path d="M160.05 142.078C159.387 142.078 158.868 141.773 158.493 141.164C158.118 140.554 157.931 139.669 157.931 138.507C157.931 137.224 158.126 136.258 158.518 135.609C158.913 134.956 159.476 134.629 160.206 134.629C161.592 134.629 162.285 135.86 162.285 138.321C162.285 139.547 162.089 140.479 161.698 141.119C161.306 141.758 160.757 142.078 160.05 142.078ZM160.166 135.051C159.613 135.051 159.183 135.334 158.875 135.9C158.567 136.466 158.413 137.315 158.413 138.447C158.413 139.478 158.56 140.272 158.855 140.827C159.149 141.38 159.568 141.656 160.11 141.656C160.643 141.656 161.056 141.375 161.351 140.812C161.649 140.246 161.798 139.439 161.798 138.391C161.798 136.165 161.254 135.051 160.166 135.051Z" fill="black"/>
<path d="M163.546 141.807V141.274C164.008 141.529 164.467 141.656 164.922 141.656C165.515 141.656 165.977 141.494 166.308 141.169C166.64 140.844 166.806 140.412 166.806 139.873C166.806 138.701 166.138 138.115 164.802 138.115C164.5 138.115 164.147 138.135 163.742 138.175V134.75H166.981V135.172H164.204V137.733C164.566 137.707 164.822 137.693 164.972 137.693C165.732 137.693 166.308 137.881 166.7 138.256C167.092 138.627 167.288 139.146 167.288 139.813C167.288 140.486 167.08 141.032 166.665 141.45C166.25 141.869 165.655 142.078 164.882 142.078C164.363 142.078 163.918 141.988 163.546 141.807Z" fill="black"/>
<path d="M96.1732 156.353V155.932H97.8206V149.503L96.0576 150.13V149.668L98.2827 148.895V155.932H99.905V156.353H96.1732Z" fill="black"/>
<path d="M101.517 156.293V155.786C101.902 155.967 102.256 156.057 102.577 156.057C103.337 156.057 103.916 155.754 104.315 155.148C104.713 154.539 104.913 153.641 104.913 152.456H104.892C104.561 153.229 103.972 153.616 103.125 153.616C102.535 153.616 102.056 153.41 101.688 152.998C101.32 152.583 101.136 152.052 101.136 151.406C101.136 150.696 101.34 150.124 101.748 149.688C102.16 149.25 102.681 149.03 103.31 149.03C103.953 149.03 104.461 149.303 104.832 149.849C105.207 150.392 105.395 151.205 105.395 152.29C105.395 153.636 105.152 154.671 104.666 155.394C104.184 156.117 103.484 156.479 102.567 156.479C102.212 156.479 101.862 156.417 101.517 156.293ZM103.245 149.452C102.773 149.452 102.385 149.628 102.08 149.98C101.775 150.331 101.623 150.775 101.623 151.311C101.623 151.893 101.772 152.354 102.07 152.692C102.368 153.027 102.756 153.194 103.235 153.194C103.677 153.194 104.057 153.033 104.375 152.712C104.693 152.387 104.852 152 104.852 151.552C104.852 150.932 104.702 150.428 104.4 150.04C104.102 149.648 103.717 149.452 103.245 149.452Z" fill="black"/>
<path d="M108.519 156.479C107.856 156.479 107.337 156.174 106.962 155.565C106.587 154.955 106.399 154.07 106.399 152.908C106.399 151.625 106.595 150.659 106.987 150.01C107.382 149.357 107.945 149.03 108.675 149.03C110.061 149.03 110.754 150.261 110.754 152.722C110.754 153.948 110.558 154.88 110.166 155.52C109.775 156.159 109.225 156.479 108.519 156.479ZM108.634 149.452C108.082 149.452 107.652 149.735 107.344 150.301C107.035 150.867 106.881 151.716 106.881 152.848C106.881 153.879 107.029 154.673 107.323 155.228C107.618 155.781 108.037 156.057 108.579 156.057C109.112 156.057 109.525 155.776 109.82 155.213C110.118 154.647 110.267 153.84 110.267 152.792C110.267 150.566 109.723 149.452 108.634 149.452Z" fill="black"/>
<path d="M45.0854 181.041V180.619H46.7328V174.19L44.9698 174.818V174.356L47.1949 173.582V180.619H48.8172V181.041H45.0854Z" fill="black"/>
<path d="M50.319 180.895V180.363C50.781 180.617 51.2398 180.744 51.6952 180.744C52.2878 180.744 52.7499 180.582 53.0814 180.257C53.4129 179.932 53.5787 179.5 53.5787 178.961C53.5787 177.789 52.9107 177.203 51.5746 177.203C51.2733 177.203 50.92 177.223 50.5148 177.264V173.838H53.7545V174.26H50.9769V176.822C51.3386 176.795 51.5947 176.781 51.7454 176.781C52.5055 176.781 53.0814 176.969 53.4732 177.344C53.865 177.716 54.0608 178.235 54.0608 178.901C54.0608 179.574 53.8532 180.12 53.438 180.538C53.0228 180.957 52.4285 181.166 51.655 181.166C51.136 181.166 50.6906 181.076 50.319 180.895Z" fill="black"/>
<path d="M55.7334 180.98V180.473C56.1185 180.654 56.4717 180.744 56.7932 180.744C57.5533 180.744 58.1325 180.441 58.531 179.835C58.9295 179.226 59.1287 178.328 59.1287 177.143H59.1086C58.7771 177.917 58.1878 178.303 57.3406 178.303C56.7513 178.303 56.2725 178.097 55.9042 177.686C55.5358 177.27 55.3517 176.74 55.3517 176.093C55.3517 175.383 55.5559 174.811 55.9644 174.376C56.3763 173.937 56.897 173.718 57.5265 173.718C58.1694 173.718 58.6767 173.991 59.0483 174.536C59.4234 175.079 59.6109 175.892 59.6109 176.977C59.6109 178.323 59.3681 179.358 58.8826 180.081C58.4004 180.805 57.7006 181.166 56.7831 181.166C56.4282 181.166 56.0783 181.104 55.7334 180.98ZM57.4612 174.14C56.989 174.14 56.6006 174.315 56.2959 174.667C55.9912 175.019 55.8389 175.462 55.8389 175.998C55.8389 176.581 55.9879 177.041 56.2859 177.379C56.5839 177.714 56.9723 177.881 57.4511 177.881C57.8931 177.881 58.2732 177.721 58.5913 177.399C58.9094 177.074 59.0684 176.688 59.0684 176.239C59.0684 175.62 58.9177 175.116 58.6164 174.727C58.3184 174.335 57.9333 174.14 57.4612 174.14Z" fill="black"/>
<path d="M49.3403 193.899L102.025 164.068L155.986 150.182L209.628 132.695L262.632 115.722L315.316 98.7495L369.278 75.0908" stroke="black"/>
<path d="M254.103 229.387V228.895L256.067 226.805C256.767 226.059 257.226 225.508 257.443 225.153C257.664 224.798 257.775 224.403 257.775 223.967C257.775 223.499 257.644 223.135 257.383 222.878C257.122 222.616 256.752 222.486 256.273 222.486C255.637 222.486 255.038 222.735 254.475 223.234V222.692C255.024 222.273 255.644 222.064 256.333 222.064C256.95 222.064 257.423 222.23 257.755 222.561C258.09 222.893 258.257 223.336 258.257 223.892C258.257 224.388 258.138 224.836 257.901 225.238C257.663 225.64 257.156 226.254 256.379 227.081L254.616 228.945V228.965H258.217V229.387H254.103Z" fill="black"/>
<path d="M261.587 229.512C260.924 229.512 260.405 229.208 260.03 228.598C259.655 227.989 259.468 227.103 259.468 225.941C259.468 224.659 259.664 223.693 260.055 223.043C260.45 222.39 261.013 222.064 261.743 222.064C263.129 222.064 263.822 223.294 263.822 225.755C263.822 226.981 263.626 227.914 263.235 228.553C262.843 229.193 262.294 229.512 261.587 229.512ZM261.703 222.486C261.15 222.486 260.72 222.769 260.412 223.335C260.104 223.9 259.95 224.749 259.95 225.881C259.95 226.912 260.097 227.706 260.392 228.262C260.686 228.814 261.105 229.091 261.647 229.091C262.18 229.091 262.593 228.809 262.888 228.247C263.186 227.681 263.335 226.874 263.335 225.826C263.335 223.599 262.791 222.486 261.703 222.486Z" fill="black"/>
<path d="M264.711 229.387V228.895L266.675 226.805C267.375 226.059 267.834 225.508 268.051 225.153C268.272 224.798 268.383 224.403 268.383 223.967C268.383 223.499 268.252 223.135 267.991 222.878C267.73 222.616 267.36 222.486 266.881 222.486C266.245 222.486 265.645 222.735 265.083 223.234V222.692C265.632 222.273 266.252 222.064 266.941 222.064C267.557 222.064 268.031 222.23 268.363 222.561C268.698 222.893 268.865 223.336 268.865 223.892C268.865 224.388 268.746 224.836 268.508 225.238C268.271 225.64 267.763 226.254 266.987 227.081L265.224 228.945V228.965H268.825V229.387H264.711Z" fill="black"/>
<path d="M270.457 229.387V228.965H272.105V222.536L270.342 223.164V222.702L272.567 221.928V228.965H274.189V229.387H270.457Z" fill="black"/>
<path d="M313.493 229.387V228.895L315.457 226.805C316.157 226.058 316.615 225.508 316.833 225.153C317.054 224.798 317.165 224.403 317.165 223.967C317.165 223.499 317.034 223.135 316.773 222.877C316.512 222.616 316.142 222.486 315.663 222.486C315.027 222.486 314.427 222.735 313.865 223.234V222.692C314.414 222.273 315.033 222.064 315.723 222.064C316.339 222.064 316.813 222.229 317.145 222.561C317.479 222.892 317.647 223.336 317.647 223.892C317.647 224.388 317.528 224.836 317.29 225.238C317.052 225.64 316.545 226.254 315.768 227.081L314.005 228.945V228.965H317.607V229.387H313.493Z" fill="black"/>
<path d="M320.977 229.512C320.314 229.512 319.795 229.208 319.42 228.598C319.045 227.989 318.857 227.103 318.857 225.941C318.857 224.659 319.053 223.693 319.445 223.043C319.84 222.39 320.403 222.064 321.133 222.064C322.519 222.064 323.212 223.294 323.212 225.755C323.212 226.981 323.016 227.913 322.624 228.553C322.232 229.193 321.683 229.512 320.977 229.512ZM321.092 222.486C320.54 222.486 320.11 222.769 319.802 223.334C319.493 223.9 319.339 224.749 319.339 225.881C319.339 226.912 319.487 227.706 319.781 228.262C320.076 228.814 320.495 229.09 321.037 229.09C321.569 229.09 321.983 228.809 322.278 228.247C322.576 227.681 322.725 226.874 322.725 225.826C322.725 223.599 322.181 222.486 321.092 222.486Z" fill="black"/>
<path d="M324.101 229.387V228.895L326.065 226.805C326.765 226.058 327.223 225.508 327.441 225.153C327.662 224.798 327.772 224.403 327.772 223.967C327.772 223.499 327.642 223.135 327.381 222.877C327.12 222.616 326.75 222.486 326.271 222.486C325.635 222.486 325.035 222.735 324.473 223.234V222.692C325.022 222.273 325.641 222.064 326.331 222.064C326.947 222.064 327.421 222.229 327.752 222.561C328.087 222.892 328.255 223.336 328.255 223.892C328.255 224.388 328.136 224.836 327.898 225.238C327.66 225.64 327.153 226.254 326.376 227.081L324.613 228.945V228.965H328.214V229.387H324.101Z" fill="black"/>
<path d="M329.405 229.387V228.895L331.369 226.805C332.069 226.058 332.527 225.508 332.745 225.153C332.966 224.798 333.076 224.403 333.076 223.967C333.076 223.499 332.946 223.135 332.685 222.877C332.423 222.616 332.053 222.486 331.575 222.486C330.938 222.486 330.339 222.735 329.777 223.234V222.692C330.326 222.273 330.945 222.064 331.635 222.064C332.251 222.064 332.725 222.229 333.056 222.561C333.391 222.892 333.559 223.336 333.559 223.892C333.559 224.388 333.44 224.836 333.202 225.238C332.964 225.64 332.457 226.254 331.68 227.081L329.917 228.945V228.965H333.518V229.387H329.405Z" fill="black"/>
<path d="M364.581 229.387V228.895L366.545 226.805C367.245 226.058 367.703 225.508 367.921 225.153C368.142 224.798 368.252 224.403 368.252 223.967C368.252 223.499 368.122 223.135 367.861 222.877C367.6 222.616 367.23 222.486 366.751 222.486C366.114 222.486 365.515 222.735 364.953 223.234V222.692C365.502 222.273 366.121 222.064 366.811 222.064C367.427 222.064 367.901 222.229 368.232 222.561C368.567 222.892 368.735 223.336 368.735 223.892C368.735 224.388 368.616 224.836 368.378 225.238C368.14 225.64 367.633 226.254 366.856 227.081L365.093 228.945V228.965H368.694V229.387H364.581Z" fill="black"/>
<path d="M372.065 229.512C371.402 229.512 370.883 229.208 370.508 228.598C370.133 227.989 369.945 227.103 369.945 225.941C369.945 224.659 370.141 223.693 370.533 223.043C370.928 222.39 371.49 222.064 372.22 222.064C373.607 222.064 374.3 223.294 374.3 225.755C374.3 226.981 374.104 227.913 373.712 228.553C373.32 229.193 372.771 229.512 372.065 229.512ZM372.18 222.486C371.628 222.486 371.197 222.769 370.889 223.334C370.581 223.9 370.427 224.749 370.427 225.881C370.427 226.912 370.575 227.706 370.869 228.262C371.164 228.814 371.582 229.09 372.125 229.09C372.657 229.09 373.071 228.809 373.366 228.247C373.664 227.681 373.813 226.874 373.813 225.826C373.813 223.599 373.268 222.486 372.18 222.486Z" fill="black"/>
<path d="M375.189 229.387V228.895L377.153 226.805C377.852 226.058 378.311 225.508 378.529 225.153C378.75 224.798 378.86 224.403 378.86 223.967C378.86 223.499 378.73 223.135 378.469 222.877C378.207 222.616 377.837 222.486 377.359 222.486C376.722 222.486 376.123 222.735 375.56 223.234V222.692C376.11 222.273 376.729 222.064 377.419 222.064C378.035 222.064 378.509 222.229 378.84 222.561C379.175 222.892 379.342 223.336 379.342 223.892C379.342 224.388 379.224 224.836 378.986 225.238C378.748 225.64 378.241 226.254 377.464 227.081L375.701 228.945V228.965H379.302V229.387H375.189Z" fill="black"/>
<path d="M380.658 229.131V228.603C381.208 228.928 381.725 229.09 382.21 229.09C382.79 229.09 383.243 228.943 383.572 228.648C383.9 228.35 384.064 227.962 384.064 227.483C384.064 226.951 383.875 226.547 383.496 226.273C383.121 225.998 382.585 225.861 381.889 225.861H381.336V225.439H381.829C382.472 225.439 382.96 225.303 383.295 225.032C383.634 224.758 383.803 224.371 383.803 223.872C383.803 223.44 383.68 223.102 383.436 222.857C383.192 222.61 382.835 222.486 382.366 222.486C381.914 222.486 381.44 222.643 380.945 222.958V222.466C381.487 222.198 381.984 222.064 382.436 222.064C383.006 222.064 383.456 222.218 383.788 222.526C384.122 222.834 384.29 223.242 384.29 223.751C384.29 224.726 383.823 225.345 382.888 225.61V225.63C383.391 225.68 383.793 225.868 384.094 226.192C384.395 226.514 384.546 226.921 384.546 227.413C384.546 228.042 384.328 228.55 383.893 228.935C383.458 229.32 382.894 229.512 382.2 229.512C381.665 229.512 381.151 229.385 380.658 229.131Z" fill="black"/>
<path d="M201.1 229.387V228.895L203.064 226.805C203.764 226.058 204.222 225.508 204.44 225.153C204.661 224.798 204.771 224.403 204.771 223.967C204.771 223.499 204.641 223.135 204.38 222.877C204.118 222.616 203.748 222.486 203.27 222.486C202.633 222.486 202.034 222.735 201.471 223.234V222.692C202.021 222.273 202.64 222.064 203.33 222.064C203.946 222.064 204.42 222.229 204.751 222.561C205.086 222.892 205.254 223.336 205.254 223.892C205.254 224.388 205.135 224.836 204.897 225.238C204.659 225.64 204.152 226.254 203.375 227.081L201.612 228.945V228.965H205.213V229.387H201.1Z" fill="black"/>
<path d="M208.584 229.512C207.921 229.512 207.402 229.208 207.027 228.598C206.652 227.989 206.464 227.103 206.464 225.941C206.464 224.659 206.66 223.693 207.052 223.043C207.447 222.39 208.009 222.064 208.739 222.064C210.126 222.064 210.819 223.294 210.819 225.755C210.819 226.981 210.623 227.913 210.231 228.553C209.839 229.193 209.29 229.512 208.584 229.512ZM208.699 222.486C208.147 222.486 207.716 222.769 207.408 223.334C207.1 223.9 206.946 224.749 206.946 225.881C206.946 226.912 207.094 227.706 207.388 228.262C207.683 228.814 208.101 229.09 208.644 229.09C209.176 229.09 209.59 228.809 209.884 228.247C210.182 227.681 210.331 226.874 210.331 225.826C210.331 223.599 209.787 222.486 208.699 222.486Z" fill="black"/>
<path d="M211.708 229.387V228.895L213.672 226.805C214.371 226.058 214.83 225.508 215.048 225.153C215.269 224.798 215.379 224.403 215.379 223.967C215.379 223.499 215.249 223.135 214.987 222.877C214.726 222.616 214.356 222.486 213.877 222.486C213.241 222.486 212.642 222.735 212.079 223.234V222.692C212.628 222.273 213.248 222.064 213.938 222.064C214.554 222.064 215.028 222.229 215.359 222.561C215.694 222.892 215.861 223.336 215.861 223.892C215.861 224.388 215.743 224.836 215.505 225.238C215.267 225.64 214.76 226.254 213.983 227.081L212.22 228.945V228.965H215.821V229.387H211.708Z" fill="black"/>
<path d="M219.191 229.512C218.528 229.512 218.009 229.208 217.634 228.598C217.259 227.989 217.072 227.103 217.072 225.941C217.072 224.659 217.268 223.693 217.66 223.043C218.055 222.39 218.617 222.064 219.347 222.064C220.733 222.064 221.427 223.294 221.427 225.755C221.427 226.981 221.231 227.913 220.839 228.553C220.447 229.193 219.898 229.512 219.191 229.512ZM219.307 222.486C218.754 222.486 218.324 222.769 218.016 223.334C217.708 223.9 217.554 224.749 217.554 225.881C217.554 226.912 217.701 227.706 217.996 228.262C218.291 228.814 218.709 229.09 219.252 229.09C219.784 229.09 220.198 228.809 220.492 228.247C220.79 227.681 220.939 226.874 220.939 225.826C220.939 223.599 220.395 222.486 219.307 222.486Z" fill="black"/>
<path d="M148.735 229.387V228.895L150.699 226.805C151.398 226.059 151.857 225.508 152.075 225.153C152.296 224.798 152.406 224.403 152.406 223.967C152.406 223.499 152.276 223.135 152.015 222.878C151.753 222.616 151.383 222.486 150.905 222.486C150.268 222.486 149.669 222.735 149.106 223.234V222.692C149.656 222.273 150.275 222.064 150.965 222.064C151.581 222.064 152.055 222.23 152.386 222.561C152.721 222.893 152.889 223.336 152.889 223.892C152.889 224.388 152.77 224.836 152.532 225.238C152.294 225.64 151.787 226.254 151.01 227.081L149.247 228.945V228.965H152.848V229.387H148.735Z" fill="black"/>
<path d="M156.219 229.512C155.556 229.512 155.037 229.208 154.662 228.598C154.287 227.989 154.099 227.103 154.099 225.941C154.099 224.659 154.295 223.693 154.687 223.043C155.082 222.39 155.644 222.064 156.374 222.064C157.761 222.064 158.454 223.294 158.454 225.755C158.454 226.981 158.258 227.914 157.866 228.553C157.474 229.193 156.925 229.512 156.219 229.512ZM156.334 222.486C155.782 222.486 155.351 222.769 155.043 223.335C154.735 223.9 154.581 224.749 154.581 225.881C154.581 226.912 154.729 227.706 155.023 228.262C155.318 228.814 155.736 229.091 156.279 229.091C156.811 229.091 157.225 228.809 157.519 228.247C157.817 227.681 157.966 226.874 157.966 225.826C157.966 223.599 157.422 222.486 156.334 222.486Z" fill="black"/>
<path d="M159.785 229.387V228.965H161.432V222.536L159.669 223.164V222.702L161.894 221.928V228.965H163.516V229.387H159.785Z" fill="black"/>
<path d="M165.129 229.327V228.819C165.514 229 165.867 229.091 166.189 229.091C166.949 229.091 167.528 228.787 167.926 228.181C168.325 227.572 168.524 226.675 168.524 225.489H168.504C168.172 226.263 167.583 226.65 166.736 226.65C166.147 226.65 165.668 226.444 165.3 226.032C164.931 225.617 164.747 225.086 164.747 224.44C164.747 223.73 164.951 223.157 165.36 222.722C165.772 222.283 166.292 222.064 166.922 222.064C167.565 222.064 168.072 222.337 168.444 222.883C168.819 223.425 169.006 224.239 169.006 225.324C169.006 226.67 168.763 227.704 168.278 228.428C167.796 229.151 167.096 229.512 166.178 229.512C165.824 229.512 165.474 229.45 165.129 229.327ZM166.857 222.486C166.384 222.486 165.996 222.662 165.691 223.013C165.387 223.365 165.234 223.808 165.234 224.344C165.234 224.927 165.383 225.387 165.681 225.725C165.979 226.06 166.368 226.228 166.846 226.228C167.288 226.228 167.669 226.067 167.987 225.745C168.305 225.421 168.464 225.034 168.464 224.585C168.464 223.966 168.313 223.462 168.012 223.073C167.714 222.682 167.329 222.486 166.857 222.486Z" fill="black"/>
<path d="M97.0084 229.387V228.895L98.9722 226.805C99.6721 226.059 100.131 225.508 100.348 225.153C100.569 224.798 100.68 224.403 100.68 223.967C100.68 223.499 100.549 223.135 100.288 222.878C100.027 222.616 99.657 222.486 99.1782 222.486C98.542 222.486 97.9426 222.735 97.3801 223.234V222.692C97.9292 222.273 98.5487 222.064 99.2384 222.064C99.8545 222.064 100.328 222.23 100.66 222.561C100.995 222.893 101.162 223.336 101.162 223.892C101.162 224.388 101.043 224.836 100.806 225.238C100.568 225.64 100.06 226.254 99.2836 227.081L97.5207 228.945V228.965H101.122V229.387H97.0084Z" fill="black"/>
<path d="M104.492 229.512C103.829 229.512 103.31 229.208 102.935 228.598C102.56 227.989 102.373 227.103 102.373 225.941C102.373 224.659 102.568 223.693 102.96 223.043C103.355 222.39 103.918 222.064 104.648 222.064C106.034 222.064 106.727 223.294 106.727 225.755C106.727 226.981 106.531 227.914 106.14 228.553C105.748 229.193 105.199 229.512 104.492 229.512ZM104.608 222.486C104.055 222.486 103.625 222.769 103.317 223.335C103.009 223.9 102.855 224.749 102.855 225.881C102.855 226.912 103.002 227.706 103.297 228.262C103.591 228.814 104.01 229.091 104.552 229.091C105.085 229.091 105.498 228.809 105.793 228.247C106.091 227.681 106.24 226.874 106.24 225.826C106.24 223.599 105.696 222.486 104.608 222.486Z" fill="black"/>
<path d="M108.058 229.387V228.965H109.706V222.536L107.943 223.164V222.702L110.168 221.928V228.965H111.79V229.387H108.058Z" fill="black"/>
<path d="M114.668 225.645V225.62C113.757 225.181 113.302 224.579 113.302 223.812C113.302 223.313 113.484 222.898 113.849 222.566C114.218 222.231 114.69 222.064 115.266 222.064C115.791 222.064 116.218 222.216 116.547 222.521C116.878 222.826 117.044 223.217 117.044 223.696C117.044 224.513 116.56 225.148 115.592 225.6V225.62C116.717 226.028 117.28 226.695 117.28 227.619C117.28 228.178 117.084 228.633 116.692 228.985C116.3 229.337 115.743 229.512 115.02 229.512C114.43 229.512 113.955 229.343 113.593 229.005C113.235 228.664 113.056 228.225 113.056 227.689C113.056 226.782 113.593 226.1 114.668 225.645ZM115.15 225.384C116.091 225.012 116.562 224.468 116.562 223.751C116.562 223.353 116.434 223.043 116.18 222.822C115.929 222.598 115.601 222.486 115.195 222.486C114.8 222.486 114.465 222.606 114.191 222.847C113.92 223.088 113.784 223.386 113.784 223.741C113.784 224.458 114.239 225.005 115.15 225.384ZM115.11 225.871C114.551 226.099 114.149 226.35 113.905 226.624C113.66 226.899 113.538 227.247 113.538 227.669C113.538 228.081 113.685 228.421 113.98 228.689C114.275 228.957 114.671 229.091 115.17 229.091C115.679 229.091 116.078 228.957 116.366 228.689C116.654 228.417 116.798 228.081 116.798 227.679C116.798 227.234 116.659 226.871 116.381 226.589C116.106 226.305 115.683 226.065 115.11 225.871Z" fill="black"/>
<path d="M44.6434 229.387V228.895L46.6072 226.805C47.307 226.059 47.7658 225.508 47.9834 225.153C48.2044 224.798 48.3149 224.403 48.3149 223.967C48.3149 223.499 48.1843 223.135 47.9232 222.878C47.662 222.616 47.292 222.486 46.8132 222.486C46.1769 222.486 45.5776 222.735 45.015 223.234V222.692C45.5642 222.273 46.1836 222.064 46.8734 222.064C47.4895 222.064 47.9633 222.23 48.2948 222.561C48.6297 222.893 48.7971 223.336 48.7971 223.892C48.7971 224.388 48.6782 224.836 48.4405 225.238C48.2028 225.64 47.6955 226.254 46.9186 227.081L45.1557 228.945V228.965H48.7569V229.387H44.6434Z" fill="black"/>
<path d="M52.1271 229.512C51.4641 229.512 50.9451 229.208 50.5701 228.598C50.1951 227.989 50.0076 227.103 50.0076 225.941C50.0076 224.659 50.2034 223.693 50.5952 223.043C50.9903 222.39 51.5529 222.064 52.2828 222.064C53.6691 222.064 54.3622 223.294 54.3622 225.755C54.3622 226.981 54.1663 227.914 53.7745 228.553C53.3828 229.193 52.8336 229.512 52.1271 229.512ZM52.2426 222.486C51.6901 222.486 51.2599 222.769 50.9518 223.335C50.6438 223.9 50.4897 224.749 50.4897 225.881C50.4897 226.912 50.6371 227.706 50.9317 228.262C51.2264 228.814 51.6449 229.091 52.1874 229.091C52.7198 229.091 53.1333 228.809 53.428 228.247C53.726 227.681 53.875 226.874 53.875 225.826C53.875 223.599 53.3309 222.486 52.2426 222.486Z" fill="black"/>
<path d="M55.6932 229.387V228.965H57.3406V222.536L55.5777 223.164V222.702L57.8027 221.928V228.965H59.425V229.387H55.6932Z" fill="black"/>
<path d="M62.0469 229.387H61.5446L64.3422 222.606H60.5953V222.184H64.9349V222.31L62.0469 229.387Z" fill="black"/>
</svg>
