<svg version="1.0" xmlns="http://www.w3.org/2000/svg" width="816" height="316" viewBox="0 0 8160 3160"><path d="M1690 2950v-210h90l31-61c75-150 158-400 198-599 16-83 40-255 41-302 0-5 117-8 260-8h260v970h150v420h-130v-290h-770v290h-130v-210zm740-635v-426l-132 3-132 3-13 99c-23 185-116 509-197 689l-26 57h500v-425zm2480 705v-60h400v120h-400v-60zm2620-141c-184-32-336-178-387-370-20-78-23-259-4-344 29-132 111-261 210-329 106-74 288-104 432-72 180 40 314 177 364 371 20 78 20 269 0 354-43 182-160 316-323 370-73 25-212 34-292 20zm282-152c135-66 208-208 208-407 0-250-114-412-308-438-207-29-373 84-428 291-8 29-14 95-14 147 0 161 38 262 132 352 73 69 130 89 253 85 86-2 108-6 157-30zM0 2321v-551h590v120H130v338l158 4c188 6 245 23 316 93 55 56 76 114 76 215 0 108-21 163-89 231-85 85-112 92-373 97l-218 4v-551zm443 395c97-48 129-204 59-287-47-56-90-69-239-69H130v382l138-4c110-2 145-7 175-22zm597 94v-60h130v-273l-175-344c-96-189-175-348-175-354s29-9 76-7l76 3 132 271 132 270 140-270 141-271 71-3c40-2 72 0 72 4 0 3-81 160-180 349l-180 343v282h140v120h-400v-60zm2070 0v-60h120v-142l-1-143-174-345c-96-190-174-346-175-347 0-2 35-3 78-3h78l134 273 135 272 93-180c51-99 114-222 140-272l47-93h145l-30 60c-16 33-98 188-180 346l-150 286v288h130v120h-390v-60zm830-490v-550h140v970h400v-970h130v970h400v-970h140v1100H3940v-550zm1610 0v-550h570v120h-430v360h390v120h-390v370h450v130h-590v-550zm870 0v-550h570v130h-430v970h-140v-550zm700-1120V990h87l51-107c113-241 185-508 217-815l6-58h519v980h150v420h-130v-300h-770v300h-130v-210zm740-635V140h-267l-7 70c-15 167-101 484-182 673-20 45-38 88-41 95-4 9 49 12 246 12h251V565zm-3899 549c-169-45-299-183-346-369-22-87-20-263 5-359 27-105 63-169 140-247C3862 36 3957 0 4126 0c162 0 269 43 370 147 195 204 188 638-15 841-100 102-208 142-371 141-52 0-119-7-149-15zm312-137c102-46 172-133 203-251 18-65 18-256 0-321-31-118-107-214-204-258-38-17-66-22-147-22-88 0-107 3-157 27-110 51-193 167-219 303-15 80-5 226 20 298 43 122 124 205 237 241 72 23 196 15 267-17zM0 560V10h130v512l218-256L565 11h83c48-1 82 3 80 8-1 5-104 123-228 261-124 139-226 255-228 259-1 4 105 129 237 278 131 149 242 276 245 282 5 8-22 11-86 11h-94L355 850 135 589l-3 261-2 260H0V560zm950 5v-65h2310v130H950v-65zm3980 0v-65h2080v130H4930v-65z" fill="#fff"/></svg>