<svg width="431" height="275" viewBox="0 0 431 275" fill="none" xmlns="http://www.w3.org/2000/svg">
<path d="M52.2173 50.7017C51.481 51.0063 50.7129 51.1587 49.9131 51.1587C48.6689 51.1587 47.6533 50.7419 46.8662 49.9082C46.0833 49.0703 45.6919 47.9785 45.6919 46.6328C45.6919 45.1559 46.1172 43.9731 46.9678 43.0845C47.8184 42.1916 48.8996 41.7451 50.2114 41.7451C50.9097 41.7451 51.5783 41.8573 52.2173 42.0815V42.748C51.5783 42.4603 50.9054 42.3164 50.1987 42.3164C49.0562 42.3164 48.1273 42.7036 47.4121 43.478C46.6969 44.2524 46.3394 45.2829 46.3394 46.5693C46.3394 47.8092 46.68 48.7889 47.3613 49.5083C48.0469 50.2235 48.9144 50.5811 49.9639 50.5811C50.8018 50.5811 51.5529 50.4181 52.2173 50.0923V50.7017Z" fill="black"/>
<path d="M57.2441 51.1587C56.2962 51.1587 55.5451 50.8477 54.9907 50.2256C54.4406 49.5993 54.1655 48.7868 54.1655 47.7881C54.1655 46.709 54.4533 45.8647 55.0288 45.2554C55.6085 44.646 56.3703 44.3413 57.3139 44.3413C58.2407 44.3413 58.9728 44.6439 59.5102 45.249C60.0477 45.8542 60.3164 46.6921 60.3164 47.7627C60.3164 48.7741 60.0413 49.5929 59.4912 50.2192C58.9453 50.8455 58.1963 51.1587 57.2441 51.1587ZM57.2886 44.8745C56.5226 44.8745 55.9111 45.1326 55.4541 45.6489C55.0013 46.1652 54.7749 46.8825 54.7749 47.8008C54.7749 48.6514 54.9971 49.3348 55.4414 49.8511C55.8857 50.3674 56.493 50.6255 57.2632 50.6255C58.046 50.6255 58.6491 50.3716 59.0722 49.8638C59.4954 49.356 59.707 48.6514 59.707 47.75C59.707 46.8232 59.4954 46.1123 59.0722 45.6172C58.6533 45.1221 58.0587 44.8745 57.2886 44.8745Z" fill="black"/>
<path d="M66.6635 50.7144C66.1811 51.0106 65.6056 51.1587 64.937 51.1587C64.0525 51.1587 63.3395 50.8561 62.7978 50.251C62.2561 49.6416 61.9853 48.846 61.9853 47.8643C61.9853 46.8317 62.29 45.9875 62.8994 45.3315C63.5088 44.6714 64.2916 44.3413 65.248 44.3413C65.7431 44.3413 66.2234 44.4429 66.6889 44.646V45.3062C66.2234 45.0184 65.7135 44.8745 65.1591 44.8745C64.3974 44.8745 63.7796 45.1496 63.3056 45.6997C62.8317 46.2456 62.5947 46.9544 62.5947 47.8262C62.5947 48.6683 62.8105 49.3454 63.2421 49.8574C63.678 50.3695 64.2514 50.6255 64.9624 50.6255C65.6141 50.6255 66.1811 50.452 66.6635 50.105V50.7144Z" fill="black"/>
<path d="M70.4145 45.0332V51H69.8305V45.0332H67.8818V44.5H72.3632V45.0332H70.4145Z" fill="black"/>
<path d="M77.955 51V49.6987H77.9296C77.7223 50.1431 77.4197 50.4985 77.0219 50.7651C76.6283 51.0275 76.1904 51.1587 75.7079 51.1587C75.0901 51.1587 74.6013 50.9852 74.2416 50.6382C73.8819 50.2912 73.7021 49.8532 73.7021 49.3242C73.7021 48.1901 74.4532 47.5046 75.9555 47.2676L77.955 46.9692C77.955 45.5728 77.4303 44.8745 76.3808 44.8745C75.6656 44.8745 74.9695 45.1623 74.2924 45.7378V45.0332C74.5336 44.8428 74.8595 44.6799 75.2699 44.5444C75.6847 44.409 76.074 44.3413 76.4379 44.3413C77.1065 44.3413 77.6228 44.5487 77.9867 44.9634C78.3549 45.3781 78.539 45.9811 78.539 46.7725V51H77.955ZM76.165 47.7627C75.4836 47.86 75.0055 48.0187 74.7304 48.2388C74.4553 48.4546 74.3178 48.8079 74.3178 49.2988C74.3178 49.6839 74.4447 50.0013 74.6987 50.251C74.9568 50.5007 75.3144 50.6255 75.7714 50.6255C76.3977 50.6255 76.9182 50.3949 77.3329 49.9336C77.7476 49.4681 77.955 48.8693 77.955 48.1372V47.5024L76.165 47.7627Z" fill="black"/>
<path d="M85.6161 49.1401C85.6161 49.4152 85.5674 49.667 85.4701 49.8955C85.377 50.1198 85.2437 50.3145 85.0702 50.4795C84.8967 50.6445 84.6894 50.7736 84.4481 50.8667C84.2112 50.9556 83.9509 51 83.6674 51H81.0141V44.5H83.4833C83.8091 44.5 84.0884 44.5402 84.3212 44.6206C84.5582 44.701 84.7528 44.811 84.9052 44.9507C85.0575 45.0903 85.1697 45.2554 85.2416 45.4458C85.3178 45.6362 85.3559 45.8415 85.3559 46.0615C85.3559 46.2604 85.3262 46.4466 85.267 46.6201C85.212 46.7894 85.1316 46.9438 85.0258 47.0835C84.9242 47.2189 84.7973 47.3332 84.6449 47.4263C84.4968 47.5194 84.3297 47.585 84.1435 47.623C84.3847 47.6484 84.5963 47.7056 84.7782 47.7944C84.9644 47.8791 85.1189 47.9891 85.2416 48.1245C85.3643 48.2557 85.4574 48.408 85.5209 48.5815C85.5844 48.755 85.6161 48.9412 85.6161 49.1401ZM84.7465 46.1504C84.7465 46.0023 84.7232 45.8605 84.6767 45.7251C84.6343 45.5897 84.5603 45.4712 84.4545 45.3696C84.3487 45.2681 84.2112 45.1877 84.0419 45.1284C83.8726 45.0649 83.661 45.0332 83.4071 45.0332H81.598V47.3882H83.2484C83.5362 47.3882 83.7753 47.3543 83.9657 47.2866C84.1604 47.2147 84.3148 47.1216 84.4291 47.0073C84.5434 46.8888 84.6238 46.7555 84.6703 46.6074C84.7211 46.4593 84.7465 46.307 84.7465 46.1504ZM85.0067 49.1909C85.0067 49.0174 84.9771 48.8545 84.9179 48.7021C84.8629 48.5456 84.7698 48.4102 84.6386 48.2959C84.5116 48.1816 84.3402 48.0907 84.1244 48.0229C83.9128 47.9552 83.6505 47.9214 83.3373 47.9214H81.598V50.4668H83.5468C83.788 50.4668 83.9996 50.4372 84.1815 50.3779C84.3635 50.3145 84.5159 50.2277 84.6386 50.1177C84.7613 50.0034 84.8523 49.868 84.9115 49.7114C84.975 49.5549 85.0067 49.3813 85.0067 49.1909Z" fill="black"/>
<path d="M94.451 42.4751V51H93.829V42.4751H91.201V41.8975H97.079V42.4751H94.451Z" fill="black"/>
<path d="M104.397 48.3721C104.397 48.7318 104.338 49.0703 104.22 49.3877C104.101 49.7051 103.925 49.9844 103.693 50.2256C103.464 50.4626 103.179 50.6509 102.836 50.7905C102.497 50.9302 102.108 51 101.668 51H99.1541V41.8975H103.731V42.4751H99.7826V45.9409H101.846C102.205 45.9409 102.54 45.9875 102.848 46.0806C103.162 46.1694 103.432 46.3112 103.661 46.5059C103.889 46.7005 104.069 46.9523 104.201 47.2612C104.332 47.5659 104.397 47.9362 104.397 48.3721ZM103.743 48.4229C103.743 48.0801 103.695 47.7881 103.597 47.5469C103.5 47.3057 103.356 47.1089 103.166 46.9565C102.975 46.8042 102.741 46.6921 102.461 46.6201C102.182 46.5482 101.86 46.5122 101.496 46.5122H99.7826V50.4287H101.535C101.924 50.4287 102.258 50.3779 102.537 50.2764C102.817 50.1748 103.045 50.0352 103.223 49.8574C103.401 49.6797 103.532 49.4681 103.617 49.2227C103.701 48.9772 103.743 48.7106 103.743 48.4229Z" fill="black"/>
<path d="M110.16 51.1587C108.874 51.1587 107.848 50.7313 107.082 49.8765C106.32 49.0216 105.939 47.9108 105.939 46.5439C105.939 45.0924 106.331 43.9308 107.114 43.0591C107.901 42.1831 108.973 41.7451 110.332 41.7451C111.559 41.7451 112.551 42.1662 113.309 43.0083C114.071 43.8462 114.451 44.9465 114.451 46.3091C114.451 47.8156 114.062 49.0005 113.284 49.8638C112.505 50.7271 111.464 51.1587 110.16 51.1587ZM110.224 42.3164C109.166 42.3164 108.294 42.6994 107.609 43.4653C106.927 44.2313 106.587 45.2342 106.587 46.4741C106.587 47.7267 106.91 48.7254 107.558 49.4702C108.205 50.2108 109.069 50.5811 110.148 50.5811C111.273 50.5811 112.164 50.215 112.82 49.4829C113.476 48.7466 113.804 47.7225 113.804 46.4106C113.804 45.1242 113.482 44.1213 112.839 43.4019C112.2 42.6782 111.328 42.3164 110.224 42.3164Z" fill="black"/>
<path d="M46.625 60.0332V66H46.041V59.5H49.2148V60.0332H46.625Z" fill="black"/>
<path d="M53.2197 66.1587C52.2718 66.1587 51.5207 65.8477 50.9663 65.2256C50.4162 64.5993 50.1411 63.7868 50.1411 62.7881C50.1411 61.709 50.4289 60.8647 51.0044 60.2554C51.5841 59.646 52.3458 59.3413 53.2895 59.3413C54.2163 59.3413 54.9484 59.6439 55.4858 60.249C56.0233 60.8542 56.292 61.6921 56.292 62.7627C56.292 63.7741 56.0169 64.5929 55.4668 65.2192C54.9209 65.8455 54.1719 66.1587 53.2197 66.1587ZM53.2641 59.8745C52.4982 59.8745 51.8867 60.1327 51.4297 60.6489C50.9769 61.1652 50.7505 61.8825 50.7505 62.8008C50.7505 63.6514 50.9726 64.3348 51.417 64.8511C51.8613 65.3673 52.4686 65.6255 53.2388 65.6255C54.0216 65.6255 54.6247 65.3716 55.0478 64.8638C55.471 64.356 55.6826 63.6514 55.6826 62.75C55.6826 61.8232 55.471 61.1123 55.0478 60.6172C54.6289 60.1221 54.0343 59.8745 53.2641 59.8745Z" fill="black"/>
<path d="M59.04 64.8447H59.0146V68.9897H58.4306V59.5H59.0146V60.8394H59.04C59.2727 60.3612 59.6049 59.993 60.0366 59.7349C60.4725 59.4725 60.9506 59.3413 61.4712 59.3413C62.2963 59.3413 62.9396 59.627 63.4008 60.1982C63.8663 60.7653 64.0991 61.5376 64.0991 62.5151C64.0991 63.6027 63.8325 64.4829 63.2993 65.1558C62.7703 65.8244 62.0699 66.1587 61.1982 66.1587C60.2249 66.1587 59.5055 65.7207 59.04 64.8447ZM59.0146 62.4263V63.2451C59.0146 63.8968 59.2199 64.4575 59.6303 64.9272C60.0408 65.3927 60.5804 65.6255 61.249 65.6255C61.9134 65.6255 62.4529 65.342 62.8676 64.7749C63.2824 64.2036 63.4897 63.4546 63.4897 62.5278C63.4897 61.7153 63.2993 61.07 62.9184 60.5918C62.5376 60.1136 62.0297 59.8745 61.395 59.8745C60.6375 59.8745 60.0514 60.1284 59.6367 60.6362C59.222 61.144 59.0146 61.7407 59.0146 62.4263Z" fill="black"/>
<path d="M68.8466 66.1587C67.8987 66.1587 67.1476 65.8477 66.5932 65.2256C66.0431 64.5993 65.768 63.7868 65.768 62.7881C65.768 61.709 66.0558 60.8647 66.6313 60.2554C67.211 59.646 67.9728 59.3413 68.9164 59.3413C69.8432 59.3413 70.5753 59.6439 71.1127 60.249C71.6502 60.8542 71.9189 61.6921 71.9189 62.7627C71.9189 63.7741 71.6438 64.5929 71.0937 65.2192C70.5478 65.8455 69.7988 66.1587 68.8466 66.1587ZM68.8911 59.8745C68.1251 59.8745 67.5136 60.1327 67.0566 60.6489C66.6038 61.1652 66.3774 61.8825 66.3774 62.8008C66.3774 63.6514 66.5996 64.3348 67.0439 64.8511C67.4882 65.3673 68.0955 65.6255 68.8657 65.6255C69.6485 65.6255 70.2516 65.3716 70.6747 64.8638C71.0979 64.356 71.3095 63.6514 71.3095 62.75C71.3095 61.8232 71.0979 61.1123 70.6747 60.6172C70.2558 60.1221 69.6612 59.8745 68.8911 59.8745Z" fill="black"/>
<path d="M78.7675 67.7139V66H73.5815V67.7139H73.0483V65.4668H73.6196C73.9031 65.0563 74.1528 64.6141 74.3686 64.1401C74.5886 63.6662 74.7727 63.1732 74.9208 62.6611C75.0689 62.1491 75.1832 61.6265 75.2636 61.0933C75.344 60.5601 75.3905 60.029 75.4032 59.5H78.2978V65.4668H79.3007V67.7139H78.7675ZM77.7138 60.0332H75.9364C75.9026 60.486 75.8455 60.9473 75.7651 61.417C75.6847 61.8867 75.5746 62.3543 75.435 62.8198C75.2996 63.2853 75.1345 63.7423 74.9399 64.1909C74.7494 64.6353 74.5273 65.0605 74.2734 65.4668H77.7138V60.0332Z" fill="black"/>
<path d="M83.7626 66.1587C82.8147 66.1587 82.0635 65.8477 81.5092 65.2256C80.959 64.5993 80.684 63.7868 80.684 62.7881C80.684 61.709 80.9717 60.8647 81.5473 60.2554C82.127 59.646 82.8887 59.3413 83.8324 59.3413C84.7592 59.3413 85.4913 59.6439 86.0287 60.249C86.5661 60.8542 86.8349 61.6921 86.8349 62.7627C86.8349 63.7741 86.5598 64.5929 86.0097 65.2192C85.4638 65.8455 84.7147 66.1587 83.7626 66.1587ZM83.807 59.8745C83.0411 59.8745 82.4296 60.1327 81.9726 60.6489C81.5198 61.1652 81.2934 61.8825 81.2934 62.8008C81.2934 63.6514 81.5155 64.3348 81.9599 64.8511C82.4042 65.3673 83.0115 65.6255 83.7816 65.6255C84.5645 65.6255 85.1675 65.3716 85.5907 64.8638C86.0139 64.356 86.2255 63.6514 86.2255 62.75C86.2255 61.8232 86.0139 61.1123 85.5907 60.6172C85.1718 60.1221 84.5772 59.8745 83.807 59.8745Z" fill="black"/>
<path d="M93.5756 64.1401C93.5756 64.4152 93.5269 64.667 93.4296 64.8955C93.3365 65.1198 93.2032 65.3145 93.0297 65.4795C92.8562 65.6445 92.6488 65.7736 92.4076 65.8667C92.1706 65.9556 91.9104 66 91.6268 66H88.9735V59.5H91.4428C91.7686 59.5 92.0479 59.5402 92.2806 59.6206C92.5176 59.701 92.7123 59.811 92.8646 59.9507C93.017 60.0903 93.1291 60.2554 93.2011 60.4458C93.2772 60.6362 93.3153 60.8415 93.3153 61.0615C93.3153 61.2604 93.2857 61.4466 93.2264 61.6201C93.1714 61.7894 93.091 61.9438 92.9852 62.0835C92.8837 62.2189 92.7567 62.3332 92.6044 62.4263C92.4563 62.5194 92.2891 62.585 92.1029 62.623C92.3441 62.6484 92.5557 62.7056 92.7377 62.7944C92.9239 62.8791 93.0783 62.9891 93.2011 63.1245C93.3238 63.2557 93.4169 63.408 93.4804 63.5815C93.5438 63.755 93.5756 63.9412 93.5756 64.1401ZM92.7059 61.1504C92.7059 61.0023 92.6827 60.8605 92.6361 60.7251C92.5938 60.5897 92.5197 60.4712 92.4139 60.3696C92.3082 60.2681 92.1706 60.1877 92.0013 60.1284C91.8321 60.0649 91.6205 60.0332 91.3666 60.0332H89.5575V62.3882H91.2079C91.4957 62.3882 91.7347 62.3543 91.9252 62.2866C92.1198 62.2147 92.2743 62.1216 92.3886 62.0073C92.5028 61.8888 92.5832 61.7555 92.6298 61.6074C92.6805 61.4593 92.7059 61.307 92.7059 61.1504ZM92.9662 64.1909C92.9662 64.0174 92.9366 63.8545 92.8773 63.7021C92.8223 63.5456 92.7292 63.4102 92.598 63.2959C92.4711 63.1816 92.2997 63.0907 92.0839 63.0229C91.8723 62.9552 91.6099 62.9214 91.2968 62.9214H89.5575V65.4668H91.5062C91.7474 65.4668 91.959 65.4372 92.141 65.3779C92.323 65.3145 92.4753 65.2277 92.598 65.1177C92.7207 65.0034 92.8117 64.868 92.871 64.7114C92.9345 64.5548 92.9662 64.3813 92.9662 64.1909Z" fill="black"/>
<path d="M100.57 62.3501V66H99.9412V56.8975H102.138C103.073 56.8975 103.788 57.1154 104.283 57.5513C104.778 57.9829 105.026 58.6156 105.026 59.4492C105.026 60.2956 104.749 60.9917 104.194 61.5376C103.644 62.0793 102.872 62.3501 101.877 62.3501H100.57ZM100.57 57.4751V61.7725H101.865C102.686 61.7725 103.31 61.5778 103.737 61.1885C104.165 60.7949 104.378 60.2406 104.378 59.5254C104.378 58.1585 103.593 57.4751 102.023 57.4751H100.57Z" fill="black"/>
<path d="M114.775 61.2012C114.775 61.6836 114.695 62.1406 114.534 62.5723C114.373 63.0039 114.147 63.3805 113.855 63.7021C113.563 64.0238 113.209 64.2798 112.795 64.4702C112.384 64.6564 111.927 64.7495 111.424 64.7495H111.163V66.127H110.541V64.7495H110.281C109.777 64.7495 109.318 64.6585 108.904 64.4766C108.493 64.2904 108.14 64.0365 107.844 63.7148C107.552 63.3932 107.325 63.0166 107.164 62.585C107.004 62.1533 106.923 61.6921 106.923 61.2012C106.923 60.7357 107.001 60.2977 107.158 59.8872C107.319 59.4725 107.545 59.1107 107.837 58.8018C108.129 58.4928 108.483 58.2495 108.897 58.0718C109.312 57.8898 109.777 57.7988 110.294 57.7988H110.541V56.6372H111.163V57.7988H111.411C111.923 57.7988 112.386 57.8877 112.801 58.0654C113.216 58.2389 113.569 58.478 113.861 58.7827C114.153 59.0874 114.377 59.4471 114.534 59.8618C114.695 60.2765 114.775 60.723 114.775 61.2012ZM114.115 61.2139C114.115 60.7865 114.047 60.3971 113.912 60.0459C113.781 59.6947 113.595 59.3963 113.353 59.1509C113.116 58.9012 112.833 58.7087 112.503 58.5732C112.173 58.4378 111.809 58.3701 111.411 58.3701H111.163V64.1782H111.424C111.813 64.1782 112.173 64.1084 112.503 63.9688C112.833 63.8291 113.116 63.6302 113.353 63.3721C113.595 63.1139 113.781 62.8029 113.912 62.439C114.047 62.0708 114.115 61.6624 114.115 61.2139ZM110.541 58.3701H110.294C109.9 58.3701 109.538 58.4399 109.208 58.5796C108.878 58.7192 108.593 58.9139 108.351 59.1636C108.11 59.4132 107.922 59.7137 107.786 60.0649C107.655 60.4119 107.59 60.7949 107.59 61.2139C107.59 61.6709 107.655 62.0814 107.786 62.4453C107.922 62.8092 108.108 63.1203 108.345 63.3784C108.586 63.6366 108.872 63.8354 109.202 63.9751C109.532 64.1105 109.892 64.1782 110.281 64.1782H110.541V58.3701Z" fill="black"/>
<path d="M125.495 66V62.896H121.661V66H121.077V59.5H121.661V62.3628H125.495V59.5H126.079V66H125.495Z" fill="black"/>
<path d="M132.566 66V64.6987H132.541C132.333 65.1431 132.031 65.4985 131.633 65.7651C131.24 66.0275 130.802 66.1587 130.319 66.1587C129.701 66.1587 129.212 65.9852 128.853 65.6382C128.493 65.2912 128.313 64.8532 128.313 64.3242C128.313 63.1901 129.064 62.5046 130.567 62.2676L132.566 61.9692C132.566 60.5728 132.041 59.8745 130.992 59.8745C130.277 59.8745 129.581 60.1623 128.904 60.7378V60.0332C129.145 59.8428 129.471 59.6798 129.881 59.5444C130.296 59.409 130.685 59.3413 131.049 59.3413C131.718 59.3413 132.234 59.5487 132.598 59.9634C132.966 60.3781 133.15 60.9811 133.15 61.7725V66H132.566ZM130.776 62.7627C130.095 62.86 129.617 63.0187 129.342 63.2388C129.066 63.4546 128.929 63.8079 128.929 64.2988C128.929 64.6839 129.056 65.0013 129.31 65.251C129.568 65.5007 129.926 65.6255 130.383 65.6255C131.009 65.6255 131.529 65.3949 131.944 64.9336C132.359 64.4681 132.566 63.8693 132.566 63.1372V62.5024L130.776 62.7627Z" fill="black"/>
<path d="M139.192 66V65.3779L141.674 62.7373C142.558 61.7936 143.138 61.0975 143.413 60.6489C143.693 60.2004 143.832 59.701 143.832 59.1509C143.832 58.5584 143.667 58.0993 143.337 57.7734C143.007 57.4434 142.539 57.2783 141.934 57.2783C141.13 57.2783 140.373 57.5936 139.662 58.2241V57.5386C140.356 57.0096 141.139 56.7451 142.01 56.7451C142.789 56.7451 143.388 56.9546 143.807 57.3735C144.23 57.7925 144.442 58.3532 144.442 59.0557C144.442 59.682 144.291 60.249 143.991 60.7568C143.69 61.2646 143.049 62.0412 142.068 63.0864L139.84 65.4414V65.4668H144.391V66H139.192Z" fill="black"/>
<path d="M149.17 66.1587C148.332 66.1587 147.676 65.7736 147.202 65.0034C146.728 64.2332 146.491 63.1139 146.491 61.6455C146.491 60.0247 146.739 58.8039 147.234 57.9829C147.733 57.1577 148.444 56.7451 149.367 56.7451C151.119 56.7451 151.995 58.3003 151.995 61.4106C151.995 62.9595 151.747 64.138 151.252 64.9463C150.757 65.7546 150.063 66.1587 149.17 66.1587ZM149.316 57.2783C148.618 57.2783 148.074 57.6359 147.685 58.3511C147.295 59.0662 147.101 60.139 147.101 61.5693C147.101 62.8727 147.287 63.8757 147.659 64.5781C148.032 65.2764 148.561 65.6255 149.246 65.6255C149.919 65.6255 150.442 65.27 150.814 64.5591C151.191 63.8439 151.379 62.8241 151.379 61.4995C151.379 58.6854 150.691 57.2783 149.316 57.2783Z" fill="black"/>
<path d="M154.197 66V65.4668H156.279V57.3418L154.051 58.1353V57.5513L156.863 56.5737V65.4668H158.913V66H154.197Z" fill="black"/>
<path d="M161.471 65.9238V65.2827C161.958 65.5112 162.404 65.6255 162.81 65.6255C163.771 65.6255 164.503 65.2425 165.007 64.4766C165.51 63.7064 165.762 62.5723 165.762 61.0742H165.736C165.318 62.0518 164.573 62.5405 163.502 62.5405C162.757 62.5405 162.152 62.2803 161.687 61.7598C161.221 61.235 160.988 60.5643 160.988 59.7476C160.988 58.8504 161.247 58.1268 161.763 57.5767C162.283 57.0223 162.941 56.7451 163.737 56.7451C164.549 56.7451 165.191 57.09 165.66 57.7798C166.134 58.4653 166.371 59.4937 166.371 60.8647C166.371 62.5659 166.064 63.8735 165.451 64.7876C164.841 65.7017 163.957 66.1587 162.798 66.1587C162.349 66.1587 161.907 66.0804 161.471 65.9238ZM163.654 57.2783C163.058 57.2783 162.567 57.5005 162.182 57.9448C161.797 58.3892 161.604 58.9499 161.604 59.627C161.604 60.3633 161.792 60.9452 162.169 61.3726C162.546 61.7957 163.037 62.0073 163.642 62.0073C164.2 62.0073 164.681 61.8042 165.083 61.3979C165.485 60.9875 165.686 60.4987 165.686 59.9316C165.686 59.1488 165.495 58.5119 165.114 58.021C164.738 57.5259 164.251 57.2783 163.654 57.2783Z" fill="black"/>
<path d="M173.276 60.0332V66H172.692V59.5H175.866V60.0332H173.276Z" fill="black"/>
<path d="M179.871 66.1587C178.923 66.1587 178.172 65.8477 177.618 65.2256C177.068 64.5993 176.793 63.7868 176.793 62.7881C176.793 61.709 177.08 60.8647 177.656 60.2554C178.236 59.646 178.997 59.3413 179.941 59.3413C180.868 59.3413 181.6 59.6439 182.137 60.249C182.675 60.8542 182.943 61.6921 182.943 62.7627C182.943 63.7741 182.668 64.5929 182.118 65.2192C181.572 65.8455 180.823 66.1587 179.871 66.1587ZM179.916 59.8745C179.15 59.8745 178.538 60.1327 178.081 60.6489C177.628 61.1652 177.402 61.8825 177.402 62.8008C177.402 63.6514 177.624 64.3348 178.068 64.8511C178.513 65.3673 179.12 65.6255 179.89 65.6255C180.673 65.6255 181.276 65.3716 181.699 64.8638C182.122 64.356 182.334 63.6514 182.334 62.75C182.334 61.8232 182.122 61.1123 181.699 60.6172C181.28 60.1221 180.686 59.8745 179.916 59.8745Z" fill="black"/>
<path d="M189.792 67.7139V66H184.606V67.7139H184.073V65.4668H184.644C184.928 65.0563 185.177 64.6141 185.393 64.1401C185.613 63.6662 185.797 63.1732 185.945 62.6611C186.094 62.1491 186.208 61.6265 186.288 61.0933C186.369 60.5601 186.415 60.029 186.428 59.5H189.322V65.4668H190.325V67.7139H189.792ZM188.738 60.0332H186.961C186.927 60.486 186.87 60.9473 186.79 61.417C186.709 61.8867 186.599 62.3543 186.46 62.8198C186.324 63.2853 186.159 63.7423 185.964 64.1909C185.774 64.6353 185.552 65.0605 185.298 65.4668H188.738V60.0332Z" fill="black"/>
<path d="M302.459 47V41.0332H298.625V47H298.041V40.5H303.043V47H302.459Z" fill="black"/>
<path d="M309.619 47V41.5664C309.585 41.613 309.551 41.6595 309.518 41.7061C309.488 41.7526 309.463 41.7886 309.441 41.814L305.538 47H305.125V40.5H305.709V45.8828C305.734 45.8363 305.76 45.7918 305.785 45.7495C305.811 45.7072 305.838 45.6691 305.868 45.6353L309.74 40.5H310.209V47H309.619Z" fill="black"/>
<path d="M320.436 49.3677V47H312.285V40.5H312.869V46.4668H315.833V40.5H316.417V46.4668H319.382V40.5H319.966V46.4668H320.969V49.3677H320.436Z" fill="black"/>
<path d="M322.441 43.7754C322.441 44.6683 322.647 45.3665 323.057 45.8701C323.472 46.3737 324.039 46.6255 324.758 46.6255C325.486 46.6255 326.197 46.3568 326.891 45.8193V46.4414C326.218 46.9196 325.467 47.1587 324.638 47.1587C323.8 47.1587 323.123 46.8582 322.606 46.2573C322.09 45.6564 321.832 44.8079 321.832 43.7119C321.832 42.764 322.101 41.9663 322.638 41.3188C323.18 40.6672 323.882 40.3413 324.746 40.3413C325.554 40.3413 326.174 40.6248 326.605 41.1919C327.037 41.759 327.253 42.5334 327.253 43.5151V43.7754H322.441ZM326.644 43.2422C326.618 42.4932 326.438 41.9113 326.104 41.4966C325.77 41.0819 325.308 40.8745 324.72 40.8745C324.111 40.8745 323.605 41.0798 323.203 41.4902C322.805 41.8965 322.56 42.4805 322.467 43.2422H326.644Z" fill="black"/>
<path d="M333.467 45.1401C333.467 45.4152 333.419 45.667 333.321 45.8955C333.228 46.1198 333.095 46.3145 332.921 46.4795C332.748 46.6445 332.541 46.7736 332.299 46.8667C332.062 46.9556 331.802 47 331.519 47H328.865V40.5H331.334C331.66 40.5 331.94 40.5402 332.172 40.6206C332.409 40.701 332.604 40.811 332.756 40.9507C332.909 41.0903 333.021 41.2554 333.093 41.4458C333.169 41.6362 333.207 41.8415 333.207 42.0615C333.207 42.2604 333.177 42.4466 333.118 42.6201C333.063 42.7894 332.983 42.9438 332.877 43.0835C332.775 43.2189 332.648 43.3332 332.496 43.4263C332.348 43.5194 332.181 43.585 331.995 43.623C332.236 43.6484 332.447 43.7056 332.629 43.7944C332.816 43.8791 332.97 43.9891 333.093 44.1245C333.215 44.2557 333.309 44.408 333.372 44.5815C333.436 44.755 333.467 44.9412 333.467 45.1401ZM332.598 42.1504C332.598 42.0023 332.574 41.8605 332.528 41.7251C332.486 41.5897 332.411 41.4712 332.306 41.3696C332.2 41.2681 332.062 41.1877 331.893 41.1284C331.724 41.0649 331.512 41.0332 331.258 41.0332H329.449V43.3882H331.1C331.387 43.3882 331.626 43.3543 331.817 43.2866C332.012 43.2147 332.166 43.1216 332.28 43.0073C332.395 42.8888 332.475 42.7555 332.521 42.6074C332.572 42.4593 332.598 42.307 332.598 42.1504ZM332.858 45.1909C332.858 45.0174 332.828 44.8545 332.769 44.7021C332.714 44.5456 332.621 44.4102 332.49 44.2959C332.363 44.1816 332.191 44.0907 331.976 44.0229C331.764 43.9552 331.502 43.9214 331.188 43.9214H329.449V46.4668H331.398C331.639 46.4668 331.851 46.4372 332.033 46.3779C332.215 46.3145 332.367 46.2277 332.49 46.1177C332.612 46.0034 332.703 45.868 332.763 45.7114C332.826 45.5549 332.858 45.3813 332.858 45.1909Z" fill="black"/>
<path d="M340.977 47V40.5H341.561V47H340.977ZM339.555 45.0513C339.555 45.3813 339.498 45.6691 339.383 45.9146C339.269 46.16 339.119 46.3631 338.933 46.5239C338.751 46.6847 338.541 46.8053 338.304 46.8857C338.071 46.9619 337.834 47 337.593 47H335.099V40.5H335.683V43.166H337.542C337.851 43.166 338.131 43.2083 338.38 43.293C338.63 43.3776 338.842 43.5024 339.015 43.6675C339.189 43.8283 339.322 44.0251 339.415 44.2578C339.508 44.4906 339.555 44.755 339.555 45.0513ZM338.945 45.0513C338.945 44.8608 338.914 44.6831 338.85 44.5181C338.791 44.353 338.698 44.2113 338.571 44.0928C338.444 43.9701 338.285 43.8748 338.095 43.8071C337.904 43.7352 337.68 43.6992 337.422 43.6992H335.683V46.4668H337.435C337.71 46.4668 337.942 46.4308 338.133 46.3589C338.323 46.2827 338.478 46.1812 338.596 46.0542C338.719 45.923 338.808 45.7728 338.863 45.6035C338.918 45.43 338.945 45.2459 338.945 45.0513Z" fill="black"/>
<path d="M343.782 43.7754C343.782 44.6683 343.987 45.3665 344.398 45.8701C344.813 46.3737 345.38 46.6255 346.099 46.6255C346.827 46.6255 347.538 46.3568 348.232 45.8193V46.4414C347.559 46.9196 346.808 47.1587 345.979 47.1587C345.141 47.1587 344.464 46.8582 343.947 46.2573C343.431 45.6564 343.173 44.8079 343.173 43.7119C343.173 42.764 343.442 41.9663 343.979 41.3188C344.521 40.6672 345.223 40.3413 346.086 40.3413C346.895 40.3413 347.515 40.6248 347.946 41.1919C348.378 41.759 348.594 42.5334 348.594 43.5151V43.7754H343.782ZM347.984 43.2422C347.959 42.4932 347.779 41.9113 347.445 41.4966C347.111 41.0819 346.649 40.8745 346.061 40.8745C345.452 40.8745 344.946 41.0798 344.544 41.4902C344.146 41.8965 343.901 42.4805 343.808 43.2422H347.984Z" fill="black"/>
<path d="M356.382 47.1587C355.434 47.1587 354.683 46.8477 354.129 46.2256C353.579 45.5993 353.304 44.7868 353.304 43.7881C353.304 42.709 353.591 41.8647 354.167 41.2554C354.747 40.646 355.508 40.3413 356.452 40.3413C357.379 40.3413 358.111 40.6439 358.648 41.249C359.186 41.8542 359.455 42.6921 359.455 43.7627C359.455 44.7741 359.18 45.5929 358.629 46.2192C358.083 46.8455 357.334 47.1587 356.382 47.1587ZM356.427 40.8745C355.661 40.8745 355.049 41.1326 354.592 41.6489C354.139 42.1652 353.913 42.8825 353.913 43.8008C353.913 44.6514 354.135 45.3348 354.58 45.8511C355.024 46.3674 355.631 46.6255 356.401 46.6255C357.184 46.6255 357.787 46.3716 358.21 45.8638C358.634 45.356 358.845 44.6514 358.845 43.75C358.845 42.8232 358.634 42.1123 358.21 41.6172C357.792 41.1221 357.197 40.8745 356.427 40.8745Z" fill="black"/>
<path d="M362.381 41.0332V47H361.797V41.0332H359.848V40.5H364.33V41.0332H362.381Z" fill="black"/>
<path d="M367.529 43.8135L369.649 47H368.906L367.192 44.2578H367.167L366.938 44.6196C366.909 44.6704 366.873 44.7275 366.831 44.791L365.396 47H364.685L366.856 43.8262L364.723 40.5H365.409L366.856 42.8296C367.042 43.13 367.154 43.3162 367.192 43.3882H367.218L367.542 42.855L369.052 40.5H369.738L367.529 43.8135Z" fill="black"/>
<path d="M373.419 47.1587C372.472 47.1587 371.72 46.8477 371.166 46.2256C370.616 45.5993 370.341 44.7868 370.341 43.7881C370.341 42.709 370.629 41.8647 371.204 41.2554C371.784 40.646 372.546 40.3413 373.489 40.3413C374.416 40.3413 375.148 40.6439 375.686 41.249C376.223 41.8542 376.492 42.6921 376.492 43.7627C376.492 44.7741 376.217 45.5929 375.667 46.2192C375.121 46.8455 374.372 47.1587 373.419 47.1587ZM373.464 40.8745C372.698 40.8745 372.086 41.1326 371.629 41.6489C371.177 42.1652 370.95 42.8825 370.95 43.8008C370.95 44.6514 371.172 45.3348 371.617 45.8511C372.061 46.3674 372.668 46.6255 373.438 46.6255C374.221 46.6255 374.824 46.3716 375.248 45.8638C375.671 45.356 375.882 44.6514 375.882 43.75C375.882 42.8232 375.671 42.1123 375.248 41.6172C374.829 41.1221 374.234 40.8745 373.464 40.8745Z" fill="black"/>
<path d="M382.82 48.7139V47H377.634V48.7139H377.101V46.4668H377.672C377.956 46.0563 378.206 45.6141 378.421 45.1401C378.641 44.6662 378.826 44.1732 378.974 43.6611C379.122 43.1491 379.236 42.6265 379.316 42.0933C379.397 41.5601 379.443 41.029 379.456 40.5H382.351V46.4668H383.354V48.7139H382.82ZM381.767 41.0332H379.989C379.955 41.486 379.898 41.9473 379.818 42.417C379.737 42.8867 379.627 43.3543 379.488 43.8198C379.352 44.2853 379.187 44.7424 378.993 45.1909C378.802 45.6353 378.58 46.0605 378.326 46.4668H381.767V41.0332Z" fill="black"/>
<path d="M390.564 47V40.5H391.148V47H390.564ZM389.143 45.0513C389.143 45.3813 389.085 45.6691 388.971 45.9146C388.857 46.16 388.707 46.3631 388.521 46.5239C388.339 46.6847 388.129 46.8053 387.892 46.8857C387.659 46.9619 387.422 47 387.181 47H384.687V40.5H385.271V43.166H387.13C387.439 43.166 387.719 43.2083 387.968 43.293C388.218 43.3776 388.43 43.5024 388.603 43.6675C388.777 43.8283 388.91 44.0251 389.003 44.2578C389.096 44.4906 389.143 44.755 389.143 45.0513ZM388.533 45.0513C388.533 44.8608 388.501 44.6831 388.438 44.5181C388.379 44.353 388.286 44.2113 388.159 44.0928C388.032 43.9701 387.873 43.8748 387.683 43.8071C387.492 43.7352 387.268 43.6992 387.01 43.6992H385.271V46.4668H387.022C387.298 46.4668 387.53 46.4308 387.721 46.3589C387.911 46.2827 388.066 46.1812 388.184 46.0542C388.307 45.923 388.396 45.7728 388.451 45.6035C388.506 45.43 388.533 45.2459 388.533 45.0513Z" fill="black"/>
<path d="M303.576 61.896C303.576 62.1457 303.553 62.3996 303.506 62.6577C303.464 62.9159 303.394 63.1676 303.297 63.4131C303.2 63.6543 303.075 63.8807 302.922 64.0923C302.774 64.3039 302.594 64.4901 302.383 64.6509C302.175 64.8075 301.934 64.9302 301.659 65.019C301.388 65.1121 301.084 65.1587 300.745 65.1587C300.271 65.1587 299.852 65.0677 299.488 64.8857C299.129 64.6995 298.826 64.4351 298.581 64.0923C298.339 63.7453 298.155 63.3221 298.028 62.8228C297.906 62.3234 297.844 61.7585 297.844 61.1279C297.844 60.3916 297.889 59.7505 297.978 59.2046C298.066 58.6545 298.191 58.1868 298.352 57.8018C298.517 57.4124 298.712 57.0951 298.936 56.8496C299.16 56.6042 299.408 56.4137 299.679 56.2783C299.848 56.1937 300.032 56.1217 300.231 56.0625C300.434 55.999 300.639 55.944 300.847 55.8975C301.058 55.8467 301.266 55.8044 301.469 55.7705C301.676 55.7324 301.869 55.6986 302.046 55.6689C302.194 55.6393 302.353 55.5991 302.522 55.5483C302.692 55.4976 302.836 55.432 302.954 55.3516V55.9673C302.861 56.0265 302.736 56.0837 302.58 56.1387C302.427 56.1895 302.254 56.2318 302.059 56.2656C301.873 56.2952 301.676 56.3291 301.469 56.3672C301.266 56.401 301.065 56.4412 300.866 56.4878C300.671 56.5301 300.483 56.5809 300.301 56.6401C300.123 56.6952 299.966 56.7607 299.831 56.8369C299.459 57.057 299.158 57.4294 298.93 57.9541C298.701 58.4746 298.562 59.1686 298.511 60.0361H298.536C298.629 59.8542 298.752 59.6807 298.904 59.5156C299.061 59.3464 299.239 59.1982 299.438 59.0713C299.641 58.9443 299.863 58.8449 300.104 58.7729C300.349 58.6968 300.61 58.6587 300.885 58.6587C301.354 58.6587 301.759 58.7454 302.097 58.9189C302.436 59.0882 302.713 59.321 302.929 59.6172C303.149 59.9134 303.312 60.2583 303.417 60.6519C303.523 61.0412 303.576 61.4559 303.576 61.896ZM302.929 61.9722C302.929 61.549 302.884 61.1681 302.795 60.8296C302.707 60.491 302.571 60.2033 302.389 59.9663C302.211 59.7251 301.987 59.541 301.716 59.4141C301.445 59.2829 301.13 59.2173 300.771 59.2173C300.517 59.2173 300.275 59.2596 300.047 59.3442C299.823 59.4246 299.613 59.5347 299.418 59.6743C299.224 59.814 299.05 59.9769 298.898 60.1631C298.746 60.3493 298.617 60.5482 298.511 60.7598C298.511 60.8317 298.509 60.9312 298.504 61.0581C298.5 61.1808 298.498 61.3035 298.498 61.4263C298.498 61.8494 298.54 62.2536 298.625 62.6387C298.714 63.0238 298.849 63.3644 299.031 63.6606C299.217 63.9526 299.454 64.1875 299.742 64.3652C300.03 64.5387 300.377 64.6255 300.783 64.6255C301.139 64.6255 301.45 64.5557 301.716 64.416C301.987 64.2721 302.211 64.0796 302.389 63.8384C302.571 63.5929 302.707 63.3094 302.795 62.9878C302.884 62.6662 302.929 62.3276 302.929 61.9722Z" fill="black"/>
<path d="M306.775 66.3267C306.538 66.9106 306.276 67.3444 305.988 67.6279C305.701 67.9115 305.33 68.0532 304.877 68.0532C304.687 68.0532 304.518 68.0236 304.37 67.9644V67.3804C304.522 67.4396 304.7 67.4692 304.903 67.4692C305.423 67.4692 305.834 67.1095 306.134 66.3901L306.737 64.9492L304.274 58.5H304.928L306.89 63.7939C306.932 63.9082 306.962 63.995 306.979 64.0542C306.995 64.1346 307.014 64.2065 307.036 64.27H307.061L307.213 63.832L309.308 58.5H309.943L306.775 66.3267Z" fill="black"/>
<path d="M316.684 65V59.3823L316.513 59.8394C316.466 59.9663 316.415 60.0975 316.36 60.2329C316.31 60.3683 316.265 60.4847 316.227 60.582L314.469 65H313.993L312.095 60.582C312.052 60.4932 312.006 60.381 311.955 60.2456C311.904 60.1102 311.856 59.979 311.809 59.8521C311.754 59.7039 311.697 59.5474 311.638 59.3823V65H311.079V58.5H311.777L313.758 63.0005C313.804 63.1021 313.853 63.2227 313.904 63.3623C313.959 63.4977 314.01 63.6289 314.056 63.7559C314.111 63.904 314.166 64.0542 314.221 64.2065C314.28 64.0584 314.34 63.9124 314.399 63.7686C314.445 63.6458 314.496 63.5168 314.551 63.3813C314.606 63.2459 314.653 63.1274 314.691 63.0259L316.538 58.5H317.255V65H316.684Z" fill="black"/>
<path d="M323.216 65V63.6987H323.19C322.983 64.1431 322.681 64.4985 322.283 64.7651C321.889 65.0275 321.451 65.1587 320.969 65.1587C320.351 65.1587 319.862 64.9852 319.502 64.6382C319.143 64.2912 318.963 63.8532 318.963 63.3242C318.963 62.1901 319.714 61.5046 321.216 61.2676L323.216 60.9692C323.216 59.5728 322.691 58.8745 321.642 58.8745C320.926 58.8745 320.23 59.1623 319.553 59.7378V59.0332C319.794 58.8428 320.12 58.6798 320.531 58.5444C320.945 58.409 321.335 58.3413 321.699 58.3413C322.367 58.3413 322.884 58.5487 323.248 58.9634C323.616 59.3781 323.8 59.9811 323.8 60.7725V65H323.216ZM321.426 61.7627C320.744 61.86 320.266 62.0187 319.991 62.2388C319.716 62.4546 319.579 62.8079 319.579 63.2988C319.579 63.6839 319.706 64.0013 319.959 64.251C320.218 64.5007 320.575 64.6255 321.032 64.6255C321.659 64.6255 322.179 64.3949 322.594 63.9336C323.008 63.4681 323.216 62.8693 323.216 62.1372V61.5024L321.426 61.7627Z" fill="black"/>
<path d="M326.339 59.0332V65H325.755V58.5H328.929V59.0332H326.339Z" fill="black"/>
<path d="M333.461 65V63.6987H333.436C333.228 64.1431 332.926 64.4985 332.528 64.7651C332.134 65.0275 331.696 65.1587 331.214 65.1587C330.596 65.1587 330.107 64.9852 329.748 64.6382C329.388 64.2912 329.208 63.8532 329.208 63.3242C329.208 62.1901 329.959 61.5046 331.461 61.2676L333.461 60.9692C333.461 59.5728 332.936 58.8745 331.887 58.8745C331.172 58.8745 330.475 59.1623 329.798 59.7378V59.0332C330.04 58.8428 330.365 58.6798 330.776 58.5444C331.191 58.409 331.58 58.3413 331.944 58.3413C332.612 58.3413 333.129 58.5487 333.493 58.9634C333.861 59.3781 334.045 59.9811 334.045 60.7725V65H333.461ZM331.671 61.7627C330.99 61.86 330.511 62.0187 330.236 62.2388C329.961 62.4546 329.824 62.8079 329.824 63.2988C329.824 63.6839 329.951 64.0013 330.205 64.251C330.463 64.5007 330.82 64.6255 331.277 64.6255C331.904 64.6255 332.424 64.3949 332.839 63.9336C333.254 63.4681 333.461 62.8693 333.461 62.1372V61.5024L331.671 61.7627Z" fill="black"/>
<path d="M344.062 65V59.5664C344.028 59.613 343.994 59.6595 343.96 59.7061C343.93 59.7526 343.905 59.7886 343.884 59.814L339.98 65H339.567V58.5H340.151V63.8828C340.177 63.8363 340.202 63.7918 340.228 63.7495C340.253 63.7072 340.28 63.6691 340.31 63.6353L344.182 58.5H344.652V65H344.062Z" fill="black"/>
<path d="M353.958 65L350.904 61.8135H350.879V65H350.295V58.5H350.879V61.604H350.904L353.919 58.5H354.675L351.526 61.6738L354.776 65H353.958Z" fill="black"/>
<path d="M359.842 65V63.6987H359.816C359.609 64.1431 359.306 64.4985 358.909 64.7651C358.515 65.0275 358.077 65.1587 357.595 65.1587C356.977 65.1587 356.488 64.9852 356.128 64.6382C355.769 64.2912 355.589 63.8532 355.589 63.3242C355.589 62.1901 356.34 61.5046 357.842 61.2676L359.842 60.9692C359.842 59.5728 359.317 58.8745 358.268 58.8745C357.552 58.8745 356.856 59.1623 356.179 59.7378V59.0332C356.42 58.8428 356.746 58.6798 357.157 58.5444C357.571 58.409 357.961 58.3413 358.325 58.3413C358.993 58.3413 359.51 58.5487 359.874 58.9634C360.242 59.3781 360.426 59.9811 360.426 60.7725V65H359.842ZM358.052 61.7627C357.37 61.86 356.892 62.0187 356.617 62.2388C356.342 62.4546 356.205 62.8079 356.205 63.2988C356.205 63.6839 356.332 64.0013 356.585 64.251C356.844 64.5007 357.201 64.6255 357.658 64.6255C358.285 64.6255 358.805 64.3949 359.22 63.9336C359.634 63.4681 359.842 62.8693 359.842 62.1372V61.5024L358.052 61.7627Z" fill="black"/>
<path d="M362.99 63.8447H362.965V67.9897H362.381V58.5H362.965V59.8394H362.99C363.223 59.3612 363.555 58.993 363.987 58.7349C364.423 58.4725 364.901 58.3413 365.421 58.3413C366.247 58.3413 366.89 58.627 367.351 59.1982C367.817 59.7653 368.049 60.5376 368.049 61.5151C368.049 62.6027 367.783 63.4829 367.25 64.1558C366.721 64.8244 366.02 65.1587 365.148 65.1587C364.175 65.1587 363.456 64.7207 362.99 63.8447ZM362.965 61.4263V62.2451C362.965 62.8968 363.17 63.4575 363.581 63.9272C363.991 64.3927 364.531 64.6255 365.199 64.6255C365.864 64.6255 366.403 64.342 366.818 63.7749C367.233 63.2036 367.44 62.4546 367.44 61.5278C367.44 60.7153 367.25 60.07 366.869 59.5918C366.488 59.1136 365.98 58.8745 365.345 58.8745C364.588 58.8745 364.002 59.1284 363.587 59.6362C363.172 60.144 362.965 60.7407 362.965 61.4263Z" fill="black"/>
<path d="M370.976 59.0332V65H370.392V59.0332H368.443V58.5H372.924V59.0332H370.976Z" fill="black"/>
<path d="M376.365 65.1587C375.417 65.1587 374.666 64.8477 374.111 64.2256C373.561 63.5993 373.286 62.7868 373.286 61.7881C373.286 60.709 373.574 59.8647 374.149 59.2554C374.729 58.646 375.491 58.3413 376.435 58.3413C377.361 58.3413 378.093 58.6439 378.631 59.249C379.168 59.8542 379.437 60.6921 379.437 61.7627C379.437 62.7741 379.162 63.5929 378.612 64.2192C378.066 64.8455 377.317 65.1587 376.365 65.1587ZM376.409 58.8745C375.643 58.8745 375.032 59.1327 374.575 59.6489C374.122 60.1652 373.896 60.8825 373.896 61.8008C373.896 62.6514 374.118 63.3348 374.562 63.8511C375.006 64.3673 375.614 64.6255 376.384 64.6255C377.167 64.6255 377.77 64.3716 378.193 63.8638C378.616 63.356 378.828 62.6514 378.828 61.75C378.828 60.8232 378.616 60.1123 378.193 59.6172C377.774 59.1221 377.179 58.8745 376.409 58.8745Z" fill="black"/>
<path d="M385.474 65V61.896H381.64V65H381.056V58.5H381.64V61.3628H385.474V58.5H386.058V65H385.474Z" fill="black"/>
<path d="M302.25 82.7144C301.767 83.0106 301.192 83.1587 300.523 83.1587C299.639 83.1587 298.925 82.8561 298.384 82.251C297.842 81.6416 297.571 80.846 297.571 79.8643C297.571 78.8317 297.876 77.9875 298.485 77.3315C299.095 76.6714 299.878 76.3413 300.834 76.3413C301.329 76.3413 301.809 76.4429 302.275 76.646V77.3062C301.809 77.0184 301.299 76.8745 300.745 76.8745C299.983 76.8745 299.366 77.1496 298.892 77.6997C298.418 78.2456 298.181 78.9544 298.181 79.8262C298.181 80.6683 298.396 81.3454 298.828 81.8574C299.264 82.3695 299.837 82.6255 300.548 82.6255C301.2 82.6255 301.767 82.452 302.25 82.105V82.7144Z" fill="black"/>
<path d="M305.48 77.0332V83H304.896V77.0332H302.948V76.5H307.429V77.0332H305.48Z" fill="black"/>
<path d="M308.4 79.7754C308.4 80.6683 308.606 81.3665 309.016 81.8701C309.431 82.3737 309.998 82.6255 310.717 82.6255C311.445 82.6255 312.156 82.3568 312.85 81.8193V82.4414C312.177 82.9196 311.426 83.1587 310.597 83.1587C309.759 83.1587 309.082 82.8582 308.565 82.2573C308.049 81.6564 307.791 80.8079 307.791 79.7119C307.791 78.764 308.06 77.9663 308.597 77.3188C309.139 76.6672 309.841 76.3413 310.705 76.3413C311.513 76.3413 312.133 76.6248 312.564 77.1919C312.996 77.759 313.212 78.5334 313.212 79.5151V79.7754H308.4ZM312.603 79.2422C312.577 78.4932 312.397 77.9113 312.063 77.4966C311.729 77.0819 311.267 76.8745 310.679 76.8745C310.07 76.8745 309.564 77.0798 309.162 77.4902C308.764 77.8965 308.519 78.4805 308.426 79.2422H312.603Z" fill="black"/>
<path d="M318.487 83L315.434 79.8135H315.408V83H314.824V76.5H315.408V79.604H315.434L318.449 76.5H319.204L316.056 79.6738L319.306 83H318.487Z" fill="black"/>
<path d="M324.727 83V77.0332H322.829C322.757 77.998 322.661 78.8571 322.543 79.6104C322.429 80.3594 322.276 80.992 322.086 81.5083C321.9 82.0246 321.669 82.4181 321.394 82.689C321.119 82.9556 320.787 83.0889 320.397 83.0889C320.334 83.0889 320.268 83.0825 320.201 83.0698C320.137 83.0614 320.082 83.0508 320.036 83.0381V82.5176C320.069 82.5303 320.125 82.543 320.201 82.5557C320.277 82.5641 320.338 82.5684 320.385 82.5684C320.668 82.5684 320.916 82.4372 321.127 82.1748C321.339 81.9082 321.521 81.5189 321.673 81.0068C321.826 80.4906 321.953 79.8558 322.054 79.1025C322.16 78.3451 322.245 77.4775 322.308 76.5H325.311V83H324.727Z" fill="black"/>
<path d="M330.001 83.1587C329.054 83.1587 328.302 82.8477 327.748 82.2256C327.198 81.5993 326.923 80.7868 326.923 79.7881C326.923 78.709 327.211 77.8647 327.786 77.2554C328.366 76.646 329.128 76.3413 330.071 76.3413C330.998 76.3413 331.73 76.6439 332.268 77.249C332.805 77.8542 333.074 78.6921 333.074 79.7627C333.074 80.7741 332.799 81.5929 332.249 82.2192C331.703 82.8455 330.954 83.1587 330.001 83.1587ZM330.046 76.8745C329.28 76.8745 328.668 77.1326 328.211 77.6489C327.759 78.1652 327.532 78.8825 327.532 79.8008C327.532 80.6514 327.754 81.3348 328.199 81.8511C328.643 82.3674 329.25 82.6255 330.021 82.6255C330.803 82.6255 331.406 82.3716 331.83 81.8638C332.253 81.356 332.464 80.6514 332.464 79.75C332.464 78.8232 332.253 78.1123 331.83 77.6172C331.411 77.1221 330.816 76.8745 330.046 76.8745Z" fill="black"/>
<path d="M299.704 95.0332V101H299.12V95.0332H297.171V94.5H301.653V95.0332H299.704Z" fill="black"/>
<path d="M302.624 97.7754C302.624 98.6683 302.829 99.3665 303.24 99.8701C303.654 100.374 304.222 100.625 304.941 100.625C305.669 100.625 306.38 100.357 307.074 99.8193V100.441C306.401 100.92 305.65 101.159 304.82 101.159C303.982 101.159 303.305 100.858 302.789 100.257C302.273 99.6564 302.015 98.8079 302.015 97.7119C302.015 96.764 302.283 95.9663 302.821 95.3188C303.362 94.6672 304.065 94.3413 304.928 94.3413C305.736 94.3413 306.356 94.6248 306.788 95.1919C307.22 95.759 307.436 96.5334 307.436 97.5151V97.7754H302.624ZM306.826 97.2422C306.801 96.4932 306.621 95.9113 306.287 95.4966C305.952 95.0819 305.491 94.8745 304.903 94.8745C304.293 94.8745 303.788 95.0798 303.386 95.4902C302.988 95.8965 302.743 96.4805 302.649 97.2422H306.826Z" fill="black"/>
<path d="M312.71 101L309.657 97.8135H309.632V101H309.048V94.5H309.632V97.604H309.657L312.672 94.5H313.428L310.279 97.6738L313.529 101H312.71Z" fill="black"/>
<path d="M318.525 100.714C318.042 101.011 317.467 101.159 316.798 101.159C315.914 101.159 315.201 100.856 314.659 100.251C314.118 99.6416 313.847 98.846 313.847 97.8643C313.847 96.8317 314.151 95.9875 314.761 95.3315C315.37 94.6714 316.153 94.3413 317.109 94.3413C317.604 94.3413 318.085 94.4429 318.55 94.646V95.3062C318.085 95.0184 317.575 94.8745 317.021 94.8745C316.259 94.8745 315.641 95.1496 315.167 95.6997C314.693 96.2456 314.456 96.9544 314.456 97.8262C314.456 98.6683 314.672 99.3454 315.104 99.8574C315.539 100.369 316.113 100.625 316.824 100.625C317.475 100.625 318.042 100.452 318.525 100.105V100.714Z" fill="black"/>
<path d="M321.756 95.0332V101H321.172V95.0332H319.223V94.5H323.705V95.0332H321.756Z" fill="black"/>
<path d="M329.386 101V95.5664C329.352 95.613 329.318 95.6595 329.284 95.7061C329.255 95.7526 329.229 95.7886 329.208 95.814L325.304 101H324.892V94.5H325.476V99.8828C325.501 99.8363 325.526 99.7918 325.552 99.7495C325.577 99.7072 325.605 99.6691 325.634 99.6353L329.506 94.5H329.976V101H329.386Z" fill="black"/>
<path d="M335.898 101V95.0332H334C333.929 95.998 333.833 96.8571 333.715 97.6104C333.601 98.3594 333.448 98.992 333.258 99.5083C333.072 100.025 332.841 100.418 332.566 100.689C332.291 100.956 331.959 101.089 331.569 101.089C331.506 101.089 331.44 101.083 331.373 101.07C331.309 101.061 331.254 101.051 331.208 101.038V100.518C331.241 100.53 331.296 100.543 331.373 100.556C331.449 100.564 331.51 100.568 331.557 100.568C331.84 100.568 332.088 100.437 332.299 100.175C332.511 99.9082 332.693 99.5189 332.845 99.0068C332.998 98.4906 333.125 97.8558 333.226 97.1025C333.332 96.3451 333.417 95.4775 333.48 94.5H336.482V101H335.898Z" fill="black"/>
<path d="M343.021 99.0513C343.021 99.3813 342.963 99.6691 342.849 99.9146C342.735 100.16 342.585 100.363 342.398 100.524C342.216 100.685 342.007 100.805 341.77 100.886C341.537 100.962 341.3 101 341.059 101H338.564V94.5H339.148V97.166H341.008C341.317 97.166 341.597 97.2083 341.846 97.293C342.096 97.3776 342.307 97.5024 342.481 97.6675C342.654 97.8283 342.788 98.0251 342.881 98.2578C342.974 98.4906 343.021 98.755 343.021 99.0513ZM342.411 99.0513C342.411 98.8608 342.379 98.6831 342.316 98.5181C342.257 98.353 342.164 98.2113 342.037 98.0928C341.91 97.9701 341.751 97.8748 341.561 97.8071C341.37 97.7352 341.146 97.6992 340.888 97.6992H339.148V100.467H340.9C341.175 100.467 341.408 100.431 341.599 100.359C341.789 100.283 341.944 100.181 342.062 100.054C342.185 99.923 342.274 99.7728 342.329 99.6035C342.384 99.43 342.411 99.2459 342.411 99.0513Z" fill="black"/>
<path d="M302.459 119V113.033H298.625V119H298.041V112.5H303.043V119H302.459Z" fill="black"/>
<path d="M308.972 119V113.033H307.074C307.002 113.998 306.907 114.857 306.788 115.61C306.674 116.359 306.521 116.992 306.331 117.508C306.145 118.025 305.914 118.418 305.639 118.689C305.364 118.956 305.032 119.089 304.643 119.089C304.579 119.089 304.514 119.083 304.446 119.07C304.382 119.061 304.327 119.051 304.281 119.038V118.518C304.315 118.53 304.37 118.543 304.446 118.556C304.522 118.564 304.583 118.568 304.63 118.568C304.913 118.568 305.161 118.437 305.373 118.175C305.584 117.908 305.766 117.519 305.918 117.007C306.071 116.491 306.198 115.856 306.299 115.103C306.405 114.345 306.49 113.478 306.553 112.5H309.556V119H308.972Z" fill="black"/>
<path d="M315.522 119V117.699H315.497C315.29 118.143 314.987 118.499 314.589 118.765C314.196 119.028 313.758 119.159 313.275 119.159C312.658 119.159 312.169 118.985 311.809 118.638C311.449 118.291 311.27 117.853 311.27 117.324C311.27 116.19 312.021 115.505 313.523 115.268L315.522 114.969C315.522 113.573 314.998 112.875 313.948 112.875C313.233 112.875 312.537 113.162 311.86 113.738V113.033C312.101 112.843 312.427 112.68 312.837 112.544C313.252 112.409 313.641 112.341 314.005 112.341C314.674 112.341 315.19 112.549 315.554 112.963C315.922 113.378 316.106 113.981 316.106 114.772V119H315.522ZM313.732 115.763C313.051 115.86 312.573 116.019 312.298 116.239C312.023 116.455 311.885 116.808 311.885 117.299C311.885 117.684 312.012 118.001 312.266 118.251C312.524 118.501 312.882 118.625 313.339 118.625C313.965 118.625 314.486 118.395 314.9 117.934C315.315 117.468 315.522 116.869 315.522 116.137V115.502L313.732 115.763Z" fill="black"/>
<path d="M322.27 118.714C321.788 119.011 321.212 119.159 320.543 119.159C319.659 119.159 318.946 118.856 318.404 118.251C317.863 117.642 317.592 116.846 317.592 115.864C317.592 114.832 317.896 113.987 318.506 113.332C319.115 112.671 319.898 112.341 320.854 112.341C321.35 112.341 321.83 112.443 322.295 112.646V113.306C321.83 113.018 321.32 112.875 320.766 112.875C320.004 112.875 319.386 113.15 318.912 113.7C318.438 114.246 318.201 114.954 318.201 115.826C318.201 116.668 318.417 117.345 318.849 117.857C319.285 118.369 319.858 118.625 320.569 118.625C321.221 118.625 321.788 118.452 322.27 118.105V118.714Z" fill="black"/>
<path d="M325.501 113.033V119H324.917V113.033H322.968V112.5H327.45V113.033H325.501Z" fill="black"/>
<path d="M334.242 119V113.382L334.07 113.839C334.024 113.966 333.973 114.097 333.918 114.233C333.867 114.368 333.823 114.485 333.785 114.582L332.026 119H331.55L329.652 114.582C329.61 114.493 329.563 114.381 329.513 114.246C329.462 114.11 329.413 113.979 329.367 113.852C329.312 113.704 329.255 113.547 329.195 113.382V119H328.637V112.5H329.335L331.315 117C331.362 117.102 331.411 117.223 331.461 117.362C331.516 117.498 331.567 117.629 331.614 117.756C331.669 117.904 331.724 118.054 331.779 118.207C331.838 118.058 331.897 117.912 331.957 117.769C332.003 117.646 332.054 117.517 332.109 117.381C332.164 117.246 332.21 117.127 332.249 117.026L334.096 112.5H334.813V119H334.242Z" fill="black"/>
<path d="M340.773 119V117.699H340.748C340.541 118.143 340.238 118.499 339.84 118.765C339.447 119.028 339.009 119.159 338.526 119.159C337.909 119.159 337.42 118.985 337.06 118.638C336.7 118.291 336.521 117.853 336.521 117.324C336.521 116.19 337.272 115.505 338.774 115.268L340.773 114.969C340.773 113.573 340.249 112.875 339.199 112.875C338.484 112.875 337.788 113.162 337.111 113.738V113.033C337.352 112.843 337.678 112.68 338.088 112.544C338.503 112.409 338.892 112.341 339.256 112.341C339.925 112.341 340.441 112.549 340.805 112.963C341.173 113.378 341.357 113.981 341.357 114.772V119H340.773ZM338.983 115.763C338.302 115.86 337.824 116.019 337.549 116.239C337.274 116.455 337.136 116.808 337.136 117.299C337.136 117.684 337.263 118.001 337.517 118.251C337.775 118.501 338.133 118.625 338.59 118.625C339.216 118.625 339.737 118.395 340.151 117.934C340.566 117.468 340.773 116.869 340.773 116.137V115.502L338.983 115.763Z" fill="black"/>
<path d="M347.521 118.714C347.039 119.011 346.463 119.159 345.794 119.159C344.91 119.159 344.197 118.856 343.655 118.251C343.114 117.642 342.843 116.846 342.843 115.864C342.843 114.832 343.147 113.987 343.757 113.332C344.366 112.671 345.149 112.341 346.105 112.341C346.601 112.341 347.081 112.443 347.546 112.646V113.306C347.081 113.018 346.571 112.875 346.017 112.875C345.255 112.875 344.637 113.15 344.163 113.7C343.689 114.246 343.452 114.954 343.452 115.826C343.452 116.668 343.668 117.345 344.1 117.857C344.535 118.369 345.109 118.625 345.82 118.625C346.472 118.625 347.039 118.452 347.521 118.105V118.714Z" fill="black"/>
<path d="M353.297 118.714C352.815 119.011 352.239 119.159 351.571 119.159C350.686 119.159 349.973 118.856 349.432 118.251C348.89 117.642 348.619 116.846 348.619 115.864C348.619 114.832 348.924 113.987 349.533 113.332C350.143 112.671 350.925 112.341 351.882 112.341C352.377 112.341 352.857 112.443 353.323 112.646V113.306C352.857 113.018 352.347 112.875 351.793 112.875C351.031 112.875 350.413 113.15 349.939 113.7C349.465 114.246 349.229 114.954 349.229 115.826C349.229 116.668 349.444 117.345 349.876 117.857C350.312 118.369 350.885 118.625 351.596 118.625C352.248 118.625 352.815 118.452 353.297 118.105V118.714Z" fill="black"/>
<path d="M358.75 119V117.699H358.725C358.517 118.143 358.215 118.499 357.817 118.765C357.423 119.028 356.985 119.159 356.503 119.159C355.885 119.159 355.396 118.985 355.037 118.638C354.677 118.291 354.497 117.853 354.497 117.324C354.497 116.19 355.248 115.505 356.75 115.268L358.75 114.969C358.75 113.573 358.225 112.875 357.176 112.875C356.461 112.875 355.764 113.162 355.087 113.738V113.033C355.329 112.843 355.654 112.68 356.065 112.544C356.48 112.409 356.869 112.341 357.233 112.341C357.902 112.341 358.418 112.549 358.782 112.963C359.15 113.378 359.334 113.981 359.334 114.772V119H358.75ZM356.96 115.763C356.279 115.86 355.8 116.019 355.525 116.239C355.25 116.455 355.113 116.808 355.113 117.299C355.113 117.684 355.24 118.001 355.494 118.251C355.752 118.501 356.109 118.625 356.566 118.625C357.193 118.625 357.713 118.395 358.128 117.934C358.543 117.468 358.75 116.869 358.75 116.137V115.502L356.96 115.763Z" fill="black"/>
<path d="M301.704 137L298.65 133.813H298.625V137H298.041V130.5H298.625V133.604H298.65L301.666 130.5H302.421L299.272 133.674L302.522 137H301.704Z" fill="black"/>
<path d="M305.918 137.159C304.971 137.159 304.219 136.848 303.665 136.226C303.115 135.599 302.84 134.787 302.84 133.788C302.84 132.709 303.128 131.865 303.703 131.255C304.283 130.646 305.045 130.341 305.988 130.341C306.915 130.341 307.647 130.644 308.185 131.249C308.722 131.854 308.991 132.692 308.991 133.763C308.991 134.774 308.716 135.593 308.166 136.219C307.62 136.846 306.871 137.159 305.918 137.159ZM305.963 130.875C305.197 130.875 304.585 131.133 304.128 131.649C303.676 132.165 303.449 132.882 303.449 133.801C303.449 134.651 303.671 135.335 304.116 135.851C304.56 136.367 305.167 136.625 305.938 136.625C306.72 136.625 307.323 136.372 307.747 135.864C308.17 135.356 308.381 134.651 308.381 133.75C308.381 132.823 308.17 132.112 307.747 131.617C307.328 131.122 306.733 130.875 305.963 130.875Z" fill="black"/>
<path d="M316.868 137L313.815 133.813H313.79V137H313.206V133.813H313.18L310.127 137H309.302L312.552 133.674L309.41 130.5H310.165L313.18 133.604H313.206V130.5H313.79V133.604H313.815L316.83 130.5H317.585L314.437 133.674L317.687 137H316.868Z" fill="black"/>
<path d="M322.746 137V135.699H322.721C322.513 136.143 322.211 136.499 321.813 136.765C321.419 137.028 320.981 137.159 320.499 137.159C319.881 137.159 319.392 136.985 319.033 136.638C318.673 136.291 318.493 135.853 318.493 135.324C318.493 134.19 319.244 133.505 320.747 133.268L322.746 132.969C322.746 131.573 322.221 130.875 321.172 130.875C320.457 130.875 319.761 131.162 319.083 131.738V131.033C319.325 130.843 319.651 130.68 320.061 130.544C320.476 130.409 320.865 130.341 321.229 130.341C321.898 130.341 322.414 130.549 322.778 130.963C323.146 131.378 323.33 131.981 323.33 132.772V137H322.746ZM320.956 133.763C320.275 133.86 319.797 134.019 319.521 134.239C319.246 134.455 319.109 134.808 319.109 135.299C319.109 135.684 319.236 136.001 319.49 136.251C319.748 136.501 320.105 136.625 320.562 136.625C321.189 136.625 321.709 136.395 322.124 135.934C322.539 135.468 322.746 134.869 322.746 134.137V133.502L320.956 133.763Z" fill="black"/>
<path d="M333.347 137V131.566C333.313 131.613 333.279 131.66 333.245 131.706C333.215 131.753 333.19 131.789 333.169 131.814L329.265 137H328.853V130.5H329.437V135.883C329.462 135.836 329.487 135.792 329.513 135.75C329.538 135.707 329.566 135.669 329.595 135.635L333.467 130.5H333.937V137H333.347Z" fill="black"/>
<path d="M340.189 135.845H340.164V139.99H339.58V130.5H340.164V131.839H340.189C340.422 131.361 340.754 130.993 341.186 130.735C341.622 130.472 342.1 130.341 342.621 130.341C343.446 130.341 344.089 130.627 344.55 131.198C345.016 131.765 345.249 132.538 345.249 133.515C345.249 134.603 344.982 135.483 344.449 136.156C343.92 136.824 343.219 137.159 342.348 137.159C341.374 137.159 340.655 136.721 340.189 135.845ZM340.164 133.426V134.245C340.164 134.897 340.369 135.458 340.78 135.927C341.19 136.393 341.73 136.625 342.398 136.625C343.063 136.625 343.602 136.342 344.017 135.775C344.432 135.204 344.639 134.455 344.639 133.528C344.639 132.715 344.449 132.07 344.068 131.592C343.687 131.114 343.179 130.875 342.544 130.875C341.787 130.875 341.201 131.128 340.786 131.636C340.371 132.144 340.164 132.741 340.164 133.426Z" fill="black"/>
<path d="M347.007 133.775C347.007 134.668 347.212 135.367 347.623 135.87C348.037 136.374 348.604 136.625 349.324 136.625C350.052 136.625 350.763 136.357 351.457 135.819V136.441C350.784 136.92 350.033 137.159 349.203 137.159C348.365 137.159 347.688 136.858 347.172 136.257C346.656 135.656 346.397 134.808 346.397 133.712C346.397 132.764 346.666 131.966 347.204 131.319C347.745 130.667 348.448 130.341 349.311 130.341C350.119 130.341 350.739 130.625 351.171 131.192C351.603 131.759 351.818 132.533 351.818 133.515V133.775H347.007ZM351.209 133.242C351.184 132.493 351.004 131.911 350.669 131.497C350.335 131.082 349.874 130.875 349.286 130.875C348.676 130.875 348.171 131.08 347.769 131.49C347.371 131.896 347.125 132.48 347.032 133.242H351.209Z" fill="black"/>
<path d="M357.747 135.191C357.747 135.441 357.698 135.684 357.601 135.921C357.508 136.158 357.354 136.369 357.138 136.556C356.922 136.738 356.636 136.884 356.281 136.994C355.93 137.104 355.496 137.159 354.979 137.159C354.806 137.159 354.624 137.148 354.434 137.127C354.243 137.106 354.055 137.076 353.869 137.038C353.687 137 353.513 136.956 353.348 136.905C353.187 136.85 353.05 136.791 352.936 136.727V136.118C353.084 136.198 353.242 136.27 353.412 136.333C353.585 136.397 353.761 136.45 353.938 136.492C354.12 136.535 354.3 136.568 354.478 136.594C354.656 136.615 354.827 136.625 354.992 136.625C355.415 136.625 355.764 136.587 356.04 136.511C356.319 136.435 356.539 136.336 356.7 136.213C356.865 136.086 356.979 135.94 357.042 135.775C357.106 135.61 357.138 135.438 357.138 135.261C357.138 135.003 357.087 134.787 356.985 134.613C356.888 134.44 356.746 134.3 356.56 134.194C356.378 134.089 356.154 134.014 355.887 133.972C355.625 133.93 355.331 133.909 355.005 133.909H354.116V133.375H354.922C355.557 133.375 356.029 133.272 356.338 133.064C356.651 132.857 356.808 132.531 356.808 132.087C356.808 131.909 356.774 131.746 356.706 131.598C356.638 131.45 356.535 131.323 356.395 131.217C356.255 131.107 356.078 131.023 355.862 130.963C355.646 130.904 355.39 130.875 355.094 130.875C354.738 130.875 354.383 130.921 354.027 131.014C353.676 131.107 353.354 131.222 353.062 131.357V130.786C353.185 130.735 353.325 130.684 353.481 130.633C353.638 130.578 353.805 130.53 353.983 130.487C354.165 130.445 354.355 130.411 354.554 130.386C354.753 130.356 354.958 130.341 355.17 130.341C355.58 130.341 355.927 130.39 356.211 130.487C356.499 130.58 356.731 130.705 356.909 130.862C357.091 131.018 357.222 131.198 357.303 131.401C357.383 131.6 357.423 131.803 357.423 132.011C357.423 132.43 357.305 132.777 357.068 133.052C356.835 133.327 356.503 133.502 356.071 133.579V133.604C356.338 133.617 356.575 133.667 356.782 133.756C356.99 133.841 357.165 133.953 357.309 134.093C357.453 134.232 357.561 134.397 357.633 134.588C357.709 134.774 357.747 134.975 357.747 135.191Z" fill="black"/>
<path d="M363.866 137V131.566C363.832 131.613 363.799 131.66 363.765 131.706C363.735 131.753 363.71 131.789 363.688 131.814L359.785 137H359.372V130.5H359.956V135.883C359.981 135.836 360.007 135.792 360.032 135.75C360.058 135.707 360.085 135.669 360.115 135.635L363.987 130.5H364.457V137H363.866Z" fill="black"/>
<path d="M370.95 137V133.896H367.116V137H366.532V130.5H367.116V133.363H370.95V130.5H371.534V137H370.95Z" fill="black"/>
<path d="M377.501 137V135.699H377.476C377.268 136.143 376.966 136.499 376.568 136.765C376.174 137.028 375.736 137.159 375.254 137.159C374.636 137.159 374.147 136.985 373.788 136.638C373.428 136.291 373.248 135.853 373.248 135.324C373.248 134.19 373.999 133.505 375.501 133.268L377.501 132.969C377.501 131.573 376.976 130.875 375.927 130.875C375.212 130.875 374.515 131.162 373.838 131.738V131.033C374.08 130.843 374.405 130.68 374.816 130.544C375.231 130.409 375.62 130.341 375.984 130.341C376.653 130.341 377.169 130.549 377.533 130.963C377.901 131.378 378.085 131.981 378.085 132.772V137H377.501ZM375.711 133.763C375.03 133.86 374.551 134.019 374.276 134.239C374.001 134.455 373.864 134.808 373.864 135.299C373.864 135.684 373.991 136.001 374.245 136.251C374.503 136.501 374.86 136.625 375.317 136.625C375.944 136.625 376.464 136.395 376.879 135.934C377.294 135.468 377.501 134.869 377.501 134.137V133.502L375.711 133.763Z" fill="black"/>
<path d="M302.173 155V152.169C301.763 152.389 301.371 152.558 300.999 152.677C300.627 152.795 300.248 152.854 299.863 152.854C299.583 152.854 299.325 152.814 299.088 152.734C298.851 152.649 298.644 152.518 298.466 152.34C298.293 152.163 298.155 151.932 298.054 151.648C297.956 151.365 297.908 151.022 297.908 150.62V148.5H298.498V150.569C298.498 150.823 298.519 151.058 298.562 151.274C298.608 151.486 298.684 151.67 298.79 151.826C298.9 151.979 299.046 152.099 299.228 152.188C299.414 152.277 299.647 152.321 299.926 152.321C300.337 152.321 300.728 152.26 301.101 152.137C301.473 152.014 301.831 151.856 302.173 151.661V148.5H302.757V155H302.173Z" fill="black"/>
<path d="M304.985 151.775C304.985 152.668 305.191 153.367 305.601 153.87C306.016 154.374 306.583 154.625 307.302 154.625C308.03 154.625 308.741 154.357 309.435 153.819V154.441C308.762 154.92 308.011 155.159 307.182 155.159C306.344 155.159 305.667 154.858 305.15 154.257C304.634 153.656 304.376 152.808 304.376 151.712C304.376 150.764 304.645 149.966 305.182 149.319C305.724 148.667 306.426 148.341 307.29 148.341C308.098 148.341 308.718 148.625 309.149 149.192C309.581 149.759 309.797 150.533 309.797 151.515V151.775H304.985ZM309.188 151.242C309.162 150.493 308.982 149.911 308.648 149.497C308.314 149.082 307.852 148.875 307.264 148.875C306.655 148.875 306.149 149.08 305.747 149.49C305.349 149.896 305.104 150.48 305.011 151.242H309.188ZM308.261 147.459C308.146 147.459 308.043 147.419 307.95 147.338C307.857 147.254 307.81 147.142 307.81 147.002C307.81 146.871 307.854 146.765 307.943 146.685C308.036 146.604 308.138 146.564 308.248 146.564C308.371 146.564 308.481 146.606 308.578 146.691C308.68 146.771 308.73 146.875 308.73 147.002C308.73 147.133 308.684 147.243 308.591 147.332C308.502 147.417 308.392 147.459 308.261 147.459ZM306.147 147.459C306.028 147.459 305.923 147.419 305.83 147.338C305.736 147.254 305.69 147.142 305.69 147.002C305.69 146.871 305.736 146.765 305.83 146.685C305.923 146.604 306.024 146.564 306.134 146.564C306.257 146.564 306.367 146.606 306.464 146.691C306.562 146.771 306.61 146.875 306.61 147.002C306.61 147.133 306.566 147.243 306.477 147.332C306.388 147.417 306.278 147.459 306.147 147.459Z" fill="black"/>
<path d="M312.019 153.845H311.993V157.99H311.409V148.5H311.993V149.839H312.019C312.251 149.361 312.583 148.993 313.015 148.735C313.451 148.472 313.929 148.341 314.45 148.341C315.275 148.341 315.918 148.627 316.379 149.198C316.845 149.765 317.078 150.538 317.078 151.515C317.078 152.603 316.811 153.483 316.278 154.156C315.749 154.824 315.049 155.159 314.177 155.159C313.203 155.159 312.484 154.721 312.019 153.845ZM311.993 151.426V152.245C311.993 152.897 312.198 153.458 312.609 153.927C313.019 154.393 313.559 154.625 314.228 154.625C314.892 154.625 315.431 154.342 315.846 153.775C316.261 153.204 316.468 152.455 316.468 151.528C316.468 150.715 316.278 150.07 315.897 149.592C315.516 149.114 315.008 148.875 314.374 148.875C313.616 148.875 313.03 149.128 312.615 149.636C312.201 150.144 311.993 150.741 311.993 151.426Z" fill="black"/>
<path d="M323.114 155V151.896H319.28V155H318.696V148.5H319.28V151.363H323.114V148.5H323.698V155H323.114Z" fill="black"/>
<path d="M331.658 155V148.5H332.242V155H331.658ZM330.236 153.051C330.236 153.381 330.179 153.669 330.065 153.915C329.951 154.16 329.8 154.363 329.614 154.524C329.432 154.685 329.223 154.805 328.986 154.886C328.753 154.962 328.516 155 328.275 155H325.78V148.5H326.364V151.166H328.224C328.533 151.166 328.812 151.208 329.062 151.293C329.312 151.378 329.523 151.502 329.697 151.667C329.87 151.828 330.004 152.025 330.097 152.258C330.19 152.491 330.236 152.755 330.236 153.051ZM329.627 153.051C329.627 152.861 329.595 152.683 329.532 152.518C329.472 152.353 329.379 152.211 329.252 152.093C329.125 151.97 328.967 151.875 328.776 151.807C328.586 151.735 328.362 151.699 328.104 151.699H326.364V154.467H328.116C328.391 154.467 328.624 154.431 328.814 154.359C329.005 154.283 329.159 154.181 329.278 154.054C329.401 153.923 329.489 153.773 329.544 153.604C329.599 153.43 329.627 153.246 329.627 153.051Z" fill="black"/>
<path d="M338.818 155V149.566C338.785 149.613 338.751 149.66 338.717 149.706C338.687 149.753 338.662 149.789 338.641 149.814L334.737 155H334.324V148.5H334.908V153.883C334.934 153.836 334.959 153.792 334.984 153.75C335.01 153.707 335.037 153.669 335.067 153.635L338.939 148.5H339.409V155H338.818ZM336.825 146.964C337.071 146.964 337.291 146.928 337.485 146.856C337.684 146.784 337.854 146.687 337.993 146.564C338.137 146.441 338.249 146.299 338.33 146.139C338.414 145.978 338.467 145.811 338.488 145.637H339.11C339.068 145.866 338.988 146.09 338.869 146.31C338.755 146.526 338.603 146.718 338.412 146.888C338.222 147.057 337.993 147.192 337.727 147.294C337.46 147.396 337.157 147.446 336.819 147.446C336.48 147.446 336.184 147.396 335.93 147.294C335.676 147.192 335.463 147.057 335.289 146.888C335.116 146.718 334.976 146.526 334.87 146.31C334.769 146.09 334.697 145.866 334.654 145.637H335.276C335.298 145.811 335.344 145.978 335.416 146.139C335.488 146.299 335.587 146.441 335.714 146.564C335.841 146.687 335.996 146.784 336.178 146.856C336.36 146.928 336.571 146.964 336.812 146.964H336.825Z" fill="black"/>
<path d="M350.657 155V149.382L350.485 149.839C350.439 149.966 350.388 150.097 350.333 150.233C350.282 150.368 350.238 150.485 350.2 150.582L348.441 155H347.965L346.067 150.582C346.025 150.493 345.979 150.381 345.928 150.246C345.877 150.11 345.828 149.979 345.782 149.852C345.727 149.704 345.67 149.547 345.61 149.382V155H345.052V148.5H345.75L347.73 153C347.777 153.102 347.826 153.223 347.876 153.362C347.931 153.498 347.982 153.629 348.029 153.756C348.084 153.904 348.139 154.054 348.194 154.207C348.253 154.058 348.312 153.912 348.372 153.769C348.418 153.646 348.469 153.517 348.524 153.381C348.579 153.246 348.625 153.127 348.664 153.026L350.511 148.5H351.228V155H350.657Z" fill="black"/>
<path d="M353.443 151.775C353.443 152.668 353.649 153.367 354.059 153.87C354.474 154.374 355.041 154.625 355.76 154.625C356.488 154.625 357.199 154.357 357.893 153.819V154.441C357.22 154.92 356.469 155.159 355.64 155.159C354.802 155.159 354.125 154.858 353.608 154.257C353.092 153.656 352.834 152.808 352.834 151.712C352.834 150.764 353.103 149.966 353.64 149.319C354.182 148.667 354.884 148.341 355.748 148.341C356.556 148.341 357.176 148.625 357.607 149.192C358.039 149.759 358.255 150.533 358.255 151.515V151.775H353.443ZM357.646 151.242C357.62 150.493 357.44 149.911 357.106 149.497C356.772 149.082 356.31 148.875 355.722 148.875C355.113 148.875 354.607 149.08 354.205 149.49C353.807 149.896 353.562 150.48 353.469 151.242H357.646Z" fill="black"/>
<path d="M361.53 149.033V155H360.946V149.033H358.998V148.5H363.479V149.033H361.53Z" fill="black"/>
<path d="M368.551 155V153.699H368.525C368.318 154.143 368.015 154.499 367.618 154.765C367.224 155.028 366.786 155.159 366.304 155.159C365.686 155.159 365.197 154.985 364.837 154.638C364.478 154.291 364.298 153.853 364.298 153.324C364.298 152.19 365.049 151.505 366.551 151.268L368.551 150.969C368.551 149.573 368.026 148.875 366.977 148.875C366.261 148.875 365.565 149.162 364.888 149.738V149.033C365.129 148.843 365.455 148.68 365.866 148.544C366.28 148.409 366.67 148.341 367.034 148.341C367.702 148.341 368.219 148.549 368.583 148.963C368.951 149.378 369.135 149.981 369.135 150.772V155H368.551ZM366.761 151.763C366.079 151.86 365.601 152.019 365.326 152.239C365.051 152.455 364.914 152.808 364.914 153.299C364.914 153.684 365.041 154.001 365.294 154.251C365.553 154.501 365.91 154.625 366.367 154.625C366.993 154.625 367.514 154.395 367.929 153.934C368.343 153.468 368.551 152.869 368.551 152.137V151.502L366.761 151.763Z" fill="black"/>
<path d="M374.937 155V149.033H373.039C372.967 149.998 372.871 150.857 372.753 151.61C372.639 152.359 372.486 152.992 372.296 153.508C372.11 154.025 371.879 154.418 371.604 154.689C371.329 154.956 370.997 155.089 370.607 155.089C370.544 155.089 370.478 155.083 370.411 155.07C370.347 155.061 370.292 155.051 370.246 155.038V154.518C370.279 154.53 370.334 154.543 370.411 154.556C370.487 154.564 370.548 154.568 370.595 154.568C370.878 154.568 371.126 154.437 371.337 154.175C371.549 153.908 371.731 153.519 371.883 153.007C372.036 152.491 372.163 151.856 372.264 151.103C372.37 150.345 372.455 149.478 372.518 148.5H375.521V155H374.937Z" fill="black"/>
<path d="M381.449 155V149.033H379.551C379.479 149.998 379.384 150.857 379.266 151.61C379.151 152.359 378.999 152.992 378.809 153.508C378.622 154.025 378.392 154.418 378.117 154.689C377.842 154.956 377.509 155.089 377.12 155.089C377.057 155.089 376.991 155.083 376.923 155.07C376.86 155.061 376.805 155.051 376.758 155.038V154.518C376.792 154.53 376.847 154.543 376.923 154.556C377 154.564 377.061 154.568 377.107 154.568C377.391 154.568 377.639 154.437 377.85 154.175C378.062 153.908 378.244 153.519 378.396 153.007C378.548 152.491 378.675 151.856 378.777 151.103C378.883 150.345 378.967 149.478 379.031 148.5H382.033V155H381.449Z" fill="black"/>
<path d="M303.005 174.714V173H297.819V174.714H297.286V172.467H297.857C298.14 172.056 298.39 171.614 298.606 171.14C298.826 170.666 299.01 170.173 299.158 169.661C299.306 169.149 299.421 168.626 299.501 168.093C299.581 167.56 299.628 167.029 299.641 166.5H302.535V172.467H303.538V174.714H303.005ZM301.951 167.033H300.174C300.14 167.486 300.083 167.947 300.002 168.417C299.922 168.887 299.812 169.354 299.672 169.82C299.537 170.285 299.372 170.742 299.177 171.191C298.987 171.635 298.765 172.061 298.511 172.467H301.951V167.033Z" fill="black"/>
<path d="M305.011 169.775C305.011 170.668 305.216 171.367 305.626 171.87C306.041 172.374 306.608 172.625 307.328 172.625C308.056 172.625 308.766 172.357 309.46 171.819V172.441C308.788 172.92 308.036 173.159 307.207 173.159C306.369 173.159 305.692 172.858 305.176 172.257C304.66 171.656 304.401 170.808 304.401 169.712C304.401 168.764 304.67 167.966 305.208 167.319C305.749 166.667 306.452 166.341 307.315 166.341C308.123 166.341 308.743 166.625 309.175 167.192C309.606 167.759 309.822 168.533 309.822 169.515V169.775H305.011ZM309.213 169.242C309.188 168.493 309.008 167.911 308.673 167.497C308.339 167.082 307.878 166.875 307.29 166.875C306.68 166.875 306.174 167.08 305.772 167.49C305.375 167.896 305.129 168.48 305.036 169.242H309.213Z" fill="black"/>
<path d="M312.044 171.845H312.019V175.99H311.435V166.5H312.019V167.839H312.044C312.277 167.361 312.609 166.993 313.041 166.735C313.476 166.472 313.955 166.341 314.475 166.341C315.3 166.341 315.944 166.627 316.405 167.198C316.87 167.765 317.103 168.538 317.103 169.515C317.103 170.603 316.836 171.483 316.303 172.156C315.774 172.824 315.074 173.159 314.202 173.159C313.229 173.159 312.509 172.721 312.044 171.845ZM312.019 169.426V170.245C312.019 170.897 312.224 171.458 312.634 171.927C313.045 172.393 313.584 172.625 314.253 172.625C314.917 172.625 315.457 172.342 315.872 171.775C316.286 171.204 316.494 170.455 316.494 169.528C316.494 168.715 316.303 168.07 315.922 167.592C315.542 167.114 315.034 166.875 314.399 166.875C313.641 166.875 313.055 167.128 312.641 167.636C312.226 168.144 312.019 168.741 312.019 169.426Z" fill="black"/>
<path d="M318.861 169.775C318.861 170.668 319.067 171.367 319.477 171.87C319.892 172.374 320.459 172.625 321.178 172.625C321.906 172.625 322.617 172.357 323.311 171.819V172.441C322.638 172.92 321.887 173.159 321.058 173.159C320.22 173.159 319.543 172.858 319.026 172.257C318.51 171.656 318.252 170.808 318.252 169.712C318.252 168.764 318.521 167.966 319.058 167.319C319.6 166.667 320.302 166.341 321.166 166.341C321.974 166.341 322.594 166.625 323.025 167.192C323.457 167.759 323.673 168.533 323.673 169.515V169.775H318.861ZM323.063 169.242C323.038 168.493 322.858 167.911 322.524 167.497C322.19 167.082 321.728 166.875 321.14 166.875C320.531 166.875 320.025 167.08 319.623 167.49C319.225 167.896 318.98 168.48 318.887 169.242H323.063Z" fill="black"/>
<path d="M329.887 171.14C329.887 171.415 329.839 171.667 329.741 171.896C329.648 172.12 329.515 172.314 329.341 172.479C329.168 172.645 328.96 172.774 328.719 172.867C328.482 172.956 328.222 173 327.938 173H325.285V166.5H327.754C328.08 166.5 328.36 166.54 328.592 166.621C328.829 166.701 329.024 166.811 329.176 166.951C329.329 167.09 329.441 167.255 329.513 167.446C329.589 167.636 329.627 167.841 329.627 168.062C329.627 168.26 329.597 168.447 329.538 168.62C329.483 168.789 329.403 168.944 329.297 169.083C329.195 169.219 329.068 169.333 328.916 169.426C328.768 169.519 328.601 169.585 328.415 169.623C328.656 169.648 328.867 169.706 329.049 169.794C329.236 169.879 329.39 169.989 329.513 170.125C329.635 170.256 329.729 170.408 329.792 170.582C329.855 170.755 329.887 170.941 329.887 171.14ZM329.018 168.15C329.018 168.002 328.994 167.861 328.948 167.725C328.905 167.59 328.831 167.471 328.726 167.37C328.62 167.268 328.482 167.188 328.313 167.128C328.144 167.065 327.932 167.033 327.678 167.033H325.869V169.388H327.52C327.807 169.388 328.046 169.354 328.237 169.287C328.431 169.215 328.586 169.122 328.7 169.007C328.814 168.889 328.895 168.756 328.941 168.607C328.992 168.459 329.018 168.307 329.018 168.15ZM329.278 171.191C329.278 171.017 329.248 170.854 329.189 170.702C329.134 170.546 329.041 170.41 328.91 170.296C328.783 170.182 328.611 170.091 328.396 170.023C328.184 169.955 327.922 169.921 327.608 169.921H325.869V172.467H327.818C328.059 172.467 328.271 172.437 328.453 172.378C328.635 172.314 328.787 172.228 328.91 172.118C329.032 172.003 329.123 171.868 329.183 171.711C329.246 171.555 329.278 171.381 329.278 171.191Z" fill="black"/>
<path d="M334.127 173.159C333.18 173.159 332.428 172.848 331.874 172.226C331.324 171.599 331.049 170.787 331.049 169.788C331.049 168.709 331.337 167.865 331.912 167.255C332.492 166.646 333.254 166.341 334.197 166.341C335.124 166.341 335.856 166.644 336.394 167.249C336.931 167.854 337.2 168.692 337.2 169.763C337.2 170.774 336.925 171.593 336.375 172.219C335.829 172.846 335.08 173.159 334.127 173.159ZM334.172 166.875C333.406 166.875 332.794 167.133 332.337 167.649C331.885 168.165 331.658 168.882 331.658 169.801C331.658 170.651 331.88 171.335 332.325 171.851C332.769 172.367 333.376 172.625 334.146 172.625C334.929 172.625 335.532 172.372 335.956 171.864C336.379 171.356 336.59 170.651 336.59 169.75C336.59 168.823 336.379 168.112 335.956 167.617C335.537 167.122 334.942 166.875 334.172 166.875Z" fill="black"/>
<path d="M301.704 191L298.65 187.813H298.625V191H298.041V184.5H298.625V187.604H298.65L301.666 184.5H302.421L299.272 187.674L302.522 191H301.704Z" fill="black"/>
<path d="M307.588 191V189.699H307.562C307.355 190.143 307.053 190.499 306.655 190.765C306.261 191.028 305.823 191.159 305.341 191.159C304.723 191.159 304.234 190.985 303.875 190.638C303.515 190.291 303.335 189.853 303.335 189.324C303.335 188.19 304.086 187.505 305.588 187.268L307.588 186.969C307.588 185.573 307.063 184.875 306.014 184.875C305.299 184.875 304.602 185.162 303.925 185.738V185.033C304.167 184.843 304.492 184.68 304.903 184.544C305.318 184.409 305.707 184.341 306.071 184.341C306.739 184.341 307.256 184.549 307.62 184.963C307.988 185.378 308.172 185.981 308.172 186.772V191H307.588ZM305.798 187.763C305.117 187.86 304.638 188.019 304.363 188.239C304.088 188.455 303.951 188.808 303.951 189.299C303.951 189.684 304.078 190.001 304.332 190.251C304.59 190.501 304.947 190.625 305.404 190.625C306.031 190.625 306.551 190.395 306.966 189.934C307.381 189.468 307.588 188.869 307.588 188.137V187.502L305.798 187.763Z" fill="black"/>
<path d="M315.732 191V185.382L315.561 185.839C315.514 185.966 315.463 186.097 315.408 186.233C315.357 186.368 315.313 186.485 315.275 186.582L313.517 191H313.041L311.143 186.582C311.1 186.493 311.054 186.381 311.003 186.246C310.952 186.11 310.903 185.979 310.857 185.852C310.802 185.704 310.745 185.547 310.686 185.382V191H310.127V184.5H310.825L312.806 189C312.852 189.102 312.901 189.223 312.952 189.362C313.007 189.498 313.057 189.629 313.104 189.756C313.159 189.904 313.214 190.054 313.269 190.207C313.328 190.058 313.388 189.912 313.447 189.769C313.493 189.646 313.544 189.517 313.599 189.381C313.654 189.246 313.701 189.127 313.739 189.026L315.586 184.5H316.303V191H315.732Z" fill="black"/>
<path d="M322.797 191V187.896H318.963V191H318.379V184.5H318.963V187.363H322.797V184.5H323.381V191H322.797Z" fill="black"/>
<path d="M329.957 191V185.566C329.923 185.613 329.889 185.66 329.855 185.706C329.826 185.753 329.8 185.789 329.779 185.814L325.875 191H325.463V184.5H326.047V189.883C326.072 189.836 326.098 189.792 326.123 189.75C326.148 189.707 326.176 189.669 326.206 189.635L330.078 184.5H330.547V191H329.957Z" fill="black"/>
<path d="M301.704 209L298.65 205.813H298.625V209H298.041V202.5H298.625V205.604H298.65L301.666 202.5H302.421L299.272 205.674L302.522 209H301.704Z" fill="black"/>
<path d="M305.918 209.159C304.971 209.159 304.219 208.848 303.665 208.226C303.115 207.599 302.84 206.787 302.84 205.788C302.84 204.709 303.128 203.865 303.703 203.255C304.283 202.646 305.045 202.341 305.988 202.341C306.915 202.341 307.647 202.644 308.185 203.249C308.722 203.854 308.991 204.692 308.991 205.763C308.991 206.774 308.716 207.593 308.166 208.219C307.62 208.846 306.871 209.159 305.918 209.159ZM305.963 202.875C305.197 202.875 304.585 203.133 304.128 203.649C303.676 204.165 303.449 204.882 303.449 205.801C303.449 206.651 303.671 207.335 304.116 207.851C304.56 208.367 305.167 208.625 305.938 208.625C306.72 208.625 307.323 208.372 307.747 207.864C308.17 207.356 308.381 206.651 308.381 205.75C308.381 204.823 308.17 204.112 307.747 203.617C307.328 203.122 306.733 202.875 305.963 202.875Z" fill="black"/>
<path d="M314.818 208.714C314.335 209.011 313.76 209.159 313.091 209.159C312.207 209.159 311.494 208.856 310.952 208.251C310.41 207.642 310.14 206.846 310.14 205.864C310.14 204.832 310.444 203.987 311.054 203.332C311.663 202.671 312.446 202.341 313.402 202.341C313.897 202.341 314.378 202.443 314.843 202.646V203.306C314.378 203.018 313.868 202.875 313.313 202.875C312.552 202.875 311.934 203.15 311.46 203.7C310.986 204.246 310.749 204.954 310.749 205.826C310.749 206.668 310.965 207.345 311.396 207.857C311.832 208.369 312.406 208.625 313.117 208.625C313.768 208.625 314.335 208.452 314.818 208.105V208.714Z" fill="black"/>
<path d="M318.049 203.033V209H317.465V203.033H315.516V202.5H319.998V203.033H318.049Z" fill="black"/>
<path d="M325.679 209V203.566C325.645 203.613 325.611 203.66 325.577 203.706C325.548 203.753 325.522 203.789 325.501 203.814L321.597 209H321.185V202.5H321.769V207.883C321.794 207.836 321.819 207.792 321.845 207.75C321.87 207.707 321.898 207.669 321.927 207.635L325.799 202.5H326.269V209H325.679Z" fill="black"/>
<path d="M303.513 229.368V227H298.041V220.5H298.625V226.467H302.459V220.5H303.043V226.467H304.046V229.368H303.513Z" fill="black"/>
<path d="M309.981 225.14C309.981 225.415 309.932 225.667 309.835 225.896C309.742 226.12 309.609 226.314 309.435 226.479C309.262 226.645 309.054 226.774 308.813 226.867C308.576 226.956 308.316 227 308.032 227H305.379V220.5H307.848C308.174 220.5 308.453 220.54 308.686 220.621C308.923 220.701 309.118 220.811 309.27 220.951C309.422 221.09 309.535 221.255 309.606 221.446C309.683 221.636 309.721 221.841 309.721 222.062C309.721 222.26 309.691 222.447 309.632 222.62C309.577 222.789 309.496 222.944 309.391 223.083C309.289 223.219 309.162 223.333 309.01 223.426C308.862 223.519 308.694 223.585 308.508 223.623C308.75 223.648 308.961 223.706 309.143 223.794C309.329 223.879 309.484 223.989 309.606 224.125C309.729 224.256 309.822 224.408 309.886 224.582C309.949 224.755 309.981 224.941 309.981 225.14ZM309.111 222.15C309.111 222.002 309.088 221.861 309.042 221.725C308.999 221.59 308.925 221.471 308.819 221.37C308.714 221.268 308.576 221.188 308.407 221.128C308.237 221.065 308.026 221.033 307.772 221.033H305.963V223.388H307.613C307.901 223.388 308.14 223.354 308.331 223.287C308.525 223.215 308.68 223.122 308.794 223.007C308.908 222.889 308.989 222.756 309.035 222.607C309.086 222.459 309.111 222.307 309.111 222.15ZM309.372 225.191C309.372 225.017 309.342 224.854 309.283 224.702C309.228 224.546 309.135 224.41 309.003 224.296C308.876 224.182 308.705 224.091 308.489 224.023C308.278 223.955 308.015 223.921 307.702 223.921H305.963V226.467H307.912C308.153 226.467 308.364 226.437 308.546 226.378C308.728 226.314 308.881 226.228 309.003 226.118C309.126 226.003 309.217 225.868 309.276 225.711C309.34 225.555 309.372 225.381 309.372 225.191Z" fill="black"/>
<path d="M311.752 223.775C311.752 224.668 311.957 225.367 312.368 225.87C312.782 226.374 313.349 226.625 314.069 226.625C314.797 226.625 315.508 226.357 316.202 225.819V226.441C315.529 226.92 314.778 227.159 313.948 227.159C313.11 227.159 312.433 226.858 311.917 226.257C311.401 225.656 311.143 224.808 311.143 223.712C311.143 222.764 311.411 221.966 311.949 221.319C312.49 220.667 313.193 220.341 314.056 220.341C314.864 220.341 315.484 220.625 315.916 221.192C316.348 221.759 316.563 222.533 316.563 223.515V223.775H311.752ZM315.954 223.242C315.929 222.493 315.749 221.911 315.415 221.497C315.08 221.082 314.619 220.875 314.031 220.875C313.421 220.875 312.916 221.08 312.514 221.49C312.116 221.896 311.87 222.48 311.777 223.242H315.954Z" fill="black"/>
<path d="M319.839 221.033V227H319.255V221.033H317.306V220.5H321.788V221.033H319.839Z" fill="black"/>
<path d="M327.393 227V223.896H323.559V227H322.975V220.5H323.559V223.363H327.393V220.5H327.977V227H327.393Z" fill="black"/>
<path d="M335.937 227V220.5H336.521V227H335.937ZM334.515 225.051C334.515 225.381 334.458 225.669 334.343 225.915C334.229 226.16 334.079 226.363 333.893 226.524C333.711 226.685 333.501 226.805 333.264 226.886C333.031 226.962 332.794 227 332.553 227H330.059V220.5H330.643V223.166H332.502C332.811 223.166 333.091 223.208 333.34 223.293C333.59 223.378 333.802 223.502 333.975 223.667C334.149 223.828 334.282 224.025 334.375 224.258C334.468 224.491 334.515 224.755 334.515 225.051ZM333.905 225.051C333.905 224.861 333.874 224.683 333.81 224.518C333.751 224.353 333.658 224.211 333.531 224.093C333.404 223.97 333.245 223.875 333.055 223.807C332.864 223.735 332.64 223.699 332.382 223.699H330.643V226.467H332.395C332.67 226.467 332.902 226.431 333.093 226.359C333.283 226.283 333.438 226.181 333.556 226.054C333.679 225.923 333.768 225.773 333.823 225.604C333.878 225.43 333.905 225.246 333.905 225.051Z" fill="black"/>
<path d="M338.742 223.775C338.742 224.668 338.947 225.367 339.358 225.87C339.773 226.374 340.34 226.625 341.059 226.625C341.787 226.625 342.498 226.357 343.192 225.819V226.441C342.519 226.92 341.768 227.159 340.938 227.159C340.101 227.159 339.424 226.858 338.907 226.257C338.391 225.656 338.133 224.808 338.133 223.712C338.133 222.764 338.402 221.966 338.939 221.319C339.481 220.667 340.183 220.341 341.046 220.341C341.855 220.341 342.475 220.625 342.906 221.192C343.338 221.759 343.554 222.533 343.554 223.515V223.775H338.742ZM342.944 223.242C342.919 222.493 342.739 221.911 342.405 221.497C342.07 221.082 341.609 220.875 341.021 220.875C340.412 220.875 339.906 221.08 339.504 221.49C339.106 221.896 338.861 222.48 338.768 223.242H342.944Z" fill="black"/>
<path d="M354.338 227V221.382L354.167 221.839C354.12 221.966 354.07 222.097 354.015 222.233C353.964 222.368 353.919 222.485 353.881 222.582L352.123 227H351.647L349.749 222.582C349.707 222.493 349.66 222.381 349.609 222.246C349.559 222.11 349.51 221.979 349.463 221.852C349.408 221.704 349.351 221.547 349.292 221.382V227H348.733V220.5H349.432L351.412 225C351.459 225.102 351.507 225.223 351.558 225.362C351.613 225.498 351.664 225.629 351.71 225.756C351.765 225.904 351.82 226.054 351.875 226.207C351.935 226.058 351.994 225.912 352.053 225.769C352.1 225.646 352.151 225.517 352.206 225.381C352.261 225.246 352.307 225.127 352.345 225.026L354.192 220.5H354.91V227H354.338Z" fill="black"/>
<path d="M357.125 223.775C357.125 224.668 357.33 225.367 357.741 225.87C358.155 226.374 358.722 226.625 359.442 226.625C360.17 226.625 360.881 226.357 361.575 225.819V226.441C360.902 226.92 360.151 227.159 359.321 227.159C358.483 227.159 357.806 226.858 357.29 226.257C356.774 225.656 356.516 224.808 356.516 223.712C356.516 222.764 356.784 221.966 357.322 221.319C357.863 220.667 358.566 220.341 359.429 220.341C360.237 220.341 360.857 220.625 361.289 221.192C361.721 221.759 361.937 222.533 361.937 223.515V223.775H357.125ZM361.327 223.242C361.302 222.493 361.122 221.911 360.788 221.497C360.453 221.082 359.992 220.875 359.404 220.875C358.794 220.875 358.289 221.08 357.887 221.49C357.489 221.896 357.243 222.48 357.15 223.242H361.327Z" fill="black"/>
<path d="M365.212 221.033V227H364.628V221.033H362.679V220.5H367.161V221.033H365.212Z" fill="black"/>
<path d="M372.232 227V225.699H372.207C372 226.143 371.697 226.499 371.299 226.765C370.906 227.028 370.468 227.159 369.985 227.159C369.368 227.159 368.879 226.985 368.519 226.638C368.159 226.291 367.979 225.853 367.979 225.324C367.979 224.19 368.731 223.505 370.233 223.268L372.232 222.969C372.232 221.573 371.708 220.875 370.658 220.875C369.943 220.875 369.247 221.162 368.57 221.738V221.033C368.811 220.843 369.137 220.68 369.547 220.544C369.962 220.409 370.351 220.341 370.715 220.341C371.384 220.341 371.9 220.549 372.264 220.963C372.632 221.378 372.816 221.981 372.816 222.772V227H372.232ZM370.442 223.763C369.761 223.86 369.283 224.019 369.008 224.239C368.733 224.455 368.595 224.808 368.595 225.299C368.595 225.684 368.722 226.001 368.976 226.251C369.234 226.501 369.592 226.625 370.049 226.625C370.675 226.625 371.196 226.395 371.61 225.934C372.025 225.468 372.232 224.869 372.232 224.137V223.502L370.442 223.763Z" fill="black"/>
<path d="M378.618 227V221.033H376.72C376.648 221.998 376.553 222.857 376.435 223.61C376.32 224.359 376.168 224.992 375.978 225.508C375.791 226.025 375.561 226.418 375.286 226.689C375.011 226.956 374.678 227.089 374.289 227.089C374.226 227.089 374.16 227.083 374.092 227.07C374.029 227.061 373.974 227.051 373.927 227.038V226.518C373.961 226.53 374.016 226.543 374.092 226.556C374.168 226.564 374.23 226.568 374.276 226.568C374.56 226.568 374.807 226.437 375.019 226.175C375.231 225.908 375.413 225.519 375.565 225.007C375.717 224.491 375.844 223.856 375.946 223.103C376.052 222.345 376.136 221.478 376.2 220.5H379.202V227H378.618Z" fill="black"/>
<path d="M385.131 227V221.033H383.233C383.161 221.998 383.066 222.857 382.947 223.61C382.833 224.359 382.681 224.992 382.49 225.508C382.304 226.025 382.073 226.418 381.798 226.689C381.523 226.956 381.191 227.089 380.802 227.089C380.738 227.089 380.673 227.083 380.605 227.07C380.542 227.061 380.486 227.051 380.44 227.038V226.518C380.474 226.53 380.529 226.543 380.605 226.556C380.681 226.564 380.743 226.568 380.789 226.568C381.073 226.568 381.32 226.437 381.532 226.175C381.743 225.908 381.925 225.519 382.078 225.007C382.23 224.491 382.357 223.856 382.458 223.103C382.564 222.345 382.649 221.478 382.712 220.5H385.715V227H385.131Z" fill="black"/>
<path d="M393.675 227V220.5H394.259V227H393.675ZM392.253 225.051C392.253 225.381 392.196 225.669 392.082 225.915C391.967 226.16 391.817 226.363 391.631 226.524C391.449 226.685 391.239 226.805 391.002 226.886C390.77 226.962 390.533 227 390.292 227H387.797V220.5H388.381V223.166H390.241C390.55 223.166 390.829 223.208 391.079 223.293C391.328 223.378 391.54 223.502 391.713 223.667C391.887 223.828 392.02 224.025 392.113 224.258C392.206 224.491 392.253 224.755 392.253 225.051ZM391.644 225.051C391.644 224.861 391.612 224.683 391.548 224.518C391.489 224.353 391.396 224.211 391.269 224.093C391.142 223.97 390.983 223.875 390.793 223.807C390.603 223.735 390.378 223.699 390.12 223.699H388.381V226.467H390.133C390.408 226.467 390.641 226.431 390.831 226.359C391.021 226.283 391.176 226.181 391.294 226.054C391.417 225.923 391.506 225.773 391.561 225.604C391.616 225.43 391.644 225.246 391.644 225.051Z" fill="black"/>
<path d="M302.459 245V239.033H298.625V245H298.041V238.5H303.043V245H302.459Z" fill="black"/>
<path d="M305.734 243.845H305.709V247.99H305.125V238.5H305.709V239.839H305.734C305.967 239.361 306.299 238.993 306.731 238.735C307.167 238.472 307.645 238.341 308.166 238.341C308.991 238.341 309.634 238.627 310.095 239.198C310.561 239.765 310.793 240.538 310.793 241.515C310.793 242.603 310.527 243.483 309.994 244.156C309.465 244.824 308.764 245.159 307.893 245.159C306.919 245.159 306.2 244.721 305.734 243.845ZM305.709 241.426V242.245C305.709 242.897 305.914 243.458 306.325 243.927C306.735 244.393 307.275 244.625 307.943 244.625C308.608 244.625 309.147 244.342 309.562 243.775C309.977 243.204 310.184 242.455 310.184 241.528C310.184 240.715 309.994 240.07 309.613 239.592C309.232 239.114 308.724 238.875 308.089 238.875C307.332 238.875 306.746 239.128 306.331 239.636C305.916 240.144 305.709 240.741 305.709 241.426Z" fill="black"/>
<path d="M315.021 245.159C314.073 245.159 313.322 244.848 312.768 244.226C312.217 243.599 311.942 242.787 311.942 241.788C311.942 240.709 312.23 239.865 312.806 239.255C313.385 238.646 314.147 238.341 315.091 238.341C316.018 238.341 316.75 238.644 317.287 239.249C317.825 239.854 318.093 240.692 318.093 241.763C318.093 242.774 317.818 243.593 317.268 244.219C316.722 244.846 315.973 245.159 315.021 245.159ZM315.065 238.875C314.299 238.875 313.688 239.133 313.231 239.649C312.778 240.165 312.552 240.882 312.552 241.801C312.552 242.651 312.774 243.335 313.218 243.851C313.663 244.367 314.27 244.625 315.04 244.625C315.823 244.625 316.426 244.372 316.849 243.864C317.272 243.356 317.484 242.651 317.484 241.75C317.484 240.823 317.272 240.112 316.849 239.617C316.43 239.122 315.836 238.875 315.065 238.875Z" fill="black"/>
<path d="M323.844 245V242.169C323.434 242.389 323.042 242.558 322.67 242.677C322.298 242.795 321.919 242.854 321.534 242.854C321.254 242.854 320.996 242.814 320.759 242.734C320.522 242.649 320.315 242.518 320.137 242.34C319.964 242.163 319.826 241.932 319.725 241.648C319.627 241.365 319.579 241.022 319.579 240.62V238.5H320.169V240.569C320.169 240.823 320.19 241.058 320.232 241.274C320.279 241.486 320.355 241.67 320.461 241.826C320.571 241.979 320.717 242.099 320.899 242.188C321.085 242.277 321.318 242.321 321.597 242.321C322.008 242.321 322.399 242.26 322.771 242.137C323.144 242.014 323.501 241.856 323.844 241.661V238.5H324.428V245H323.844Z" fill="black"/>
<path d="M326.656 241.775C326.656 242.668 326.861 243.367 327.272 243.87C327.687 244.374 328.254 244.625 328.973 244.625C329.701 244.625 330.412 244.357 331.106 243.819V244.441C330.433 244.92 329.682 245.159 328.853 245.159C328.015 245.159 327.338 244.858 326.821 244.257C326.305 243.656 326.047 242.808 326.047 241.712C326.047 240.764 326.316 239.966 326.853 239.319C327.395 238.667 328.097 238.341 328.96 238.341C329.769 238.341 330.389 238.625 330.82 239.192C331.252 239.759 331.468 240.533 331.468 241.515V241.775H326.656ZM330.858 241.242C330.833 240.493 330.653 239.911 330.319 239.497C329.985 239.082 329.523 238.875 328.935 238.875C328.326 238.875 327.82 239.08 327.418 239.49C327.02 239.896 326.775 240.48 326.682 241.242H330.858Z" fill="black"/>
<path d="M333.22 241.775C333.22 242.668 333.425 243.367 333.835 243.87C334.25 244.374 334.817 244.625 335.537 244.625C336.264 244.625 336.975 244.357 337.669 243.819V244.441C336.997 244.92 336.245 245.159 335.416 245.159C334.578 245.159 333.901 244.858 333.385 244.257C332.868 243.656 332.61 242.808 332.61 241.712C332.61 240.764 332.879 239.966 333.417 239.319C333.958 238.667 334.661 238.341 335.524 238.341C336.332 238.341 336.952 238.625 337.384 239.192C337.815 239.759 338.031 240.533 338.031 241.515V241.775H333.22ZM337.422 241.242C337.396 240.493 337.217 239.911 336.882 239.497C336.548 239.082 336.087 238.875 335.499 238.875C334.889 238.875 334.383 239.08 333.981 239.49C333.584 239.896 333.338 240.48 333.245 241.242H337.422Z" fill="black"/>
<path d="M215 164C215 117.056 176.944 79 130 79V164L189.706 224.5C205.322 209.088 215 187.674 215 164Z" fill="#002540"/>
<path d="M130 164L51.0278 195.5C47.7845 187.376 45.7584 178.634 45.175 169.5L130 164Z" fill="#264858"/>
<path d="M51.0278 195.5C63.5433 226.849 94.1849 249 130 249C153.419 249 174.626 239.529 190 224.208L130 164L51.0278 195.5Z" fill="#3278CB"/>
<path d="M45 164C45 165.848 45.059 167.682 45.1751 169.5L130 164L46.1475 150C45.3927 154.555 45 159.231 45 164Z" fill="#2860A1"/>
<path d="M130 164L46.1475 150C47.1844 143.743 48.9048 137.716 51.2293 132L130 164Z" fill="#3A6B7D"/>
<path d="M130 164L61 114.35C64.6497 109.287 68.8429 104.642 73.4942 100.5L130 164Z" fill="#4D8DA1"/>
<path d="M130 164L51.2294 132C53.789 125.706 57.0812 119.787 61 114.35C61 114.35 107 147.283 130 164Z" fill="#204E83"/>
<path d="M130 164L73.1733 100.787C77.1307 97.2274 81.424 94.0338 86.0001 91.2599L130 164Z" fill="#193D66"/>
<path d="M130 164L98 85.2292C93.7594 86.9537 89.6895 89.0106 85.8225 91.3677L130 164Z" fill="#60AFC5"/>
<path d="M130 164L115.807 80.1797C113.053 80.6426 110.344 81.2378 107.688 81.9587L130 164Z" fill="#74D3EB"/>
<path d="M130 164L107.722 81.9495C104.396 82.8504 101.151 83.9481 98 85.2294L130 164Z" fill="#132D4B"/>
<path d="M130 79C125.142 79 120.38 79.4075 115.745 80.1901L130 164V79Z" fill="black"/>
<rect x="289" y="50.4857" width="18.5143" height="18" transform="rotate(90 289 50.4857)" fill="#3278CB"/>
<rect x="289" y="33" width="17.4857" height="18" transform="rotate(90 289 33)" fill="#002540"/>
<rect x="289" y="158.486" width="17.4857" height="18" transform="rotate(90 289 158.486)" fill="#193D66"/>
<rect x="289" y="141" width="17.4857" height="18" transform="rotate(90 289 141)" fill="#4D8DA1"/>
<rect x="289" y="87.5143" width="18.5143" height="18" transform="rotate(90 289 87.5143)" fill="#2860A1"/>
<rect x="289" y="69" width="18.5143" height="18" transform="rotate(90 289 69)" fill="#264858"/>
<rect x="289" y="194.486" width="18.5143" height="18" transform="rotate(90 289 194.486)" fill="#132D4B"/>
<rect x="289" y="175.971" width="18.5143" height="18" transform="rotate(90 289 175.971)" fill="#60AFC5"/>
<rect x="289" y="123.514" width="17.4857" height="18" transform="rotate(90 289 123.514)" fill="#204E83"/>
<rect x="289" y="106.029" width="17.4857" height="18" transform="rotate(90 289 106.029)" fill="#3A6B7D"/>
<rect x="289" y="231.514" width="17.4857" height="18" transform="rotate(90 289 231.514)" fill="black"/>
<rect x="289" y="213" width="18.5143" height="18" transform="rotate(90 289 213)" fill="#74D3EB"/>
</svg>
