<svg width="391" height="56" fill="none" xmlns="http://www.w3.org/2000/svg"><path d="M54.513 27.866c0 14.739-11.975 26.688-26.75 26.688s-26.75-11.95-26.75-26.688S12.99 1.178 27.763 1.178c14.775 0 26.75 11.95 26.75 26.688z" fill="#fff" stroke="#7DE3FC"/><path d="M88.934 27.866c0 14.739-11.975 26.688-26.75 26.688-14.774 0-26.75-11.95-26.75-26.688S47.41 1.178 62.184 1.178c14.775 0 26.75 11.95 26.75 26.688zm163.5 0c0 14.739-11.975 26.688-26.75 26.688s-26.75-11.95-26.75-26.688 11.975-26.688 26.75-26.688 26.75 11.95 26.75 26.688z" fill="#fff" stroke="#7DE3FC"/><path d="M123.355 27.866c0 14.739-11.975 26.688-26.75 26.688-14.774 0-26.75-11.95-26.75-26.688S81.831 1.178 96.605 1.178c14.775 0 26.75 11.95 26.75 26.688zm163.5 0c0 14.739-11.975 26.688-26.75 26.688-14.774 0-26.75-11.95-26.75-26.688s11.976-26.688 26.75-26.688c14.775 0 26.75 11.95 26.75 26.688zm-98.96 0c0 14.739-11.976 26.688-26.75 26.688-14.775 0-26.75-11.95-26.75-26.688s11.975-26.688 26.75-26.688c14.774 0 26.75 11.95 26.75 26.688z" fill="#fff" stroke="#7DE3FC"/><path d="M321.276 27.866c0 14.739-11.975 26.688-26.75 26.688-14.774 0-26.75-11.95-26.75-26.688s11.976-26.688 26.75-26.688c14.775 0 26.75 11.95 26.75 26.688z" fill="#fff" stroke="#7DE3FC"/><path d="M355.697 27.866c0 14.739-11.975 26.688-26.75 26.688-14.774 0-26.75-11.95-26.75-26.688s11.976-26.688 26.75-26.688c14.775 0 26.75 11.95 26.75 26.688z" fill="#fff" stroke="#7DE3FC"/><path d="M390.118 27.866c0 14.739-11.975 26.688-26.75 26.688-14.774 0-26.75-11.95-26.75-26.688s11.976-26.688 26.75-26.688c14.775 0 26.75 11.95 26.75 26.688z" fill="#fff" stroke="#7DE3FC"/><path d="M163.625 31.16v3.966h-.898V31.16h-6.455v-.752l6.455-9.287h.898v9.228h1.865v.81h-1.865zm-.898-7.45c0-.528.013-.948.039-1.26h-.039c-.176.325-.342.605-.498.84l-4.903 7.06h5.401v-6.64z" fill="#000"/><path d="M362.651 27.15H212.776m0 0l10.757-10.732m-10.757 10.733l10.757 10.732M27.763 27.15h81.75m0 0L98.757 37.884m10.756-10.732L98.757 16.418" stroke="#7DE3FC"/></svg>