<svg width="391" height="55" fill="none" xmlns="http://www.w3.org/2000/svg"><path d="M54.513 27.77c0 14.738-11.975 26.688-26.75 26.688S1.013 42.508 1.013 27.77c0-14.739 11.976-26.688 26.75-26.688 14.775 0 26.75 11.95 26.75 26.688z" fill="#fff" stroke="#7DE3FC"/><path d="M88.934 27.77c0 14.738-11.975 26.688-26.75 26.688-14.774 0-26.75-11.95-26.75-26.688 0-14.739 11.976-26.688 26.75-26.688 14.775 0 26.75 11.95 26.75 26.688z" fill="#fff" stroke="#7DE3FC"/><path d="M123.355 27.77c0 14.738-11.975 26.688-26.75 26.688-14.774 0-26.75-11.95-26.75-26.688 0-14.739 11.976-26.688 26.75-26.688 14.775 0 26.75 11.95 26.75 26.688z" fill="#fff" stroke="#7DE3FC"/><path d="M157.776 27.77c0 14.738-11.975 26.688-26.75 26.688-14.774 0-26.75-11.95-26.75-26.688 0-14.739 11.976-26.688 26.75-26.688 14.775 0 26.75 11.95 26.75 26.688z" fill="#fff" stroke="#7DE3FC"/><path d="M192.197 27.77c0 14.738-11.975 26.688-26.75 26.688-14.774 0-26.75-11.95-26.75-26.688 0-14.739 11.976-26.688 26.75-26.688 14.775 0 26.75 11.95 26.75 26.688z" fill="#fff" stroke="#7DE3FC"/><path d="M226.618 27.77c0 14.738-11.975 26.688-26.75 26.688-14.774 0-26.75-11.95-26.75-26.688 0-14.739 11.976-26.688 26.75-26.688 14.775 0 26.75 11.95 26.75 26.688zm129.079 0c0 14.738-11.975 26.688-26.75 26.688-14.774 0-26.75-11.95-26.75-26.688 0-14.739 11.976-26.688 26.75-26.688 14.775 0 26.75 11.95 26.75 26.688zm-64.539 0c0 14.738-11.975 26.688-26.75 26.688s-26.75-11.95-26.75-26.688c0-14.739 11.975-26.688 26.75-26.688s26.75 11.95 26.75 26.688z" fill="#fff" stroke="#7DE3FC"/><path d="M390.118 27.77c0 14.738-11.975 26.688-26.75 26.688-14.774 0-26.75-11.95-26.75-26.688 0-14.739 11.976-26.688 26.75-26.688 14.775 0 26.75 11.95 26.75 26.688z" fill="#fff" stroke="#7DE3FC"/><path d="M262.953 35.03h-.977l5.44-13.184h-7.285v-.82h8.437v.244l-5.615 13.76z" fill="#000"/><path d="M363.368 28.485h-47.329m0 0l10.757-10.732m-10.757 10.732l10.757 10.733M27.763 28.485h185.013m0 0L202.02 39.218m10.756-10.733L202.02 17.753" stroke="#7DE3FC"/></svg>