<svg width="361" height="55" fill="none" xmlns="http://www.w3.org/2000/svg"><path d="M119.171 27.515c0 14.738-11.975 26.688-26.75 26.688s-26.75-11.95-26.75-26.688c0-14.739 11.975-26.689 26.75-26.689s26.75 11.95 26.75 26.689z" fill="#fff" stroke="#7DE3FC"/><path d="M153.592 27.515c0 14.738-11.975 26.688-26.75 26.688s-26.75-11.95-26.75-26.688c0-14.739 11.975-26.689 26.75-26.689s26.75 11.95 26.75 26.689z" fill="#fff" stroke="#7DE3FC"/><path d="M188.013 27.515c0 14.738-11.975 26.688-26.75 26.688s-26.75-11.95-26.75-26.688c0-14.739 11.975-26.689 26.75-26.689s26.75 11.95 26.75 26.689z" fill="#fff" stroke="#7DE3FC"/><path d="M222.434 27.515c0 14.738-11.975 26.688-26.75 26.688-14.774 0-26.75-11.95-26.75-26.688 0-14.739 11.976-26.689 26.75-26.689 14.775 0 26.75 11.95 26.75 26.689z" fill="#fff" stroke="#7DE3FC"/><path d="M256.855 27.515c0 14.738-11.975 26.688-26.75 26.688-14.774 0-26.75-11.95-26.75-26.688 0-14.739 11.976-26.689 26.75-26.689 14.775 0 26.75 11.95 26.75 26.689z" fill="#fff" stroke="#7DE3FC"/><path d="M291.276 27.515c0 14.738-11.975 26.688-26.75 26.688-14.774 0-26.75-11.95-26.75-26.688 0-14.739 11.976-26.689 26.75-26.689 14.775 0 26.75 11.95 26.75 26.689z" fill="#fff" stroke="#7DE3FC"/><path d="M325.697 27.515c0 14.738-11.975 26.688-26.75 26.688-14.774 0-26.75-11.95-26.75-26.688 0-14.739 11.976-26.689 26.75-26.689 14.775 0 26.75 11.95 26.75 26.689z" fill="#fff" stroke="#7DE3FC"/><path d="M360.118 27.515c0 14.738-11.975 26.688-26.75 26.688-14.774 0-26.75-11.95-26.75-26.688 0-14.739 11.976-26.689 26.75-26.689 14.775 0 26.75 11.95 26.75 26.689zm-305.486 0c0 14.738-11.976 26.688-26.75 26.688-14.775 0-26.75-11.95-26.75-26.688C1.132 12.776 13.107.826 27.882.826c14.774 0 26.75 11.95 26.75 26.689z" fill="#fff" stroke="#7DE3FC"/><path d="M24.386 34.774v-.82h3.203v-12.5l-3.428 1.22v-.898l4.326-1.504v13.682h3.154v.82h-7.255z" fill="#000"/><path d="M333.368 28.23H79.513m0 0L90.27 17.498M79.513 28.23L90.27 38.962" stroke="#7DE3FC"/></svg>